<svg width="28" height="28" viewBox="0 0 28 28" fill="none" xmlns="http://www.w3.org/2000/svg">
<path d="M27.72 21.5939C27.72 24.9555 25 27.6816 21.6413 27.6918C18.6608 27.6918 15.8184 27.0862 13.2322 25.9914C5.47305 22.7079 0.0138042 15.0225 0 6.08344C0.00360109 4.40293 0.687208 2.88207 1.79034 1.78134C2.89347 0.680606 4.41613 0 6.09724 0C6.98131 0 7.82096 0.187857 8.57959 0.526359C10.7102 1.47705 12.1945 3.61369 12.1945 6.09724C12.1945 8.58079 10.7144 10.7108 8.58979 11.6633C10.0242 15.0045 12.707 17.6825 16.0512 19.111C17.0019 16.9803 19.1386 15.4961 21.6221 15.4961C24.1057 15.4961 26.2357 16.9761 27.1882 19.1008C27.5291 19.8618 27.7194 20.7057 27.7194 21.5933L27.72 21.5939Z" fill="white"/>
</svg>
