<svg width="125" height="125" viewBox="0 0 125 125" fill="none" xmlns="http://www.w3.org/2000/svg">
<circle cx="62.5" cy="62.5" r="62.5" fill="white"/>
<path d="M27.381 47.6462L59.7836 37.0977C60.1629 36.9742 60.5705 36.9669 60.9539 37.0769L97.7562 47.6272C99.6462 48.169 99.7019 50.8271 97.8361 51.4476L61.0392 63.6842C60.6034 63.8291 60.1311 63.8197 59.7015 63.6574L27.2936 51.419C25.5259 50.7515 25.5843 48.2312 27.381 47.6462Z" fill="#9CC5FF"/>
<path d="M35.9688 77.7234V58.3409C35.9688 57.6455 36.6609 57.1624 37.3136 57.4022L60.1493 65.7909C60.3564 65.8669 60.5829 65.8724 60.7935 65.8063L84.6694 58.3158C85.3136 58.1138 85.9688 58.5949 85.9688 59.27V77.7136C85.9688 78.1312 85.7092 78.5049 85.3179 78.6507L60.825 87.7755C60.5955 87.861 60.3426 87.8593 60.1143 87.7708L36.6072 78.6558C36.2224 78.5065 35.9688 78.1362 35.9688 77.7234Z" fill="#9CC5FF"/>
<path d="M90.9688 52.9082C90.9688 52.3559 91.4165 51.9082 91.9688 51.9082V51.9082C92.521 51.9082 92.9688 52.3559 92.9688 52.9082V74.9082C92.9688 76.0128 92.0733 76.9082 90.9688 76.9082V76.9082V52.9082Z" fill="#0065FA"/>
<path d="M49.0301 40.5984L57.4558 37.8555C59.3523 37.2381 61.39 37.2019 63.3072 37.7515L72.9058 40.5032C82.3562 43.2124 82.6343 56.5028 73.3056 59.6051L63.7335 62.7882C61.5548 63.5127 59.1931 63.4654 57.0452 62.6543L48.5929 59.4624C39.7546 56.1248 40.0467 43.523 49.0301 40.5984Z" fill="#9CC5FF"/>
<path d="M93.9688 78.9082C93.9688 81.1173 96 82.9995 91.9688 82.9082C87.9999 82.9995 89.9688 81.1173 89.9688 78.9082C89.9688 76.6991 90.8643 74.9082 91.9688 74.9082C93.0734 74.9082 93.9688 76.6991 93.9688 78.9082Z" fill="#0065FA"/>
</svg>
