<svg width="125" height="125" viewBox="0 0 125 125" fill="none" xmlns="http://www.w3.org/2000/svg">
<path d="M125 62.5C125 97.0178 97.0178 125 62.5 125C27.9822 125 0 97.0178 0 62.5C0 27.9822 27.9822 0 62.5 0C97.0178 0 125 27.9822 125 62.5Z" fill="white"/>
<rect x="84" y="31" width="64" height="48" rx="10" transform="rotate(90 84 31)" fill="#9CC5FF"/>
<path d="M59 79.8899C60.3333 78.7232 63.2 76.8899 64 78.8899C64.8 80.8899 63.6667 83.0564 63 83.8896L61 86.3896C59.5 87.8896 62.6 92.7 71 85.5" stroke="#0065FA" stroke-width="2" stroke-linecap="round"/>
<rect x="42" y="41" width="19" height="3" rx="1.5" fill="#F1F7FF"/>
<rect x="42" y="49" width="26" height="3" rx="1.5" fill="#F1F7FF"/>
<rect x="42" y="57" width="32" height="3" rx="1.5" fill="#F1F7FF"/>
<path d="M72.3504 86.5537L72.5868 81.4792L76.6568 83.859L72.3504 86.5537Z" fill="#8FB4E9"/>
<mask id="mask0_1164_6422" style="mask-type:alpha" maskUnits="userSpaceOnUse" x="72" y="81" width="5" height="6">
<path d="M72.3494 86.5537L72.5858 81.4792L76.6558 83.859L72.3494 86.5537Z" fill="#8FB4E9"/>
</mask>
<g mask="url(#mask0_1164_6422)">
<path d="M72.2936 86.6592L72.2317 84.1929L74.4734 85.5037L72.2936 86.6592Z" fill="#0065FA"/>
</g>
<path d="M84.501 59.7321C85.0533 58.7755 86.2764 58.4477 87.233 59L88.9651 60C89.9217 60.5523 90.2494 61.7755 89.6971 62.7321L77.6971 83.5167C77.421 83.995 76.8094 84.1588 76.3311 83.8827L72.867 81.8827C72.3887 81.6065 72.2248 80.995 72.501 80.5167L84.501 59.7321Z" fill="#0065FA"/>
</svg>
