<svg width="125" height="125" viewBox="0 0 125 125" fill="none" xmlns="http://www.w3.org/2000/svg">
<circle cx="62.5" cy="62.5" r="62.5" fill="white"/>
<rect x="27" y="41" width="71" height="48" rx="10" fill="#F9F9F9"/>
<path d="M46 55C49.3137 55 52 57.6863 52 61C52 63.2834 50.7241 65.2683 48.8467 66.2822C52.422 67.0102 55 69.0705 55 71.5C55 71.5376 54.9963 71.5749 54.9951 71.6123C54.9985 71.6457 55 71.6796 55 71.7139V75C55 76.1046 54.1046 77 53 77H39C37.8954 77 37 76.1046 37 75V71.7139C37 71.6796 37.0015 71.6457 37.0049 71.6123C37.0037 71.5749 37 71.5376 37 71.5C37 69.0707 39.5775 67.0104 43.1523 66.2822C41.2753 65.2682 40 63.2831 40 61C40 57.6863 42.6863 55 46 55Z" fill="#0065FA"/>
<rect x="63" y="61" width="19" height="3" rx="1.5" fill="#0065FA"/>
<rect x="63" y="69" width="26" height="3" rx="1.5" fill="#0065FA"/>
<rect x="72" y="44" width="17" height="6" rx="3" transform="rotate(-180 72 44)" fill="#0065FA"/>
</svg>
