<svg width="666" height="334" viewBox="0 0 666 334" fill="none" xmlns="http://www.w3.org/2000/svg">
<g clip-path="url(#clip0_100_4103)">
<path d="M573.813 283.455H564.685V275.74C564.685 272.483 562.053 269.842 558.806 269.842H528.864C525.617 269.842 522.985 272.483 522.985 275.74V330.779H564.683V317.165H573.811C578.767 317.165 582.801 313.118 582.801 308.145V292.473C582.801 287.5 578.767 283.452 573.811 283.452L573.813 283.455ZM577.707 308.145C577.707 310.298 575.961 312.052 573.813 312.052H564.685V288.569H573.813C575.959 288.569 577.707 290.32 577.707 292.476V308.147V308.145Z" fill="#FF593A"/>
<path d="M564.685 275.229H522.988V276.252H564.685V275.229Z" fill="#9B453A"/>
<path d="M407.037 39.4257C407.037 39.4257 432.784 24.9174 452.928 44.6215C473.072 64.3256 464.792 89.3503 468.748 104.898C472.704 120.448 500.513 122.702 506.198 144.38C511.416 164.274 496.141 171.832 479.755 168.195C479.755 168.195 496.659 201.374 464.266 208.56C438.664 214.241 383.209 209.823 360.983 160.717C342.93 120.831 340.816 55.3366 407.035 39.4257H407.037Z" fill="#2A3047"/>
<path d="M241.198 279.273C241.198 279.273 233.736 301.734 241.534 318.806C241.534 318.806 260.419 295.933 241.198 279.273Z" fill="#D88E4C"/>
<path d="M345.885 203.097L321.726 267.604L212.45 287.79C204.838 289.196 199.801 296.53 201.205 304.167C202.487 311.149 208.706 315.97 215.579 315.671L326.593 310.975C333.763 310.672 339.849 306.458 342.897 300.47L391.888 203.582C397.324 192.836 393.046 179.702 382.336 174.248C371.626 168.794 351.321 192.351 345.888 203.097H345.885Z" fill="#F69D85"/>
<path d="M390.176 158.704C390.176 158.704 357.138 164.748 326.963 222.279C313.828 247.321 306.567 263.187 306.567 263.187C306.567 263.187 261.22 274.958 241.198 279.271C241.198 279.271 251.042 295.446 241.534 318.804C241.534 318.804 324.908 326.027 341.592 311.078C358.516 295.914 398.653 215.863 398.653 215.863L390.179 158.701L390.176 158.704Z" fill="#F1F3F2"/>
<path d="M255.477 306.18C254.421 313.9 252.327 319.661 252.305 319.721C252.197 320.016 251.872 320.166 251.577 320.059C251.283 319.951 251.136 319.624 251.241 319.329C251.334 319.073 260.445 293.711 249.639 277.575C249.464 277.314 249.534 276.962 249.792 276.786C250.052 276.61 250.403 276.681 250.579 276.94C256.408 285.642 256.56 296.822 255.663 304.667C255.604 305.178 255.542 305.681 255.474 306.178L255.477 306.18Z" fill="#D88E4C"/>
<path d="M267.236 306.279C266.101 314.581 263.71 320.268 263.685 320.325C263.563 320.614 263.229 320.748 262.943 320.623C262.655 320.501 262.522 320.166 262.643 319.879C262.669 319.822 265.116 313.993 266.192 305.538C267.185 297.753 267.188 286.075 261.577 274.651C261.438 274.369 261.554 274.029 261.834 273.89C262.114 273.75 262.454 273.867 262.592 274.148C268.334 285.84 268.328 297.767 267.309 305.717C267.287 305.904 267.261 306.092 267.236 306.279Z" fill="#D88E4C"/>
<path d="M307.128 263.266C307.119 263.331 307.097 263.4 307.063 263.462C305 267.25 304.519 274.382 304.513 274.453C304.488 274.768 304.225 275.003 303.911 274.984C303.599 274.964 303.362 274.694 303.382 274.379C303.401 274.075 303.888 266.923 306.067 262.917C306.217 262.642 306.559 262.539 306.834 262.69C307.046 262.806 307.153 263.039 307.122 263.266H307.128Z" fill="#818496"/>
<path d="M371.319 106.763C371.557 106.695 371.733 106.479 371.738 106.218C371.8 102.433 369.288 101.678 367.624 101.179C366.88 100.954 366.175 100.744 365.974 100.369C365.864 100.162 365.875 99.8356 366.008 99.4069C367.055 96.0027 371.294 95.8494 371.336 95.8494C371.656 95.838 371.905 95.574 371.897 95.256C371.888 94.938 371.622 94.6853 371.305 94.6938C371.096 94.6995 366.198 94.8784 364.908 99.0662C364.678 99.8129 364.695 100.418 364.959 100.915C365.386 101.715 366.311 101.993 367.293 102.289C368.937 102.783 370.635 103.291 370.587 106.201C370.581 106.519 370.836 106.783 371.153 106.789C371.212 106.789 371.269 106.783 371.319 106.766V106.763Z" fill="#AF5945"/>
<path d="M379.81 106.786C383.04 102.404 382.119 96.2245 377.752 92.9832C373.385 89.7418 367.225 90.6665 363.995 95.0486C360.765 99.4306 361.686 105.611 366.053 108.852C370.421 112.093 376.58 111.169 379.81 106.786Z" fill="#F69D85"/>
<path d="M425.396 114.926H390.179V170.321H425.396V114.926Z" fill="#F69D85"/>
<path d="M391.897 103.216C393.12 92.0129 386.253 82.0679 376.559 81.0027C366.866 79.9375 358.016 88.1554 356.794 99.358C355.571 110.561 362.438 120.506 372.131 121.571C381.825 122.636 390.674 114.418 391.897 103.216Z" fill="#3E8EDD"/>
<path d="M414.901 147.682C414.901 147.682 402.728 152.594 390.176 150.206V132.175L414.901 147.679V147.682Z" fill="#D1836B"/>
<path d="M403.999 148.04C383.668 145.805 368.994 127.456 371.221 107.056L373.315 87.8828C375.542 67.4831 393.829 52.759 414.16 54.9934C434.491 57.2279 449.165 75.5777 446.938 95.9774L444.844 115.151C442.617 135.55 424.33 150.274 403.999 148.04Z" fill="#F69D85"/>
<path d="M279.768 329.84H101.637L76.9854 224.607C74.849 215.488 81.7448 206.752 91.0824 206.752H239.461C246.184 206.752 252.021 211.391 253.558 217.958L279.768 329.84Z" fill="#333647"/>
<path d="M268.45 329.84H101.637L76.9854 224.607C74.849 215.488 81.7448 206.752 91.0824 206.752H228.142C234.865 206.752 240.703 211.391 242.239 217.958L268.45 329.84Z" fill="#404660"/>
<path d="M371.247 318.267H271.696V329.84H371.247V318.267Z" fill="#333647"/>
<path d="M410.802 324.053C378.273 324.053 352.503 318.565 352.503 318.565C359.006 295.553 356.142 267.786 354.436 226.084C354.006 215.542 390.177 158.707 390.177 158.707L408.852 155.521C441.381 155.521 463.786 189.061 460.435 221.527C456.118 263.371 438.096 272.78 458.681 314.715L410.802 324.056V324.053Z" fill="#F69D85"/>
<path d="M414.952 98.87C414.652 101.624 415.544 103.983 416.944 104.137C418.345 104.29 419.723 102.18 420.02 99.4264C420.32 96.6724 419.429 94.313 418.028 94.1597C416.627 94.0064 415.249 96.1159 414.949 98.87H414.952Z" fill="#30313C"/>
<path d="M392.726 96.4368C392.426 99.1909 393.317 101.55 394.718 101.704C396.118 101.857 397.496 99.7474 397.793 96.9933C398.093 94.2393 397.202 91.8799 395.801 91.7266C394.401 91.5733 393.023 93.6828 392.726 96.4368Z" fill="#30313C"/>
<path d="M429.757 110.46C429.856 112.441 428.184 114.134 426.019 114.244C423.854 114.352 422.021 112.836 421.922 110.854C421.823 108.873 423.495 107.18 425.66 107.07C427.824 106.962 429.658 108.478 429.757 110.46Z" fill="#D1836B"/>
<path d="M388.176 107.53C388.275 109.512 386.602 111.204 384.438 111.315C382.273 111.423 380.44 109.907 380.341 107.925C380.242 105.943 381.914 104.251 384.078 104.14C386.243 104.032 388.077 105.548 388.176 107.53Z" fill="#D1836B"/>
<path d="M390.177 158.704C390.177 158.704 352.928 194.316 342.512 230.175C337.716 246.688 350.825 264.22 353.689 281.695C356.343 297.887 346.989 329.84 346.989 329.84C346.989 329.84 384.724 333.071 400.881 333.071C439.499 333.071 464.906 330.839 464.906 330.839C464.906 330.839 440.249 273.107 464.275 237.108C483.378 208.489 457.196 168.658 425.416 158.701C425.416 158.701 410.589 174.172 398.561 172.599C388.465 171.279 390.174 158.701 390.174 158.701L390.177 158.704Z" fill="#F1F3F2"/>
<path d="M452.727 115.663C457.323 112.758 458.701 106.664 455.806 102.053C452.911 97.441 446.837 96.0577 442.241 98.9629C437.645 101.868 436.267 107.962 439.162 112.574C442.058 117.185 448.131 118.569 452.727 115.663Z" fill="#F69D85"/>
<path d="M411.871 119.962C412.094 121.558 409.581 123.233 406.257 123.704C402.932 124.176 400.054 123.264 399.828 121.669C399.604 120.073 402.117 118.398 405.442 117.927C408.766 117.455 411.644 118.367 411.871 119.962Z" fill="#DB7777"/>
<path d="M409.053 121.084C410.946 120.542 412.944 119.69 414.964 118.401C415.233 118.231 415.312 117.873 415.139 117.603C414.97 117.333 414.61 117.254 414.344 117.427C405.677 122.964 397.169 119.894 397.084 119.863C396.787 119.752 396.453 119.903 396.342 120.204C396.232 120.502 396.382 120.834 396.679 120.948C396.965 121.056 402.35 123.009 409.053 121.087V121.084Z" fill="#AF5945"/>
<path d="M446.872 112.634C447.105 112.569 447.28 112.359 447.291 112.101C447.41 109.196 449.133 108.784 450.803 108.384C451.799 108.146 452.741 107.921 453.211 107.146C453.502 106.666 453.556 106.062 453.369 105.304C452.322 101.05 447.438 100.588 447.232 100.568C446.915 100.539 446.638 100.775 446.609 101.093C446.581 101.411 446.816 101.689 447.133 101.718C447.305 101.732 451.403 102.135 452.249 105.576C452.356 106.013 452.351 106.34 452.226 106.541C452.005 106.905 451.289 107.075 450.534 107.257C448.842 107.66 446.29 108.268 446.137 112.049C446.123 112.367 446.372 112.637 446.689 112.651C446.751 112.651 446.813 112.646 446.87 112.629L446.872 112.634Z" fill="#AF5945"/>
<path d="M424.128 94.3557C424.284 94.3103 424.431 94.2251 424.553 94.1002C424.926 93.7169 424.918 93.1037 424.536 92.7289C424.349 92.5443 419.858 88.2259 413.602 89.0124C413.073 89.0777 412.697 89.5632 412.762 90.0941C412.827 90.625 413.311 91.0026 413.84 90.9373C419.182 90.2673 423.144 94.0775 423.183 94.1173C423.441 94.3699 423.803 94.4494 424.125 94.3557H424.128Z" fill="#AF5945"/>
<path d="M401.588 89.7369C401.848 89.6631 402.077 89.4785 402.199 89.2116C402.423 88.7261 402.216 88.1526 401.732 87.9255C401.531 87.8318 396.78 85.6626 391.534 88.8312C391.076 89.1066 390.929 89.7028 391.206 90.1628C391.481 90.6227 392.075 90.7703 392.533 90.4921C396.865 87.8715 400.753 89.6063 400.917 89.6829C401.135 89.7823 401.373 89.7965 401.588 89.734V89.7369Z" fill="#AF5945"/>
<path d="M406.008 113.058C406.192 113.004 406.348 112.859 406.404 112.661C406.492 112.354 406.314 112.033 406.008 111.945C404.664 111.562 401.945 110.392 402.106 109.239C402.335 107.632 405.128 100.497 406.186 97.8825C406.305 97.5872 406.164 97.2493 405.869 97.1301C405.575 97.0109 405.238 97.1528 405.12 97.4481C404.961 97.8371 401.26 106.999 400.966 109.077C400.618 111.536 405.173 112.91 405.694 113.058C405.801 113.089 405.909 113.086 406.008 113.058Z" fill="#AF5945"/>
<path d="M443.487 47.3136C453.234 37.5342 453.234 21.6786 443.487 11.8992C433.741 2.1198 417.939 2.11979 408.193 11.8992C398.446 21.6786 398.446 37.5342 408.193 47.3137C417.939 57.0931 433.741 57.0931 443.487 47.3136Z" fill="#2A3047"/>
<path d="M365.344 290.593C365.344 290.593 382.027 314.763 369.317 330.779C369.317 330.779 356.408 315.384 365.344 290.593Z" fill="#818496"/>
<path d="M352.333 325.756C352.333 325.756 340.095 330.151 326.697 325.719C314.148 321.568 311.041 316.881 308.636 311.634C306.233 306.387 328.782 298.633 337.424 300.181C346.068 301.728 352.429 312.642 352.33 325.756H352.333Z" fill="#F69D85"/>
<path d="M327.571 325.998C320.953 324.093 314.167 323.602 307.438 325.155C304.408 325.854 298.336 329.57 296.431 324.831C294.315 318.208 322.455 312.606 327.554 312.529C341.255 310.261 338.688 330.263 327.571 326.001V325.998Z" fill="#F69D85"/>
<path d="M323.234 319.993C316.907 317.826 309.929 317.559 303.265 318.289C299.734 318.082 293.763 322.068 292.238 317.108C291.172 311.864 305.605 309.791 309.459 308.707C315.005 307.775 320.783 307.389 326.397 308.312C333.992 310.419 330.859 322.031 323.236 319.99L323.234 319.993Z" fill="#F69D85"/>
<path d="M323.938 314.269C314.408 310.311 303.403 309.57 293.463 312.532C289.81 313.616 287.812 308.04 291.287 306.535C295.41 304.525 299.909 303.049 304.439 302.214C312.317 300.888 320.534 300.936 328.304 302.961C336.626 305.476 331.787 318.043 323.935 314.272L323.938 314.269Z" fill="#F69D85"/>
<path d="M337.135 307.992C327.136 303.792 316.058 301.348 305.209 302.166C301.618 302.461 298.09 303.222 294.72 304.48C293.048 305.161 291.123 304.315 290.509 302.609C288.582 295.346 311.573 293.04 316.559 293.143C325.146 293.143 335.044 294.928 343.253 297.467C351.388 300.323 344.809 311.969 337.133 307.995L337.135 307.992Z" fill="#F69D85"/>
<path d="M304.009 318.517C303.882 318.485 303.774 318.395 303.72 318.264C303.636 318.051 303.74 317.807 303.952 317.722C304.015 317.696 310.2 315.257 318.703 315.101C318.932 315.098 319.122 315.28 319.128 315.513C319.133 315.743 318.949 315.933 318.717 315.939C310.378 316.092 304.32 318.474 304.261 318.5C304.176 318.534 304.088 318.537 304.006 318.517H304.009Z" fill="#AF5945"/>
<path d="M300.305 311.461C300.17 311.427 300.053 311.328 300.008 311.186C299.937 310.967 300.056 310.732 300.274 310.658C300.342 310.635 307.306 308.389 316.655 307.807C316.887 307.793 317.082 307.969 317.096 308.199C317.11 308.429 316.935 308.628 316.706 308.642C307.467 309.215 300.6 311.43 300.532 311.453C300.455 311.478 300.376 311.478 300.303 311.461H300.305Z" fill="#AF5945"/>
<path d="M300.466 303.429C300.316 303.393 300.192 303.27 300.158 303.109C300.11 302.881 300.257 302.66 300.481 302.615C300.56 302.598 308.519 300.951 315.494 300.724C315.726 300.715 315.916 300.897 315.925 301.127C315.933 301.357 315.752 301.55 315.523 301.558C308.619 301.783 300.73 303.415 300.65 303.432C300.588 303.446 300.526 303.444 300.466 303.429Z" fill="#AF5945"/>
<path d="M493.934 299.823L493.725 298.923L466.917 183.396C466.798 182.89 466.648 182.337 466.493 181.834C462.933 170.435 450.837 164.089 439.476 167.661C428.115 171.233 421.791 183.37 425.351 194.77L454.509 288.143L343.355 297.623C335.33 298.316 329.221 305.283 329.651 313.412C330.089 321.711 337.149 328.082 345.42 327.642L478.388 320.575C479.331 320.518 480.372 320.379 481.323 320.158C490.4 318.037 496.048 308.934 493.934 299.823Z" fill="#F69D85"/>
<path d="M425.419 158.704C425.419 158.704 463.667 156.285 477.212 186.88C490.757 217.475 513.875 297.39 494.292 316.816C478.409 332.571 369.314 330.779 369.314 330.779C369.314 330.779 374.212 314.232 365.341 290.593C365.341 290.593 413.014 281.019 437.162 277.828C437.162 277.828 409.667 189.693 425.416 158.704H425.419Z" fill="#F1F3F2"/>
<path d="M365.344 291.161C365.081 291.161 364.843 290.974 364.789 290.704C364.727 290.398 364.925 290.097 365.233 290.034C365.712 289.938 412.779 280.449 436.426 277.349C434.881 272.292 424.839 238.54 420.934 203.728C420.9 203.416 421.124 203.135 421.432 203.101C421.741 203.064 422.023 203.291 422.057 203.6C426.259 241.058 437.589 277.292 437.702 277.652C437.753 277.814 437.731 277.987 437.64 278.129C437.549 278.271 437.402 278.365 437.235 278.388C413.86 281.389 365.938 291.051 365.457 291.147C365.42 291.156 365.381 291.159 365.344 291.159V291.161Z" fill="#818496"/>
<path d="M381.65 331.409C381.616 331.409 381.58 331.406 381.543 331.398C381.237 331.338 381.036 331.04 381.096 330.734C381.135 330.523 385.054 309.391 376.86 288.435C376.747 288.143 376.888 287.813 377.18 287.7C377.471 287.583 377.799 287.728 377.912 288.021C386.231 309.292 382.247 330.736 382.205 330.949C382.154 331.222 381.916 331.409 381.65 331.409Z" fill="#818496"/>
<path d="M394.56 331.29C394.531 331.29 394.506 331.29 394.477 331.284C394.169 331.239 393.954 330.952 393.999 330.64C397.873 303.971 388.64 286.442 388.547 286.269C388.397 285.993 388.501 285.647 388.776 285.499C389.05 285.349 389.393 285.451 389.543 285.729C389.639 285.905 399.053 303.741 395.12 330.804C395.077 331.088 394.837 331.29 394.56 331.29Z" fill="#818496"/>
<path d="M435.47 135.271C434.612 135.271 433.746 135.206 432.878 135.067L417.72 132.685C416.947 132.563 416.421 131.836 416.54 131.064C416.661 130.288 417.386 129.76 418.155 129.88L433.314 132.262C440.563 133.4 447.453 128.656 448.998 121.456C449.162 120.689 449.915 120.201 450.679 120.365C451.443 120.53 451.929 121.285 451.765 122.052C450.093 129.857 443.2 135.268 435.473 135.268L435.47 135.271Z" fill="#3E8EDD"/>
<path d="M468.482 109.443C469.705 98.2407 462.838 88.2957 453.144 87.2305C443.451 86.1652 434.601 94.3832 433.379 105.586C432.156 116.788 439.023 126.733 448.716 127.799C458.41 128.864 467.259 120.646 468.482 109.443Z" fill="#3E8EDD"/>
<path d="M453.483 99.6424C453.316 99.6424 453.149 99.631 452.979 99.6083C450.888 99.3329 449.416 97.4108 449.688 95.3126C449.708 95.1536 450.953 84.9041 447.707 74.169C443.525 60.3364 434.018 52.0829 419.445 49.6383C417.366 49.2891 415.959 47.313 416.307 45.2262C416.655 43.1394 418.628 41.7311 420.704 42.0775C442.838 45.794 451.623 60.5096 455.093 72.1986C458.748 84.5094 457.322 95.8322 457.26 96.3092C457.008 98.237 455.364 99.6424 453.477 99.6424H453.483Z" fill="#3E8EDD"/>
<path d="M429.762 52.7501C429.762 52.7501 420.153 25.5534 388.999 31.2659C357.845 36.9783 355.285 65.7963 370.579 74.5893C381.229 80.7135 410.199 75.7818 421.868 69.456C421.868 69.456 423.515 91.122 442.088 91.2015C458.058 91.2696 456.624 54.7688 429.765 52.7501H429.762Z" fill="#2A3047"/>
<path d="M417.937 136.146C420.614 136.146 422.785 133.969 422.785 131.283C422.785 128.596 420.614 126.419 417.937 126.419C415.26 126.419 413.09 128.596 413.09 131.283C413.09 133.969 415.26 136.146 417.937 136.146Z" fill="#305777"/>
<path d="M453.516 122.847C453.163 122.847 452.809 122.827 452.452 122.787C449.235 122.433 446.392 120.533 444.442 117.436C442.521 114.378 441.7 110.514 442.133 106.553C443.033 98.3248 449.125 92.2205 455.712 92.9445C462.302 93.6685 466.932 100.954 466.032 109.182C465.183 116.964 459.685 122.847 453.516 122.847ZM454.645 94.0234C449.048 94.0234 444.046 99.4747 443.259 106.678C442.855 110.386 443.616 113.992 445.401 116.831C447.161 119.63 449.711 121.345 452.577 121.66C458.547 122.316 464.076 116.663 464.908 109.057C465.74 101.451 461.558 94.7304 455.59 94.0745C455.274 94.0405 454.96 94.0234 454.645 94.0234Z" fill="#305777"/>
<path d="M353.697 297.308C353.68 297.308 353.663 297.308 353.646 297.308C353.335 297.28 353.105 297.004 353.131 296.695C353.131 296.664 353.388 293.538 353.125 281.71C353.001 276.071 350.239 268.996 347.316 261.506C344.124 253.323 340.822 244.865 340.901 237.815C341.051 224.545 356.238 199.73 356.886 198.683C357.05 198.416 357.398 198.333 357.664 198.498C357.93 198.663 358.012 199.012 357.848 199.279C357.692 199.534 342.18 224.874 342.033 237.83C341.957 244.658 345.216 253.014 348.369 261.094C351.328 268.68 354.124 275.847 354.254 281.687C354.517 293.617 354.265 296.672 354.254 296.797C354.229 297.092 353.983 297.314 353.691 297.314L353.697 297.308Z" fill="#818496"/>
<path d="M399.126 178.976C397.768 178.976 396.452 178.868 395.188 178.646C391.421 177.991 388.535 176.259 386.611 173.505C382.828 168.09 384.076 160.703 384.13 160.39C384.183 160.081 384.475 159.876 384.786 159.93C385.094 159.984 385.298 160.28 385.244 160.589C385.233 160.66 384.025 167.838 387.539 172.857C389.285 175.353 391.925 176.926 395.38 177.528C396.608 177.741 397.867 177.843 399.146 177.846C411.421 177.846 425.546 168.437 432.561 158.585C432.742 158.329 433.096 158.269 433.35 158.451C433.605 158.633 433.664 158.988 433.483 159.243C429.406 164.97 423.195 170.364 416.438 174.041C410.49 177.281 404.483 178.976 399.124 178.976H399.126Z" fill="#818496"/>
<path d="M625.984 334H51.9467C50.9163 334 50.0801 333.033 50.0801 331.841C50.0801 330.649 50.9163 329.682 51.9467 329.682H625.984C627.015 329.682 627.851 330.649 627.851 331.841C627.851 333.033 627.015 334 625.984 334Z" fill="#30313C"/>
<g clip-path="url(#clip1_100_4103)">
<path d="M552.499 170.568C560.506 170.568 566.998 163.852 566.998 155.569C566.998 147.285 560.506 140.569 552.499 140.569C544.491 140.569 538 147.285 538 155.569C538 163.852 544.491 170.568 552.499 170.568Z" fill="#FFB12A"/>
<path d="M547.787 155.232C548.518 155.232 549.11 153.941 549.11 152.349C549.11 150.756 548.518 149.465 547.787 149.465C547.056 149.465 546.463 150.756 546.463 152.349C546.463 153.941 547.056 155.232 547.787 155.232Z" fill="#30313C"/>
<path d="M557.213 155.232C557.944 155.232 558.536 153.941 558.536 152.349C558.536 150.756 557.944 149.465 557.213 149.465C556.482 149.465 555.889 150.756 555.889 152.349C555.889 153.941 556.482 155.232 557.213 155.232Z" fill="#30313C"/>
<path d="M552.499 161.528C548.967 161.528 547.571 159.092 547.512 158.989C547.425 158.832 547.477 158.633 547.629 158.544C547.78 158.454 547.973 158.508 548.06 158.663C548.11 158.752 549.345 160.876 552.499 160.876C555.652 160.876 556.925 158.686 556.938 158.663C557.025 158.506 557.219 158.452 557.369 158.544C557.52 158.633 557.572 158.832 557.485 158.989C557.427 159.094 556.031 161.528 552.499 161.528Z" fill="#30313C"/>
</g>
<mask id="mask0_100_4103" style="mask-type:luminance" maskUnits="userSpaceOnUse" x="393" y="213" width="18" height="14">
<path d="M399.693 213.634C396.005 213.879 393.088 217.108 393.396 220.791C393.695 224.372 396.821 227.075 400.419 226.836L410.47 226.168L410.04 219.692L407.299 219.874L407.547 223.613L400.348 224.091C398.274 224.229 396.384 222.757 396.143 220.693C395.886 218.486 397.535 216.534 399.725 216.389L409.776 215.721L409.696 214.514C409.639 213.667 408.907 213.026 408.06 213.082L399.693 213.638L399.693 213.634Z" fill="white"/>
</mask>
<g mask="url(#mask0_100_4103)">
<path d="M409.761 213.167L393.021 213.481L393.269 226.696L410.009 226.382L409.761 213.167Z" fill="#0065FA"/>
</g>
<path d="M411.324 206.647L401.404 206.833L401.526 213.332L404.272 213.28L404.202 209.528L411.416 209.392C413.494 209.353 415.312 210.914 415.454 212.987C415.606 215.203 413.866 217.074 411.671 217.115L406.101 217.22C405.58 217.23 405.127 217.502 404.864 217.912C404.698 218.162 404.6 218.465 404.606 218.792L404.629 219.995L411.723 219.862C415.328 219.794 418.214 216.836 418.207 213.242C418.201 209.546 415.02 206.577 411.324 206.647Z" fill="#24ACFF"/>
<g clip-path="url(#clip2_100_4103)">
<path d="M528.71 83.5211C528.74 83.5211 528.769 83.5125 528.795 83.4962L536.97 78.2869C539.018 78.7174 541.144 78.9361 543.292 78.9361C549.238 78.9361 554.829 77.2882 559.037 74.2967C563.26 71.2936 565.586 67.2956 565.586 63.04C565.586 58.7843 563.261 54.7864 559.037 51.7832C554.829 48.7917 549.238 47.1438 543.292 47.1438C537.347 47.1438 531.756 48.7917 527.548 51.7832C523.325 54.7864 520.999 58.7843 520.999 63.04C520.999 65.5963 521.869 68.1363 523.516 70.386C525.084 72.5289 527.359 74.4182 530.096 75.8544L528.556 83.3342C528.544 83.3957 528.57 83.4588 528.621 83.4938C528.648 83.5117 528.679 83.5211 528.71 83.5211ZM536.94 77.9662C536.91 77.9662 536.88 77.9748 536.855 77.9911L528.939 83.0353L530.428 75.803C530.442 75.7353 530.409 75.666 530.347 75.6341C524.691 72.7041 521.313 67.997 521.313 63.0408C521.313 54.447 531.173 47.4559 543.292 47.4559C555.412 47.4559 565.271 54.4462 565.271 63.04C565.271 71.6338 555.412 78.6248 543.292 78.6248C541.144 78.6248 539.018 78.4045 536.972 77.9693C536.961 77.967 536.951 77.9655 536.94 77.9655V77.9662Z" fill="white"/>
<path d="M522.727 62.2615C522.727 53.5681 532.638 46.521 544.863 46.521C557.089 46.521 567 53.5681 567 62.2615C567 70.9549 557.089 78.002 544.863 78.002C542.655 78.002 540.523 77.7708 538.51 77.3427L530.281 82.5861L531.845 74.9918C526.319 72.1296 522.727 67.494 522.727 62.2607L522.727 62.2615Z" fill="#C0C9FF"/>
<path d="M530.549 59.4429H559.177C559.437 59.4429 559.648 59.2335 559.648 58.9758C559.648 58.7182 559.437 58.5088 559.177 58.5088H530.549C530.289 58.5088 530.077 58.7182 530.077 58.9758C530.077 59.2335 530.289 59.4429 530.549 59.4429Z" fill="white"/>
<path d="M530.549 62.6858H559.177C559.437 62.6858 559.648 62.4764 559.648 62.2188C559.648 61.9611 559.437 61.7517 559.177 61.7517H530.549C530.289 61.7517 530.077 61.9611 530.077 62.2188C530.077 62.4764 530.289 62.6858 530.549 62.6858Z" fill="white"/>
<path d="M530.549 65.9287H559.177C559.437 65.9287 559.648 65.7193 559.648 65.4617C559.648 65.204 559.437 64.9946 559.177 64.9946H530.549C530.289 64.9946 530.077 65.204 530.077 65.4617C530.077 65.7193 530.289 65.9287 530.549 65.9287Z" fill="white"/>
</g>
</g>
<defs>
<clipPath id="clip0_100_4103">
<rect width="666" height="334" fill="white"/>
</clipPath>
<clipPath id="clip1_100_4103">
<rect width="29" height="30" fill="white" transform="translate(538 140.569)"/>
</clipPath>
<clipPath id="clip2_100_4103">
<rect width="46" height="37" fill="white" transform="matrix(-1 0 0 1 567 46.521)"/>
</clipPath>
</defs>
</svg>
