<svg width="170" height="34" viewBox="0 0 170 34" fill="none" xmlns="http://www.w3.org/2000/svg">
<g clip-path="url(#clip0_1003_226)">
<mask id="mask0_1003_226" style="mask-type:luminance" maskUnits="userSpaceOnUse" x="0" y="11" width="29" height="23">
<path d="M11.6372 11.0728C5.33094 11.0728 -0.000266775 16.2386 0.108068 22.5448C0.210701 28.6743 5.22831 33.6292 11.3806 33.6292H28.5659V22.5562H23.879V28.948H11.5687C8.02221 28.948 4.97173 26.2282 4.79497 22.6874C4.60681 18.9014 7.63448 15.7654 11.3806 15.7654H28.5659V13.7013C28.5659 12.253 27.3913 11.0785 25.9431 11.0785H11.6372V11.0728Z" fill="white"/>
</mask>
<g mask="url(#mask0_1003_226)">
<path d="M28.5662 11.0728H0V33.6235H28.5662V11.0728Z" fill="#0065FA"/>
</g>
<path d="M31.4395 0H14.5107V11.0901H19.1976V4.6869H31.5079C35.0544 4.6869 38.1049 7.40667 38.2817 10.9475C38.4698 14.7335 35.4422 17.8695 31.6961 17.8695H22.1911C21.3016 17.8695 20.5205 18.32 20.0586 19.0099C19.7678 19.4318 19.5911 19.945 19.5911 20.5038V22.5564H31.6961C37.8483 22.5564 42.8659 17.6015 42.9686 11.4721C43.0769 5.16586 37.7457 0 31.4395 0Z" fill="#24ACFF"/>
<path d="M52.7928 3.3584H63.4267C69.3338 3.3584 72.2874 6.19791 72.2874 10.2234C72.2874 13.3594 70.2575 15.3151 67.4864 15.948V16.2046C70.5141 16.3529 73.3536 18.7533 73.3536 22.699C73.3536 26.9469 70.1777 30.0829 64.1223 30.0829H52.7871V3.3584H52.7928ZM66.6711 11.1129C66.6711 9.19137 65.2684 7.86284 62.7197 7.86284H58.3293V14.5454H62.6114C64.9377 14.5454 66.6711 13.2511 66.6711 11.1129ZM67.5948 22.1858C67.5948 19.9336 65.8956 18.3485 63.1644 18.3485H58.3293V25.51H63.0162C66.2263 25.51 67.5948 24.1815 67.5948 22.1858Z" fill="white"/>
<path d="M76.4725 30.0829V3.3584H85.9946C94.0398 3.3584 98.9491 8.37601 98.9491 16.6836C98.9491 24.9911 94.0398 30.0829 85.8805 30.0829H76.4668H76.4725ZM85.6695 25.3218C90.7613 25.3218 93.424 22.6648 93.424 16.6836C93.424 10.7024 90.767 8.11943 85.7095 8.11943H82.0204V25.3218H85.6752H85.6695Z" fill="white"/>
<path d="M114.749 7.89707C110.615 7.89707 107.81 11.073 107.81 16.6836C107.81 22.2942 110.541 25.5442 114.789 25.5442C118.609 25.5442 120.878 23.3832 120.953 20.0077H115.16V15.834H126.307V19.1582C126.307 26.1714 121.506 30.4535 114.755 30.4535C107.262 30.4535 102.165 25.2135 102.165 16.7577C102.165 8.3019 107.593 2.98779 114.641 2.98779C120.656 2.98779 125.309 6.67688 126.044 11.9568H120.434C119.698 9.44796 117.663 7.89707 114.749 7.89707Z" fill="white"/>
<path d="M129.374 20.1558C129.374 13.9522 133.177 9.78418 139.044 9.78418C144.324 9.78418 148.458 13.1083 148.458 19.9334V21.4843H134.762C134.762 24.512 136.57 26.3936 139.375 26.3936C141.222 26.3936 142.551 25.5839 143.104 24.3638H148.31C147.534 28.0528 144.21 30.4932 139.267 30.4932C133.137 30.4932 129.374 26.5076 129.374 20.1558ZM143.286 18.0518C143.286 15.6171 141.587 13.8781 139.153 13.8781C136.718 13.8781 134.853 15.7426 134.762 18.0518H143.292H143.286Z" fill="white"/>
<path d="M157.12 30.0827H151.657V10.0408H156.863V13.5474H157.085C158.009 11.221 160.147 9.78418 163.101 9.78418C167.275 9.78418 170.04 12.6237 170.006 17.3163V30.0884H164.578V18.2742C164.578 15.7996 163.215 14.3228 160.963 14.3228C158.71 14.3228 157.125 15.8338 157.125 18.4966V30.0884L157.12 30.0827Z" fill="white"/>
</g>
<defs>
<clipPath id="clip0_1003_226">
<rect width="170" height="33.6237" fill="white"/>
</clipPath>
</defs>
</svg>
