<svg width="43" height="34" viewBox="0 0 43 34" fill="none" xmlns="http://www.w3.org/2000/svg">
<mask id="mask0_1004_5256" style="mask-type:luminance" maskUnits="userSpaceOnUse" x="0" y="11" width="29" height="23">
<path d="M11.5307 11.0728C5.2245 11.0728 -0.106712 16.2386 0.00162264 22.5448C0.104256 28.6743 5.12186 33.6292 11.2741 33.6292H28.4594V22.5562H23.7725V28.948H11.4623C7.91576 28.948 4.86528 26.2282 4.68853 22.6874C4.50037 18.9014 7.52803 15.7654 11.2741 15.7654H28.4594V13.7013C28.4594 12.253 27.2849 11.0785 25.8366 11.0785H11.5307V11.0728Z" fill="white"/>
</mask>
<g mask="url(#mask0_1004_5256)">
<path d="M28.4597 11.0728H-0.106445V33.6235H28.4597V11.0728Z" fill="#0065FA"/>
</g>
<path d="M31.333 0H14.4043V11.0901H19.0912V4.6869H31.4014C34.948 4.6869 37.9985 7.40667 38.1752 10.9475C38.3634 14.7335 35.3357 17.8695 31.5896 17.8695H22.0847C21.1952 17.8695 20.414 18.32 19.9522 19.0099C19.6614 19.4318 19.4846 19.945 19.4846 20.5038V22.5564H31.5896C37.7419 22.5564 42.7595 17.6015 42.8621 11.4721C42.9705 5.16586 37.6392 0 31.333 0Z" fill="#24ACFF"/>
</svg>
