<svg width="260" height="498" viewBox="0 0 260 498" fill="none" xmlns="http://www.w3.org/2000/svg">
<path d="M217.984 1.5H41.4774C20.6241 1.5 3.71924 18.4403 3.71924 39.3371V455.525C3.71924 476.422 20.6241 493.362 41.4774 493.362H217.984C238.837 493.362 255.742 476.422 255.742 455.525V39.3371C255.742 18.4403 238.837 1.5 217.984 1.5Z" fill="#EEF0F2" stroke="#EEF0F2" stroke-width="3" stroke-miterlimit="10"/>
<path d="M96.0644 32.6267C96.0644 32.6267 95.984 32.6267 95.9237 32.6066C95.8835 32.6066 95.8432 32.5663 95.803 32.526L93.6115 30.3098C93.6115 30.3098 93.5512 30.2292 93.5311 30.1889C93.5311 30.1486 93.511 30.1083 93.511 30.0478C93.511 30.0075 93.511 29.9471 93.5311 29.9068C93.5311 29.8665 93.5713 29.8262 93.6115 29.7859C94.2951 29.2218 95.1395 28.8994 96.0242 28.8994C96.9088 28.8994 97.7734 29.2218 98.4369 29.7859C98.4771 29.8262 98.4972 29.8464 98.5173 29.9068C98.5173 29.9471 98.5374 29.9874 98.5575 30.0478C98.5575 30.0881 98.5575 30.1486 98.5374 30.1889C98.5374 30.2292 98.4972 30.2695 98.457 30.3098L96.2856 32.526C96.2856 32.526 96.2253 32.5864 96.1649 32.6066C96.1247 32.6066 96.0845 32.6267 96.0242 32.6267H96.0644ZM99.8845 28.7584C99.8845 28.7584 99.7236 28.7181 99.6432 28.6577C98.658 27.7712 97.3713 27.2675 96.0443 27.2675C94.7173 27.2675 93.4306 27.7712 92.4454 28.6577C92.3851 28.7181 92.3047 28.7584 92.2041 28.7584C92.1639 28.7584 92.1237 28.7584 92.0835 28.7382C92.0433 28.7382 92.0031 28.698 91.983 28.6577L90.7163 27.3884C90.7163 27.3884 90.656 27.3078 90.6359 27.2675C90.6158 27.2272 90.6158 27.1869 90.6158 27.1264C90.6158 27.066 90.6158 27.0257 90.6359 26.9854C90.656 26.9451 90.6761 26.9048 90.7163 26.8645C92.1639 25.5146 94.074 24.7692 96.0443 24.7692C98.0146 24.7692 99.9247 25.5146 101.372 26.8645C101.412 26.9048 101.433 26.9451 101.453 26.9854C101.453 27.0257 101.473 27.066 101.473 27.1264C101.473 27.1667 101.473 27.2272 101.453 27.2675C101.453 27.3078 101.412 27.3481 101.372 27.3884L100.106 28.6577C100.106 28.6577 100.045 28.7181 100.005 28.7382C99.9649 28.7382 99.9247 28.7584 99.8845 28.7584ZM102.8 25.8169C102.8 25.8169 102.719 25.8169 102.679 25.7967C102.639 25.7967 102.599 25.7564 102.579 25.7161C100.829 24.0439 98.4972 23.1171 96.0644 23.1171C93.6316 23.1171 91.3195 24.0439 89.5502 25.7161C89.51 25.7564 89.4899 25.7766 89.4497 25.7967C89.4095 25.8169 89.3693 25.8169 89.3291 25.8169C89.2888 25.8169 89.2486 25.8169 89.2084 25.7967C89.1682 25.7967 89.128 25.7564 89.1079 25.7161L87.8412 24.4468C87.8412 24.4468 87.7809 24.3662 87.7608 24.3259C87.7608 24.2856 87.7407 24.2453 87.7407 24.1849C87.7407 24.1245 87.7407 24.0842 87.7608 24.0439C87.7608 24.0036 87.801 23.9633 87.8412 23.923C90.0529 21.7873 93.0084 20.5986 96.0845 20.5986C99.1607 20.5986 102.116 21.7873 104.328 23.923C104.368 23.9633 104.388 24.0036 104.408 24.0439C104.408 24.0842 104.428 24.1245 104.428 24.1849C104.428 24.2453 104.428 24.2856 104.408 24.3259C104.408 24.3662 104.368 24.4065 104.328 24.4468L103.061 25.7161C103.061 25.7161 102.92 25.8169 102.82 25.8169H102.8Z" fill="black"/>
<path d="M52.6764 32.1851V30.7143C52.8373 30.8554 53.0383 30.9964 53.2796 31.1173C53.5209 31.2382 53.7621 31.3389 54.0235 31.4195C54.2849 31.5001 54.5463 31.5605 54.8076 31.6008C55.069 31.6411 55.3103 31.6613 55.5314 31.6613C56.2954 31.6613 56.8785 31.5202 57.2605 31.2382C57.6425 30.9561 57.8436 30.533 57.8436 30.0092C57.8436 29.7271 57.7832 29.4652 57.6425 29.2637C57.5219 29.0421 57.3409 28.8608 57.1198 28.6794C56.8986 28.4981 56.6372 28.3369 56.3155 28.1757C56.014 28.0146 55.6923 27.8332 55.3304 27.6519C54.9484 27.4706 54.6066 27.2691 54.2849 27.0676C53.9632 26.8661 53.6817 26.6647 53.4405 26.4229C53.1992 26.1811 53.0182 25.9192 52.8775 25.6371C52.7368 25.3349 52.6764 24.9924 52.6764 24.5895C52.6764 24.1059 52.777 23.6828 52.9981 23.3202C53.2193 22.9575 53.5008 22.6553 53.8426 22.4337C54.1844 22.1919 54.5865 22.0307 55.0288 21.9098C55.4711 21.789 55.9335 21.7285 56.396 21.7285C57.4414 21.7285 58.2055 21.8494 58.688 22.1113V23.5216C58.0647 23.0784 57.2404 22.8568 56.2552 22.8568C55.9737 22.8568 55.7124 22.8769 55.4309 22.9374C55.1494 22.9978 54.9082 23.0784 54.7071 23.2194C54.4859 23.3403 54.3251 23.5216 54.1844 23.7231C54.0436 23.9246 53.9833 24.1664 53.9833 24.4686C53.9833 24.7506 54.0235 24.9723 54.124 25.1737C54.2246 25.3752 54.3854 25.5566 54.5865 25.7177C54.7875 25.8789 55.0288 26.0401 55.3103 26.2013C55.5917 26.3625 55.9335 26.5236 56.2954 26.705C56.6774 26.8863 57.0393 27.0878 57.3811 27.3094C57.7229 27.5109 58.0245 27.7526 58.2859 27.9944C58.5473 28.2563 58.7483 28.5384 58.889 28.8406C59.0499 29.1428 59.1102 29.5055 59.1102 29.9084C59.1102 30.4323 59.0097 30.8755 58.7885 31.2583C58.5875 31.621 58.306 31.9232 57.9642 32.1448C57.6224 32.3664 57.2203 32.5478 56.7579 32.6283C56.2954 32.7291 55.8129 32.7895 55.3103 32.7895C55.1494 32.7895 54.9283 32.7895 54.687 32.7492C54.4457 32.7291 54.1844 32.6888 53.923 32.6283C53.6616 32.5881 53.4203 32.5075 53.1791 32.447C52.9579 32.3664 52.777 32.2858 52.6362 32.1851H52.6764ZM68.7005 32.6283H66.9514L62.8297 27.7325C62.6689 27.5512 62.5885 27.4303 62.5483 27.3497H62.5281V32.6082H61.2816V21.9098H62.5281V26.9467H62.5483C62.6086 26.846 62.7091 26.7251 62.8297 26.5841L66.8106 21.93H68.3587L63.7747 27.0676L68.6804 32.6283H68.7005ZM76.4211 23.0583H73.3449V32.6283H72.0984V23.0583H69.0222V21.93H76.4211V23.0583Z" fill="#222222"/>
<path d="M45.2375 32.2619H44.1518C43.8704 32.2619 43.5889 32.141 43.3878 31.9395C43.1868 31.738 43.0662 31.456 43.0662 31.1739V21.7247C43.0662 21.4426 43.1868 21.1606 43.3878 20.9591C43.5889 20.7576 43.8704 20.6367 44.1518 20.6367H45.2375C45.519 20.6367 45.8005 20.7576 46.0016 20.9591C46.2026 21.1606 46.3232 21.4426 46.3232 21.7247V31.1739C46.3232 31.456 46.2026 31.738 46.0016 31.9395C45.8005 32.141 45.519 32.2619 45.2375 32.2619ZM40.1509 32.2619H39.0652C38.7837 32.2619 38.5022 32.141 38.3011 31.9395C38.1001 31.738 37.9795 31.456 37.9795 31.1739V24.2633C37.9795 23.9812 38.1001 23.6991 38.3011 23.4977C38.5022 23.2962 38.7837 23.1753 39.0652 23.1753H40.1509C40.4323 23.1753 40.7138 23.2962 40.9149 23.4977C41.1159 23.6991 41.2366 23.9812 41.2366 24.2633V31.1739C41.2366 31.456 41.1159 31.738 40.9149 31.9395C40.7138 32.141 40.4323 32.2619 40.1509 32.2619ZM35.0642 32.2619H33.9785C33.697 32.2619 33.4155 32.141 33.2145 31.9395C33.0134 31.738 32.8928 31.456 32.8928 31.1739V26.8019C32.8928 26.5198 33.0134 26.2377 33.2145 26.0363C33.4155 25.8348 33.697 25.7139 33.9785 25.7139H35.0642C35.3456 25.7139 35.6271 25.8348 35.8282 26.0363C36.0292 26.2377 36.1499 26.5198 36.1499 26.8019V31.1739C36.1499 31.456 36.0292 31.738 35.8282 31.9395C35.6271 32.141 35.3456 32.2619 35.0642 32.2619ZM29.9976 32.2619H28.9119C28.6304 32.2619 28.3489 32.141 28.1479 31.9395C27.9468 31.738 27.8262 31.456 27.8262 31.1739V28.998C27.8262 28.7159 27.9468 28.4338 28.1479 28.2323C28.3489 28.0309 28.6304 27.91 28.9119 27.91H29.9976C30.279 27.91 30.5605 28.0309 30.7616 28.2323C30.9626 28.4338 31.0833 28.7159 31.0833 28.998V31.1739C31.0833 31.456 30.9626 31.738 30.7616 31.9395C30.5605 32.141 30.279 32.2619 29.9976 32.2619Z" fill="black"/>
<path d="M217.562 21.083H199.407C198.1 21.083 197.054 22.1508 197.054 23.4403V29.9882C197.054 31.2978 198.12 32.3455 199.407 32.3455H217.562C218.869 32.3455 219.914 31.2777 219.914 29.9882V23.4403C219.914 22.1307 218.849 21.083 217.562 21.083Z" stroke="black" stroke-width="0.4" stroke-miterlimit="10"/>
<path d="M221.562 24.5303V28.9023C221.985 28.721 222.347 28.4188 222.608 28.0359C222.869 27.6531 223.01 27.1898 223.01 26.7264C223.01 26.263 222.869 25.7996 222.608 25.4168C222.347 25.034 221.985 24.7317 221.562 24.5504V24.5303Z" fill="black"/>
<path d="M216.838 22.7158H200.131C199.326 22.7158 198.683 23.3605 198.683 24.1664V29.2638C198.683 30.0697 199.326 30.7144 200.131 30.7144H216.838C217.643 30.7144 218.286 30.0697 218.286 29.2638V24.1664C218.286 23.3605 217.643 22.7158 216.838 22.7158Z" fill="black"/>
<path d="M122.321 277.602C133.614 277.602 142.769 268.428 142.769 257.112C142.769 245.796 133.614 236.622 122.321 236.622C111.029 236.622 101.874 245.796 101.874 257.112C101.874 268.428 111.029 277.602 122.321 277.602Z" fill="#327AFF"/>
<path d="M122.563 281.51C106.016 281.51 91.6405 290.899 84.4829 304.659C82.0099 309.434 85.5083 315.156 90.8765 315.156H154.209C159.577 315.156 163.095 309.434 160.602 304.659C153.445 290.899 139.089 281.51 122.523 281.51H122.563Z" fill="#CEDCF7"/>
<path d="M170.294 279.392H151.475C148.444 279.392 145.986 281.854 145.986 284.892V303.75C145.986 306.788 148.444 309.25 151.475 309.25H170.294C173.325 309.25 175.783 306.788 175.783 303.75V284.892C175.783 281.854 173.325 279.392 170.294 279.392Z" fill="#327AFF"/>
<path d="M166.856 290.051H154.893C153.782 290.051 152.882 290.953 152.882 292.066V298.029C152.882 299.142 153.782 300.044 154.893 300.044H166.856C167.966 300.044 168.866 299.142 168.866 298.029V292.066C168.866 290.953 167.966 290.051 166.856 290.051Z" fill="#FFD31F"/>
<path d="M161.91 283.864H159.859C158.104 283.864 156.682 285.289 156.682 287.048V289.425C156.682 291.183 158.104 292.608 159.859 292.608H161.91C163.664 292.608 165.086 291.183 165.086 289.425V287.048C165.086 285.289 163.664 283.864 161.91 283.864Z" stroke="#FFD31F" stroke-miterlimit="10"/>
<path d="M160.864 295.226C161.664 295.226 162.312 294.577 162.312 293.776C162.312 292.975 161.664 292.325 160.864 292.325C160.065 292.325 159.417 292.975 159.417 293.776C159.417 294.577 160.065 295.226 160.864 295.226Z" fill="white"/>
<path d="M171.259 294.987H150.651C149.496 294.987 148.56 295.925 148.56 297.083V301.656C148.56 302.813 149.496 303.752 150.651 303.752H171.259C172.414 303.752 173.35 302.813 173.35 301.656V297.083C173.35 295.925 172.414 294.987 171.259 294.987Z" fill="white"/>
<path d="M152.4 301.375L152.48 300.025L151.355 300.771L150.892 299.985L152.098 299.38L150.892 298.776L151.355 297.99L152.48 298.736L152.4 297.386H153.325L153.244 298.736L154.37 297.99L154.833 298.776L153.626 299.38L154.833 299.985L154.37 300.771L153.244 300.025L153.325 301.375H152.4Z" fill="#327AFF"/>
<path d="M157.788 301.375L157.868 300.025L156.742 300.771L156.28 299.985L157.486 299.38L156.28 298.776L156.742 297.99L157.868 298.736L157.788 297.386H158.713L158.632 298.736L159.758 297.99L160.22 298.776L159.014 299.38L160.22 299.985L159.758 300.771L158.632 300.025L158.713 301.375H157.788Z" fill="#327AFF"/>
<path d="M163.196 301.375L163.277 300.025L162.151 300.771L161.688 299.985L162.895 299.38L161.688 298.776L162.151 297.99L163.277 298.736L163.196 297.386H164.121L164.041 298.736L165.167 297.99L165.629 298.776L164.423 299.38L165.629 299.985L165.167 300.771L164.041 300.025L164.121 301.375H163.196Z" fill="#327AFF"/>
<path d="M168.605 301.375L168.685 300.025L167.559 300.771L167.097 299.985L168.303 299.38L167.097 298.776L167.559 297.99L168.685 298.736L168.605 297.386H169.529L169.449 298.736L170.575 297.99L171.037 298.776L169.831 299.38L171.037 299.985L170.575 300.771L169.449 300.025L169.529 301.375H168.605Z" fill="#327AFF"/>
<path d="M22.0156 111.204H27.4843C30.8218 111.204 32.6112 113.299 32.6112 116.201C32.6112 119.102 30.8017 121.157 27.4441 121.157H24.6293V126.254H22.0156V111.204ZM27.0822 118.941C29.0526 118.941 29.9372 117.792 29.9372 116.201C29.9372 114.609 29.0526 113.481 27.0822 113.481H24.6293V118.941H27.0822Z" fill="#097EF4"/>
<path d="M37.658 119.665C38.422 119.604 39.9902 119.523 40.4527 119.503V118.617C40.4527 117.489 39.749 116.844 38.4823 116.844C37.3363 116.844 36.6326 117.388 36.4316 118.194H33.9586C34.1395 116.28 35.8083 114.829 38.5426 114.829C40.6135 114.829 43.0061 115.695 43.0061 118.718V126.253H40.5532V124.701H40.4728C39.9902 125.648 38.9649 126.495 37.2559 126.495C35.1649 126.495 33.5967 125.306 33.5967 123.09C33.5967 120.551 35.6273 119.806 37.658 119.685V119.665ZM37.9194 124.52C39.4675 124.52 40.4728 123.452 40.4728 122.183V121.256L38.0601 121.417C36.8337 121.518 36.0697 122.042 36.0697 123.029C36.0697 124.016 36.8337 124.5 37.9194 124.5V124.52Z" fill="#097EF4"/>
<path d="M49.3798 116.785C48.2739 116.785 47.4697 117.349 47.4898 118.115C47.4898 118.699 47.9322 119.142 49.038 119.404L50.8877 119.807C52.9585 120.291 53.9437 121.258 53.9638 122.89C53.9638 125.005 52.1543 126.476 49.2993 126.476C46.4443 126.476 44.8761 125.187 44.6147 123.031H47.2285C47.3893 123.978 48.1131 124.461 49.2993 124.461C50.4856 124.461 51.3501 123.937 51.3501 123.111C51.3501 122.467 50.8475 122.044 49.7618 121.802L48.0126 121.399C45.9819 120.976 44.9364 119.888 44.9364 118.256C44.9364 116.181 46.6655 114.811 49.3395 114.811C52.0136 114.811 53.5617 116.12 53.7426 118.175H51.3099C51.149 117.329 50.4654 116.785 49.3798 116.785Z" fill="#097EF4"/>
<path d="M59.8949 116.785C58.7891 116.785 57.9849 117.349 58.005 118.115C58.005 118.699 58.4473 119.142 59.5531 119.404L61.4028 119.807C63.4737 120.291 64.4588 121.258 64.4789 122.89C64.4789 125.005 62.6694 126.476 59.8145 126.476C56.9595 126.476 55.3913 125.187 55.1299 123.031H57.7436C57.9044 123.978 58.6282 124.461 59.8145 124.461C61.0007 124.461 61.8652 123.937 61.8652 123.111C61.8652 122.467 61.3626 122.044 60.2769 121.802L58.5277 121.399C56.4971 120.976 55.4516 119.888 55.4516 118.256C55.4516 116.181 57.1806 114.811 59.8547 114.811C62.5287 114.811 64.0768 116.12 64.2578 118.175H61.825C61.6642 117.329 60.9806 116.785 59.8949 116.785Z" fill="#097EF4"/>
<path d="M66.1074 111.204H68.6809V119.505H68.8619L72.7825 114.972H75.7782L71.556 119.827L76.0395 126.254H72.9835L69.6259 121.419L68.6809 122.467V126.274H66.1074V111.224V111.204Z" fill="#097EF4"/>
<path d="M76.0991 120.673C76.0991 117.188 78.1499 114.811 81.2662 114.811C83.9403 114.811 86.2524 116.543 86.2524 120.512V121.338H78.6324C78.6525 123.252 79.7583 124.401 81.4271 124.401C82.553 124.401 83.317 123.897 83.6387 123.232H86.1519C85.6895 125.187 83.9403 126.476 81.407 126.476C78.1097 126.476 76.0991 124.219 76.0991 120.673ZM83.7995 119.525C83.7995 117.994 82.7943 116.866 81.3064 116.866C79.8186 116.866 78.7329 118.074 78.6525 119.525H83.7995Z" fill="#097EF4"/>
<path d="M87.8411 130.426V128.31C88.1628 128.31 88.585 128.351 88.9268 128.351C89.55 128.351 90.0728 128.29 90.5151 127.081L90.7363 126.477L86.7554 114.973H89.4696L92.0029 123.495H92.1235L94.6568 114.973H97.3711L92.9881 127.625C92.3648 129.439 91.2188 130.486 89.168 130.486C88.6654 130.486 88.1628 130.466 87.8411 130.426Z" fill="#097EF4"/>
<path d="M103.382 111.204H105.956V116.825H106.056C106.458 116.019 107.243 114.831 109.173 114.831C111.706 114.831 113.696 116.866 113.696 120.633C113.696 124.401 111.746 126.476 109.193 126.476C107.303 126.476 106.458 125.307 106.056 124.481H105.896V126.274H103.382V111.224V111.204ZM108.469 124.28C110.178 124.28 111.083 122.749 111.083 120.593C111.083 118.437 110.198 116.986 108.469 116.986C106.74 116.986 105.896 118.417 105.896 120.593C105.896 122.769 106.82 124.28 108.469 124.28Z" fill="black"/>
<path d="M115.265 130.426V128.31C115.587 128.31 116.009 128.351 116.351 128.351C116.974 128.351 117.497 128.29 117.939 127.081L118.161 126.477L114.18 114.973H116.894L119.427 123.495H119.548L122.081 114.973H124.795L120.412 127.625C119.789 129.439 118.643 130.486 116.592 130.486C116.09 130.486 115.587 130.466 115.265 130.426Z" fill="black"/>
<path d="M135.974 113.299C134.325 113.299 133.32 114.125 133.32 115.253C133.32 116.523 134.607 117.047 135.813 117.329L137.18 117.711C139.352 118.235 141.443 119.424 141.443 122.043C141.443 124.662 139.432 126.496 135.934 126.496C132.435 126.496 130.405 124.824 130.284 121.842H132.858C132.978 123.413 134.265 124.199 135.914 124.199C137.643 124.199 138.829 123.333 138.829 122.043C138.829 120.854 137.763 120.371 136.195 119.948L134.547 119.505C132.154 118.86 130.666 117.611 130.666 115.455C130.666 112.795 132.958 111.022 136.014 111.022C139.07 111.022 141.201 112.836 141.242 115.374H138.728C138.608 114.085 137.542 113.339 135.974 113.339V113.299Z" fill="black"/>
<path d="M143.312 111.204H145.926V118.115H146.127L151.817 111.204H155.013L149.384 117.954L155.074 126.254H151.917L147.554 119.787L145.926 121.761V126.254H143.312V111.204Z" fill="black"/>
<path d="M160.322 111.204H171.943V113.461H167.459V126.234H164.846V113.461H160.342V111.204H160.322Z" fill="black"/>
<path d="M171.5 120.673C171.5 117.188 173.551 114.811 176.668 114.811C179.342 114.811 181.654 116.543 181.654 120.512V121.338H174.034C174.054 123.252 175.16 124.401 176.828 124.401C177.954 124.401 178.718 123.897 179.04 123.232H181.553C181.091 125.187 179.342 126.476 176.808 126.476C173.511 126.476 171.5 124.219 171.5 120.673ZM179.201 119.525C179.201 117.994 178.196 116.866 176.708 116.866C175.22 116.866 174.134 118.074 174.054 119.525H179.201Z" fill="black"/>
<path d="M185.916 126.254H183.343V111.204H185.916V126.254Z" fill="black"/>
<path d="M187.605 120.673C187.605 117.188 189.656 114.811 192.772 114.811C195.446 114.811 197.758 116.543 197.758 120.512V121.338H190.138C190.158 123.252 191.264 124.401 192.933 124.401C194.059 124.401 194.823 123.897 195.145 123.232H197.658C197.195 125.187 195.446 126.476 192.913 126.476C189.616 126.476 187.605 124.219 187.605 120.673ZM195.305 119.525C195.305 117.994 194.3 116.866 192.812 116.866C191.325 116.866 190.239 118.074 190.158 119.525H195.305Z" fill="black"/>
<path d="M198.985 120.653C198.985 117.208 201.016 114.811 204.212 114.811C206.866 114.811 208.716 116.402 208.897 118.84H206.444C206.243 117.752 205.479 116.926 204.232 116.926C202.644 116.926 201.578 118.316 201.578 120.593C201.578 122.87 202.624 124.32 204.232 124.32C205.378 124.32 206.223 123.635 206.444 122.406H208.897C208.696 124.804 206.947 126.476 204.212 126.476C200.955 126.476 198.985 124.058 198.985 120.653Z" fill="black"/>
<path d="M210.062 120.653C210.062 117.148 212.113 114.811 215.29 114.811C218.467 114.811 220.517 117.148 220.517 120.653C220.517 124.159 218.487 126.476 215.29 126.476C212.093 126.476 210.062 124.139 210.062 120.653ZM217.924 120.633C217.924 118.578 217.059 116.906 215.31 116.906C213.561 116.906 212.656 118.578 212.656 120.633C212.656 122.688 213.521 124.36 215.31 124.36C217.099 124.36 217.924 122.708 217.924 120.633Z" fill="black"/>
<path d="M222.207 114.97H224.659V116.884H224.8C225.242 115.595 226.348 114.829 227.796 114.829C229.243 114.829 230.329 115.595 230.751 116.884H230.872C231.355 115.635 232.561 114.829 234.149 114.829C236.14 114.829 237.547 116.159 237.547 118.677V126.253H234.994V119.08C234.994 117.67 234.169 117.045 233.124 117.045C231.857 117.045 231.133 117.932 231.133 119.201V126.253H228.64V118.98C228.64 117.811 227.876 117.045 226.791 117.045C225.705 117.045 224.78 117.972 224.78 119.403V126.253H222.207V114.97Z" fill="black"/>
<path d="M49.3797 150.049C49.3595 153.977 47.4294 156.476 44.7152 156.476C42.0009 156.476 40.0708 153.977 40.0708 150.049C40.0708 146.12 41.9808 143.622 44.7152 143.601C47.4294 143.622 49.3595 146.12 49.3797 150.049ZM41.5988 150.049C41.5988 153.071 42.8856 155.005 44.7152 155.005C46.5448 155.005 47.8114 153.051 47.8114 150.049C47.8114 147.047 46.5649 145.072 44.7152 145.052C42.8856 145.052 41.5988 147.026 41.5988 150.049ZM54.0441 149.545H57.1404V150.955H54.0441V160.646H52.4357V142.171H54.0441V149.545Z" fill="black"/>
<path d="M68.2385 150.049C68.2385 153.977 66.2681 156.476 63.5338 156.476C60.7994 156.476 58.8291 153.977 58.8291 150.049C58.8291 146.12 60.7793 143.622 63.5338 143.601C66.2681 143.622 68.2385 146.12 68.2385 150.049ZM60.3973 150.049C60.3973 153.071 61.6841 155.005 63.5338 155.005C65.3835 155.005 66.6703 153.051 66.6703 150.049C66.6703 147.047 65.3835 145.072 63.5338 145.052C61.6841 145.052 60.3973 147.026 60.3973 150.049ZM73.3453 160.687H71.6966V142.171H73.3453V160.687Z" fill="black"/>
<path d="M86.4741 145.294H79.3366V154.662C82.9355 154.662 85.2879 154.542 88.0423 154.058L88.2032 155.428C85.3482 155.952 82.9154 156.053 79.1758 156.073H77.688V143.924H86.454V145.294H86.4741ZM91.7015 160.687H90.0529V142.171H91.7015V160.687Z" fill="black"/>
<path d="M95.4819 152.368C95.4819 151.643 96.0851 151.038 96.8089 151.038C97.5327 151.038 98.1358 151.643 98.1358 152.368C98.1358 153.093 97.5327 153.718 96.8089 153.718C96.0851 153.718 95.4618 153.113 95.4819 152.368Z" fill="black"/>
<path d="M102.941 148.618H108.43V143.742H110.018V156.214H101.312V143.742H102.921V148.618H102.941ZM108.43 154.844V149.948H102.941V154.844H108.43ZM115.447 160.687H113.798V142.171H115.447V160.687Z" fill="black"/>
<path d="M128.234 150.734H119.588V143.219H128.234V150.734ZM121.177 149.444H126.625V144.548H121.177V149.444ZM133.803 157.02H123.469V159.095H134.466V160.425H121.86V155.811H132.215V153.917H121.84V152.607H133.803V157.02ZM133.803 151.701H132.215V142.171H133.803V151.701Z" fill="black"/>
<path d="M152.239 155.851H150.591V148.739H146.228V152.688H137.864V143.4H139.472V146.684H144.619V143.4H146.208V147.369H150.57V142.171H152.219V155.851H152.239ZM144.659 151.338V147.973H139.512V151.338H144.659ZM152.661 160.243H140.317V154.501H141.965V158.873H152.661V160.243Z" fill="black"/>
<path d="M172.204 158.47H155.315V157.12H162.915V154.521C159.638 154.34 157.648 153.07 157.668 150.995C157.648 148.799 159.96 147.51 163.72 147.53C167.439 147.51 169.771 148.799 169.771 150.995C169.771 153.07 167.761 154.36 164.504 154.521V157.12H172.204V158.47ZM171.259 146.26H156.16V144.911H162.915V142.473H164.504V144.911H171.239V146.26H171.259ZM159.296 150.995C159.296 152.405 160.965 153.191 163.72 153.211C166.434 153.191 168.123 152.405 168.123 150.995C168.123 149.585 166.454 148.819 163.72 148.819C160.985 148.819 159.276 149.625 159.296 150.995Z" fill="black"/>
<path d="M188.812 146.523H192.672V142.151H194.32V151.943H192.672V147.873H188.832C188.49 150.049 186.6 151.48 184.107 151.48C181.312 151.48 179.322 149.747 179.322 147.229C179.322 144.71 181.312 142.998 184.107 142.998C186.58 142.998 188.47 144.408 188.812 146.523ZM180.87 147.229C180.87 148.941 182.217 150.13 184.107 150.13C185.997 150.13 187.304 148.921 187.304 147.229C187.304 145.536 185.977 144.368 184.107 144.368C182.237 144.368 180.87 145.556 180.87 147.229ZM182.679 155.328H186.037V153.011H187.545V160.385H181.131V153.011H182.659V155.328H182.679ZM186.037 159.095V156.557H182.679V159.095H186.037ZM196.231 159.297L195.386 160.546C193.677 159.861 192.571 158.551 192.008 157.02C191.425 158.531 190.299 159.841 188.671 160.546L187.826 159.297C190.038 158.39 191.224 156.355 191.224 154.482V152.91H192.833V154.482C192.813 156.436 193.979 158.471 196.231 159.297Z" fill="black"/>
<path d="M207.469 150.049C207.469 153.977 205.499 156.476 202.765 156.476C200.03 156.476 198.06 153.977 198.06 150.049C198.06 146.12 200.01 143.622 202.765 143.601C205.499 143.622 207.469 146.12 207.469 150.049ZM199.628 150.049C199.628 153.071 200.915 155.005 202.765 155.005C204.614 155.005 205.901 153.051 205.901 150.049C205.901 147.047 204.614 145.072 202.765 145.052C200.915 145.052 199.628 147.026 199.628 150.049ZM212.576 160.687H210.928V142.171H212.576V160.687Z" fill="black"/>
<path d="M217.14 163.206H215.612L216.758 157.545H218.769L217.16 163.206H217.14Z" fill="black"/>
<path d="M63.1922 174.247H61.6039V182.81C62.3076 182.77 62.9711 182.709 63.5743 182.629L63.6547 183.837C60.7394 184.381 56.8389 184.462 54.4061 184.462L54.2051 183.072H56.2156V174.267H54.6072V172.917H63.2124V174.267L63.1922 174.247ZM60.0759 182.911V174.247H57.7034V183.011C58.4876 182.991 59.2717 182.951 60.0759 182.911ZM70.189 189.015H68.6207V179.365H66.1075V188.048H64.5594V170.943H66.1075V177.995H68.6207V170.54H70.189V189.015Z" fill="black"/>
<path d="M89.6308 186.518H72.7422V185.168H89.6308V186.518ZM88.7663 179.87L88.0224 181.24C85.2478 180.595 82.3124 178.6 81.1262 175.88C79.94 178.6 77.0046 180.595 74.23 181.24L73.4861 179.87C76.6829 179.245 80.2616 176.465 80.2616 173.281V171.871H81.9706V173.281C81.9706 176.445 85.5695 179.265 88.7864 179.87H88.7663Z" fill="black"/>
<path d="M92.3857 186.013L91.481 184.704C94.9391 183.032 97.0703 180.916 98.2364 178.398L91.8227 179.022L91.5614 177.572L98.7592 177.088C99.1009 176.06 99.2819 174.972 99.3623 173.824H92.5063V172.474H101.011C100.991 177.813 99.0607 182.749 92.4058 185.993L92.3857 186.013ZM106.359 189.015H104.71V170.54H106.359V189.015Z" fill="black"/>
<path d="M126.344 186.737H109.455V185.367H117.055V181.882H111.586V176.18H122.624V173.279H111.546V171.929H124.213V177.51H113.195V180.532H124.635V181.882H118.643V185.367H126.344V186.737Z" fill="black"/>
<path d="M133.883 181.943L133.18 180.633C137.603 179.243 140.478 176.604 140.84 173.36H133.964V171.99H142.609C142.609 176.745 139.211 180.291 133.903 181.943H133.883ZM148.42 188.632H136.015V182.709H137.623V187.262H148.4V188.632H148.42ZM147.575 176.181H150.35V177.551H147.575V184.079H145.947V170.56H147.575V176.181Z" fill="black"/>
<path d="M161.87 173.4H159.98V179.868C160.844 179.807 161.669 179.747 162.473 179.666L162.553 180.895C158.954 181.459 154.752 181.52 151.777 181.52L151.576 180.13H153.968V173.421H152.098V172.091H161.89V173.421L161.87 173.4ZM167.298 188.632H154.913V183.172H156.562V187.262H167.298V188.632ZM158.412 179.968V173.4H155.536V180.049C156.481 180.049 157.446 180.009 158.412 179.968ZM166.796 184.3H165.147V178.941H161.99V177.571H165.147V175.435H161.99V174.085H165.147V170.56H166.796V184.32V184.3Z" fill="black"/>
<path d="M180.749 174.872H169.771V173.522H174.516V170.782H176.124V173.522H180.728V174.872H180.749ZM179.864 180.654C179.864 183.152 177.954 184.885 175.34 184.885C172.726 184.885 170.796 183.132 170.816 180.654C170.816 178.156 172.706 176.423 175.34 176.423C177.974 176.423 179.844 178.176 179.864 180.654ZM172.385 180.654C172.385 182.326 173.631 183.515 175.36 183.495C177.069 183.495 178.296 182.326 178.316 180.654C178.316 178.982 177.049 177.793 175.36 177.793C173.671 177.793 172.365 179.002 172.385 180.654ZM184.146 178.176H187.243V179.526H184.146V189.015H182.538V170.54H184.146V178.176Z" fill="black"/>
<path d="M200.151 188.089H198.603V179.465H194.702C193.576 181.621 191.807 183.515 189.234 185.026L188.289 183.837C192.31 181.46 194.32 178.116 194.622 174.247H189.093V172.897H196.25C196.25 174.711 195.949 176.463 195.346 178.116H198.643V171.024H200.191V188.068L200.151 188.089ZM204.011 189.015H202.463V170.54H204.011V189.015Z" fill="black"/>
<path d="M92.3051 215.126H75.4165V213.756H83.0164V210.27H77.5477V204.569H88.5856V201.667H77.5075V200.317H90.174V205.898H79.1561V208.92H90.5962V210.27H84.6047V213.756H92.3051V215.126Z" fill="black"/>
<path d="M110.581 214.682H93.7725V213.332H110.581V214.682ZM108.309 202.754C108.309 205.091 108.309 207.711 107.625 211.74L105.956 211.579C106.7 207.791 106.7 205.031 106.7 202.774V202.271H95.582V200.921H108.289V202.774L108.309 202.754Z" fill="black"/>
<path d="M122.242 204.77C122.242 207.47 120.172 209.323 117.417 209.323C114.663 209.323 112.592 207.47 112.592 204.77C112.592 202.07 114.663 200.237 117.417 200.237C120.172 200.237 122.242 202.11 122.242 204.77ZM114.16 204.77C114.16 206.623 115.527 207.893 117.397 207.893C119.267 207.893 120.634 206.623 120.634 204.77C120.634 202.916 119.227 201.667 117.397 201.667C115.567 201.667 114.14 202.957 114.16 204.77ZM127.932 216.999H115.447V211.076H117.055V215.629H127.932V216.999ZM127.349 212.466H125.741V198.947H127.349V212.466Z" fill="black"/>
<path d="M141.362 203.26H130.385V201.911H135.13V199.17H136.738V201.911H141.342V203.26H141.362ZM140.498 209.023C140.498 211.521 138.588 213.254 135.974 213.254C133.36 213.254 131.43 211.501 131.45 209.023C131.45 206.524 133.34 204.792 135.974 204.792C138.608 204.792 140.478 206.544 140.498 209.023ZM132.998 209.023C132.998 210.695 134.245 211.884 135.974 211.863C137.683 211.884 138.91 210.695 138.93 209.023C138.93 207.35 137.663 206.162 135.974 206.162C134.285 206.162 132.978 207.371 132.998 209.023ZM144.76 206.565H147.856V207.915H144.76V217.404H143.152V198.929H144.76V206.565Z" fill="black"/>
<path d="M158.21 211.763L157.286 213.032C155.516 211.944 154.229 209.97 153.586 207.733C152.903 210.191 151.535 212.287 149.686 213.435L148.64 212.206C151.194 210.715 152.742 207.431 152.742 204.268V200.702H154.31V204.207C154.31 207.129 155.737 210.312 158.19 211.763H158.21ZM160.844 216.477H159.316V206.968H156.18V205.577H159.316V199.352H160.844V216.497V216.477ZM164.644 217.404H163.076V198.929H164.644V217.404Z" fill="black"/>
<path d="M184.087 215.027H167.198V213.657H171.38V208.66C169.812 207.834 168.847 206.504 168.847 204.832C168.847 201.971 171.642 200.097 175.582 200.077C179.523 200.097 182.318 201.971 182.318 204.832C182.318 206.464 181.393 207.794 179.865 208.62V213.657H184.047V215.027H184.087ZM170.455 204.852C170.455 206.907 172.587 208.297 175.622 208.297C178.658 208.297 180.79 206.907 180.79 204.852C180.79 202.797 178.638 201.427 175.622 201.447C172.587 201.427 170.455 202.797 170.455 204.852ZM178.256 213.657V209.244C177.452 209.466 176.567 209.587 175.602 209.587C174.637 209.587 173.773 209.486 172.989 209.285V213.677H178.256V213.657Z" fill="black"/>
<path opacity="0.85" d="M218.031 1.63574H41.5409C20.6895 1.63574 3.78613 18.5807 3.78613 39.4834V455.788C3.78613 476.691 20.6895 493.636 41.5409 493.636H218.031C238.883 493.636 255.786 476.691 255.786 455.788V39.4834C255.786 18.5807 238.883 1.63574 218.031 1.63574Z" fill="#231815" stroke="#231815" stroke-width="3" stroke-miterlimit="10"/>
<path d="M92.928 373.426H91.7819V380.316C92.2645 380.276 92.7068 380.236 93.1491 380.175L93.2496 381.606C90.7566 382.11 87.4794 382.17 85.4487 382.17L85.2275 380.538H86.7154V373.426H85.5492V371.834H92.928V373.426ZM89.9925 380.437V373.426H88.4645V380.498L89.9925 380.437ZM99.1808 385.938H97.2908V377.818H95.7025V385.132H93.8528V370.243H95.7025V376.206H97.2908V369.94H99.1808V385.958V385.938Z" fill="black"/>
<path d="M115.627 383.905H101.03V382.273H115.627V383.905ZM115.044 377.68L114.159 379.332C111.485 378.767 109.294 377.156 108.248 375C107.183 377.136 104.991 378.767 102.337 379.332L101.473 377.68C104.77 377.075 107.183 374.597 107.203 372.139V370.95H109.294V372.139C109.294 374.617 111.706 377.095 115.064 377.68H115.044Z" fill="black"/>
<path d="M117.919 383.46L116.874 381.929C119.628 380.579 121.337 378.987 122.322 377.053L117.235 377.517L116.994 375.844L122.945 375.482C123.167 374.736 123.307 373.95 123.368 373.104H117.798V371.513H125.318C125.318 376.348 123.85 380.559 117.919 383.46ZM130.002 385.938H128.032V369.921H130.002V385.938Z" fill="black"/>
<path d="M151.194 384.086H136.597V382.454H142.89V379.855H138.326V374.617H147.514V372.642H138.286V371.051H149.445V376.188H140.276V378.264H149.827V379.875H144.82V382.474H151.174V384.106L151.194 384.086Z" fill="black"/>
<path d="M166.796 383.741H152.239V382.129H166.796V383.741ZM164.946 373.304C164.946 375.44 164.946 377.656 164.363 381.021L162.372 380.84C162.996 377.697 162.996 375.36 162.996 373.304V373.083H153.787V371.491H164.946V373.304Z" fill="black"/>
<path d="M176.768 374.996C176.768 377.373 174.898 379.025 172.466 379.025C170.033 379.025 168.163 377.373 168.163 374.996C168.163 372.618 170.033 370.986 172.466 370.986C174.898 370.986 176.768 372.659 176.768 374.996ZM170.093 374.996C170.093 376.406 171.119 377.293 172.486 377.293C173.853 377.293 174.858 376.406 174.858 374.996C174.858 373.586 173.813 372.719 172.486 372.719C171.159 372.719 170.073 373.626 170.093 374.996ZM181.634 385.614H170.616V380.335H172.586V384.022H181.614V385.614H181.634ZM181.191 381.524H179.221V369.959H181.191V381.524Z" fill="black"/>
<path d="M0 327.147V458.126C0 479.885 17.4516 497.635 38.9243 497.635H220.658C242.131 497.635 259.482 479.865 259.482 458.126V327.147C259.482 321.062 254.616 316.126 248.605 316.126H10.8771C4.86553 316.126 0 321.062 0 327.147Z" fill="#F2F1F6"/>
<path d="M121.364 356.248C124.758 356.248 127.51 353.5 127.51 350.109C127.51 346.719 124.758 343.971 121.364 343.971C117.969 343.971 115.218 346.719 115.218 350.109C115.218 353.5 117.969 356.248 121.364 356.248Z" stroke="#097EF4" stroke-width="2" stroke-miterlimit="10"/>
<path d="M130.431 349.421H144.264L142.216 355.134" stroke="#097EF4" stroke-width="2" stroke-miterlimit="10"/>
<path d="M98.897 368.514V382.639H97.2251V375.467H95.8188V381.92H94.1782V368.779H95.8188V374.045H97.2251V368.514H98.897ZM93.3657 370.186V371.592H92.3501V377.67C92.772 377.639 93.1704 377.6 93.5532 377.545L93.647 378.811C91.4438 379.264 88.5376 379.311 86.7563 379.311L86.5532 377.873L87.8657 377.857V371.592H86.8345V370.186H93.3657ZM89.4282 377.826L90.772 377.779V371.592H89.4282V377.826ZM107.834 370.451C107.834 372.639 109.975 374.826 112.928 375.342L112.147 376.795C109.78 376.295 107.842 374.865 106.928 372.967C105.991 374.85 104.053 376.287 101.694 376.795L100.928 375.342C103.85 374.811 105.975 372.623 105.991 370.451V369.404H107.834V370.451ZM113.444 379.404V380.842H100.538V379.404H113.444ZM122.022 369.904C122.006 374.17 120.725 377.889 115.475 380.451L114.553 379.107C116.983 377.92 118.499 376.506 119.366 374.811L114.866 375.217L114.647 373.732L119.913 373.404C120.108 372.748 120.225 372.045 120.288 371.311H115.366V369.904H122.022ZM126.163 368.514V382.639H124.413V368.514H126.163ZM144.897 379.561V380.998H131.991V379.561H137.553V377.264H133.522V372.639H141.647V370.889H133.491V369.482H143.366V374.014H135.256V375.842H143.694V377.264H139.272V379.561H144.897ZM157.053 369.889V371.482C157.053 373.373 157.053 375.326 156.538 378.295L154.772 378.139C155.319 375.357 155.319 373.311 155.319 371.482V371.295H147.178V369.889H157.053ZM158.694 379.279V380.701H145.819V379.279H158.694ZM171.413 368.529V378.732H169.663V368.529H171.413ZM171.803 380.951V382.357H162.069V377.701H163.819V380.951H171.803ZM163.709 369.451C165.85 369.451 167.506 370.936 167.506 372.982C167.506 375.076 165.85 376.529 163.709 376.529C161.553 376.529 159.897 375.076 159.897 372.982C159.897 370.936 161.553 369.451 163.709 369.451ZM163.709 370.967C162.506 370.967 161.584 371.764 161.6 372.982C161.584 374.232 162.506 375.014 163.709 375.014C164.881 375.014 165.803 374.232 165.803 372.982C165.803 371.764 164.881 370.967 163.709 370.967Z" fill="black"/>
<circle cx="129.741" cy="430.574" r="29.3257" fill="#097EF4" fill-opacity="0.05"/>
<g clip-path="url(#clip0_100_4429)">
<path d="M111.951 424.184C111.951 424.184 113.354 420.167 116.872 416.899C121.619 412.459 131.115 409.076 142.533 416.707" stroke="#097EF4" stroke-width="2.5" stroke-miterlimit="10" stroke-linecap="round"/>
<path d="M146.012 421.608C146.012 421.608 150.798 425.914 147.896 437.082" stroke="#097EF4" stroke-width="2.5" stroke-miterlimit="10" stroke-linecap="round"/>
<path d="M110.913 429.47C110.913 429.47 109.875 433.718 111.951 436.563" stroke="#097EF4" stroke-width="2.5" stroke-miterlimit="10" stroke-linecap="round"/>
<path d="M125.118 419.532C125.118 419.532 129.693 417.879 134.114 418.994C138.381 420.07 142.533 423.722 142.533 433.007C142.533 436.716 140.976 447.769 140.976 447.769" stroke="#097EF4" stroke-width="2.5" stroke-miterlimit="10" stroke-linecap="round"/>
<path d="M120.082 422.512C120.082 422.512 117.198 424.434 117.121 428.836C117.045 432.738 116.987 442.637 116.083 444.444" stroke="#097EF4" stroke-width="2.5" stroke-miterlimit="10" stroke-linecap="round"/>
<path d="M136.074 437.331C136.074 437.331 136.247 432.295 136.074 430.623C135.824 428.374 134.652 424.049 129.116 424.818C129.116 424.818 122.792 425.337 123.695 432.295C123.695 432.295 124.464 445.193 121.754 449.191" stroke="#097EF4" stroke-width="2.5" stroke-miterlimit="10" stroke-linecap="round"/>
<path d="M129.885 430.623C129.885 430.623 130.519 435.621 128.924 442.483" stroke="#097EF4" stroke-width="2.5" stroke-miterlimit="10" stroke-linecap="round"/>
<path d="M135.036 443.521L134.402 450.365" stroke="#097EF4" stroke-width="2.5" stroke-miterlimit="10" stroke-linecap="round"/>
<path d="M128.924 446.942L127.232 451.402" stroke="#097EF4" stroke-width="2.5" stroke-miterlimit="10" stroke-linecap="round"/>
</g>
<defs>
<clipPath id="clip0_100_4429">
<rect width="42" height="43.0764" fill="white" transform="translate(108.741 410.248)"/>
</clipPath>
</defs>
</svg>
