<svg width="260" height="502" viewBox="0 0 260 502" fill="none" xmlns="http://www.w3.org/2000/svg">
<path d="M219.235 1.5H39.872C18.6797 1.5 1.5 18.6861 1.5 39.8862V462.115C1.5 483.315 18.6797 500.501 39.872 500.501H219.235C240.428 500.501 257.607 483.315 257.607 462.115V39.8862C257.607 18.6861 240.428 1.5 219.235 1.5Z" fill="#EEF0F2" stroke="#EEF0F2" stroke-width="3" stroke-miterlimit="10"/>
<path d="M99.7264 33.0854C99.7264 33.0854 99.6261 33.0854 99.586 33.0654C99.5459 33.0654 99.5058 33.0252 99.4657 32.9851L97.2392 30.7377C97.2392 30.7377 97.179 30.6574 97.1589 30.6173C97.1589 30.5772 97.1389 30.517 97.1389 30.4768C97.1389 30.4367 97.1389 30.3765 97.1589 30.3364C97.1589 30.2963 97.199 30.2561 97.2392 30.216C97.9212 29.6341 98.8037 29.313 99.6863 29.313C100.569 29.313 101.451 29.6341 102.133 30.216C102.174 30.2561 102.194 30.2963 102.214 30.3364C102.214 30.3765 102.254 30.4166 102.254 30.4768C102.254 30.517 102.254 30.5772 102.234 30.6173C102.234 30.6574 102.194 30.6976 102.154 30.7377L99.9471 32.9851C99.9471 32.9851 99.8668 33.0453 99.8267 33.0654C99.7866 33.0654 99.7465 33.0854 99.6863 33.0854H99.7264ZM103.618 29.1525C103.618 29.1525 103.437 29.1124 103.377 29.0522C102.374 28.1492 101.07 27.6475 99.7264 27.6475C98.3825 27.6475 97.0787 28.1492 96.0758 29.0522C96.0156 29.1124 95.9354 29.1525 95.8351 29.1525C95.7949 29.1525 95.7548 29.1525 95.6947 29.1324C95.6545 29.1324 95.6144 29.0923 95.5743 29.0522L94.2906 27.7479C94.2906 27.7479 94.2304 27.6676 94.2103 27.6275C94.1903 27.5873 94.1903 27.5271 94.1903 27.487C94.1903 27.4469 94.1903 27.3867 94.2103 27.3465C94.2304 27.3064 94.2504 27.2663 94.2906 27.2262C95.7548 25.8617 97.7005 25.0992 99.7064 25.0992C101.712 25.0992 103.658 25.8617 105.122 27.2262C105.162 27.2663 105.182 27.3064 105.202 27.3465C105.202 27.3867 105.222 27.4469 105.222 27.487C105.222 27.5271 105.222 27.5873 105.202 27.6275C105.202 27.6676 105.162 27.7077 105.122 27.7479L103.838 29.0522C103.838 29.0522 103.778 29.1124 103.718 29.1324C103.678 29.1324 103.638 29.1525 103.578 29.1525H103.618ZM106.586 26.1627C106.586 26.1627 106.506 26.1627 106.466 26.1426C106.426 26.1426 106.386 26.1025 106.366 26.0623C104.581 24.3567 102.214 23.4136 99.7465 23.4136C97.2793 23.4136 94.9124 24.3567 93.1272 26.0623C93.087 26.1025 93.067 26.1225 93.0068 26.1426C92.9466 26.1627 92.9266 26.1627 92.8865 26.1627C92.8463 26.1627 92.8062 26.1627 92.7661 26.1426C92.726 26.1426 92.6859 26.1025 92.6458 26.0623L91.362 24.758C91.362 24.758 91.3018 24.6778 91.2818 24.6376C91.2818 24.5975 91.2617 24.5574 91.2617 24.4972C91.2617 24.437 91.2617 24.3968 91.2818 24.3567C91.2818 24.3166 91.3219 24.2765 91.362 24.2363C93.6086 22.0692 96.6173 20.8652 99.7465 20.8652C102.876 20.8652 105.864 22.0692 108.131 24.2363C108.171 24.2765 108.191 24.3166 108.211 24.3567C108.211 24.3968 108.231 24.437 108.231 24.4972C108.231 24.5574 108.231 24.5975 108.211 24.6376C108.211 24.6778 108.171 24.7179 108.131 24.758L106.847 26.0623C106.847 26.0623 106.707 26.1627 106.607 26.1627H106.586Z" fill="black"/>
<path d="M55.6377 32.6442V31.1393C55.8182 31.2998 56.0188 31.4202 56.2595 31.5406C56.5002 31.661 56.761 31.7613 57.0217 31.8416C57.2825 31.9218 57.5633 31.982 57.8241 32.0222C58.0848 32.0623 58.3456 32.0824 58.5662 32.0824C59.3485 32.0824 59.9302 31.9419 60.3113 31.661C60.6924 31.36 60.893 30.9587 60.893 30.3968C60.893 30.0958 60.8329 29.855 60.6924 29.6343C60.5721 29.4136 60.3916 29.2129 60.1709 29.0524C59.9503 28.8718 59.6695 28.6912 59.3686 28.5307C59.0677 28.3702 58.7267 28.1896 58.3657 28.009C57.9845 27.8083 57.6435 27.6277 57.3026 27.427C56.9816 27.2264 56.6807 27.0057 56.44 26.7849C56.1993 26.5441 55.9988 26.2833 55.8583 25.9823C55.7179 25.6813 55.6578 25.3201 55.6578 24.9188C55.6578 24.4172 55.758 23.9958 55.9787 23.6346C56.1993 23.2734 56.4802 22.9724 56.8412 22.7316C57.2023 22.4908 57.6034 22.3102 58.0447 22.2099C58.5061 22.0895 58.9674 22.0293 59.4288 22.0293C60.4919 22.0293 61.2741 22.1497 61.7756 22.4106V23.8352C61.1337 23.3938 60.3113 23.1731 59.3084 23.1731C59.0276 23.1731 58.7468 23.2132 58.486 23.2734C58.2052 23.3336 57.9645 23.4139 57.7438 23.5543C57.5232 23.6948 57.3427 23.8553 57.2223 24.056C57.0819 24.2566 57.0217 24.5175 57.0217 24.8185C57.0217 25.0994 57.0819 25.3402 57.1822 25.5408C57.2825 25.7415 57.443 25.9221 57.6435 26.1027C57.8441 26.2632 58.0848 26.4237 58.3857 26.5843C58.6866 26.7448 59.0075 26.9053 59.3886 27.106C59.7698 27.3067 60.1509 27.5073 60.4919 27.708C60.8329 27.9287 61.1538 28.1494 61.4146 28.4103C61.6753 28.6711 61.8759 28.9521 62.0364 29.2731C62.1968 29.5942 62.2771 29.9353 62.2771 30.3567C62.2771 30.8985 62.1768 31.3399 61.9561 31.7212C61.7556 32.0824 61.4747 32.3833 61.1137 32.6241C60.7526 32.8649 60.3515 33.0255 59.8901 33.1258C59.4288 33.2261 58.9273 33.2863 58.4258 33.2863C58.2453 33.2863 58.0447 33.2863 57.784 33.2462C57.5232 33.2261 57.2825 33.186 57.0217 33.1258C56.761 33.0656 56.5002 33.0054 56.2796 32.9452C56.0389 32.8649 55.8583 32.7847 55.7179 32.6843L55.6377 32.6442ZM71.9252 33.0857H70.1601L65.9678 28.1294C65.8074 27.9488 65.7071 27.8083 65.687 27.7481H65.6469V33.0857H64.3832V22.23H65.6469V27.3267H65.687C65.7673 27.2063 65.8475 27.0859 65.9678 26.9655L70.0197 22.23H71.6043L66.9507 27.427L71.9252 33.0656V33.0857ZM79.7681 23.3737H76.639V33.0857H75.3753V23.3737H72.2462V22.23H79.7681V23.3737Z" fill="#222222"/>
<path d="M48.0759 32.7041H46.9727C46.6718 32.7041 46.391 32.5837 46.1904 32.383C45.9898 32.1824 45.8695 31.9014 45.8695 31.6004V22.0089C45.8695 21.7079 45.9898 21.427 46.1904 21.2263C46.391 21.0257 46.6718 20.9053 46.9727 20.9053H48.0759C48.3768 20.9053 48.6576 21.0257 48.8582 21.2263C49.0588 21.427 49.1791 21.7079 49.1791 22.0089V31.6004C49.1791 31.9014 49.0588 32.1824 48.8582 32.383C48.6576 32.5837 48.3768 32.7041 48.0759 32.7041ZM42.9209 32.7041H41.8176C41.5168 32.7041 41.2359 32.5837 41.0354 32.383C40.8348 32.1824 40.7144 31.9014 40.7144 31.6004V24.5974C40.7144 24.2964 40.8348 24.0155 41.0354 23.8148C41.2359 23.6142 41.5168 23.4938 41.8176 23.4938H42.9209C43.2217 23.4938 43.5026 23.6142 43.7032 23.8148C43.9037 24.0155 44.0241 24.2964 44.0241 24.5974V31.6004C44.0241 31.9014 43.9037 32.1824 43.7032 32.383C43.5026 32.5837 43.2217 32.7041 42.9209 32.7041ZM37.7458 32.7041H36.6425C36.3417 32.7041 36.0608 32.5837 35.8603 32.383C35.6597 32.1824 35.5393 31.9014 35.5393 31.6004V27.1659C35.5393 26.8649 35.6597 26.5839 35.8603 26.3833C36.0608 26.1826 36.3417 26.0622 36.6425 26.0622H37.7458C38.0466 26.0622 38.3275 26.1826 38.528 26.3833C38.7286 26.5839 38.849 26.8649 38.849 27.1659V31.6004C38.849 31.9014 38.7286 32.1824 38.528 32.383C38.3275 32.5837 38.0466 32.7041 37.7458 32.7041ZM32.5907 32.7041H31.4875C31.1866 32.7041 30.9058 32.5837 30.7052 32.383C30.5046 32.1824 30.3843 31.9014 30.3843 31.6004V29.3932C30.3843 29.0922 30.5046 28.8113 30.7052 28.6106C30.9058 28.41 31.1866 28.2896 31.4875 28.2896H32.5907C32.8916 28.2896 33.1724 28.41 33.373 28.6106C33.5736 28.8113 33.6939 29.0922 33.6939 29.3932V31.6004C33.6939 31.9014 33.5736 32.1824 33.373 32.383C33.1724 32.5837 32.8916 32.7041 32.5907 32.7041Z" fill="black"/>
<path d="M223.207 21.3662H204.773C203.449 21.3662 202.366 22.4498 202.366 23.7741V30.416C202.366 31.7403 203.449 32.8239 204.773 32.8239H223.207C224.531 32.8239 225.614 31.7403 225.614 30.416V23.7741C225.614 22.4498 224.531 21.3662 223.207 21.3662Z" stroke="black" stroke-width="0.4" stroke-miterlimit="10"/>
<path d="M227.279 24.8779V29.3125C227.72 29.1319 228.081 28.8309 228.342 28.4296C228.603 28.0283 228.743 27.5668 228.743 27.1053C228.743 26.6437 228.603 26.1622 228.342 25.7809C228.081 25.3796 227.7 25.0786 227.279 24.898V24.8779Z" fill="black"/>
<path d="M222.485 23.0312H205.516C204.693 23.0312 204.031 23.6934 204.031 24.5161V29.6731C204.031 30.4958 204.693 31.158 205.516 31.158H222.485C223.308 31.158 223.969 30.4958 223.969 29.6731V24.5161C223.969 23.6934 223.308 23.0312 222.485 23.0312Z" fill="black"/>
<path d="M6.19385 444.354V458.2C6.19385 478.627 22.7421 495.182 43.1617 495.182H215.946C236.366 495.182 252.914 478.627 252.914 458.2V444.354H6.19385Z" fill="white"/>
<path d="M128.892 476.462C133.678 476.462 137.558 472.581 137.558 467.794C137.558 463.006 133.678 459.125 128.892 459.125C124.107 459.125 120.227 463.006 120.227 467.794C120.227 472.581 124.107 476.462 128.892 476.462Z" stroke="#DCE1E5" stroke-width="2" stroke-miterlimit="10"/>
<path d="M212.235 459.666H196.008V475.899H212.235V459.666Z" stroke="#DCE1E5" stroke-width="2" stroke-miterlimit="10"/>
<path d="M46.8726 467.793L60.4321 477.385V458.182L46.8726 467.793Z" stroke="#DCE1E5" stroke-width="2" stroke-miterlimit="10"/>
<path d="M37.7338 164.326V152.307H42.6479C45.3539 152.307 47.0141 154 47.0141 156.44C47.0141 158.931 45.3207 160.558 42.5649 160.558H40.5561V164.326H37.7338ZM40.5561 158.316H42.0502C43.3784 158.316 44.0922 157.569 44.0922 156.44C44.0922 155.312 43.3784 154.598 42.0502 154.598H40.5561V158.316ZM47.6098 161.819C47.6098 159.827 49.1537 159.113 50.9467 158.997C51.5941 158.956 52.723 158.914 53.1049 158.897V158.167C53.1049 157.536 52.64 157.188 51.8764 157.188C51.1293 157.188 50.6645 157.503 50.5482 158.101H47.9418C48.058 156.507 49.4193 155.195 51.9428 155.195C54.1674 155.195 55.9105 156.258 55.9105 158.2V164.326H53.2709V163.064H53.2045C52.7064 163.978 51.8432 164.492 50.5814 164.492C48.8549 164.492 47.6098 163.612 47.6098 161.819ZM50.266 161.703C50.266 162.317 50.7475 162.633 51.4281 162.633C52.3744 162.633 53.1381 162.019 53.1215 161.122V160.541C52.7811 160.558 51.8266 160.599 51.4115 160.641C50.7143 160.724 50.266 161.105 50.266 161.703ZM62.7318 158.101C62.6488 157.503 62.1175 157.121 61.3705 157.121C60.6732 157.121 60.1253 157.437 60.142 157.901C60.1253 158.25 60.391 158.532 61.1712 158.682L62.8812 159.014C64.6742 159.362 65.5375 160.143 65.5541 161.454C65.5375 163.297 63.8441 164.492 61.4037 164.492C58.8304 164.492 57.3197 163.347 57.1371 161.554H59.9261C60.0257 162.201 60.5902 162.55 61.4203 162.55C62.1839 162.55 62.6986 162.251 62.7152 161.753C62.6986 161.354 62.35 161.105 61.5697 160.939L60.0257 160.657C58.2494 160.325 57.3529 159.429 57.3695 158.051C57.3529 156.258 58.8802 155.195 61.3207 155.195C63.7445 155.195 65.222 156.308 65.3382 158.101H62.7318ZM72.0433 158.101C71.9603 157.503 71.429 157.121 70.682 157.121C69.9847 157.121 69.4368 157.437 69.4534 157.901C69.4368 158.25 69.7025 158.532 70.4827 158.682L72.1927 159.014C73.9857 159.362 74.8489 160.143 74.8655 161.454C74.8489 163.297 73.1556 164.492 70.7152 164.492C68.1419 164.492 66.6312 163.347 66.4486 161.554H69.2376C69.3372 162.201 69.9017 162.55 70.7318 162.55C71.4954 162.55 72.0101 162.251 72.0267 161.753C72.0101 161.354 71.6614 161.105 70.8812 160.939L69.3372 160.657C67.5609 160.325 66.6644 159.429 66.681 158.051C66.6644 156.258 68.1917 155.195 70.6321 155.195C73.056 155.195 74.5335 156.308 74.6497 158.101H72.0433ZM76.1585 164.326V152.307H78.9641V158.582H79.0803L81.6868 155.312H84.8743L81.637 159.229L85.0071 164.326H81.7698L79.5618 160.873L78.9641 161.57V164.326H76.1585ZM89.6203 164.492C86.7981 164.492 85.0715 162.732 85.0715 159.86C85.0715 157.071 86.8147 155.195 89.5207 155.195C92.0442 155.195 93.8703 156.806 93.8703 159.794V160.508H87.8274V160.558C87.8274 161.72 88.5412 162.467 89.6702 162.467C90.4338 162.467 90.9983 162.135 91.2307 161.604H93.8371C93.5051 163.363 91.9612 164.492 89.6203 164.492ZM87.8274 158.864H91.2639C91.2473 157.901 90.55 157.221 89.5871 157.221C88.5911 157.221 87.8689 157.926 87.8274 158.864ZM96.6076 167.713C96.0764 167.713 95.5783 167.696 95.2131 167.663V165.538C95.5783 165.571 95.9768 165.571 96.3088 165.571C96.7736 165.571 97.1223 165.521 97.3713 164.924L97.4709 164.642L94.2668 155.312H97.1887L98.8986 161.786H98.9982L100.708 155.312H103.663L100.243 165.206C99.7453 166.684 98.716 167.713 96.6076 167.713Z" fill="#097EF4"/>
<path d="M108.391 164.326V152.307H111.18V156.855H111.246C111.595 156.042 112.359 155.195 113.803 155.195C115.695 155.195 117.405 156.656 117.405 159.827C117.405 162.882 115.795 164.459 113.786 164.459C112.408 164.459 111.611 163.679 111.246 162.865H111.163V164.326H108.391ZM111.13 159.811C111.13 161.305 111.761 162.268 112.84 162.268C113.919 162.268 114.533 161.305 114.533 159.811C114.533 158.35 113.936 157.387 112.84 157.387C111.744 157.387 111.13 158.316 111.13 159.811ZM120.126 167.713C119.595 167.713 119.097 167.696 118.732 167.663V165.538C119.097 165.571 119.495 165.571 119.827 165.571C120.292 165.571 120.641 165.521 120.89 164.924L120.989 164.642L117.785 155.312H120.707L122.417 161.786H122.517L124.227 155.312H127.182L123.762 165.206C123.264 166.684 122.234 167.713 120.126 167.713ZM138.4 155.876C138.334 154.996 137.687 154.481 136.524 154.481C135.379 154.481 134.798 154.979 134.781 155.66C134.765 156.407 135.495 156.772 136.574 157.005L137.62 157.254C139.928 157.769 141.272 158.914 141.289 160.84C141.272 163.114 139.513 164.492 136.524 164.492C133.536 164.492 131.594 163.131 131.544 160.375H134.267C134.333 161.537 135.196 162.135 136.491 162.135C137.687 162.135 138.4 161.604 138.417 160.84C138.4 160.143 137.786 159.777 136.458 159.479L135.196 159.18C133.121 158.698 131.859 157.669 131.859 155.859C131.843 153.635 133.818 152.141 136.541 152.141C139.313 152.141 141.09 153.651 141.123 155.876H138.4ZM142.665 164.326V152.307H145.487V157.437H145.653L149.687 152.307H153.041L148.741 157.669L153.107 164.326H149.721L146.683 159.562L145.487 161.039V164.326H142.665ZM162.815 155.312V157.37H161.172V161.504C161.172 162.068 161.454 162.234 161.935 162.251C162.168 162.268 162.616 162.234 162.932 162.218V164.359C162.666 164.393 162.201 164.459 161.537 164.459C159.561 164.459 158.366 163.646 158.383 161.819V157.37H157.171V155.312H158.383V153.153H161.172V155.312H162.815ZM168.275 164.492C165.453 164.492 163.726 162.732 163.726 159.86C163.726 157.071 165.47 155.195 168.176 155.195C170.699 155.195 172.525 156.806 172.525 159.794V160.508H166.482V160.558C166.482 161.72 167.196 162.467 168.325 162.467C169.089 162.467 169.653 162.135 169.886 161.604H172.492C172.16 163.363 170.616 164.492 168.275 164.492ZM166.482 158.864H169.919C169.902 157.901 169.205 157.221 168.242 157.221C167.246 157.221 166.524 157.926 166.482 158.864ZM176.69 152.307V164.326H173.885V152.307H176.69ZM182.598 164.492C179.776 164.492 178.05 162.732 178.05 159.86C178.05 157.071 179.793 155.195 182.499 155.195C185.022 155.195 186.848 156.806 186.848 159.794V160.508H180.805V160.558C180.805 161.72 181.519 162.467 182.648 162.467C183.412 162.467 183.976 162.135 184.209 161.604H186.815C186.483 163.363 184.939 164.492 182.598 164.492ZM180.805 158.864H184.242C184.225 157.901 183.528 157.221 182.565 157.221C181.569 157.221 180.847 157.926 180.805 158.864ZM192.391 164.492C189.552 164.492 187.859 162.6 187.859 159.844C187.859 157.088 189.569 155.195 192.391 155.195C194.865 155.195 196.475 156.623 196.542 158.814H193.935C193.802 157.901 193.271 157.32 192.425 157.32C191.395 157.32 190.715 158.2 190.715 159.811C190.715 161.438 191.379 162.317 192.425 162.317C193.221 162.317 193.819 161.803 193.935 160.84H196.542C196.459 163.031 194.898 164.492 192.391 164.492ZM202.085 164.492C199.262 164.492 197.552 162.616 197.552 159.844C197.552 157.071 199.262 155.195 202.085 155.195C204.907 155.195 206.617 157.071 206.617 159.844C206.617 162.616 204.907 164.492 202.085 164.492ZM202.101 162.384C203.164 162.384 203.761 161.338 203.761 159.827C203.761 158.316 203.164 157.271 202.101 157.271C201.006 157.271 200.408 158.316 200.408 159.827C200.408 161.338 201.006 162.384 202.101 162.384ZM207.976 164.326V155.312H210.632V156.955H210.732C211.114 155.859 212.044 155.195 213.289 155.195C214.534 155.195 215.497 155.876 215.729 156.955H215.829C216.177 155.893 217.223 155.195 218.551 155.195C220.245 155.195 221.423 156.341 221.423 158.25V164.326H218.618V158.881C218.618 157.968 218.087 157.47 217.339 157.47C216.526 157.47 216.045 158.051 216.045 158.914V164.326H213.355V158.848C213.355 158.001 212.84 157.47 212.093 157.47C211.313 157.47 210.782 158.067 210.782 158.98V164.326H207.976Z" fill="#121212"/>
<path d="M62.7412 191.842V192.873H50.0225V191.842H55.7412V189.217H51.6162V184.936H59.9287V182.748H51.585V181.732H61.1319V185.936H52.835V188.201H61.46V189.217H56.9444V191.842H62.7412ZM74.8037 182.186V183.576C74.8037 185.326 74.8037 187.311 74.2881 190.326L73.0381 190.201C73.6006 187.357 73.6006 185.279 73.6006 183.576V183.201H65.2256V182.186H74.8037ZM76.5069 191.529V192.545H63.8506V191.529H76.5069ZM89.1475 180.717V190.873H87.9287V180.717H89.1475ZM89.585 193.264V194.295H80.1787V189.842H81.3975V193.264H89.585ZM81.6475 181.686C83.7256 181.686 85.2881 183.092 85.2881 185.092C85.2881 187.123 83.7256 188.514 81.6475 188.514C79.5694 188.514 78.0069 187.123 78.0069 185.092C78.0069 183.092 79.5694 181.686 81.6475 181.686ZM81.6475 182.764C80.2412 182.764 79.1944 183.732 79.21 185.092C79.1944 186.482 80.2412 187.436 81.6475 187.436C83.0225 187.436 84.085 186.482 84.085 185.092C84.085 183.732 83.0225 182.764 81.6475 182.764ZM102.96 180.701V194.623H101.726V180.701H102.96ZM95.5694 181.779C97.6319 181.795 99.1162 183.67 99.1162 186.623C99.1162 189.576 97.6319 191.451 95.5694 191.451C93.4912 191.451 92.0225 189.576 92.0225 186.623C92.0225 183.67 93.4912 181.795 95.5694 181.779ZM95.5694 182.873C94.1787 182.889 93.21 184.357 93.21 186.623C93.21 188.889 94.1787 190.357 95.5694 190.357C96.96 190.357 97.9287 188.889 97.9287 186.623C97.9287 184.357 96.96 182.889 95.5694 182.873ZM113.585 181.357C115.616 181.357 117.038 182.451 117.038 184.107C117.038 185.537 115.913 186.576 114.241 186.779V188.139C115.538 188.084 116.858 187.967 118.069 187.779L118.163 188.701C115.226 189.232 111.897 189.264 109.491 189.264L109.335 188.248C110.413 188.256 111.679 188.248 113.007 188.201V186.795C111.288 186.607 110.132 185.561 110.147 184.107C110.132 182.451 111.554 181.357 113.585 181.357ZM113.585 182.311C112.241 182.311 111.288 183.029 111.304 184.107C111.288 185.154 112.241 185.873 113.585 185.889C114.944 185.873 115.866 185.154 115.882 184.107C115.866 183.029 114.944 182.311 113.585 182.311ZM120.194 180.717V185.42H122.272V186.467H120.194V191.342H118.96V180.717H120.194ZM120.694 193.248V194.279H111.366V190.42H112.601V193.248H120.694ZM135.897 191.842V192.873H123.179V191.842H126.757V189.201H124.772V184.92H133.085V182.748H124.741V181.732H134.288V185.936H125.991V188.186H134.616V189.201H132.444V191.842H135.897ZM127.96 191.842H131.241V189.201H127.96V191.842ZM145.288 186.701V187.717H142.241V190.451C143.601 190.396 144.968 190.303 146.257 190.154L146.351 191.076C143.272 191.529 139.913 191.576 137.257 191.576L137.085 190.545C138.296 190.545 139.64 190.537 141.022 190.498V187.717H138.147V182.029H145.226V183.029H139.351V186.701H145.288ZM148.397 180.701V194.623H147.179V180.701H148.397ZM155.616 190.014C155.616 191.256 156.272 192.568 157.601 193.326C158.929 192.498 159.616 191.084 159.616 190.014V189.17H160.819V190.014C160.819 191.451 161.851 192.889 163.663 193.498L163.022 194.42C161.64 193.92 160.671 192.943 160.21 191.764C159.765 192.904 158.913 193.975 157.616 194.529C156.28 194.021 155.429 192.99 155.007 191.826C154.507 192.943 153.554 193.912 152.226 194.42L151.616 193.498C153.382 192.857 154.429 191.357 154.444 190.014V189.17H155.616V190.014ZM154.663 181.498C156.491 181.498 157.921 182.592 158.194 184.201H161.116V180.701H162.351V188.639H161.116V185.217H158.21C157.968 186.881 156.522 187.998 154.663 187.998C152.585 187.998 151.069 186.67 151.069 184.748C151.069 182.842 152.585 181.498 154.663 181.498ZM154.663 182.545C153.272 182.529 152.241 183.451 152.257 184.748C152.241 186.029 153.272 186.967 154.663 186.982C156.022 186.967 157.054 186.029 157.054 184.748C157.054 183.451 156.022 182.529 154.663 182.545ZM167.491 189.045V190.67H174.429V189.045H175.663V194.404H166.272V189.045H167.491ZM167.491 193.42H174.429V191.639H167.491V193.42ZM177.319 187.045V188.061H164.663V187.045H177.319ZM171.632 181.514C171.632 183.232 174.163 184.764 176.601 185.076L176.147 186.061C173.991 185.74 171.882 184.639 171.007 183.076C170.116 184.646 167.991 185.74 165.851 186.061L165.382 185.076C167.851 184.748 170.366 183.279 170.366 181.514V180.857H171.632V181.514ZM189.944 180.701V194.592H188.726V180.701H189.944ZM180.601 182.076V189.951C182.718 189.943 184.913 189.771 187.241 189.279L187.413 190.326C184.944 190.842 182.741 191.014 180.522 191.014H179.397V182.076H180.601ZM203.069 180.701V186.201H205.397V187.232H203.069V194.623H201.851V180.701H203.069ZM199.413 182.061V183.076H194.147V190.107C196.663 190.107 198.444 189.99 200.507 189.607L200.663 190.67C198.491 191.061 196.663 191.139 194.022 191.139H192.929V182.061H199.413ZM207.616 193.42C207.069 193.42 206.601 192.967 206.616 192.404C206.601 191.857 207.069 191.404 207.616 191.404C208.163 191.404 208.616 191.857 208.616 192.404C208.616 192.967 208.163 193.42 207.616 193.42Z" fill="#C0C0C0"/>
<path d="M129.554 270.633C142.617 270.633 153.207 260.043 153.207 246.979C153.207 233.916 142.617 223.326 129.554 223.326C116.49 223.326 105.9 233.916 105.9 246.979C105.9 260.043 116.49 270.633 129.554 270.633Z" fill="#097EF4"/>
<path d="M117.635 245.183L127.017 254.208L141.473 239.752" stroke="white" stroke-width="3" stroke-miterlimit="10"/>
</svg>
