<svg width="222" height="427" viewBox="0 0 222 427" fill="none" xmlns="http://www.w3.org/2000/svg">
<path d="M186.608 3.03613H35.3923C17.5211 3.03613 3.03369 17.5362 3.03369 35.423V391.577C3.03369 409.464 17.5211 423.964 35.3923 423.964H186.608C204.479 423.964 218.966 409.464 218.966 391.577V35.423C218.966 17.5362 204.479 3.03613 186.608 3.03613Z" fill="#EEF0F2" stroke="#EEF0F2" stroke-width="3" stroke-miterlimit="10"/>
<path d="M79.8652 105.479H82.0899V122.037H90.3615V124.102H79.8652V105.5V105.479Z" fill="black"/>
<path d="M92.4243 117.159C92.4243 112.807 94.8917 109.933 98.532 109.933C102.172 109.933 104.599 112.807 104.599 117.159C104.599 121.511 102.152 124.345 98.532 124.345C94.9119 124.345 92.4243 121.491 92.4243 117.159ZM102.476 117.159C102.476 114.386 101.222 111.896 98.532 111.896C95.8422 111.896 94.5478 114.386 94.5478 117.159C94.5478 119.932 95.8017 122.402 98.532 122.402C101.262 122.402 102.476 119.932 102.476 117.159Z" fill="black"/>
<path d="M107.127 125.539H109.352C109.655 126.956 110.909 127.664 112.79 127.664C115.075 127.664 116.491 126.632 116.491 124.325V121.491H116.329C115.884 122.26 115.015 123.859 112.446 123.859C109.19 123.859 106.763 121.288 106.763 116.896C106.763 112.503 109.129 109.933 112.487 109.933C115.075 109.933 115.904 111.572 116.41 112.321H116.592V110.115H118.655V124.446C118.655 128.049 116.086 129.587 112.851 129.587C109.615 129.587 107.431 128.13 107.188 125.519L107.127 125.539ZM116.552 116.997C116.552 114.021 115.217 111.937 112.729 111.937C110.242 111.937 108.887 114.204 108.887 116.997C108.887 119.79 110.201 121.895 112.729 121.895C115.257 121.895 116.552 120.074 116.552 116.997Z" fill="black"/>
<path d="M127.917 106.35C127.917 105.52 128.585 104.893 129.394 104.893C130.203 104.893 130.89 105.54 130.89 106.35C130.89 107.16 130.203 107.807 129.394 107.807C128.585 107.807 127.917 107.16 127.917 106.35ZM128.322 110.135H130.445V124.082H128.322V110.135Z" fill="black"/>
<path d="M135.947 124.082H133.823V110.135H135.866V112.321H136.048C136.695 110.904 137.909 109.953 139.971 109.953C142.681 109.953 144.481 111.674 144.481 115.216V124.082H142.358V115.378C142.358 113.212 141.225 111.937 139.324 111.937C137.423 111.937 135.947 113.293 135.947 115.722V124.102V124.082Z" fill="black"/>
<path d="M184.768 259.52H39.3158C29.2968 259.52 21.1748 267.649 21.1748 277.676V278.385C21.1748 288.413 29.2968 296.542 39.3158 296.542H184.768C194.787 296.542 202.909 288.413 202.909 278.385V277.676C202.909 267.649 194.787 259.52 184.768 259.52Z" fill="#097EF4"/>
<path d="M82.1501 29.6739C82.1501 29.6739 82.0692 29.6739 82.0287 29.6537C81.9883 29.6537 81.968 29.6132 81.9276 29.593L80.0467 27.7105C80.0467 27.7105 79.9861 27.6498 79.9861 27.6093C79.9861 27.5688 79.9659 27.5283 79.9659 27.4878C79.9659 27.4473 79.9658 27.4069 79.9861 27.3664C79.9861 27.3259 80.0265 27.3056 80.0467 27.2652C80.6332 26.7794 81.3613 26.5162 82.1096 26.5162C82.8579 26.5162 83.6062 26.7794 84.1725 27.2652C84.1927 27.2854 84.2331 27.3259 84.2331 27.3664C84.2331 27.4069 84.2534 27.4473 84.2534 27.4878C84.2534 27.5283 84.2534 27.5688 84.2331 27.6093C84.2331 27.6498 84.1927 27.67 84.1725 27.7105L82.3118 29.593C82.3118 29.593 82.2512 29.6334 82.2107 29.6537C82.1703 29.6537 82.1298 29.6739 82.0894 29.6739H82.1501ZM85.4466 26.3543C85.4466 26.3543 85.305 26.334 85.2443 26.2733C84.3949 25.5041 83.3028 25.079 82.1501 25.079C80.9973 25.079 79.9052 25.5041 79.0558 26.2733C78.9951 26.334 78.9344 26.3543 78.8535 26.3543C78.8131 26.3543 78.7726 26.3543 78.7524 26.334C78.712 26.334 78.6917 26.2936 78.6513 26.2733L77.5592 25.1803C77.5592 25.1803 77.4985 25.1195 77.4985 25.079C77.4985 25.0386 77.4783 24.9981 77.4783 24.9576C77.4783 24.9171 77.4783 24.8766 77.4985 24.8361C77.5187 24.7957 77.539 24.7754 77.5592 24.7349C78.7928 23.5812 80.431 22.9334 82.1298 22.9334C83.8287 22.9334 85.4466 23.5812 86.7005 24.7349C86.7207 24.7552 86.7612 24.7957 86.7612 24.8361C86.7612 24.8766 86.7814 24.9171 86.7814 24.9576C86.7814 24.9981 86.7814 25.0386 86.7612 25.079C86.7612 25.1195 86.7207 25.1398 86.7005 25.1803L85.6286 26.2733C85.6286 26.2733 85.5679 26.3138 85.5275 26.334C85.487 26.334 85.4466 26.3543 85.4264 26.3543H85.4466ZM87.9341 23.8443C87.9341 23.8443 87.8533 23.8443 87.833 23.8241C87.7926 23.8241 87.7724 23.7836 87.7319 23.7633C86.2353 22.3262 84.2331 21.5367 82.1501 21.5367C80.067 21.5367 78.085 22.3262 76.5682 23.7633C76.548 23.7836 76.5075 23.8038 76.4671 23.8241C76.4266 23.8443 76.3862 23.8443 76.366 23.8443C76.3457 23.8443 76.2851 23.8443 76.2648 23.8241C76.2244 23.8241 76.2042 23.7836 76.1637 23.7633L75.0716 22.6703C75.0716 22.6703 75.0312 22.6096 75.0109 22.5691C75.0109 22.5286 74.9907 22.4881 74.9907 22.4476C74.9907 22.4071 74.9907 22.3667 75.0109 22.3262C75.0109 22.2857 75.0514 22.2654 75.0716 22.225C76.9727 20.4032 79.5007 19.3911 82.1298 19.3911C84.759 19.3911 87.287 20.4032 89.188 22.225C89.2083 22.2452 89.2285 22.2857 89.2487 22.3262C89.2487 22.3667 89.2689 22.4071 89.2689 22.4476C89.2689 22.4881 89.2689 22.5286 89.2487 22.5691C89.2487 22.6096 89.2083 22.6298 89.188 22.6703L88.0959 23.7633C88.0959 23.7633 87.9746 23.8443 87.8937 23.8443H87.9341Z" fill="black"/>
<path d="M44.9785 29.3097V28.0547C45.1201 28.1762 45.3021 28.2976 45.5043 28.3988C45.7066 28.5 45.929 28.581 46.1515 28.662C46.374 28.7227 46.5964 28.7834 46.8189 28.8239C47.0414 28.8644 47.2436 28.8846 47.4459 28.8846C48.1133 28.8846 48.5986 28.7632 48.9222 28.5203C49.2458 28.2774 49.4076 27.913 49.4076 27.4677C49.4076 27.2248 49.3469 27.0021 49.2458 26.82C49.1447 26.6378 48.9829 26.4758 48.8009 26.3139C48.6189 26.152 48.3762 26.0103 48.1133 25.8888C47.8503 25.7471 47.5672 25.6055 47.2638 25.4435C46.9403 25.2816 46.6571 25.1197 46.374 24.9577C46.0908 24.7958 45.8482 24.6136 45.6459 24.4112C45.4437 24.2088 45.2819 23.9861 45.1605 23.7432C45.0392 23.4801 44.9785 23.1967 44.9785 22.8526C44.9785 22.4275 45.0796 22.0834 45.2617 21.7595C45.4437 21.4559 45.6864 21.1927 45.9897 20.9903C46.2931 20.7879 46.6167 20.6462 47.0009 20.545C47.3852 20.4438 47.7694 20.4033 48.1739 20.4033C49.084 20.4033 49.7312 20.5045 50.1357 20.7272V21.9417C49.5896 21.5571 48.902 21.3749 48.0526 21.3749C47.8099 21.3749 47.5874 21.3952 47.3447 21.4559C47.102 21.4964 46.8998 21.5773 46.7178 21.6988C46.5358 21.8 46.3942 21.9619 46.2729 22.1239C46.1515 22.306 46.0908 22.5085 46.0908 22.7716C46.0908 23.0145 46.1313 23.2169 46.2122 23.3789C46.2931 23.5408 46.4347 23.7027 46.5964 23.8444C46.7582 23.9861 46.9807 24.1278 47.2234 24.2493C47.4661 24.3909 47.7492 24.5326 48.0728 24.6743C48.3964 24.8363 48.72 24.9982 49.0031 25.1804C49.3065 25.3626 49.5492 25.565 49.7716 25.7674C49.9941 25.99 50.1761 26.2329 50.2975 26.4961C50.439 26.7592 50.4997 27.0629 50.4997 27.407C50.4997 27.8523 50.4188 28.2369 50.2368 28.5608C50.0548 28.8644 49.8323 29.1275 49.5289 29.3299C49.2256 29.5324 48.8818 29.674 48.4975 29.755C48.1133 29.836 47.6885 29.8967 47.2638 29.8967C47.1223 29.8967 46.9403 29.8967 46.738 29.8562C46.5155 29.836 46.3133 29.7955 46.0908 29.755C45.8684 29.7145 45.6661 29.6538 45.4639 29.5931C45.2617 29.5324 45.1201 29.4514 44.9987 29.3704L44.9785 29.3097ZM58.7107 29.674H57.2141L53.6749 25.484C53.5333 25.3221 53.4524 25.2209 53.4322 25.1601H53.412V29.674H52.3401V20.5248H53.412V24.8363H53.4322C53.4322 24.8363 53.5738 24.6338 53.6749 24.5326L57.0928 20.545H58.4275L54.5041 24.9375L58.7107 29.6943V29.674ZM65.324 21.4964H62.6746V29.674H61.6027V21.4964H58.9736V20.5248H65.324V21.4964Z" fill="#222222"/>
<path d="M38.6077 29.3705H37.6774C37.4347 29.3705 37.192 29.2693 37.01 29.0871C36.828 28.905 36.7269 28.6823 36.7269 28.4192V20.3225C36.7269 20.0796 36.828 19.8367 37.01 19.6545C37.192 19.4723 37.4145 19.3711 37.6774 19.3711H38.6077C38.8504 19.3711 39.0931 19.4723 39.2751 19.6545C39.4571 19.8367 39.5583 20.0593 39.5583 20.3225V28.4192C39.5583 28.6621 39.4571 28.905 39.2751 29.0871C39.0931 29.2693 38.8706 29.3705 38.6077 29.3705ZM34.2595 29.3705H33.3292C33.0865 29.3705 32.8439 29.2693 32.6618 29.0871C32.4798 28.905 32.3787 28.6823 32.3787 28.4192V22.5086C32.3787 22.2657 32.4798 22.0228 32.6618 21.8406C32.8439 21.6584 33.0663 21.5572 33.3292 21.5572H34.2595C34.5022 21.5572 34.7449 21.6584 34.9269 21.8406C35.109 22.0228 35.2101 22.2454 35.2101 22.5086V28.4192C35.2101 28.6621 35.109 28.905 34.9472 29.0871C34.7651 29.2693 34.5427 29.3705 34.2798 29.3705H34.2595ZM29.8911 29.3705H28.9608C28.7181 29.3705 28.4754 29.2693 28.2934 29.0871C28.1114 28.905 28.0103 28.6823 28.0103 28.4192V24.6744C28.0103 24.4315 28.1114 24.1886 28.2934 24.0065C28.4754 23.8243 28.6979 23.7231 28.9608 23.7231H29.8911C30.1338 23.7231 30.3765 23.8243 30.5585 24.0065C30.7405 24.1886 30.8417 24.4113 30.8417 24.6744V28.4192C30.8417 28.6621 30.7405 28.905 30.5585 29.0871C30.3765 29.2693 30.154 29.3705 29.8911 29.3705ZM25.543 29.3705H24.6126C24.37 29.3705 24.1273 29.2693 23.9452 29.0871C23.7632 28.905 23.6621 28.6823 23.6621 28.4192V26.5569C23.6621 26.314 23.7632 26.0711 23.9452 25.8889C24.1273 25.7068 24.3497 25.6056 24.6126 25.6056H25.543C25.7856 25.6056 26.0283 25.7068 26.2103 25.8889C26.3924 26.0711 26.4935 26.2938 26.4935 26.5569V28.4192C26.4935 28.6621 26.3924 28.905 26.2103 29.0871C26.0283 29.2693 25.8059 29.3705 25.543 29.3705Z" fill="black"/>
<path d="M186.264 19.7964H170.711C169.599 19.7964 168.689 20.7073 168.689 21.8206V27.4275C168.689 28.5408 169.599 29.4517 170.711 29.4517H186.264C187.376 29.4517 188.286 28.5408 188.286 27.4275V21.8206C188.286 20.7073 187.376 19.7964 186.264 19.7964Z" stroke="black" stroke-width="0.4" stroke-miterlimit="10"/>
<path d="M189.702 22.7515V26.4962C190.066 26.3343 190.389 26.0914 190.612 25.7472C190.834 25.4234 190.956 25.0185 190.956 24.6339C190.956 24.2494 190.834 23.8445 190.612 23.5207C190.389 23.1968 190.086 22.9336 189.702 22.7717V22.7515Z" fill="black"/>
<path d="M185.657 21.1929H171.359C170.671 21.1929 170.125 21.7596 170.125 22.4276V26.7796C170.125 27.4678 170.691 28.0143 171.359 28.0143H185.657C186.345 28.0143 186.891 27.4476 186.891 26.7796V22.4276C186.891 21.7394 186.325 21.1929 185.657 21.1929Z" fill="black"/>
<path d="M187.538 151.125H36.5248C27.7568 151.125 20.6489 158.239 20.6489 167.015V222.983C20.6489 231.759 27.7568 238.873 36.5248 238.873H187.538C196.306 238.873 203.414 231.759 203.414 222.983V167.015C203.414 158.239 196.306 151.125 187.538 151.125Z" fill="white"/>
<path d="M19.3345 194.989H205.518" stroke="#EEF0F2" stroke-miterlimit="10"/>
<path d="M6.99756 376.618V388.298C6.99756 405.523 20.9522 419.49 38.1629 419.49H183.857C201.068 419.49 215.023 405.523 215.023 388.298V376.618H6.99756Z" fill="white"/>
<path d="M37.8193 168.614H45.3023V170.031H39.3564V174.342H44.918V175.739H39.3564V180.071H45.3832V181.488H37.8193V168.614Z" fill="#A09F9F"/>
<path d="M47.5474 171.832H48.963V173.351H49.0844C49.4687 172.318 50.3585 171.711 51.572 171.711C52.7854 171.711 53.5944 172.318 54.0393 173.351H54.1404C54.6258 172.359 55.5966 171.711 56.9111 171.711C58.5695 171.711 59.7425 172.764 59.7425 175.031V181.488H58.2864V175.051C58.2864 173.634 57.4167 173.067 56.4055 173.067C55.1112 173.067 54.3831 173.978 54.3831 175.193V181.467H52.9068V174.869C52.9068 173.776 52.1585 173.047 51.1068 173.047C50.0552 173.047 49.0237 174.018 49.0237 175.435V181.467H47.5676V171.812L47.5474 171.832Z" fill="#A09F9F"/>
<path d="M65.1621 175.901C65.7486 175.86 67.2452 175.779 67.6699 175.759V174.97C67.6699 173.735 66.9823 173.026 65.5666 173.026C64.3936 173.026 63.6858 173.593 63.4835 174.322H61.9465C62.1285 172.783 63.5847 171.69 65.6273 171.69C66.8407 171.69 69.1058 172.055 69.1058 175.111V181.487H67.6497V180.172H67.589C67.2857 180.84 66.4363 181.71 64.8386 181.71C63.0791 181.71 61.6836 180.617 61.6836 178.735C61.6836 176.508 63.5644 176.022 65.1621 175.88V175.901ZM65.0812 180.354C66.7396 180.354 67.6497 179.2 67.6497 177.986V177.014L65.3239 177.196C63.9891 177.277 63.1397 177.783 63.1397 178.836C63.1397 179.888 63.9487 180.374 65.0812 180.374V180.354Z" fill="#A09F9F"/>
<path d="M71.189 169.221C71.189 168.654 71.6541 168.209 72.2204 168.209C72.7867 168.209 73.2518 168.654 73.2518 169.221C73.2518 169.788 72.7664 170.233 72.2204 170.233C71.6743 170.233 71.189 169.788 71.189 169.221ZM71.4721 171.832H72.9282V181.488H71.4721V171.832Z" fill="#A09F9F"/>
<path d="M76.7506 181.488H75.2944V168.614H76.7506V181.488Z" fill="#A09F9F"/>
<path d="M108.785 403.681C112.817 403.681 116.086 400.41 116.086 396.374C116.086 392.338 112.817 389.067 108.785 389.067C104.753 389.067 101.484 392.338 101.484 396.374C101.484 400.41 104.753 403.681 108.785 403.681Z" stroke="#DCE1E5" stroke-width="2" stroke-miterlimit="10"/>
<path d="M179.064 389.532H165.373V403.236H179.064V389.532Z" stroke="#DCE1E5" stroke-width="2" stroke-miterlimit="10"/>
<path d="M39.6392 396.374L51.0658 404.471V388.277L39.6392 396.374Z" stroke="#DCE1E5" stroke-width="2" stroke-miterlimit="10"/>
<path d="M42.127 217.133C43.5678 217.133 44.7359 215.964 44.7359 214.522C44.7359 213.08 43.5678 211.911 42.127 211.911C40.6861 211.911 39.5181 213.08 39.5181 214.522C39.5181 215.964 40.6861 217.133 42.127 217.133Z" fill="#A09F9F"/>
<path d="M53.9986 217.133C55.4394 217.133 56.6075 215.964 56.6075 214.522C56.6075 213.08 55.4394 211.911 53.9986 211.911C52.5577 211.911 51.3896 213.08 51.3896 214.522C51.3896 215.964 52.5577 217.133 53.9986 217.133Z" fill="#A09F9F"/>
<path d="M65.8701 217.133C67.311 217.133 68.479 215.964 68.479 214.522C68.479 213.08 67.311 211.911 65.8701 211.911C64.4293 211.911 63.2612 213.08 63.2612 214.522C63.2612 215.964 64.4293 217.133 65.8701 217.133Z" fill="#A09F9F"/>
<path d="M77.7617 217.133C79.2026 217.133 80.3707 215.964 80.3707 214.522C80.3707 213.08 79.2026 211.911 77.7617 211.911C76.3209 211.911 75.1528 213.08 75.1528 214.522C75.1528 215.964 76.3209 217.133 77.7617 217.133Z" fill="#A09F9F"/>
<path d="M89.6333 217.133C91.0742 217.133 92.2422 215.964 92.2422 214.522C92.2422 213.08 91.0742 211.911 89.6333 211.911C88.1925 211.911 87.0244 213.08 87.0244 214.522C87.0244 215.964 88.1925 217.133 89.6333 217.133Z" fill="#A09F9F"/>
<path d="M101.505 217.133C102.946 217.133 104.114 215.964 104.114 214.522C104.114 213.08 102.946 211.911 101.505 211.911C100.064 211.911 98.896 213.08 98.896 214.522C98.896 215.964 100.064 217.133 101.505 217.133Z" fill="#A09F9F"/>
<path d="M113.397 217.133C114.837 217.133 116.005 215.964 116.005 214.522C116.005 213.08 114.837 211.911 113.397 211.911C111.956 211.911 110.788 213.08 110.788 214.522C110.788 215.964 111.956 217.133 113.397 217.133Z" fill="#A09F9F"/>
<path d="M81.104 271.359V285.359H79.6821V278.14H78.0259V284.64H76.6196V271.64H78.0259V276.921H79.6821V271.359H81.104ZM75.6978 273.062V274.281H74.5884V280.546C75.0571 280.507 75.5103 280.46 75.9321 280.406L76.0103 281.5C73.8071 281.921 70.8853 281.984 69.0728 281.984L68.9009 280.734L70.3071 280.718V274.281H69.1978V273.062H75.6978ZM71.6665 280.703C72.1821 280.687 72.7056 280.671 73.229 280.64V274.281H71.6665V280.703ZM89.9946 273.343C89.9946 275.625 92.4321 277.781 95.1196 278.265L94.4321 279.5C92.1978 279.015 90.1353 277.546 89.229 275.578C88.3071 277.531 86.2524 279 84.0103 279.5L83.354 278.265C86.0103 277.765 88.4321 275.625 88.4321 273.343V272.281H89.9946V273.343ZM95.6978 282.281V283.515H82.8853V282.281H95.6978ZM104.26 272.781C104.26 276.906 102.885 280.625 97.7446 283.125L96.9478 281.968C99.4556 280.75 101.018 279.242 101.901 277.453L97.229 277.89L97.0259 276.593L102.37 276.25C102.588 275.539 102.729 274.781 102.792 273.984H97.729V272.781H104.26ZM108.354 271.359V285.359H106.854V271.359H108.354ZM127.26 282.437V283.687H114.448V282.437H120.088V279.984H116.01V275.531H124.229V273.562H115.979V272.343H125.698V276.718H117.479V278.765H126.026V279.984H121.557V282.437H127.26ZM139.37 272.781V274.281C139.37 276.093 139.37 278.062 138.854 281.046L137.338 280.906C137.901 278.109 137.901 276.046 137.901 274.281V274H129.651V272.781H139.37ZM141.042 282.14V283.375H128.276V282.14H141.042ZM153.713 271.375V281.546H152.229V271.375H153.713ZM154.135 283.859V285.062H144.557V280.515H146.057V283.859H154.135ZM146.12 272.312C148.229 272.312 149.838 273.75 149.838 275.781C149.838 277.843 148.229 279.265 146.12 279.265C144.01 279.265 142.385 277.843 142.385 275.781C142.385 273.75 144.01 272.312 146.12 272.312ZM146.12 273.609C144.807 273.609 143.838 274.5 143.838 275.781C143.838 277.093 144.807 277.968 146.12 277.968C147.401 277.968 148.385 277.093 148.385 275.781C148.385 274.5 147.401 273.609 146.12 273.609Z" fill="white"/>
</svg>
