<svg width="259" height="499" viewBox="0 0 259 499" fill="none" xmlns="http://www.w3.org/2000/svg">
<path d="M218.112 2.97461H40.8872C19.9476 2.97461 2.97266 19.9558 2.97266 40.9032V458.098C2.97266 479.045 19.9476 496.027 40.8872 496.027H218.112C239.052 496.027 256.027 479.045 256.027 458.098V40.9032C256.027 19.9558 239.052 2.97461 218.112 2.97461Z" fill="#EEF0F2" stroke="#EEF0F2" stroke-width="3" stroke-miterlimit="10"/>
<path d="M100.028 34.1829C100.028 34.1829 99.9288 34.1829 99.8891 34.1631C99.8495 34.1631 99.8098 34.1234 99.7702 34.0838L97.5702 31.8632C97.5702 31.8632 97.5108 31.7839 97.491 31.7442C97.491 31.7046 97.4711 31.6451 97.4711 31.6054C97.4711 31.5658 97.4711 31.5063 97.491 31.4666C97.491 31.427 97.5306 31.3873 97.5702 31.3477C98.2441 30.7727 99.1162 30.4555 99.9882 30.4555C100.86 30.4555 101.732 30.7727 102.406 31.3477C102.446 31.3873 102.466 31.427 102.485 31.4666C102.485 31.5063 102.525 31.5459 102.525 31.6054C102.525 31.6451 102.525 31.7046 102.505 31.7442C102.505 31.7839 102.466 31.8235 102.426 31.8632L100.246 34.0838C100.246 34.0838 100.167 34.1432 100.127 34.1631C100.087 34.1631 100.048 34.1829 99.9882 34.1829H100.028ZM103.873 30.2969C103.873 30.2969 103.694 30.2572 103.635 30.1977C102.644 29.3055 101.356 28.8098 100.028 28.8098C98.7 28.8098 97.4117 29.3055 96.4207 30.1977C96.3613 30.2572 96.282 30.2969 96.1829 30.2969C96.1432 30.2969 96.1036 30.2969 96.0441 30.277C96.0045 30.277 95.9649 30.2374 95.9252 30.1977L94.6568 28.909C94.6568 28.909 94.5973 28.8297 94.5775 28.79C94.5577 28.7504 94.5577 28.6909 94.5577 28.6512C94.5577 28.6116 94.5577 28.5521 94.5775 28.5124C94.5973 28.4728 94.6172 28.4331 94.6568 28.3935C96.1036 27.0453 98.0261 26.2918 100.008 26.2918C101.99 26.2918 103.912 27.0453 105.359 28.3935C105.399 28.4331 105.419 28.4728 105.439 28.5124C105.439 28.5521 105.458 28.6116 105.458 28.6512C105.458 28.6909 105.458 28.7504 105.439 28.79C105.439 28.8297 105.399 28.8693 105.359 28.909L104.091 30.1977C104.091 30.1977 104.031 30.2572 103.972 30.277C103.932 30.277 103.893 30.2969 103.833 30.2969H103.873ZM106.806 27.3427C106.806 27.3427 106.727 27.3427 106.687 27.3228C106.648 27.3228 106.608 27.2832 106.588 27.2435C104.824 25.5583 102.485 24.6264 100.048 24.6264C97.6099 24.6264 95.2712 25.5583 93.5073 27.2435C93.4676 27.2832 93.4478 27.303 93.3883 27.3228C93.3289 27.3427 93.3091 27.3427 93.2694 27.3427C93.2298 27.3427 93.1902 27.3427 93.1505 27.3228C93.1109 27.3228 93.0712 27.2832 93.0316 27.2435L91.7632 25.9548C91.7632 25.9548 91.7037 25.8755 91.6839 25.8358C91.6839 25.7962 91.6641 25.7565 91.6641 25.697C91.6641 25.6376 91.6641 25.5979 91.6839 25.5583C91.6839 25.5186 91.7235 25.4789 91.7632 25.4393C93.9829 23.298 96.9558 22.1084 100.048 22.1084C103.139 22.1084 106.093 23.298 108.332 25.4393C108.372 25.4789 108.392 25.5186 108.411 25.5583C108.411 25.5979 108.431 25.6376 108.431 25.697C108.431 25.7565 108.431 25.7962 108.411 25.8358C108.411 25.8755 108.372 25.9151 108.332 25.9548L107.064 27.2435C107.064 27.2435 106.925 27.3427 106.826 27.3427H106.806Z" fill="black"/>
<path d="M56.4648 33.7471V32.2601C56.6432 32.4188 56.8414 32.5377 57.0792 32.6567C57.3171 32.7756 57.5747 32.8748 57.8324 32.9541C58.09 33.0334 58.3675 33.0929 58.6252 33.1325C58.8828 33.1722 59.1405 33.192 59.3585 33.192C60.1314 33.192 60.7062 33.0532 61.0828 32.7756C61.4593 32.4782 61.6575 32.0817 61.6575 31.5266C61.6575 31.2291 61.5981 30.9912 61.4593 30.7731C61.3404 30.555 61.162 30.3568 60.944 30.1982C60.726 30.0197 60.4485 29.8413 60.1513 29.6827C59.854 29.524 59.517 29.3456 59.1603 29.1672C58.7837 28.9689 58.4468 28.7905 58.1099 28.5922C57.7927 28.3939 57.4955 28.1758 57.2576 27.9577C57.0198 27.7198 56.8216 27.4621 56.6829 27.1647C56.5441 26.8673 56.4847 26.5104 56.4847 26.1138C56.4847 25.6182 56.5838 25.2018 56.8018 24.8449C57.0198 24.488 57.2973 24.1906 57.654 23.9527C58.0108 23.7148 58.4071 23.5364 58.8432 23.4372C59.299 23.3183 59.7549 23.2588 60.2107 23.2588C61.2611 23.2588 62.0341 23.3778 62.5296 23.6355V25.0432C61.8954 24.607 61.0828 24.3889 60.0918 24.3889C59.8143 24.3889 59.5369 24.4286 59.2792 24.4881C59.0017 24.5475 58.7639 24.6268 58.5459 24.7656C58.3279 24.9044 58.1495 25.063 58.0306 25.2613C57.8918 25.4596 57.8324 25.7173 57.8324 26.0147C57.8324 26.2923 57.8918 26.5302 57.9909 26.7285C58.09 26.9267 58.2486 27.1052 58.4468 27.2836C58.645 27.4422 58.8828 27.6009 59.1801 27.7595C59.4774 27.9181 59.7945 28.0767 60.1711 28.275C60.5476 28.4732 60.9242 28.6715 61.2611 28.8698C61.5981 29.0879 61.9152 29.306 62.1728 29.5637C62.4305 29.8214 62.6287 30.099 62.7872 30.4163C62.9458 30.7335 63.0251 31.0705 63.0251 31.4869C63.0251 32.0222 62.926 32.4584 62.708 32.8351C62.5098 33.192 62.2323 33.4894 61.8755 33.7273C61.5188 33.9652 61.1224 34.1239 60.6666 34.223C60.2107 34.3221 59.7152 34.3816 59.2197 34.3816C59.0414 34.3816 58.8432 34.3816 58.5855 34.342C58.3279 34.3221 58.09 34.2825 57.8324 34.223C57.5747 34.1635 57.3171 34.104 57.0991 34.0445C56.8612 33.9652 56.6829 33.8859 56.5441 33.7868L56.4648 33.7471ZM72.5582 34.1833H70.8141L66.6718 29.2861C66.5133 29.1077 66.4142 28.9689 66.3944 28.9094H66.3547V34.1833H65.1061V23.4571H66.3547V28.4931H66.3944C66.4736 28.3741 66.5529 28.2551 66.6718 28.1362L70.6754 23.4571H72.2411L67.643 28.5922L72.5582 34.1635V34.1833ZM80.3076 24.5872H77.2158V34.1833H75.9671V24.5872H72.8753V23.4571H80.3076V24.5872Z" fill="#222222"/>
<path d="M48.9929 33.8066H47.9029C47.6056 33.8066 47.3281 33.6876 47.1299 33.4893C46.9317 33.2911 46.8128 33.0135 46.8128 32.7161V23.2389C46.8128 22.9415 46.9317 22.6639 47.1299 22.4657C47.3281 22.2674 47.6056 22.1484 47.9029 22.1484H48.9929C49.2902 22.1484 49.5677 22.2674 49.7659 22.4657C49.9641 22.6639 50.083 22.9415 50.083 23.2389V32.7161C50.083 33.0135 49.9641 33.2911 49.7659 33.4893C49.5677 33.6876 49.2902 33.8066 48.9929 33.8066ZM43.8993 33.8066H42.8093C42.512 33.8066 42.2345 33.6876 42.0363 33.4893C41.8381 33.2911 41.7192 33.0135 41.7192 32.7161V25.7966C41.7192 25.4992 41.8381 25.2216 42.0363 25.0233C42.2345 24.8251 42.512 24.7061 42.8093 24.7061H43.8993C44.1966 24.7061 44.4741 24.8251 44.6723 25.0233C44.8705 25.2216 44.9894 25.4992 44.9894 25.7966V32.7161C44.9894 33.0135 44.8705 33.2911 44.6723 33.4893C44.4741 33.6876 44.1966 33.8066 43.8993 33.8066ZM38.7859 33.8066H37.6959C37.3986 33.8066 37.1211 33.6876 36.9229 33.4893C36.7247 33.2911 36.6058 33.0135 36.6058 32.7161V28.3344C36.6058 28.037 36.7247 27.7594 36.9229 27.5611C37.1211 27.3629 37.3986 27.2439 37.6959 27.2439H38.7859C39.0832 27.2439 39.3607 27.3629 39.5589 27.5611C39.7571 27.7594 39.876 28.037 39.876 28.3344V32.7161C39.876 33.0135 39.7571 33.2911 39.5589 33.4893C39.3607 33.6876 39.0832 33.8066 38.7859 33.8066ZM33.6923 33.8066H32.6023C32.305 33.8066 32.0275 33.6876 31.8293 33.4893C31.6311 33.2911 31.5122 33.0135 31.5122 32.7161V30.5352C31.5122 30.2378 31.6311 29.9602 31.8293 29.7619C32.0275 29.5636 32.305 29.4447 32.6023 29.4447H33.6923C33.9896 29.4447 34.2671 29.5636 34.4653 29.7619C34.6635 29.9602 34.7824 30.2378 34.7824 30.5352V32.7161C34.7824 33.0135 34.6635 33.2911 34.4653 33.4893C34.2671 33.6876 33.9896 33.8066 33.6923 33.8066Z" fill="black"/>
<path d="M222.036 22.6045H203.822C202.514 22.6045 201.444 23.6751 201.444 24.9837V31.5464C201.444 32.8549 202.514 33.9256 203.822 33.9256H222.036C223.344 33.9256 224.415 32.8549 224.415 31.5464V24.9837C224.415 23.6751 223.344 22.6045 222.036 22.6045Z" stroke="black" stroke-width="0.4" stroke-miterlimit="10"/>
<path d="M226.06 26.0742V30.4559C226.496 30.2775 226.852 29.9801 227.11 29.5836C227.368 29.187 227.506 28.731 227.506 28.275C227.506 27.819 227.368 27.3431 227.11 26.9664C226.852 26.5699 226.476 26.2725 226.06 26.094V26.0742Z" fill="black"/>
<path d="M221.323 24.25H204.555C203.743 24.25 203.089 24.9043 203.089 25.7172V30.8127C203.089 31.6256 203.743 32.2798 204.555 32.2798H221.323C222.135 32.2798 222.789 31.6256 222.789 30.8127V25.7172C222.789 24.9043 222.135 24.25 221.323 24.25Z" fill="black"/>
<path d="M7.61035 440.55V454.23C7.61035 474.414 23.9614 490.771 44.1375 490.771H214.862C235.038 490.771 251.389 474.414 251.389 454.23V440.55H7.61035Z" fill="white"/>
<path d="M128.846 472.274C133.574 472.274 137.408 468.439 137.408 463.709C137.408 458.978 133.574 455.144 128.846 455.144C124.117 455.144 120.284 458.978 120.284 463.709C120.284 468.439 124.117 472.274 128.846 472.274Z" stroke="#DCE1E5" stroke-width="2" stroke-miterlimit="10"/>
<path d="M211.196 455.679H195.162V471.719H211.196V455.679Z" stroke="#DCE1E5" stroke-width="2" stroke-miterlimit="10"/>
<path d="M47.8042 463.709L61.2021 473.186V454.212L47.8042 463.709Z" stroke="#DCE1E5" stroke-width="2" stroke-miterlimit="10"/>
<path d="M37.6801 129.148V117.129H42.5941C45.3002 117.129 46.9604 118.822 46.9604 121.263C46.9604 123.753 45.267 125.38 42.5111 125.38H40.5023V129.148H37.6801ZM40.5023 123.139H41.9965C43.3246 123.139 44.0385 122.392 44.0385 121.263C44.0385 120.134 43.3246 119.42 41.9965 119.42H40.5023V123.139ZM47.556 126.642C47.556 124.649 49.1 123.936 50.8929 123.819C51.5404 123.778 52.6693 123.736 53.0511 123.72V122.989C53.0511 122.358 52.5863 122.01 51.8226 122.01C51.0755 122.01 50.6107 122.325 50.4945 122.923H47.888C48.0043 121.329 49.3656 120.018 51.889 120.018C54.1136 120.018 55.8568 121.08 55.8568 123.022V129.148H53.2171V127.887H53.1507C52.6527 128.8 51.7894 129.314 50.5277 129.314C48.8011 129.314 47.556 128.435 47.556 126.642ZM50.2123 126.525C50.2123 127.14 50.6937 127.455 51.3744 127.455C52.3207 127.455 53.0843 126.841 53.0677 125.944V125.363C52.7274 125.38 51.7728 125.421 51.3578 125.463C50.6605 125.546 50.2123 125.928 50.2123 126.525ZM62.678 122.923C62.595 122.325 62.0638 121.943 61.3167 121.943C60.6195 121.943 60.0716 122.259 60.0882 122.724C60.0716 123.072 60.3372 123.354 61.1175 123.504L62.8275 123.836C64.6204 124.185 65.4837 124.965 65.5003 126.276C65.4837 128.119 63.7903 129.314 61.3499 129.314C58.7767 129.314 57.2659 128.169 57.0833 126.376H59.8724C59.972 127.023 60.5364 127.372 61.3665 127.372C62.1302 127.372 62.6448 127.073 62.6614 126.575C62.6448 126.177 62.2962 125.928 61.5159 125.762L59.972 125.479C58.1956 125.147 57.2991 124.251 57.3157 122.873C57.2991 121.08 58.8265 120.018 61.2669 120.018C63.6907 120.018 65.1683 121.13 65.2845 122.923H62.678ZM71.9895 122.923C71.9065 122.325 71.3753 121.943 70.6282 121.943C69.9309 121.943 69.3831 122.259 69.3997 122.724C69.3831 123.072 69.6487 123.354 70.429 123.504L72.1389 123.836C73.9319 124.185 74.7952 124.965 74.8118 126.276C74.7952 128.119 73.1018 129.314 70.6614 129.314C68.0882 129.314 66.5774 128.169 66.3948 126.376H69.1839C69.2835 127.023 69.8479 127.372 70.678 127.372C71.4417 127.372 71.9563 127.073 71.9729 126.575C71.9563 126.177 71.6077 125.928 70.8274 125.762L69.2835 125.479C67.5071 125.147 66.6106 124.251 66.6272 122.873C66.6106 121.08 68.138 120.018 70.5784 120.018C73.0022 120.018 74.4798 121.13 74.596 122.923H71.9895ZM76.1047 129.148V117.129H78.9104V123.404H79.0266L81.633 120.134H84.8205L81.5832 124.052L84.9534 129.148H81.7161L79.508 125.695L78.9104 126.393V129.148H76.1047ZM89.5666 129.314C86.7443 129.314 85.0178 127.555 85.0178 124.683C85.0178 121.894 86.7609 120.018 89.467 120.018C91.9904 120.018 93.8166 121.628 93.8166 124.616V125.33H87.7736V125.38C87.7736 126.542 88.4875 127.289 89.6164 127.289C90.3801 127.289 90.9445 126.957 91.177 126.426H93.7834C93.4514 128.186 91.9074 129.314 89.5666 129.314ZM87.7736 123.687H91.2102C91.1936 122.724 90.4963 122.043 89.5334 122.043C88.5373 122.043 87.8151 122.749 87.7736 123.687ZM96.5539 132.535C96.0226 132.535 95.5246 132.519 95.1593 132.485V130.36C95.5246 130.394 95.923 130.394 96.255 130.394C96.7199 130.394 97.0685 130.344 97.3175 129.746L97.4171 129.464L94.213 120.134H97.1349L98.8449 126.608H98.9445L100.654 120.134H103.61L100.19 130.028C99.6916 131.506 98.6623 132.535 96.5539 132.535Z" fill="#097EF4"/>
<path d="M108.337 129.148V117.129H111.126V121.678H111.192C111.541 120.864 112.305 120.018 113.749 120.018C115.642 120.018 117.352 121.479 117.352 124.649C117.352 127.704 115.741 129.281 113.732 129.281C112.355 129.281 111.558 128.501 111.192 127.688H111.109V129.148H108.337ZM111.076 124.633C111.076 126.127 111.707 127.09 112.786 127.09C113.865 127.09 114.48 126.127 114.48 124.633C114.48 123.172 113.882 122.209 112.786 122.209C111.691 122.209 111.076 123.139 111.076 124.633ZM120.072 132.535C119.541 132.535 119.043 132.519 118.678 132.485V130.36C119.043 130.394 119.441 130.394 119.773 130.394C120.238 130.394 120.587 130.344 120.836 129.746L120.936 129.464L117.731 120.134H120.653L122.363 126.608H122.463L124.173 120.134H127.128L123.708 130.028C123.21 131.506 122.181 132.535 120.072 132.535ZM138.347 120.698C138.28 119.818 137.633 119.304 136.471 119.304C135.325 119.304 134.744 119.802 134.728 120.482C134.711 121.229 135.441 121.595 136.52 121.827L137.566 122.076C139.874 122.591 141.219 123.736 141.235 125.662C141.219 127.937 139.459 129.314 136.471 129.314C133.482 129.314 131.54 127.953 131.49 125.197H134.213C134.279 126.359 135.143 126.957 136.437 126.957C137.633 126.957 138.347 126.426 138.363 125.662C138.347 124.965 137.732 124.6 136.404 124.301L135.143 124.002C133.067 123.521 131.806 122.491 131.806 120.682C131.789 118.457 133.765 116.963 136.487 116.963C139.26 116.963 141.036 118.474 141.069 120.698H138.347ZM142.611 129.148V117.129H145.434V122.259H145.6L149.634 117.129H152.987L148.687 122.491L153.054 129.148H149.667L146.629 124.384L145.434 125.861V129.148H142.611ZM162.762 120.134V122.192H161.118V126.326C161.118 126.891 161.4 127.057 161.882 127.073C162.114 127.09 162.562 127.057 162.878 127.04V129.182C162.612 129.215 162.147 129.281 161.483 129.281C159.508 129.281 158.312 128.468 158.329 126.642V122.192H157.117V120.134H158.329V117.976H161.118V120.134H162.762ZM168.221 129.314C165.399 129.314 163.673 127.555 163.673 124.683C163.673 121.894 165.416 120.018 168.122 120.018C170.645 120.018 172.471 121.628 172.471 124.616V125.33H166.429V125.38C166.429 126.542 167.142 127.289 168.271 127.289C169.035 127.289 169.599 126.957 169.832 126.426H172.438C172.106 128.186 170.562 129.314 168.221 129.314ZM166.429 123.687H169.865C169.848 122.724 169.151 122.043 168.188 122.043C167.192 122.043 166.47 122.749 166.429 123.687ZM176.636 117.129V129.148H173.831V117.129H176.636ZM182.545 129.314C179.722 129.314 177.996 127.555 177.996 124.683C177.996 121.894 179.739 120.018 182.445 120.018C184.968 120.018 186.795 121.628 186.795 124.616V125.33H180.752V125.38C180.752 126.542 181.466 127.289 182.594 127.289C183.358 127.289 183.923 126.957 184.155 126.426H186.761C186.429 128.186 184.885 129.314 182.545 129.314ZM180.752 123.687H184.188C184.172 122.724 183.474 122.043 182.511 122.043C181.515 122.043 180.793 122.749 180.752 123.687ZM192.338 129.314C189.499 129.314 187.805 127.422 187.805 124.666C187.805 121.91 189.515 120.018 192.338 120.018C194.811 120.018 196.422 121.445 196.488 123.637H193.882C193.749 122.724 193.217 122.143 192.371 122.143C191.341 122.143 190.661 123.022 190.661 124.633C190.661 126.26 191.325 127.14 192.371 127.14C193.168 127.14 193.765 126.625 193.882 125.662H196.488C196.405 127.854 194.844 129.314 192.338 129.314ZM202.031 129.314C199.209 129.314 197.499 127.438 197.499 124.666C197.499 121.894 199.209 120.018 202.031 120.018C204.853 120.018 206.563 121.894 206.563 124.666C206.563 127.438 204.853 129.314 202.031 129.314ZM202.047 127.206C203.11 127.206 203.708 126.16 203.708 124.649C203.708 123.139 203.11 122.093 202.047 122.093C200.952 122.093 200.354 123.139 200.354 124.649C200.354 126.16 200.952 127.206 202.047 127.206ZM207.922 129.148V120.134H210.579V121.777H210.678C211.06 120.682 211.99 120.018 213.235 120.018C214.48 120.018 215.443 120.698 215.675 121.777H215.775C216.124 120.715 217.17 120.018 218.498 120.018C220.191 120.018 221.37 121.163 221.37 123.072V129.148H218.564V123.703C218.564 122.79 218.033 122.292 217.286 122.292C216.472 122.292 215.991 122.873 215.991 123.736V129.148H213.301V123.67C213.301 122.823 212.787 122.292 212.04 122.292C211.259 122.292 210.728 122.89 210.728 123.803V129.148H207.922Z" fill="#121212"/>
<path d="M47.5166 144.045C49.3076 144.059 50.5791 145.699 50.5928 148.283C50.5791 150.867 49.3076 152.508 47.5166 152.508C45.7119 152.508 44.4541 150.867 44.4541 148.283C44.4541 145.699 45.7119 144.059 47.5166 144.045ZM47.5166 145.002C46.3135 145.016 45.4658 146.301 45.4658 148.283C45.4658 150.266 46.3135 151.551 47.5166 151.551C48.7334 151.551 49.5537 150.266 49.5537 148.283C49.5537 146.301 48.7334 145.016 47.5166 145.002ZM53.6689 143.102V147.955H55.7061V148.885H53.6689V155.256H52.6025V143.102H53.6689ZM66.3838 143.102V155.283H65.3037V143.102H66.3838ZM59.917 144.045C61.7217 144.059 63.0205 145.699 63.0205 148.283C63.0205 150.867 61.7217 152.508 59.917 152.508C58.0986 152.508 56.8135 150.867 56.8135 148.283C56.8135 145.699 58.0986 144.059 59.917 144.045ZM59.917 145.002C58.7002 145.016 57.8525 146.301 57.8525 148.283C57.8525 150.266 58.7002 151.551 59.917 151.551C61.1338 151.551 61.9814 150.266 61.9814 148.283C61.9814 146.301 61.1338 145.016 59.917 145.002ZM78.4834 143.102V155.283H77.4033V143.102H78.4834ZM75.0381 144.264V145.166H70.335V151.332C72.7002 151.332 74.2588 151.257 76.0771 150.936L76.1865 151.838C74.2998 152.18 72.7002 152.248 70.2393 152.262H69.2549V144.264H75.0381ZM81.8467 150.703C81.3682 150.703 80.958 150.307 80.9717 149.814C80.958 149.336 81.3682 148.939 81.8467 148.939C82.3252 148.939 82.7217 149.336 82.7217 149.814C82.7217 150.307 82.3252 150.703 81.8467 150.703ZM94.1377 143.102V155.283H93.0576V143.102H94.1377ZM85.8936 144.141V147.354H89.5166V144.141H90.5693V152.344H84.8271V144.141H85.8936ZM85.8936 151.441H89.5166V148.215H85.8936V151.441ZM102.56 143.785V148.734H96.8584V143.785H102.56ZM97.9111 144.66V147.887H101.507V144.66H97.9111ZM106.237 143.102V149.377H105.185V143.102H106.237ZM106.237 149.979V152.877H99.4287V154.244H106.675V155.119H98.3623V152.084H105.185V150.84H98.3486V149.979H106.237ZM118.392 143.115V152.111H117.312V147.436H114.44V150.033H108.931V143.922H109.997V146.082H113.388V143.922H114.44V146.533H117.312V143.115H118.392ZM118.665 154.094V154.996H110.53V151.223H111.61V154.094H118.665ZM109.997 149.145H113.388V146.93H109.997V149.145ZM130.915 144.906V145.795H120.962V144.906H125.419V143.307H126.472V144.906H130.915ZM131.544 152.945V153.834H120.415V152.945H125.419V151.236C123.259 151.12 121.946 150.279 121.96 148.912C121.946 147.463 123.478 146.615 125.952 146.629C128.399 146.615 129.944 147.463 129.944 148.912C129.944 150.279 128.618 151.12 126.472 151.236V152.945H131.544ZM125.952 147.477C124.134 147.477 123.026 148.01 123.04 148.912C123.026 149.842 124.134 150.361 125.952 150.375C127.743 150.361 128.851 149.842 128.851 148.912C128.851 148.01 127.743 147.477 125.952 147.477ZM138.448 150.238V151.756H140.663V150.238H141.661V155.092H137.437V150.238H138.448ZM138.448 154.244H140.663V152.576H138.448V154.244ZM145.134 151.195C145.12 152.48 145.886 153.82 147.376 154.367L146.815 155.188C145.694 154.736 144.956 153.882 144.587 152.863C144.197 153.861 143.459 154.723 142.386 155.188L141.825 154.367C143.288 153.766 144.067 152.426 144.067 151.195V150.156H145.134V151.195ZM139.378 143.648C141.005 143.648 142.249 144.571 142.481 145.973H145.024V143.102H146.104V149.541H145.024V146.861H142.495C142.276 148.297 141.025 149.24 139.378 149.24C137.532 149.24 136.22 148.105 136.22 146.438C136.22 144.783 137.532 143.648 139.378 143.648ZM139.378 144.551C138.134 144.551 137.245 145.33 137.245 146.438C137.245 147.559 138.134 148.352 139.378 148.352C140.608 148.352 141.483 147.559 141.483 146.438C141.483 145.33 140.608 144.551 139.378 144.551ZM158.149 143.102V155.283H157.069V143.102H158.149ZM151.683 144.045C153.487 144.059 154.786 145.699 154.786 148.283C154.786 150.867 153.487 152.508 151.683 152.508C149.864 152.508 148.579 150.867 148.579 148.283C148.579 145.699 149.864 144.059 151.683 144.045ZM151.683 145.002C150.466 145.016 149.618 146.301 149.618 148.283C149.618 150.266 150.466 151.551 151.683 151.551C152.899 151.551 153.747 150.266 153.747 148.283C153.747 146.301 152.899 145.016 151.683 145.002ZM162.224 153.232L161.157 156.951H160.146L160.897 153.232H162.224ZM177.741 143.102V155.256H176.702V148.912H175.048V154.627H174.022V143.375H175.048V148.01H176.702V143.102H177.741ZM173.12 144.646V145.535H172.067V151.168C172.525 151.141 172.963 151.1 173.366 151.045L173.421 151.838C171.493 152.193 168.923 152.248 167.323 152.248L167.187 151.332L168.513 151.318V145.535H167.446V144.646H173.12ZM169.511 151.305C170.023 151.291 170.55 151.271 171.069 151.236V145.535H169.511V151.305ZM185.479 144.893C185.479 146.971 187.858 148.83 189.978 149.227L189.485 150.129C187.653 149.705 185.719 148.399 184.933 146.602C184.146 148.393 182.219 149.698 180.38 150.129L179.888 149.227C181.993 148.816 184.358 146.984 184.358 144.893V143.963H185.479V144.893ZM190.552 152.713V153.602H179.423V152.713H190.552ZM198.044 144.373C198.03 147.887 196.759 151.127 192.37 153.273L191.769 152.412C194.045 151.318 195.453 149.917 196.226 148.27L192.001 148.68L191.823 147.723L196.567 147.408C196.786 146.731 196.916 146.014 196.964 145.262H192.438V144.373H198.044ZM201.571 143.102V155.256H200.491V143.102H201.571ZM214.751 152.85V153.752H203.622V152.85H208.626V150.553H205.017V146.807H212.29V144.893H204.989V144.004H213.343V147.682H206.083V149.664H213.63V150.553H209.679V152.85H214.751ZM77.2393 163.102V166.807H79.0713V167.709H77.2393V172.002H76.1592V163.102H77.2393ZM73.958 164.045C73.958 167.176 71.7158 169.5 68.2158 170.594L67.751 169.732C70.6631 168.823 72.5635 167.087 72.7959 164.947H68.2568V164.045H73.958ZM77.7998 174.094V174.996H69.624V171.1H70.6904V174.094H77.7998ZM89.9131 163.102V172.152H88.833V168.625H86.7549V167.723H88.833V166.314H86.7549V165.426H88.833V163.102H89.9131ZM86.6592 164.1V164.975H85.415V169.227C85.9824 169.192 86.5293 169.151 87.0557 169.09L87.1104 169.896C84.7451 170.266 81.9697 170.307 80.001 170.307L79.8643 169.391L81.4365 169.377V164.975H80.2061V164.1H86.6592ZM90.2412 174.094V174.996H82.0791V171.4H83.1592V174.094H90.2412ZM82.4756 169.35C83.0977 169.343 83.7402 169.322 84.376 169.295V164.975H82.4756V169.35ZM101.343 163.102V168.119H103.38V169.008H101.343V175.256H100.276V163.102H101.343ZM99.1006 165.057V165.945H91.8682V165.057H94.999V163.252H96.0654V165.057H99.1006ZM95.5459 166.957C97.2686 166.957 98.5127 168.105 98.5264 169.746C98.5127 171.387 97.2686 172.535 95.5459 172.535C93.8096 172.535 92.5518 171.387 92.5654 169.746C92.5518 168.105 93.8096 166.957 95.5459 166.957ZM95.5459 167.859C94.4111 167.859 93.5771 168.652 93.5908 169.746C93.5771 170.854 94.4111 171.633 95.5459 171.619C96.667 171.633 97.4873 170.854 97.501 169.746C97.4873 168.652 96.667 167.859 95.5459 167.859ZM114.44 163.102V175.256H113.415V163.102H114.44ZM111.884 163.43V174.641H110.858V168.967H108.288C107.543 170.382 106.374 171.633 104.679 172.631L104.05 171.852C106.695 170.286 108.021 168.092 108.22 165.549H104.569V164.66H109.286C109.279 165.856 109.088 167.012 108.685 168.092H110.858V163.43H111.884ZM130.778 172.85V173.752H119.649V172.85H124.653V170.553H121.044V166.807H128.317V164.893H121.017V164.004H129.37V167.682H122.11V169.664H129.657V170.553H125.706V172.85H130.778ZM141.333 164.4V165.617C141.333 167.148 141.333 168.885 140.882 171.523L139.788 171.414C140.28 168.926 140.28 167.107 140.28 165.617V165.289H132.952V164.4H141.333ZM142.823 172.576V173.465H131.749V172.576H142.823ZM153.884 163.115V172.002H152.817V163.115H153.884ZM154.267 174.094V174.996H146.036V171.1H147.103V174.094H154.267ZM147.321 163.963C149.14 163.963 150.507 165.193 150.507 166.943C150.507 168.721 149.14 169.938 147.321 169.938C145.503 169.938 144.136 168.721 144.136 166.943C144.136 165.193 145.503 163.963 147.321 163.963ZM147.321 164.906C146.091 164.906 145.175 165.754 145.188 166.943C145.175 168.16 146.091 168.994 147.321 168.994C148.524 168.994 149.454 168.16 149.454 166.943C149.454 165.754 148.524 164.906 147.321 164.906ZM165.354 163.102V168.119H167.392V169.008H165.354V175.256H164.288V163.102H165.354ZM163.112 165.057V165.945H155.88V165.057H159.011V163.252H160.077V165.057H163.112ZM159.558 166.957C161.28 166.957 162.524 168.105 162.538 169.746C162.524 171.387 161.28 172.535 159.558 172.535C157.821 172.535 156.563 171.387 156.577 169.746C156.563 168.105 157.821 166.957 159.558 166.957ZM159.558 167.859C158.423 167.859 157.589 168.652 157.603 169.746C157.589 170.854 158.423 171.633 159.558 171.619C160.679 171.633 161.499 170.854 161.513 169.746C161.499 168.652 160.679 167.859 159.558 167.859ZM171.657 166.561C171.657 168.488 172.601 170.58 174.214 171.537L173.599 172.371C172.43 171.66 171.589 170.361 171.165 168.885C170.714 170.498 169.812 171.886 168.595 172.631L167.911 171.824C169.593 170.84 170.618 168.68 170.618 166.602V164.25H171.657V166.561ZM178.466 163.102V175.256H177.427V163.102H178.466ZM175.95 163.361V174.641H174.938V168.379H172.874V167.463H174.938V163.361H175.95ZM191.276 172.795V173.697H180.147V172.795H182.909V169.514C181.87 168.974 181.241 168.099 181.241 166.998C181.241 165.111 183.087 163.881 185.685 163.867C188.282 163.881 190.128 165.111 190.128 166.998C190.128 168.078 189.52 168.946 188.515 169.486V172.795H191.276ZM185.685 164.756C183.688 164.742 182.28 165.645 182.28 166.998C182.28 168.352 183.688 169.268 185.685 169.268C187.667 169.268 189.089 168.352 189.089 166.998C189.089 165.645 187.667 164.742 185.685 164.756ZM183.962 172.795H187.435V169.896C186.908 170.04 186.32 170.115 185.685 170.115C185.062 170.115 184.481 170.047 183.962 169.91V172.795Z" fill="#121212"/>
<path d="M123.78 241.384C132.502 241.384 139.572 234.313 139.572 225.592C139.572 216.87 132.502 209.8 123.78 209.8C115.059 209.8 107.988 216.87 107.988 225.592C107.988 234.313 115.059 241.384 123.78 241.384Z" fill="#327AFF"/>
<path d="M123.964 244.405C111.177 244.405 100.076 251.642 94.5569 262.252C92.6404 265.931 95.3542 270.332 99.5092 270.332H148.434C152.589 270.332 155.302 265.931 153.386 262.252C147.866 251.642 136.766 244.405 123.979 244.405H123.964Z" fill="#CEDCF7"/>
<path d="M160.837 242.78H146.287C143.95 242.78 142.056 244.675 142.056 247.012V261.562C142.056 263.899 143.95 265.794 146.287 265.794H160.837C163.174 265.794 165.069 263.899 165.069 261.562V247.012C165.069 244.675 163.174 242.78 160.837 242.78Z" fill="#327AFF"/>
<path d="M158.185 250.997H148.94C148.084 250.997 147.391 251.69 147.391 252.546V257.145C147.391 258 148.084 258.694 148.94 258.694H158.185C159.04 258.694 159.733 258 159.733 257.145V252.546C159.733 251.69 159.04 250.997 158.185 250.997Z" fill="#FFD31F"/>
<path d="M154.353 246.229H152.773C151.419 246.229 150.32 247.327 150.32 248.682V250.521C150.32 251.876 151.419 252.975 152.773 252.975H154.353C155.707 252.975 156.806 251.876 156.806 250.521V248.682C156.806 247.327 155.707 246.229 154.353 246.229Z" stroke="#FFD31F" stroke-miterlimit="10"/>
<path d="M153.569 254.984C154.188 254.984 154.689 254.483 154.689 253.864C154.689 253.246 154.188 252.745 153.569 252.745C152.951 252.745 152.45 253.246 152.45 253.864C152.45 254.483 152.951 254.984 153.569 254.984Z" fill="white"/>
<path d="M161.588 254.8H145.658C144.769 254.8 144.048 255.521 144.048 256.41V259.951C144.048 260.84 144.769 261.561 145.658 261.561H161.588C162.477 261.561 163.198 260.84 163.198 259.951V256.41C163.198 255.521 162.477 254.8 161.588 254.8Z" fill="white"/>
<path d="M147.008 259.72L147.069 258.678L146.195 259.26L145.843 258.647L146.778 258.187L145.843 257.712L146.195 257.099L147.069 257.681L147.008 256.639H147.713L147.652 257.681L148.526 257.099L148.879 257.712L147.943 258.187L148.879 258.647L148.526 259.26L147.652 258.678L147.713 259.72H147.008Z" fill="#327AFF"/>
<path d="M151.178 259.72L151.24 258.678L150.366 259.26L150.013 258.647L150.948 258.187L150.013 257.712L150.366 257.099L151.24 257.681L151.178 256.639H151.884L151.822 257.681L152.696 257.099L153.049 257.712L152.114 258.187L153.049 258.647L152.696 259.26L151.822 258.678L151.884 259.72H151.178Z" fill="#327AFF"/>
<path d="M155.364 259.72L155.425 258.678L154.551 259.26L154.199 258.647L155.134 258.187L154.199 257.712L154.551 257.099L155.425 257.681L155.364 256.639H156.069L156.008 257.681L156.882 257.099L157.234 257.712L156.299 258.187L157.234 258.647L156.882 259.26L156.008 258.678L156.069 259.72H155.364Z" fill="#327AFF"/>
<path d="M159.534 259.72L159.596 258.678L158.722 259.26L158.369 258.647L159.304 258.187L158.369 257.712L158.722 257.099L159.596 257.681L159.534 256.639H160.24L160.178 257.681L161.052 257.099L161.405 257.712L160.47 258.187L161.405 258.647L161.052 259.26L160.178 258.678L160.24 259.72H159.534Z" fill="#327AFF"/>
<path d="M202.226 309.84H56.7743C46.7553 309.84 38.6333 317.969 38.6333 327.997V328.705C38.6333 338.733 46.7553 346.862 56.7743 346.862H202.226C212.245 346.862 220.367 338.733 220.367 328.705V327.997C220.367 317.969 212.245 309.84 202.226 309.84Z" fill="#097EF4"/>
<path d="M98.5625 321.68V335.68H97.1406V328.461H95.4844V334.961H94.0781V321.961H95.4844V327.242H97.1406V321.68H98.5625ZM93.1562 323.383V324.602H92.0469V330.867C92.5156 330.828 92.9688 330.781 93.3906 330.727L93.4688 331.82C91.2656 332.242 88.3438 332.305 86.5312 332.305L86.3594 331.055L87.7656 331.039V324.602H86.6562V323.383H93.1562ZM89.125 331.023C89.6406 331.008 90.1641 330.992 90.6875 330.961V324.602H89.125V331.023ZM107.453 323.664C107.453 325.945 109.891 328.102 112.578 328.586L111.891 329.82C109.656 329.336 107.594 327.867 106.688 325.898C105.766 327.852 103.711 329.32 101.469 329.82L100.812 328.586C103.469 328.086 105.891 325.945 105.891 323.664V322.602H107.453V323.664ZM113.156 332.602V333.836H100.344V332.602H113.156ZM121.719 323.102C121.719 327.227 120.344 330.945 115.203 333.445L114.406 332.289C116.914 331.07 118.477 329.562 119.359 327.773L114.688 328.211L114.484 326.914L119.828 326.57C120.047 325.859 120.188 325.102 120.25 324.305H115.188V323.102H121.719ZM125.812 321.68V335.68H124.312V321.68H125.812ZM144.719 332.758V334.008H131.906V332.758H137.547V330.305H133.469V325.852H141.688V323.883H133.438V322.664H143.156V327.039H134.938V329.086H143.484V330.305H139.016V332.758H144.719ZM156.828 323.102V324.602C156.828 326.414 156.828 328.383 156.312 331.367L154.797 331.227C155.359 328.43 155.359 326.367 155.359 324.602V324.32H147.109V323.102H156.828ZM158.5 332.461V333.695H145.734V332.461H158.5ZM171.172 321.695V331.867H169.688V321.695H171.172ZM171.594 334.18V335.383H162.016V330.836H163.516V334.18H171.594ZM163.578 322.633C165.688 322.633 167.297 324.07 167.297 326.102C167.297 328.164 165.688 329.586 163.578 329.586C161.469 329.586 159.844 328.164 159.844 326.102C159.844 324.07 161.469 322.633 163.578 322.633ZM163.578 323.93C162.266 323.93 161.297 324.82 161.297 326.102C161.297 327.414 162.266 328.289 163.578 328.289C164.859 328.289 165.844 327.414 165.844 326.102C165.844 324.82 164.859 323.93 163.578 323.93Z" fill="white"/>
</svg>
