<svg width="222" height="428" viewBox="0 0 222 428" fill="none" xmlns="http://www.w3.org/2000/svg">
<g clip-path="url(#clip0_100_4100)">
<path d="M186.481 3.03906H35.499C17.6554 3.03906 3.19043 17.5518 3.19043 35.4541V391.918C3.19043 409.821 17.6554 424.333 35.499 424.333H186.481C204.324 424.333 218.789 409.821 218.789 391.918V35.4541C218.789 17.5518 204.324 3.03906 186.481 3.03906Z" fill="#EEF0F2" stroke="#EEF0F2" stroke-width="3" stroke-miterlimit="10"/>
<path d="M82.1849 29.7C82.1849 29.7 82.1041 29.7 82.0637 29.6797C82.0233 29.6797 82.0031 29.6392 81.9628 29.6189L80.0848 27.7348C80.0848 27.7348 80.0243 27.674 80.0243 27.6335C80.0243 27.593 80.0041 27.5525 80.0041 27.512C80.0041 27.4714 80.0041 27.4309 80.0243 27.3904C80.0243 27.3499 80.0646 27.3296 80.0848 27.2891C80.6704 26.8029 81.3974 26.5395 82.1445 26.5395C82.8916 26.5395 83.6388 26.8029 84.2042 27.2891C84.2244 27.3094 84.2647 27.3499 84.2647 27.3904C84.2647 27.4309 84.2849 27.4714 84.2849 27.512C84.2849 27.5525 84.2849 27.593 84.2647 27.6335C84.2647 27.674 84.2244 27.6943 84.2042 27.7348L82.3464 29.6189C82.3464 29.6189 82.2858 29.6595 82.2455 29.6797C82.2051 29.6797 82.1647 29.7 82.1243 29.7H82.1849ZM85.4763 26.3774C85.4763 26.3774 85.335 26.3572 85.2744 26.2964C84.4263 25.5265 83.3359 25.1011 82.1849 25.1011C81.0339 25.1011 79.9435 25.5265 79.0954 26.2964C79.0348 26.3572 78.9742 26.3774 78.8935 26.3774C78.8531 26.3774 78.8127 26.3774 78.7925 26.3572C78.7521 26.3572 78.7319 26.3167 78.6915 26.2964L77.6011 25.2024C77.6011 25.2024 77.5405 25.1416 77.5405 25.1011C77.5405 25.0606 77.5203 25.0201 77.5203 24.9795C77.5203 24.939 77.5203 24.8985 77.5405 24.858C77.5607 24.8175 77.5809 24.7972 77.6011 24.7567C78.8329 23.6019 80.4685 22.9536 82.1647 22.9536C83.8609 22.9536 85.4763 23.6019 86.7283 24.7567C86.7485 24.7769 86.7888 24.8175 86.7888 24.858C86.7888 24.8985 86.809 24.939 86.809 24.9795C86.809 25.0201 86.809 25.0606 86.7888 25.1011C86.7888 25.1416 86.7485 25.1619 86.7283 25.2024L85.658 26.2964C85.658 26.2964 85.5975 26.3369 85.5571 26.3572C85.5167 26.3572 85.4763 26.3774 85.4561 26.3774H85.4763ZM87.96 23.8653C87.96 23.8653 87.8793 23.8653 87.8591 23.845C87.8187 23.845 87.7985 23.8045 87.7581 23.7842C86.2638 22.3458 84.2647 21.5557 82.1849 21.5557C80.105 21.5557 78.1261 22.3458 76.6117 23.7842C76.5915 23.8045 76.5511 23.8248 76.5107 23.845C76.4703 23.8653 76.4299 23.8653 76.4097 23.8653C76.3895 23.8653 76.329 23.8653 76.3088 23.845C76.2684 23.845 76.2482 23.8045 76.2078 23.7842L75.1174 22.6902C75.1174 22.6902 75.077 22.6294 75.0568 22.5889C75.0568 22.5484 75.0366 22.5079 75.0366 22.4674C75.0366 22.4269 75.0366 22.3863 75.0568 22.3458C75.0568 22.3053 75.0972 22.285 75.1174 22.2445C77.0155 20.4212 79.5396 19.4082 82.1647 19.4082C84.7898 19.4082 87.3139 20.4212 89.212 22.2445C89.2322 22.2648 89.2524 22.3053 89.2726 22.3458C89.2726 22.3863 89.2928 22.4269 89.2928 22.4674C89.2928 22.5079 89.2928 22.5484 89.2726 22.5889C89.2726 22.6294 89.2322 22.6497 89.212 22.6902L88.1216 23.7842C88.1216 23.7842 88.0004 23.8653 87.9197 23.8653H87.96Z" fill="black"/>
<path d="M45.0703 29.3355V28.0794C45.2117 28.201 45.3934 28.3226 45.5953 28.4238C45.7973 28.5251 46.0194 28.6062 46.2415 28.6872C46.4636 28.748 46.6857 28.8088 46.9079 28.8493C47.13 28.8898 47.3319 28.9101 47.5338 28.9101C48.2002 28.9101 48.6848 28.7885 49.0079 28.5454C49.331 28.3023 49.4925 27.9376 49.4925 27.4919C49.4925 27.2488 49.432 27.0259 49.331 26.8436C49.23 26.6613 49.0685 26.4992 48.8868 26.3371C48.705 26.1751 48.4627 26.0332 48.2002 25.9117C47.9377 25.7699 47.655 25.6281 47.3521 25.466C47.029 25.3039 46.7463 25.1418 46.4636 24.9798C46.1809 24.8177 45.9386 24.6353 45.7367 24.4327C45.5347 24.2302 45.3732 24.0073 45.252 23.7642C45.1309 23.5008 45.0703 23.2172 45.0703 22.8728C45.0703 22.4473 45.1713 22.1029 45.353 21.7788C45.5347 21.4749 45.7771 21.2115 46.08 21.0089C46.3828 20.8063 46.7059 20.6645 47.0896 20.5632C47.4733 20.4619 47.8569 20.4214 48.2608 20.4214C49.1695 20.4214 49.8156 20.5227 50.2195 20.7455V21.9611C49.6743 21.5762 48.9877 21.3938 48.1396 21.3938C47.8973 21.3938 47.6752 21.4141 47.4329 21.4749C47.1906 21.5154 46.9886 21.5964 46.8069 21.718C46.6252 21.8193 46.4838 21.9814 46.3627 22.1434C46.2415 22.3258 46.1809 22.5284 46.1809 22.7917C46.1809 23.0348 46.2213 23.2374 46.3021 23.3995C46.3828 23.5616 46.5242 23.7237 46.6857 23.8655C46.8473 24.0073 47.0694 24.1491 47.3117 24.2707C47.554 24.4125 47.8367 24.5543 48.1598 24.6961C48.4829 24.8582 48.806 25.0203 49.0887 25.2026C49.3916 25.3849 49.6339 25.5875 49.856 25.7901C50.0781 26.013 50.2599 26.2561 50.381 26.5195C50.5224 26.7828 50.583 27.0867 50.583 27.4311C50.583 27.8768 50.5022 28.2618 50.3204 28.5859C50.1387 28.8898 49.9166 29.1532 49.6137 29.3558C49.3108 29.5584 48.9675 29.7002 48.5839 29.7812C48.2002 29.8623 47.7762 29.923 47.3521 29.923C47.2108 29.923 47.029 29.923 46.8271 29.8825C46.605 29.8623 46.403 29.8217 46.1809 29.7812C45.9588 29.7407 45.7569 29.6799 45.5549 29.6192C45.353 29.5584 45.2117 29.4773 45.0905 29.3963L45.0703 29.3355ZM58.7812 29.7002H57.287L53.7532 25.5065C53.6119 25.3444 53.5311 25.2431 53.5109 25.1823H53.4907V29.7002H52.4205V20.5429H53.4907V24.8582H53.5109C53.5109 24.8582 53.6523 24.6556 53.7532 24.5543L57.1658 20.5632H58.4985L54.5811 24.9595L58.7812 29.7204V29.7002ZM65.4045 21.5154H62.7592V29.7002H61.689V21.5154H59.0639V20.5429H65.4045V21.5154Z" fill="#222222"/>
<path d="M38.7096 29.3963H37.7807C37.5384 29.3963 37.2961 29.295 37.1144 29.1127C36.9326 28.9304 36.8317 28.7075 36.8317 28.4441V20.3404C36.8317 20.0973 36.9326 19.8542 37.1144 19.6718C37.2961 19.4895 37.5182 19.3882 37.7807 19.3882H38.7096C38.9519 19.3882 39.1942 19.4895 39.376 19.6718C39.5577 19.8542 39.6587 20.077 39.6587 20.3404V28.4441C39.6587 28.6872 39.5577 28.9304 39.376 29.1127C39.1942 29.295 38.9721 29.3963 38.7096 29.3963ZM34.3682 29.3963H33.4393C33.197 29.3963 32.9547 29.295 32.7729 29.1127C32.5912 28.9304 32.4902 28.7075 32.4902 28.4441V22.5284C32.4902 22.2853 32.5912 22.0422 32.7729 21.8598C32.9547 21.6775 33.1768 21.5762 33.4393 21.5762H34.3682C34.6105 21.5762 34.8528 21.6775 35.0345 21.8598C35.2163 22.0422 35.3172 22.265 35.3172 22.5284V28.4441C35.3172 28.6872 35.2163 28.9304 35.0547 29.1127C34.873 29.295 34.6509 29.3963 34.3883 29.3963H34.3682ZM30.0267 29.3963H29.0978C28.8555 29.3963 28.6132 29.295 28.4315 29.1127C28.2497 28.9304 28.1488 28.7075 28.1488 28.4441V24.6961C28.1488 24.453 28.2497 24.2099 28.4315 24.0276C28.6132 23.8453 28.8353 23.744 29.0978 23.744H30.0267C30.269 23.744 30.5113 23.8453 30.6931 24.0276C30.8748 24.2099 30.9758 24.4328 30.9758 24.6961V28.4441C30.9758 28.6872 30.8748 28.9304 30.6931 29.1127C30.5113 29.295 30.2892 29.3963 30.0267 29.3963ZM25.665 29.3963H24.7362C24.4939 29.3963 24.2515 29.295 24.0698 29.1127C23.8881 28.9304 23.7871 28.7075 23.7871 28.4441V26.5803C23.7871 26.3372 23.8881 26.094 24.0698 25.9117C24.2515 25.7294 24.4737 25.6281 24.7362 25.6281H25.665C25.9074 25.6281 26.1497 25.7294 26.3314 25.9117C26.5131 26.094 26.6141 26.3169 26.6141 26.5803V28.4441C26.6141 28.6872 26.5131 28.9304 26.3314 29.1127C26.1497 29.295 25.9276 29.3963 25.665 29.3963Z" fill="black"/>
<path d="M186.157 19.8135H170.629C169.519 19.8135 168.61 20.7251 168.61 21.8394V27.4513C168.61 28.5655 169.519 29.4772 170.629 29.4772H186.157C187.268 29.4772 188.177 28.5655 188.177 27.4513V21.8394C188.177 20.7251 187.268 19.8135 186.157 19.8135Z" stroke="black" stroke-width="0.4" stroke-miterlimit="10"/>
<path d="M189.57 22.7715V26.5195C189.933 26.3574 190.256 26.1143 190.479 25.7699C190.701 25.4457 190.822 25.0405 190.822 24.6556C190.822 24.2707 190.701 23.8655 190.479 23.5413C190.256 23.2172 189.953 22.9538 189.57 22.7917V22.7715Z" fill="black"/>
<path d="M185.532 21.2114H171.255C170.569 21.2114 170.023 21.7787 170.023 22.4472V26.803C170.023 27.4918 170.589 28.0388 171.255 28.0388H185.532C186.218 28.0388 186.763 27.4716 186.763 26.803V22.4472C186.763 21.7584 186.198 21.2114 185.532 21.2114Z" fill="black"/>
<path d="M104.659 239.527C114.317 239.527 122.146 231.672 122.146 221.982C122.146 212.292 114.317 204.438 104.659 204.438C95.0016 204.438 87.1724 212.292 87.1724 221.982C87.1724 231.672 95.0016 239.527 104.659 239.527Z" fill="#327AFF"/>
<path d="M104.861 242.87C90.7062 242.87 78.4088 250.913 72.2904 262.704C70.1701 266.796 73.1788 271.679 77.7626 271.679H131.94C136.544 271.679 139.532 266.776 137.412 262.704C131.294 250.913 118.996 242.87 104.841 242.87H104.861Z" fill="#CEDCF7"/>
<path d="M145.691 241.066H129.577C126.99 241.066 124.893 243.171 124.893 245.767V261.934C124.893 264.529 126.99 266.634 129.577 266.634H145.691C148.279 266.634 150.376 264.529 150.376 261.934V245.767C150.376 243.171 148.279 241.066 145.691 241.066Z" fill="#327AFF"/>
<path d="M142.763 250.204H132.525C131.578 250.204 130.809 250.975 130.809 251.926V257.031C130.809 257.982 131.578 258.753 132.525 258.753H142.763C143.711 258.753 144.48 257.982 144.48 257.031V251.926C144.48 250.975 143.711 250.204 142.763 250.204Z" fill="#FFD31F"/>
<path d="M138.543 244.896H136.766C135.272 244.896 134.06 246.111 134.06 247.61V249.677C134.06 251.176 135.272 252.391 136.766 252.391H138.543C140.037 252.391 141.249 251.176 141.249 249.677V247.61C141.249 246.111 140.037 244.896 138.543 244.896Z" stroke="#FFD31F" stroke-miterlimit="10"/>
<path d="M137.634 254.661C138.326 254.661 138.886 254.098 138.886 253.405C138.886 252.711 138.326 252.148 137.634 252.148C136.943 252.148 136.382 252.711 136.382 253.405C136.382 254.098 136.943 254.661 137.634 254.661Z" fill="white"/>
<path d="M146.539 254.438H128.891C127.909 254.438 127.114 255.236 127.114 256.22V260.171C127.114 261.156 127.909 261.954 128.891 261.954H146.539C147.521 261.954 148.316 261.156 148.316 260.171V256.22C148.316 255.236 147.521 254.438 146.539 254.438Z" fill="white"/>
<path d="M130.385 259.887L130.466 258.732L129.496 259.381L129.113 258.692L130.143 258.185L129.113 257.659L129.496 256.97L130.466 257.618L130.385 256.463H131.172L131.092 257.618L132.061 256.97L132.445 257.659L131.415 258.185L132.445 258.692L132.061 259.381L131.092 258.732L131.172 259.887H130.385Z" fill="#327AFF"/>
<path d="M135.009 259.887L135.09 258.732L134.12 259.381L133.737 258.692L134.767 258.185L133.737 257.659L134.12 256.97L135.09 257.618L135.009 256.463H135.796L135.716 257.618L136.685 256.97L137.069 257.659L136.039 258.185L137.069 258.692L136.685 259.381L135.716 258.732L135.796 259.887H135.009Z" fill="#327AFF"/>
<path d="M139.633 259.887L139.714 258.732L138.745 259.381L138.361 258.692L139.391 258.185L138.361 257.659L138.745 256.97L139.714 257.618L139.633 256.463H140.421L140.34 257.618L141.309 256.97L141.693 257.659L140.663 258.185L141.693 258.692L141.309 259.381L140.34 258.732L140.421 259.887H139.633Z" fill="#327AFF"/>
<path d="M144.258 259.887L144.338 258.732L143.369 259.381L142.985 258.692L144.015 258.185L142.985 257.659L143.369 256.97L144.338 257.618L144.258 256.463H145.045L144.964 257.618L145.934 256.97L146.317 257.659L145.287 258.185L146.317 258.692L145.934 259.381L144.964 258.732L145.045 259.887H144.258Z" fill="#327AFF"/>
<path d="M18.8398 97.002H23.5246C26.3718 97.002 27.9064 98.805 27.9064 101.277C27.9064 103.748 26.3516 105.531 23.4842 105.531H21.0812V109.887H18.8398V97.002ZM23.1813 103.627C24.8573 103.627 25.6246 102.654 25.6246 101.277C25.6246 99.899 24.8775 98.9469 23.1813 98.9469H21.0812V103.627H23.1813Z" fill="#097EF4"/>
<path d="M32.2276 104.235C32.8737 104.194 34.2065 104.113 34.6103 104.093V103.323C34.6103 102.371 34.0045 101.804 32.9343 101.804C31.9449 101.804 31.3593 102.27 31.1775 102.958H29.0573C29.2188 101.317 30.6323 100.082 32.9747 100.082C34.7517 100.082 36.7911 100.831 36.7911 103.404V109.867H34.6911V108.53H34.6305C34.2065 109.34 33.3382 110.069 31.8843 110.069C30.0871 110.069 28.7544 109.056 28.7544 107.152C28.7544 104.984 30.491 104.336 32.2276 104.235ZM32.4497 108.408C33.7824 108.408 34.6305 107.496 34.6305 106.423V105.612L32.5708 105.754C31.5208 105.835 30.8746 106.281 30.8746 107.152C30.8746 108.023 31.5208 108.408 32.4497 108.408Z" fill="#097EF4"/>
<path d="M42.2635 101.783C41.3145 101.783 40.6279 102.27 40.6481 102.918C40.6481 103.424 41.0318 103.789 41.9808 104.012L43.5559 104.356C45.3328 104.761 46.1607 105.612 46.1809 106.99C46.1809 108.813 44.6261 110.069 42.1827 110.069C39.7394 110.069 38.4067 108.975 38.1846 107.112H40.426C40.5673 107.922 41.1933 108.347 42.2029 108.347C43.2126 108.347 43.9597 107.902 43.9597 107.193C43.9597 106.646 43.5357 106.281 42.6068 106.078L41.1125 105.734C39.3759 105.369 38.4875 104.437 38.4875 103.039C38.4875 101.257 39.9615 100.082 42.2635 100.082C44.5655 100.082 45.878 101.196 46.0194 102.958H43.9395C43.7982 102.229 43.2126 101.763 42.2837 101.763L42.2635 101.783Z" fill="#097EF4"/>
<path d="M51.2494 101.783C50.3003 101.783 49.6137 102.27 49.6339 102.918C49.6339 103.424 50.0176 103.789 50.9667 104.012L52.5417 104.356C54.3187 104.761 55.1466 105.612 55.1668 106.99C55.1668 108.813 53.6119 110.069 51.1686 110.069C48.7253 110.069 47.3925 108.975 47.1704 107.112H49.4118C49.5532 107.922 50.1791 108.347 51.1888 108.347C52.1984 108.347 52.9456 107.902 52.9456 107.193C52.9456 106.646 52.5215 106.281 51.5926 106.078L50.0984 105.734C48.3618 105.369 47.4733 104.437 47.4733 103.039C47.4733 101.257 48.9474 100.082 51.2494 100.082C53.5513 100.082 54.8639 101.196 55.0052 102.958H52.9254C52.784 102.229 52.1984 101.763 51.2696 101.763L51.2494 101.783Z" fill="#097EF4"/>
<path d="M56.5801 97.002H58.7811V104.113H58.9426L62.2946 100.223H64.8591L61.2446 104.397L65.0813 109.907H62.4764L59.609 105.754L58.8013 106.645V109.907H56.6003V97.0222L56.5801 97.002Z" fill="#097EF4"/>
<path d="M65.1218 105.126C65.1218 102.128 66.8785 100.102 69.544 100.102C71.8258 100.102 73.8047 101.581 73.8047 104.985V105.694H67.2824C67.3026 107.335 68.2516 108.307 69.6651 108.307C70.6344 108.307 71.2806 107.882 71.5633 107.314H73.7037C73.2998 108.996 71.8056 110.09 69.6449 110.09C66.818 110.09 65.1016 108.145 65.1016 105.126H65.1218ZM71.7046 104.134C71.7046 102.817 70.8363 101.865 69.5642 101.865C68.292 101.865 67.3632 102.898 67.3026 104.134H71.7046Z" fill="#097EF4"/>
<path d="M75.1576 113.473V111.65C75.4403 111.65 75.7835 111.69 76.0864 111.69C76.6114 111.69 77.0759 111.63 77.4393 110.596L77.6211 110.09L74.2085 100.224H76.5307L78.6913 107.517H78.7923L80.9529 100.224H83.2751L79.5192 111.062C78.9942 112.602 78.0047 113.514 76.248 113.514C75.8239 113.514 75.3797 113.514 75.1172 113.453L75.1576 113.473Z" fill="#097EF4"/>
<path d="M88.4648 97.002H90.6659V101.803H90.7466C91.0899 101.115 91.7563 100.102 93.4121 100.102C95.5727 100.102 97.2891 101.844 97.2891 105.065C97.2891 108.286 95.6131 110.069 93.4323 110.069C91.8169 110.069 91.0899 109.077 90.7466 108.367H90.6053V109.907H88.4648V97.0222V97.002ZM92.8063 108.205C94.2602 108.205 95.0477 106.889 95.0477 105.045C95.0477 103.201 94.3006 101.945 92.8063 101.945C91.312 101.945 90.6053 103.181 90.6053 105.045C90.6053 106.909 91.3928 108.205 92.8063 108.205Z" fill="black"/>
<path d="M98.6219 113.473V111.65C98.9046 111.65 99.2479 111.69 99.5508 111.69C100.076 111.69 100.54 111.63 100.904 110.596L101.085 110.09L97.6729 100.224H99.995L102.156 107.517H102.257L104.417 100.224H106.739L102.984 111.062C102.459 112.602 101.469 113.514 99.7123 113.514C99.2883 113.514 98.844 113.514 98.5815 113.453L98.6219 113.473Z" fill="black"/>
<path d="M116.331 98.8053C114.917 98.8053 114.069 99.5143 114.069 100.487C114.069 101.581 115.159 102.026 116.209 102.27L117.381 102.594C119.238 103.039 121.015 104.052 121.015 106.301C121.015 108.55 119.299 110.11 116.31 110.11C113.322 110.11 111.585 108.672 111.484 106.119H113.685C113.786 107.476 114.897 108.125 116.29 108.125C117.764 108.125 118.774 107.375 118.774 106.281C118.774 105.268 117.865 104.843 116.512 104.478L115.099 104.113C113.059 103.566 111.787 102.492 111.787 100.649C111.787 98.3798 113.746 96.8604 116.351 96.8604C118.956 96.8604 120.793 98.4001 120.813 100.588H118.673C118.572 99.4941 117.663 98.8458 116.31 98.8458L116.331 98.8053Z" fill="black"/>
<path d="M122.611 97.002H124.852V102.938H125.014L129.88 97.002H132.606L127.801 102.796L132.667 109.907H129.961L126.226 104.376L124.832 106.058V109.907H122.591V97.0222L122.611 97.002Z" fill="black"/>
<path d="M137.17 97.002H147.084V98.9469H143.248V109.907H141.006V98.9469H137.149V97.002H137.17Z" fill="black"/>
<path d="M146.741 105.126C146.741 102.128 148.498 100.102 151.164 100.102C153.445 100.102 155.424 101.581 155.424 104.985V105.694H148.902C148.922 107.335 149.871 108.307 151.285 108.307C152.254 108.307 152.9 107.882 153.183 107.314H155.323C154.919 108.996 153.425 110.09 151.265 110.09C148.438 110.09 146.721 108.145 146.721 105.126H146.741ZM153.324 104.134C153.324 102.817 152.456 101.865 151.184 101.865C149.912 101.865 148.983 102.898 148.922 104.134H153.324Z" fill="black"/>
<path d="M159.059 109.887H156.858V97.002H159.059V109.887Z" fill="black"/>
<path d="M160.513 105.126C160.513 102.128 162.27 100.102 164.935 100.102C167.217 100.102 169.196 101.581 169.196 104.985V105.694H162.673C162.694 107.335 163.643 108.307 165.056 108.307C166.026 108.307 166.672 107.882 166.954 107.314H169.095C168.691 108.996 167.197 110.09 165.036 110.09C162.209 110.09 160.493 108.145 160.493 105.126H160.513ZM167.096 104.134C167.096 102.817 166.227 101.865 164.955 101.865C163.683 101.865 162.754 102.898 162.694 104.134H167.096Z" fill="black"/>
<path d="M170.246 105.106C170.246 102.148 171.982 100.102 174.708 100.102C176.97 100.102 178.565 101.48 178.706 103.566H176.606C176.445 102.634 175.778 101.925 174.708 101.925C173.355 101.925 172.447 103.121 172.447 105.066C172.447 107.011 173.335 108.246 174.708 108.246C175.698 108.246 176.404 107.659 176.606 106.605H178.706C178.525 108.652 177.03 110.09 174.708 110.09C171.922 110.09 170.246 108.023 170.246 105.106Z" fill="black"/>
<path d="M179.736 105.106C179.736 102.087 181.493 100.102 184.199 100.102C186.905 100.102 188.662 102.087 188.662 105.106C188.662 108.125 186.925 110.09 184.199 110.09C181.473 110.09 179.736 108.105 179.736 105.106ZM186.44 105.086C186.44 103.323 185.693 101.905 184.199 101.905C182.705 101.905 181.937 103.323 181.937 105.086C181.937 106.848 182.684 108.267 184.199 108.267C185.713 108.267 186.44 106.869 186.44 105.086Z" fill="black"/>
<path d="M190.115 100.224H192.215V101.865H192.336C192.72 100.771 193.669 100.102 194.901 100.102C196.133 100.102 197.062 100.771 197.425 101.865H197.526C197.93 100.791 198.96 100.102 200.333 100.102C202.029 100.102 203.241 101.237 203.241 103.404V109.908H201.06V103.769C201.06 102.553 200.353 102.027 199.465 102.027C198.374 102.027 197.768 102.797 197.768 103.87V109.908H195.628V103.668C195.628 102.675 194.982 102.006 194.053 102.006C193.124 102.006 192.336 102.817 192.336 104.012V109.887H190.135V100.224H190.115Z" fill="black"/>
<path d="M49.4522 312.785V321.314C49.4522 323.968 47.4733 325.913 44.4443 325.913C41.4154 325.913 39.4365 323.968 39.4365 321.314V312.785H41.0318V321.193C41.0318 323.057 42.3241 324.414 44.4443 324.414C46.5646 324.414 47.8569 323.057 47.8569 321.193V312.785H49.4522Z" fill="black"/>
<path d="M55.4898 317.181C54.2984 317.181 53.4503 317.83 53.4503 318.64C53.4503 319.288 53.9552 319.734 55.1062 319.997L56.5398 320.362C58.2562 320.767 59.1043 321.618 59.1043 322.976C59.1043 324.657 57.7312 325.873 55.3283 325.873C53.1676 325.873 51.8753 324.92 51.6128 323.158H53.208C53.3898 324.11 54.0763 324.556 55.2879 324.556C56.661 324.556 57.5293 323.989 57.5293 323.077C57.5293 322.408 57.0447 321.942 55.9543 321.679L54.5004 321.335C52.8244 320.95 51.9359 320.018 51.9359 318.741C51.9359 317.08 53.3696 315.885 55.51 315.885C57.4889 315.885 58.7611 316.959 58.963 318.518H57.4687C57.2466 317.708 56.661 317.181 55.51 317.181H55.4898Z" fill="black"/>
<path d="M60.6392 320.909C60.6392 317.931 62.3757 315.865 65.0008 315.865C67.0201 315.865 69.1605 317.121 69.1605 320.686V321.335H62.1738C62.2546 323.381 63.4258 324.495 65.1624 324.495C66.3133 324.495 67.0403 323.989 67.4038 323.401H69.0394C68.5749 324.86 67.1614 325.853 65.1624 325.853C62.3757 325.853 60.6594 323.867 60.6594 320.909H60.6392ZM67.6259 320.038C67.6259 318.417 66.596 317.222 65.021 317.222C63.345 317.222 62.295 318.539 62.194 320.038H67.6259Z" fill="black"/>
<path d="M79.923 317.283H77.9038V322.895C77.9038 324.151 78.5095 324.333 79.1557 324.333C79.4384 324.333 79.8221 324.333 80.0644 324.292V325.711C79.8423 325.751 79.4384 325.792 78.9942 325.792C77.722 325.792 76.3489 324.981 76.3489 323.279V317.283H74.895V316.006H76.3489V313.697H77.8836V316.006H79.9028V317.283H79.923Z" fill="black"/>
<path d="M83.6186 325.67H82.084V312.785H83.6186V317.526H83.7398C84.184 316.533 85.0523 315.885 86.587 315.885C88.5659 315.885 89.8784 317.06 89.8784 319.532V325.67H88.3438V319.633C88.3438 318.113 87.5159 317.242 86.1226 317.242C84.7292 317.242 83.6186 318.194 83.6186 319.856V325.67Z" fill="black"/>
<path d="M92.0186 313.393C92.0186 312.826 92.5032 312.38 93.0888 312.38C93.6744 312.38 94.1792 312.826 94.1792 313.393C94.1792 313.96 93.6744 314.406 93.0888 314.406C92.5032 314.406 92.0186 313.96 92.0186 313.393ZM92.3215 316.006H93.8561V325.67H92.3215V316.006Z" fill="black"/>
<path d="M99.6719 317.181C98.4806 317.181 97.6325 317.83 97.6325 318.64C97.6325 319.288 98.1373 319.734 99.2883 319.997L100.722 320.362C102.438 320.767 103.286 321.618 103.286 322.976C103.286 324.657 101.913 325.873 99.5104 325.873C97.3498 325.873 96.0574 324.92 95.7949 323.158H97.3902C97.5719 324.11 98.2584 324.556 99.47 324.556C100.843 324.556 101.711 323.989 101.711 323.077C101.711 322.408 101.227 321.942 100.136 321.679L98.6825 321.335C97.0065 320.95 96.118 320.018 96.118 318.741C96.118 317.08 97.5517 315.885 99.6921 315.885C101.671 315.885 102.943 316.959 103.145 318.518H101.651C101.429 317.708 100.843 317.181 99.6921 317.181H99.6719Z" fill="black"/>
<path d="M109.849 316.006H111.323V317.546H111.505C111.828 317.04 112.434 315.885 114.292 315.885C116.715 315.885 118.391 317.809 118.391 320.869C118.391 323.928 116.715 325.873 114.312 325.873C112.474 325.873 111.828 324.738 111.505 324.191H111.384V329.296H109.849V315.986V316.006ZM114.09 324.495C115.927 324.495 116.856 322.895 116.856 320.828C116.856 318.762 115.927 317.242 114.09 317.242C112.252 317.242 111.343 318.681 111.343 320.828C111.343 322.976 112.313 324.495 114.09 324.495Z" fill="#097EF4"/>
<path d="M123.539 320.079C124.145 320.038 125.72 319.957 126.144 319.937V319.147C126.144 317.911 125.417 317.202 123.964 317.202C122.732 317.202 122.005 317.769 121.803 318.498H120.208C120.41 316.959 121.904 315.865 124.044 315.865C125.296 315.865 127.659 316.229 127.659 319.289V325.67H126.144V324.353H126.064C125.741 325.022 124.852 325.893 123.196 325.893C121.359 325.893 119.905 324.799 119.905 322.915C119.905 320.686 121.863 320.2 123.519 320.058L123.539 320.079ZM123.459 324.536C125.175 324.536 126.144 323.381 126.144 322.165V321.193L123.721 321.375C122.328 321.456 121.46 321.963 121.46 323.016C121.46 324.07 122.308 324.556 123.479 324.556L123.459 324.536Z" fill="#097EF4"/>
<path d="M133.515 317.181C132.323 317.181 131.475 317.83 131.475 318.64C131.475 319.288 131.98 319.734 133.131 319.997L134.565 320.362C136.281 320.767 137.129 321.618 137.129 322.976C137.129 324.657 135.756 325.873 133.353 325.873C131.193 325.873 129.9 324.92 129.638 323.158H131.233C131.415 324.11 132.101 324.556 133.313 324.556C134.686 324.556 135.554 323.989 135.554 323.077C135.554 322.408 135.07 321.942 133.979 321.679L132.525 321.335C130.849 320.95 129.961 320.018 129.961 318.741C129.961 317.08 131.394 315.885 133.535 315.885C135.514 315.885 136.786 316.959 136.988 318.518H135.494C135.271 317.708 134.686 317.181 133.535 317.181H133.515Z" fill="#097EF4"/>
<path d="M142.521 317.181C141.33 317.181 140.482 317.83 140.482 318.64C140.482 319.288 140.986 319.734 142.137 319.997L143.571 320.362C145.287 320.767 146.136 321.618 146.136 322.976C146.136 324.657 144.762 325.873 142.36 325.873C140.199 325.873 138.907 324.92 138.644 323.158H140.239C140.421 324.11 141.108 324.556 142.319 324.556C143.692 324.556 144.561 323.989 144.561 323.077C144.561 322.408 144.076 321.942 142.985 321.679L141.532 321.335C139.856 320.95 138.967 320.018 138.967 318.741C138.967 317.08 140.401 315.885 142.541 315.885C144.52 315.885 145.792 316.959 145.994 318.518H144.5C144.278 317.708 143.692 317.181 142.541 317.181H142.521Z" fill="#097EF4"/>
<path d="M148.135 312.785H149.669V320.281H149.851L154.031 316.006H155.909L151.85 320.139L156.212 325.67H154.273L150.699 321.112L149.669 322.064V325.67H148.135V312.785Z" fill="#097EF4"/>
<path d="M156.656 320.909C156.656 317.931 158.392 315.865 161.017 315.865C163.037 315.865 165.177 317.121 165.177 320.686V321.335H158.19C158.271 323.381 159.442 324.495 161.179 324.495C162.33 324.495 163.057 323.989 163.42 323.401H165.056C164.592 324.86 163.178 325.853 161.179 325.853C158.392 325.853 156.676 323.867 156.676 320.909H156.656ZM163.642 320.038C163.642 318.417 162.613 317.222 161.038 317.222C159.362 317.222 158.312 318.539 158.211 320.038H163.642Z" fill="#097EF4"/>
<path d="M166.994 329.276V327.899C167.156 327.899 167.499 327.939 167.742 327.939C168.368 327.939 168.872 327.878 169.397 326.48L169.68 325.751L166.106 316.006H167.782L170.407 323.685H170.508L173.133 316.006H174.809L170.73 327.068C170.165 328.587 169.216 329.317 167.863 329.317C167.519 329.317 167.196 329.317 167.015 329.276H166.994Z" fill="#097EF4"/>
<path d="M180.382 318.093C181.109 317.647 181.675 316.938 181.675 315.945C181.675 314.73 180.726 313.96 179.555 313.96C178.545 313.96 177.535 314.568 177.434 316.026H175.819C175.9 313.879 177.535 312.603 179.555 312.603C181.776 312.603 183.23 314.041 183.23 316.006C183.23 317.404 182.563 318.376 181.473 319.045C180.382 319.714 179.958 320.402 179.938 321.942V322.023H178.404V321.942C178.404 319.552 179.151 318.822 180.382 318.073V318.093ZM178.101 324.616C178.101 323.988 178.605 323.482 179.231 323.482C179.857 323.482 180.362 323.988 180.362 324.616C180.362 325.244 179.857 325.771 179.231 325.771C178.605 325.771 178.08 325.265 178.101 324.616Z" fill="#097EF4"/>
<path d="M42.2638 130.268C42.2638 133.631 40.5878 135.779 38.2656 135.779C35.9434 135.779 34.2876 133.651 34.2876 130.268C34.2876 126.885 35.9232 124.758 38.2656 124.758C40.5878 124.758 42.2436 126.905 42.2638 130.268ZM35.6001 130.268C35.6001 132.841 36.6905 134.523 38.2656 134.523C39.8406 134.523 40.9108 132.841 40.9108 130.268C40.9108 127.695 39.8406 126.014 38.2656 125.993C36.7107 125.993 35.6001 127.675 35.6001 130.268ZM46.2418 129.843H48.887V131.058H46.2418V139.365H44.8484V123.542H46.2418V129.863V129.843Z" fill="black"/>
<path d="M58.3979 130.268C58.3979 133.631 56.7219 135.778 54.3594 135.778C51.9968 135.778 50.3208 133.651 50.3208 130.268C50.3208 126.885 51.9968 124.757 54.3594 124.757C56.7017 124.757 58.3979 126.905 58.3979 130.268ZM51.6737 130.268C51.6737 132.841 52.7641 134.522 54.3594 134.522C55.9546 134.522 57.045 132.841 57.045 130.268C57.045 127.695 55.9546 126.013 54.3594 125.993C52.7843 125.993 51.6737 127.675 51.6737 130.268ZM62.7596 139.385H61.3663V123.521H62.7596V139.385Z" fill="black"/>
<path d="M73.9867 126.216H67.8884V134.239C70.9577 134.239 72.977 134.137 75.3396 133.732L75.4809 134.907C73.0376 135.353 70.9577 135.434 67.7673 135.454H66.4951V125.041H74.0069V126.216H73.9867ZM78.4695 139.385H77.0762V123.521H78.4695V139.385Z" fill="black"/>
<path d="M81.7003 132.254C81.7003 131.626 82.2051 131.119 82.8311 131.119C83.4571 131.119 83.9619 131.626 83.9619 132.254C83.9619 132.882 83.4571 133.408 82.8311 133.408C82.2051 133.408 81.6801 132.902 81.7003 132.254Z" fill="black"/>
<path d="M88.0811 129.052H92.7861V124.859H94.1592V135.535H86.708V124.859H88.1013V129.052H88.0811ZM92.7861 134.381V130.187H88.0811V134.381H92.7861ZM98.7833 139.385H97.39V123.521H98.7833V139.385Z" fill="black"/>
<path d="M109.708 130.855H102.297V124.413H109.708V130.855ZM103.69 129.741H108.355V125.547H103.69V129.741ZM114.493 136.244H105.649V138.027H115.059V139.162H104.276V135.211H113.14V133.59H104.276V132.476H114.514V136.244H114.493ZM114.493 131.686H113.12V123.521H114.493V131.686Z" fill="black"/>
<path d="M130.264 135.252H128.871V129.154H125.135V132.537H117.987V124.575H119.38V127.391H123.782V124.575H125.155V127.979H128.891V123.521H130.284V135.231L130.264 135.252ZM123.762 131.382V128.505H119.36V131.382H123.762ZM130.628 139H120.067V134.077H121.46V137.825H130.628V139Z" fill="black"/>
<path d="M147.347 137.501H132.909V136.346H139.411V134.117C136.604 133.955 134.908 132.861 134.928 131.099C134.928 129.215 136.907 128.1 140.118 128.121C143.288 128.121 145.308 129.215 145.308 131.099C145.308 132.882 143.591 133.976 140.805 134.117V136.346H147.387V137.501H147.347ZM146.519 127.027H133.596V125.872H139.391V123.785H140.764V125.872H146.539V127.027H146.519ZM136.302 131.079C136.302 132.294 137.715 132.963 140.078 132.983C142.4 132.983 143.834 132.294 143.834 131.079C143.834 129.863 142.4 129.215 140.078 129.215C137.755 129.215 136.281 129.903 136.302 131.079Z" fill="black"/>
<path d="M161.543 127.249H164.834V123.501H166.228V131.889H164.834V128.404H161.543C161.26 130.268 159.645 131.504 157.504 131.504C155.101 131.504 153.405 130.025 153.405 127.857C153.405 125.689 155.101 124.231 157.504 124.231C159.625 124.231 161.24 125.426 161.543 127.249ZM154.738 127.857C154.738 129.316 155.889 130.349 157.504 130.349C159.12 130.349 160.23 129.316 160.23 127.857C160.23 126.399 159.1 125.406 157.504 125.406C155.909 125.406 154.738 126.419 154.738 127.857ZM156.293 134.786H159.16V132.801H160.453V139.121H154.96V132.801H156.273V134.786H156.293ZM159.18 138.027V135.86H156.313V138.027H159.18ZM167.884 138.19L167.157 139.263C165.703 138.676 164.733 137.561 164.269 136.245C163.764 137.541 162.815 138.676 161.402 139.263L160.675 138.19C162.573 137.399 163.582 135.657 163.582 134.057V132.699H164.976V134.057C164.976 135.738 165.945 137.48 167.884 138.19Z" fill="black"/>
<path d="M177.516 130.268C177.516 133.631 175.84 135.778 173.477 135.778C171.114 135.778 169.438 133.651 169.438 130.268C169.438 126.885 171.114 124.757 173.477 124.757C175.819 124.757 177.516 126.905 177.516 130.268ZM170.812 130.268C170.812 132.841 171.902 134.522 173.497 134.522C175.092 134.522 176.183 132.841 176.183 130.268C176.183 127.695 175.092 126.013 173.497 125.993C171.922 125.993 170.812 127.675 170.812 130.268ZM181.877 139.385H180.484V123.521H181.877V139.385Z" fill="black"/>
<path d="M185.774 141.552H184.462L185.431 136.71H187.148L185.754 141.552H185.774Z" fill="black"/>
<path d="M54.0564 150.993H52.6833V158.327C53.2689 158.287 53.8545 158.246 54.3593 158.165L54.4401 159.198C51.9362 159.664 48.6044 159.725 46.5245 159.725L46.3428 158.53H48.0592V150.973H46.6659V149.818H54.0362V150.973L54.0564 150.993ZM51.4112 158.428V150.993H49.3919V158.509C50.0583 158.509 50.7448 158.469 51.4112 158.428ZM60.0739 163.655H58.721V155.39H56.5805V162.825H55.2478V148.177H56.5805V154.214H58.721V147.812H60.0739V163.635V163.655Z" fill="black"/>
<path d="M76.6928 161.508H62.2549V160.353H76.6928V161.508ZM75.9456 155.815L75.2995 156.99C72.9167 156.443 70.4128 154.741 69.383 152.391C68.3531 154.721 65.8694 156.423 63.4665 156.99L62.8203 155.815C65.5463 155.288 68.6156 152.898 68.6156 150.163V148.947H70.0695V150.163C70.0695 152.878 73.159 155.288 75.9052 155.815H75.9456Z" fill="black"/>
<path d="M79.0551 161.083L78.2676 159.968C81.2157 158.55 83.0533 156.727 84.0629 154.579L78.5705 155.106L78.3484 153.85L84.5072 153.445C84.7899 152.574 84.9514 151.622 85.012 150.649H79.1359V149.494H86.4053C86.4053 154.073 84.7293 158.287 79.0349 161.083H79.0551ZM91.0093 163.656H89.616V147.833H91.0093V163.656Z" fill="black"/>
<path d="M108.113 161.69H93.6748V160.515H100.177V157.517H95.4922V152.634H104.942V150.143H95.472V148.988H106.316V153.769H96.8855V156.342H106.679V157.497H101.55V160.495H108.133V161.67L108.113 161.69Z" fill="black"/>
<path d="M114.554 157.578L113.948 156.464C117.724 155.288 120.188 153.019 120.491 150.224H114.594V149.049H122.005C122.005 153.121 119.097 156.16 114.554 157.578ZM126.993 163.311H116.371V158.246H117.765V162.136H126.993V163.311ZM126.266 152.655H128.649V153.83H126.266V159.421H124.873V147.833H126.266V152.655Z" fill="black"/>
<path d="M138.482 150.264H136.867V155.795C137.614 155.754 138.321 155.694 138.987 155.613L139.068 156.666C135.999 157.152 132.404 157.193 129.84 157.193L129.658 155.998H131.698V150.244H130.102V149.109H138.482V150.244V150.264ZM143.147 163.311H132.546V158.631H133.939V162.136H143.127V163.311H143.147ZM135.534 155.896V150.264H133.071V155.957C133.879 155.957 134.706 155.917 135.534 155.876V155.896ZM142.723 159.624H141.33V155.025H138.624V153.85H141.33V152.006H138.624V150.852H141.33V147.833H142.723V159.624Z" fill="black"/>
<path d="M154.637 151.54H145.247V150.386H149.306V148.036H150.699V150.386H154.637V151.54ZM153.89 156.484C153.89 158.611 152.254 160.11 150.013 160.11C147.771 160.11 146.136 158.611 146.136 156.484C146.136 154.357 147.751 152.857 150.013 152.857C152.274 152.857 153.869 154.357 153.89 156.484ZM147.488 156.484C147.488 157.922 148.559 158.935 150.033 158.915C151.487 158.915 152.557 157.922 152.577 156.484C152.577 155.066 151.487 154.032 150.033 154.032C148.579 154.032 147.468 155.066 147.488 156.484ZM157.544 154.357H160.19V155.511H157.544V163.656H156.151V147.833H157.544V154.377V154.357Z" fill="black"/>
<path d="M171.236 162.865H169.903V155.471H166.571C165.602 157.314 164.087 158.935 161.886 160.252L161.079 159.239C164.511 157.193 166.228 154.336 166.49 151.034H161.745V149.879H167.863C167.863 151.439 167.601 152.938 167.076 154.357H169.903V148.279H171.236V162.886V162.865ZM174.547 163.656H173.215V147.833H174.547V163.656Z" fill="black"/>
<path d="M78.9745 186.001H64.5366V184.826H71.0387V181.828H66.354V176.946H75.8042V174.454H66.3338V173.299H77.1773V178.08H67.7473V180.653H77.5408V181.808H72.4118V184.806H78.9947V185.981L78.9745 186.001Z" fill="black"/>
<path d="M94.6034 185.637H80.2261V184.482H94.6034V185.637ZM92.6851 175.426C92.6851 177.412 92.6851 179.681 92.0995 183.125L90.686 182.983C91.3321 179.742 91.3321 177.371 91.3321 175.426V175.001H81.8213V173.846H92.7052V175.426H92.6851Z" fill="black"/>
<path d="M104.579 177.148C104.579 179.458 102.802 181.038 100.439 181.038C98.0768 181.038 96.2998 179.458 96.2998 177.148C96.2998 174.839 98.0768 173.259 100.439 173.259C102.802 173.259 104.579 174.859 104.579 177.148ZM97.6729 177.148C97.6729 178.729 98.8441 179.823 100.439 179.823C102.035 179.823 103.206 178.729 103.206 177.148C103.206 175.568 101.994 174.494 100.439 174.494C98.8845 174.494 97.6527 175.588 97.6729 177.148ZM109.466 187.622H98.7835V182.558H100.177V186.447H109.486V187.622H109.466ZM108.961 183.733H107.567V172.165H108.961V183.733Z" fill="black"/>
<path d="M120.955 175.852H111.565V174.697H115.624V172.347H117.017V174.697H120.955V175.852ZM120.208 180.795C120.208 182.922 118.572 184.421 116.331 184.421C114.09 184.421 112.454 182.922 112.454 180.795C112.454 178.668 114.069 177.168 116.331 177.168C118.593 177.168 120.188 178.668 120.208 180.795ZM113.807 180.795C113.807 182.233 114.877 183.246 116.351 183.226C117.805 183.226 118.875 182.233 118.895 180.795C118.895 179.377 117.805 178.343 116.351 178.343C114.897 178.343 113.787 179.377 113.807 180.795ZM123.863 178.668H126.508V179.822H123.863V187.967H122.47V172.144H123.863V178.688V178.668Z" fill="black"/>
<path d="M135.353 183.125L134.545 184.219C133.031 183.287 131.94 181.605 131.395 179.681C130.81 181.788 129.638 183.591 128.063 184.563L127.175 183.51C129.356 182.233 130.688 179.417 130.688 176.702V173.643H132.041V176.662C132.041 179.174 133.273 181.889 135.353 183.145V183.125ZM137.615 187.177H136.302V179.012H133.616V177.817H136.302V172.468H137.615V187.156V187.177ZM140.886 187.967H139.533V172.144H140.886V187.967Z" fill="black"/>
<path d="M157.504 185.941H143.066V184.766H146.661V180.491C145.308 179.782 144.5 178.648 144.5 177.209C144.5 174.758 146.903 173.157 150.275 173.137C153.647 173.137 156.05 174.758 156.05 177.209C156.05 178.607 155.263 179.742 153.95 180.451V184.766H157.545V185.941H157.504ZM145.833 177.209C145.833 178.972 147.67 180.167 150.255 180.167C152.84 180.167 154.677 178.972 154.677 177.209C154.677 175.447 152.84 174.272 150.255 174.292C147.67 174.292 145.833 175.447 145.833 177.209ZM152.517 184.766V180.998C151.83 181.18 151.063 181.281 150.255 181.281C149.447 181.281 148.7 181.2 148.014 181.018V184.766H152.517Z" fill="black"/>
<path opacity="0.85" d="M186.481 3.03906H35.499C17.6554 3.03906 3.19043 17.5518 3.19043 35.4541V391.918C3.19043 409.821 17.6554 424.333 35.499 424.333H186.481C204.324 424.333 218.789 409.821 218.789 391.918V35.4541C218.789 17.5518 204.324 3.03906 186.481 3.03906Z" fill="#231815" stroke="#231815" stroke-width="3" stroke-miterlimit="10"/>
<path d="M0 281.97V394.146C0 412.785 14.9225 428 33.298 428H188.763C207.138 428 221.98 412.785 221.98 394.146V281.97C221.98 276.763 217.82 272.529 212.671 272.529H9.3089C4.17992 272.529 0 276.743 0 281.97Z" fill="#F2F1F6"/>
</g>
<path d="M102.66 301.603C106.039 301.603 108.778 298.855 108.778 295.465C108.778 292.075 106.039 289.326 102.66 289.326C99.2808 289.326 96.5415 292.075 96.5415 295.465C96.5415 298.855 99.2808 301.603 102.66 301.603Z" stroke="#097EF4" stroke-width="2" stroke-miterlimit="10"/>
<path d="M111.686 294.776H125.458L123.418 300.489" stroke="#097EF4" stroke-width="2" stroke-miterlimit="10"/>
<path d="M87.1558 313.869V327.994H85.4839V320.822H84.0776V327.275H82.437V314.135H84.0776V319.4H85.4839V313.869H87.1558ZM81.6245 315.541V316.947H80.6089V323.025C81.0308 322.994 81.4292 322.955 81.812 322.9L81.9058 324.166C79.7026 324.619 76.7964 324.666 75.0151 324.666L74.812 323.229L76.1245 323.213V316.947H75.0933V315.541H81.6245ZM77.687 323.182L79.0308 323.135V316.947H77.687V323.182ZM96.0933 315.807C96.0933 317.994 98.2339 320.182 101.187 320.697L100.406 322.15C98.0386 321.65 96.1011 320.221 95.187 318.322C94.2495 320.205 92.312 321.643 89.9526 322.15L89.187 320.697C92.1089 320.166 94.2339 317.979 94.2495 315.807V314.76H96.0933V315.807ZM101.703 324.76V326.197H88.7964V324.76H101.703ZM110.281 315.26C110.265 319.525 108.984 323.244 103.734 325.807L102.812 324.463C105.242 323.275 106.757 321.861 107.625 320.166L103.125 320.572L102.906 319.088L108.171 318.76C108.367 318.104 108.484 317.4 108.546 316.666H103.625V315.26H110.281ZM114.421 313.869V327.994H112.671V313.869H114.421ZM124.656 316.494C124.656 318.025 125.546 319.557 127.406 320.26L126.484 321.588C125.226 321.104 124.351 320.205 123.843 319.104C123.328 320.369 122.406 321.447 121.062 322.01L120.125 320.682C122.062 319.822 122.968 318.057 122.984 316.494V314.744H124.656V316.494ZM132.328 313.885V322.541H130.671V318.869H129.265V322.104H127.64V314.15H129.265V317.447H130.671V313.885H132.328ZM127.562 322.775C130.515 322.775 132.39 323.744 132.406 325.369C132.39 326.994 130.515 327.979 127.562 327.979C124.578 327.979 122.718 326.994 122.718 325.369C122.718 323.744 124.578 322.775 127.562 322.775ZM127.562 324.088C125.609 324.088 124.453 324.541 124.453 325.369C124.453 326.213 125.609 326.65 127.562 326.65C129.5 326.65 130.656 326.213 130.656 325.369C130.656 324.541 129.5 324.088 127.562 324.088ZM139.25 315.9C139.234 317.822 140.359 319.572 142.578 320.275L141.64 321.635C140.101 321.096 139.023 320.072 138.421 318.729C137.796 320.268 136.617 321.479 134.906 322.072L133.984 320.666C136.328 319.9 137.5 318.01 137.5 315.979V314.635H139.25V315.9ZM145.906 313.869V322.182H144.171V318.025H141.359V316.604H144.171V313.869H145.906ZM141.125 322.557C144.125 322.557 145.953 323.557 145.953 325.275C145.953 326.994 144.125 327.979 141.125 327.979C138.14 327.979 136.312 326.994 136.328 325.275C136.312 323.557 138.14 322.557 141.125 322.557ZM141.125 323.9C139.156 323.9 138.046 324.385 138.046 325.275C138.046 326.135 139.156 326.619 141.125 326.619C143.093 326.619 144.218 326.135 144.218 325.275C144.218 324.385 143.093 323.9 141.125 323.9Z" fill="black"/>
<path d="M204.624 342.604H17.3757C13.2159 342.604 9.84375 345.173 9.84375 348.342V366.879C9.84375 370.049 13.2159 372.618 17.3757 372.618H204.624C208.784 372.618 212.156 370.049 212.156 366.879V348.342C212.156 345.173 208.784 342.604 204.624 342.604Z" fill="#E1E8F6"/>
<path d="M32.3386 358.472C35.1489 358.472 37.4272 356.186 37.4272 353.367C37.4272 350.547 35.1489 348.261 32.3386 348.261C29.5282 348.261 27.25 350.547 27.25 353.367C27.25 356.186 29.5282 358.472 32.3386 358.472Z" fill="#43464D"/>
<path d="M28.8856 358.917H35.8118C38.5984 358.917 40.8802 361.187 40.8802 364.003V366.96H23.8374V364.003C23.8374 361.207 26.099 358.917 28.9058 358.917H28.8856Z" fill="#43464D"/>
<path d="M41.9504 352.435C40.0926 352.435 38.5782 353.974 38.5983 355.838C38.5983 357.013 39.2041 358.046 40.1128 358.634V359.12C40.1128 359.303 40.2743 359.465 40.4561 359.465H40.6984V360.255C40.6984 360.255 40.6984 360.315 40.7186 360.336L41.1628 360.842C41.1628 360.842 41.2032 360.944 41.1628 360.984L40.8196 361.511C40.8196 361.511 40.7994 361.612 40.8196 361.653L41.1628 362.179C41.1628 362.179 41.183 362.281 41.1628 362.321L40.8196 362.848C40.8196 362.848 40.7994 362.949 40.8196 362.99L41.1628 363.516C41.1628 363.516 41.183 363.618 41.1628 363.658L40.8196 364.185C40.8196 364.185 40.7994 364.286 40.8196 364.327L41.1628 364.854C41.1628 364.854 41.183 364.955 41.1628 364.995L40.8196 365.522C40.8196 365.522 40.7994 365.623 40.8196 365.664L41.708 366.9C41.708 366.9 41.7484 366.94 41.7888 366.94C41.8292 366.94 41.8696 366.94 41.8898 366.92L42.1321 366.738L43.2023 365.907C43.2023 365.907 43.2427 365.846 43.2427 365.806V359.444H43.4446C43.6264 359.444 43.7879 359.282 43.7879 359.1V358.614C44.6966 358.006 45.3024 356.973 45.3024 355.777C45.3024 353.913 43.7879 352.394 41.9302 352.394L41.9504 352.435ZM41.9504 355.372C41.4051 355.372 40.9407 354.926 40.9407 354.359C40.9407 353.792 41.385 353.346 41.9504 353.346C42.5158 353.346 42.96 353.792 42.96 354.359C42.96 354.926 42.5158 355.372 41.9504 355.372Z" fill="#43464D" stroke="#E8E7EC" stroke-miterlimit="10"/>
<path d="M41.9504 352.435C40.0926 352.435 38.5782 353.974 38.5983 355.838C38.5983 357.013 39.2041 358.046 40.1128 358.634V359.12C40.1128 359.303 40.2743 359.465 40.4561 359.465H40.6984V360.255C40.6984 360.255 40.6984 360.315 40.7186 360.336L41.1426 360.842C41.1426 360.842 41.183 360.944 41.1426 360.984L40.7994 361.511C40.7994 361.511 40.7792 361.612 40.7994 361.653L41.1426 362.179C41.1426 362.179 41.1628 362.281 41.1426 362.321L40.7994 362.848C40.7994 362.848 40.7792 362.949 40.7994 362.99L41.1426 363.516C41.1426 363.516 41.1628 363.618 41.1426 363.658L40.7994 364.185C40.7994 364.185 40.7792 364.286 40.7994 364.327L41.1426 364.854C41.1426 364.854 41.1628 364.955 41.1426 364.995L40.7994 365.522C40.7994 365.522 40.7792 365.623 40.7994 365.664L41.6878 366.9C41.6878 366.9 41.7282 366.94 41.7686 366.94C41.809 366.94 41.8494 366.94 41.8696 366.92L42.1119 366.738L43.1821 365.907C43.1821 365.907 43.2225 365.846 43.2225 365.806V359.444H43.4244C43.6062 359.444 43.7677 359.282 43.7677 359.1V358.614C44.6764 358.006 45.2822 356.973 45.2822 355.777C45.2822 353.913 43.7677 352.394 41.91 352.394L41.9504 352.435ZM41.9504 355.372C41.4051 355.372 40.9407 354.926 40.9407 354.359C40.9407 353.792 41.385 353.346 41.9504 353.346C42.5158 353.346 42.96 353.792 42.96 354.359C42.96 354.926 42.5158 355.372 41.9504 355.372Z" fill="#43464D"/>
<path d="M42.1118 360.396V366.758L41.8695 366.94C41.8695 366.94 41.8089 366.961 41.7686 366.961V360.396C41.7686 360.396 41.8493 360.234 41.9301 360.234C41.9705 360.234 42.0109 360.234 42.0513 360.275C42.0916 360.315 42.0916 360.356 42.0916 360.396H42.1118Z" fill="white"/>
<path d="M55.1528 362.611V353.419H58.606C60.7134 353.419 61.8433 354.702 61.8433 356.466C61.8433 358.231 60.7007 359.5 58.5806 359.5H56.8032V362.611H55.1528ZM56.8032 358.142H58.3521C59.5962 358.142 60.1548 357.444 60.1548 356.466C60.1548 355.476 59.5962 354.803 58.3521 354.803H56.8032V358.142ZM62.6558 360.668C62.6558 359.12 63.938 358.663 65.2202 358.586C65.6963 358.555 66.6865 358.498 66.9849 358.485V357.939C66.9849 357.253 66.5405 356.86 65.7407 356.86C65.0171 356.86 64.5728 357.19 64.4458 357.685H62.8843C62.9985 356.517 64.0522 355.628 65.7788 355.628C67.0864 355.628 68.5972 356.162 68.5972 358.002V362.611H67.0483V361.659H66.9976C66.6929 362.243 66.0454 362.75 64.9663 362.75C63.646 362.75 62.6558 362.027 62.6558 360.668ZM64.2173 360.656C64.2173 361.252 64.6997 361.557 65.3853 361.557C66.3628 361.557 66.9976 360.91 66.9976 360.135V359.564L65.4741 359.666C64.6997 359.729 64.2173 360.046 64.2173 360.656ZM74.0308 357.685C73.9292 357.165 73.4976 356.834 72.812 356.834C72.1138 356.834 71.606 357.177 71.6187 357.647C71.606 358.002 71.8979 358.269 72.5962 358.434L73.7642 358.675C75.0718 358.967 75.6938 359.564 75.7065 360.554C75.6938 361.849 74.564 362.75 72.7612 362.75C71.0093 362.75 69.9683 361.963 69.8032 360.643H71.4536C71.5552 361.227 72.0122 361.519 72.7612 361.519C73.5356 361.519 74.0562 361.202 74.0562 360.694C74.0562 360.3 73.7388 360.046 73.0532 359.894L71.9487 359.653C70.6665 359.399 70.0063 358.726 70.0063 357.736C70.0063 356.466 71.0981 355.628 72.7866 355.628C74.437 355.628 75.4526 356.428 75.5669 357.685H74.0308ZM80.8481 357.685C80.7466 357.165 80.3149 356.834 79.6294 356.834C78.9312 356.834 78.4233 357.177 78.436 357.647C78.4233 358.002 78.7153 358.269 79.4136 358.434L80.5815 358.675C81.8892 358.967 82.5112 359.564 82.5239 360.554C82.5112 361.849 81.3813 362.75 79.5786 362.75C77.8267 362.75 76.7856 361.963 76.6206 360.643H78.271C78.3726 361.227 78.8296 361.519 79.5786 361.519C80.353 361.519 80.8735 361.202 80.8735 360.694C80.8735 360.3 80.5562 360.046 79.8706 359.894L78.7661 359.653C77.4839 359.399 76.8237 358.726 76.8237 357.736C76.8237 356.466 77.9155 355.628 79.604 355.628C81.2544 355.628 82.27 356.428 82.3843 357.685H80.8481ZM83.7554 362.611V353.419H85.3804V358.485H85.4946L87.9702 355.717H89.8618L87.1958 358.688L90.0269 362.611H88.0972L85.9771 359.653L85.3804 360.288V362.611H83.7554ZM93.5942 362.75C91.5122 362.75 90.2427 361.367 90.2427 359.208C90.2427 357.076 91.5376 355.628 93.5054 355.628C95.1938 355.628 96.6538 356.682 96.6538 359.107V359.615H91.8423C91.8613 360.789 92.5532 361.481 93.6069 361.481C94.3179 361.481 94.8003 361.176 95.0034 360.77H96.5903C96.2983 361.963 95.1938 362.75 93.5942 362.75ZM91.855 358.51H95.105C95.0923 357.571 94.4702 356.885 93.5308 356.885C92.5532 356.885 91.9058 357.628 91.855 358.51ZM98.6851 365.201C98.3677 365.201 98.0503 365.188 97.8472 365.163V363.868C98.0503 363.88 98.3169 363.893 98.5327 363.893C98.9263 363.893 99.2563 363.855 99.5356 363.119L99.6753 362.75L97.1616 355.717H98.8755L100.475 360.922H100.551L102.151 355.717H103.865L101.097 363.449C100.704 364.553 99.98 365.201 98.6851 365.201Z" fill="#097EF4"/>
<path d="M108.042 362.611V353.419H109.667V356.847H109.73C109.984 356.352 110.479 355.628 111.698 355.628C113.297 355.628 114.554 356.873 114.554 359.17C114.554 361.443 113.323 362.738 111.71 362.738C110.517 362.738 109.984 362.027 109.73 361.519H109.628V362.611H108.042ZM109.628 359.158C109.628 360.503 110.212 361.405 111.253 361.405C112.333 361.405 112.904 360.465 112.904 359.158C112.904 357.875 112.345 356.949 111.253 356.949C110.212 356.949 109.628 357.825 109.628 359.158ZM116.56 365.201C116.243 365.201 115.925 365.188 115.722 365.163V363.868C115.925 363.88 116.192 363.893 116.408 363.893C116.801 363.893 117.131 363.855 117.411 363.119L117.55 362.75L115.037 355.717H116.75L118.35 360.922H118.426L120.026 355.717H121.74L118.972 363.449C118.579 364.553 117.855 365.201 116.56 365.201ZM130.918 355.946C130.842 355.159 130.169 354.702 129.179 354.702C128.138 354.702 127.503 355.209 127.503 355.895C127.503 356.669 128.316 356.987 129.078 357.165L129.941 357.393C131.312 357.71 132.632 358.434 132.632 360.034C132.632 361.646 131.363 362.75 129.154 362.75C127.008 362.75 125.663 361.722 125.586 359.907H127.211C127.288 360.872 128.1 361.341 129.141 361.341C130.233 361.341 130.982 360.808 130.982 360.021C130.982 359.297 130.309 358.993 129.319 358.739L128.278 358.472C126.767 358.079 125.828 357.317 125.828 355.997C125.828 354.372 127.275 353.292 129.205 353.292C131.16 353.292 132.48 354.397 132.505 355.946H130.918ZM134.003 362.611V353.419H135.654V357.647H135.781L139.374 353.419H141.392L137.837 357.545L141.43 362.611H139.437L136.682 358.663L135.654 359.869V362.611H134.003ZM148.895 355.717V356.961H147.537V360.542C147.537 361.202 147.867 361.341 148.273 361.341C148.463 361.341 148.781 361.329 148.984 361.316V362.636C148.793 362.674 148.476 362.7 148.07 362.7C146.851 362.7 145.912 362.103 145.924 360.808V356.961H144.934V355.717H145.924V354.067H147.537V355.717H148.895ZM153.123 362.75C151.041 362.75 149.771 361.367 149.771 359.208C149.771 357.076 151.066 355.628 153.034 355.628C154.722 355.628 156.182 356.682 156.182 359.107V359.615H151.371C151.39 360.789 152.082 361.481 153.135 361.481C153.846 361.481 154.329 361.176 154.532 360.77H156.119C155.827 361.963 154.722 362.75 153.123 362.75ZM151.383 358.51H154.633C154.621 357.571 153.999 356.885 153.059 356.885C152.082 356.885 151.434 357.628 151.383 358.51ZM159.064 353.419V362.611H157.439V353.419H159.064ZM163.672 362.75C161.59 362.75 160.321 361.367 160.321 359.208C160.321 357.076 161.616 355.628 163.583 355.628C165.272 355.628 166.732 356.682 166.732 359.107V359.615H161.92C161.939 360.789 162.631 361.481 163.685 361.481C164.396 361.481 164.878 361.176 165.082 360.77H166.668C166.376 361.963 165.272 362.75 163.672 362.75ZM161.933 358.51H165.183C165.17 357.571 164.548 356.885 163.609 356.885C162.631 356.885 161.984 357.628 161.933 358.51ZM170.998 362.75C168.941 362.75 167.697 361.278 167.697 359.196C167.697 357.088 168.979 355.628 170.998 355.628C172.673 355.628 173.841 356.606 173.956 358.091H172.407C172.28 357.431 171.797 356.923 171.01 356.923C170.007 356.923 169.334 357.774 169.334 359.158C169.334 360.58 169.995 361.43 171.01 361.43C171.734 361.43 172.267 361.011 172.407 360.262H173.956C173.829 361.722 172.724 362.75 170.998 362.75ZM178.183 362.75C176.177 362.75 174.882 361.329 174.882 359.196C174.882 357.05 176.177 355.628 178.183 355.628C180.202 355.628 181.484 357.05 181.484 359.196C181.484 361.329 180.202 362.75 178.183 362.75ZM178.196 361.456C179.3 361.456 179.846 360.453 179.846 359.183C179.846 357.926 179.3 356.911 178.196 356.911C177.066 356.911 176.52 357.926 176.52 359.183C176.52 360.453 177.066 361.456 178.196 361.456ZM182.741 362.611V355.717H184.29V356.885H184.378C184.658 356.098 185.356 355.628 186.27 355.628C187.209 355.628 187.87 356.098 188.136 356.885H188.212C188.517 356.124 189.279 355.628 190.282 355.628C191.539 355.628 192.427 356.441 192.427 357.977V362.611H190.815V358.231C190.815 357.368 190.294 356.987 189.634 356.987C188.834 356.987 188.377 357.533 188.377 358.307V362.611H186.803V358.167C186.803 357.457 186.321 356.987 185.635 356.987C184.937 356.987 184.366 357.558 184.366 358.421V362.611H182.741Z" fill="black"/>
<path d="M20.7617 390.189V390.834H17.1777V393.637H16.4258V390.834H12.8516V390.189H20.7617ZM17.1875 386.654C17.1875 387.738 18.7012 388.686 20.2539 388.9L19.9707 389.516C18.6279 389.311 17.3633 388.637 16.8164 387.689C16.2598 388.646 14.9756 389.311 13.6328 389.516L13.3496 388.9C14.8926 388.686 16.4258 387.748 16.4258 386.654V386.645H13.623V386.02H16.4258V384.936H17.1777V386.02H20V386.645H17.1875V386.654ZM28.2129 384.936V388.471H29.6191V389.115H28.2129V393.617H27.4512V384.936H28.2129ZM25.9668 385.873C25.9668 388.334 24.8145 390.57 21.9824 391.967L21.5527 391.361C23.7988 390.243 25.0195 388.573 25.1953 386.518H21.9531V385.873H25.9668ZM34.0918 385.082C35.9961 385.082 37.1582 385.648 37.1582 386.664C37.1582 387.606 36.1426 388.178 34.4531 388.236V389.047H38.0469V389.682H30.1367V389.047H33.7109V388.236C32.0312 388.173 31.0156 387.602 31.0156 386.664C31.0156 385.648 32.1875 385.082 34.0918 385.082ZM34.0918 385.668C32.6758 385.658 31.7969 386.039 31.8066 386.664C31.7969 387.279 32.6758 387.65 34.0918 387.65C35.498 387.65 36.377 387.279 36.377 386.664C36.377 386.039 35.498 385.658 34.0918 385.668ZM31.9043 390.199V391.166H36.2598V390.199H37.041V393.5H31.1426V390.199H31.9043ZM31.9043 392.875H36.2598V391.781H31.9043V392.875ZM41.748 386.547C41.748 387.816 42.6172 389.018 43.877 389.516L43.4473 390.111C42.4902 389.716 41.748 388.925 41.3867 387.934C41.0107 389.003 40.2295 389.853 39.2188 390.268L38.7988 389.652C40.0879 389.154 40.9863 387.904 40.9961 386.547V385.434H41.748V386.547ZM45.9766 384.945V391.43H45.2051V388.646H43.418V388.021H45.2051V386.869H43.418V386.234H45.2051V384.945H45.9766ZM46.1719 392.787V393.432H40.3613V390.756H41.1328V392.787H46.1719Z" fill="#3E5479"/>
<rect x="171.5" y="380.326" width="38" height="17" rx="8.5" fill="#097EF4"/>
<path d="M189.283 384.936V393.617H188.551V384.936H189.283ZM187.525 385.17V393.178H186.793V390.17H185.182V389.535H186.793V387.992H185.328C184.903 389.462 183.951 390.761 182.311 391.742L181.842 391.186C183.731 390.067 184.679 388.5 184.83 386.684H182.232V386.049H185.592C185.592 386.493 185.553 386.933 185.475 387.357H186.793V385.17H187.525ZM198.434 389.301V389.936H190.494V389.301H194.068V387.963H194.82V389.301H198.434ZM194.83 385.482C194.83 386.635 196.393 387.602 197.926 387.816L197.613 388.432C196.295 388.202 194.991 387.504 194.449 386.498C193.902 387.509 192.594 388.202 191.266 388.432L190.973 387.816C192.506 387.602 194.059 386.635 194.059 385.482V385.072H194.83V385.482ZM197.428 390.785V393.617H196.656V391.4H191.373V390.785H197.428Z" fill="white"/>
<defs>
<clipPath id="clip0_100_4100">
<rect width="222" height="428" fill="white"/>
</clipPath>
</defs>
</svg>
