<svg width="223" height="428" viewBox="0 0 223 428" fill="none" xmlns="http://www.w3.org/2000/svg">
<g clip-path="url(#clip0_100_4101)">
<path d="M187.321 3.03906H35.6591C17.7353 3.03906 3.20508 17.5518 3.20508 35.4541V391.918C3.20508 409.821 17.7353 424.333 35.6591 424.333H187.321C205.245 424.333 219.775 409.821 219.775 391.918V35.4541C219.775 17.5518 205.245 3.03906 187.321 3.03906Z" fill="#EEF0F2" stroke="#EEF0F2" stroke-width="3" stroke-miterlimit="10"/>
<path d="M82.5555 29.7C82.5555 29.7 82.4743 29.7 82.4338 29.6797C82.3932 29.6797 82.3729 29.6392 82.3323 29.6189L80.4459 27.7348C80.4459 27.7348 80.3851 27.674 80.3851 27.6335C80.3851 27.593 80.3648 27.5525 80.3648 27.512C80.3648 27.4714 80.3648 27.4309 80.3851 27.3904C80.3851 27.3499 80.4257 27.3296 80.4459 27.2891C81.0342 26.8029 81.7644 26.5395 82.5149 26.5395C83.2654 26.5395 84.0159 26.8029 84.5838 27.2891C84.6041 27.3094 84.6447 27.3499 84.6447 27.3904C84.6447 27.4309 84.665 27.4714 84.665 27.512C84.665 27.5525 84.665 27.593 84.6447 27.6335C84.6447 27.674 84.6041 27.6943 84.5838 27.7348L82.7177 29.6189C82.7177 29.6189 82.6569 29.6595 82.6163 29.6797C82.5757 29.6797 82.5352 29.7 82.4946 29.7H82.5555ZM85.8617 26.3774C85.8617 26.3774 85.7197 26.3572 85.6589 26.2964C84.807 25.5265 83.7116 25.1011 82.5555 25.1011C81.3993 25.1011 80.304 25.5265 79.452 26.2964C79.3912 26.3572 79.3303 26.3774 79.2492 26.3774C79.2086 26.3774 79.1681 26.3774 79.1478 26.3572C79.1072 26.3572 79.0869 26.3167 79.0464 26.2964L77.951 25.2024C77.951 25.2024 77.8902 25.1416 77.8902 25.1011C77.8902 25.0606 77.8699 25.0201 77.8699 24.9795C77.8699 24.939 77.8699 24.8985 77.8902 24.858C77.9105 24.8175 77.9308 24.7972 77.951 24.7567C79.1884 23.6019 80.8313 22.9536 82.5352 22.9536C84.239 22.9536 85.8617 23.6019 87.1193 24.7567C87.1396 24.7769 87.1802 24.8175 87.1802 24.858C87.1802 24.8985 87.2005 24.939 87.2005 24.9795C87.2005 25.0201 87.2004 25.0606 87.1802 25.1011C87.1802 25.1416 87.1396 25.1619 87.1193 25.2024L86.0443 26.2964C86.0443 26.2964 85.9834 26.3369 85.9429 26.3572C85.9023 26.3572 85.8617 26.3774 85.8414 26.3774H85.8617ZM88.3566 23.8653C88.3566 23.8653 88.2755 23.8653 88.2552 23.845C88.2146 23.845 88.1944 23.8045 88.1538 23.7842C86.6528 22.3458 84.6447 21.5557 82.5555 21.5557C80.4662 21.5557 78.4784 22.3458 76.9571 23.7842C76.9368 23.8045 76.8963 23.8248 76.8557 23.845C76.8151 23.8653 76.7746 23.8653 76.7543 23.8653C76.734 23.8653 76.6732 23.8653 76.6529 23.845C76.6123 23.845 76.592 23.8045 76.5515 23.7842L75.4561 22.6902C75.4561 22.6902 75.4156 22.6294 75.3953 22.5889C75.3953 22.5484 75.375 22.5079 75.375 22.4674C75.375 22.4269 75.375 22.3863 75.3953 22.3458C75.3953 22.3053 75.4359 22.285 75.4561 22.2445C77.3628 20.4212 79.8983 19.4082 82.5352 19.4082C85.1721 19.4082 87.7075 20.4212 89.6142 22.2445C89.6345 22.2648 89.6548 22.3053 89.6751 22.3458C89.6751 22.3863 89.6954 22.4269 89.6954 22.4674C89.6954 22.5079 89.6954 22.5484 89.6751 22.5889C89.6751 22.6294 89.6345 22.6497 89.6142 22.6902L88.5189 23.7842C88.5189 23.7842 88.3972 23.8653 88.3161 23.8653H88.3566Z" fill="black"/>
<path d="M45.2734 29.3355V28.0794C45.4154 28.201 45.598 28.3226 45.8008 28.4238C46.0037 28.5251 46.2268 28.6062 46.4499 28.6872C46.673 28.748 46.8961 28.8088 47.1193 28.8493C47.3424 28.8898 47.5452 28.9101 47.7481 28.9101C48.4174 28.9101 48.9042 28.7885 49.2288 28.5454C49.5533 28.3023 49.7156 27.9376 49.7156 27.4919C49.7156 27.2488 49.6547 27.0259 49.5533 26.8436C49.4519 26.6613 49.2896 26.4992 49.1071 26.3371C48.9245 26.1751 48.6811 26.0332 48.4174 25.9117C48.1537 25.7699 47.8698 25.6281 47.5655 25.466C47.241 25.3039 46.957 25.1418 46.673 24.9798C46.389 24.8177 46.1456 24.6353 45.9428 24.4327C45.74 24.2302 45.5777 24.0073 45.456 23.7642C45.3343 23.5008 45.2734 23.2172 45.2734 22.8728C45.2734 22.4473 45.3749 22.1029 45.5574 21.7788C45.74 21.4749 45.9834 21.2115 46.2876 21.0089C46.5919 20.8063 46.9164 20.6645 47.3018 20.5632C47.6872 20.4619 48.0726 20.4214 48.4783 20.4214C49.391 20.4214 50.0401 20.5227 50.4458 20.7455V21.9611C49.8981 21.5762 49.2085 21.3938 48.3566 21.3938C48.1132 21.3938 47.89 21.4141 47.6466 21.4749C47.4032 21.5154 47.2004 21.5964 47.0178 21.718C46.8353 21.8193 46.6933 21.9814 46.5716 22.1434C46.4499 22.3258 46.389 22.5284 46.389 22.7917C46.389 23.0348 46.4296 23.2374 46.5107 23.3995C46.5919 23.5616 46.7339 23.7237 46.8961 23.8655C47.0584 24.0073 47.2815 24.1491 47.5249 24.2707C47.7683 24.4125 48.0523 24.5543 48.3769 24.6961C48.7014 24.8582 49.0259 25.0203 49.3099 25.2026C49.6142 25.3849 49.8576 25.5875 50.0807 25.7901C50.3038 26.013 50.4864 26.2561 50.6081 26.5195C50.7501 26.7828 50.8109 27.0867 50.8109 27.4311C50.8109 27.8768 50.7298 28.2618 50.5472 28.5859C50.3647 28.8898 50.1415 29.1532 49.8373 29.3558C49.533 29.5584 49.1882 29.7002 48.8028 29.7812C48.4174 29.8623 47.9915 29.923 47.5655 29.923C47.4235 29.923 47.241 29.923 47.0381 29.8825C46.815 29.8623 46.6122 29.8217 46.389 29.7812C46.1659 29.7407 45.9631 29.6799 45.7602 29.6192C45.5574 29.5584 45.4154 29.4773 45.2937 29.3963L45.2734 29.3355ZM59.0461 29.7002H57.5451L53.9955 25.5065C53.8535 25.3444 53.7723 25.2431 53.7521 25.1823H53.7318V29.7002H52.6567V20.5429H53.7318V24.8582H53.7521C53.7521 24.8582 53.8941 24.6556 53.9955 24.5543L57.4234 20.5632H58.7622L54.8271 24.9595L59.0461 29.7204V29.7002ZM65.6992 21.5154H63.042V29.7002H61.967V21.5154H59.3301V20.5429H65.6992V21.5154Z" fill="#222222"/>
<path d="M38.8843 29.3963H37.9512C37.7078 29.3963 37.4644 29.295 37.2818 29.1127C37.0993 28.9304 36.9979 28.7075 36.9979 28.4441V20.3404C36.9979 20.0973 37.0993 19.8542 37.2818 19.6718C37.4644 19.4895 37.6875 19.3882 37.9512 19.3882H38.8843C39.1277 19.3882 39.3711 19.4895 39.5536 19.6718C39.7362 19.8542 39.8376 20.077 39.8376 20.3404V28.4441C39.8376 28.6872 39.7362 28.9304 39.5536 29.1127C39.3711 29.295 39.1479 29.3963 38.8843 29.3963ZM34.5232 29.3963H33.5902C33.3468 29.3963 33.1034 29.295 32.9208 29.1127C32.7383 28.9304 32.6368 28.7075 32.6368 28.4441V22.5284C32.6368 22.2853 32.7383 22.0422 32.9208 21.8598C33.1034 21.6775 33.3265 21.5762 33.5902 21.5762H34.5232C34.7666 21.5762 35.0101 21.6775 35.1926 21.8598C35.3752 22.0422 35.4766 22.265 35.4766 22.5284V28.4441C35.4766 28.6872 35.3752 28.9304 35.2129 29.1127C35.0303 29.295 34.8072 29.3963 34.5435 29.3963H34.5232ZM30.1622 29.3963H29.2292C28.9858 29.3963 28.7424 29.295 28.5598 29.1127C28.3772 28.9304 28.2758 28.7075 28.2758 28.4441V24.6961C28.2758 24.453 28.3772 24.2099 28.5598 24.0276C28.7424 23.8453 28.9655 23.744 29.2292 23.744H30.1622C30.4056 23.744 30.649 23.8453 30.8316 24.0276C31.0141 24.2099 31.1156 24.4328 31.1156 24.6961V28.4441C31.1156 28.6872 31.0141 28.9304 30.8316 29.1127C30.649 29.295 30.4259 29.3963 30.1622 29.3963ZM25.7809 29.3963H24.8479C24.6045 29.3963 24.3611 29.295 24.1785 29.1127C23.996 28.9304 23.8945 28.7075 23.8945 28.4441V26.5803C23.8945 26.3372 23.996 26.094 24.1785 25.9117C24.3611 25.7294 24.5842 25.6281 24.8479 25.6281H25.7809C26.0243 25.6281 26.2677 25.7294 26.4503 25.9117C26.6328 26.094 26.7343 26.3169 26.7343 26.5803V28.4441C26.7343 28.6872 26.6328 28.9304 26.4503 29.1127C26.2677 29.295 26.0446 29.3963 25.7809 29.3963Z" fill="black"/>
<path d="M186.997 19.8135H171.398C170.283 19.8135 169.37 20.7251 169.37 21.8394V27.4513C169.37 28.5655 170.283 29.4772 171.398 29.4772H186.997C188.112 29.4772 189.025 28.5655 189.025 27.4513V21.8394C189.025 20.7251 188.112 19.8135 186.997 19.8135Z" stroke="black" stroke-width="0.4" stroke-miterlimit="10"/>
<path d="M190.425 22.7715V26.5195C190.79 26.3574 191.114 26.1143 191.338 25.7699C191.561 25.4457 191.682 25.0405 191.682 24.6556C191.682 24.2707 191.561 23.8655 191.338 23.5413C191.114 23.2172 190.81 22.9538 190.425 22.7917V22.7715Z" fill="black"/>
<path d="M186.368 21.2114H172.027C171.338 21.2114 170.79 21.7787 170.79 22.4472V26.803C170.79 27.4918 171.358 28.0388 172.027 28.0388H186.368C187.058 28.0388 187.605 27.4716 187.605 26.803V22.4472C187.605 21.7584 187.037 21.2114 186.368 21.2114Z" fill="black"/>
<path d="M105.131 239.527C114.832 239.527 122.696 231.672 122.696 221.982C122.696 212.292 114.832 204.438 105.131 204.438C95.4294 204.438 87.5649 212.292 87.5649 221.982C87.5649 231.672 95.4294 239.527 105.131 239.527Z" fill="#327AFF"/>
<path d="M105.333 242.87C91.1146 242.87 78.7617 250.913 72.6157 262.704C70.4859 266.796 73.5082 271.679 78.1126 271.679H132.534C137.159 271.679 140.161 266.776 138.031 262.704C131.885 250.913 119.532 242.87 105.313 242.87H105.333Z" fill="#CEDCF7"/>
<path d="M146.347 241.066H130.161C127.562 241.066 125.455 243.171 125.455 245.767V261.934C125.455 264.529 127.562 266.634 130.161 266.634H146.347C148.946 266.634 151.053 264.529 151.053 261.934V245.767C151.053 243.171 148.946 241.066 146.347 241.066Z" fill="#327AFF"/>
<path d="M143.406 250.204H133.123C132.17 250.204 131.398 250.975 131.398 251.926V257.031C131.398 257.982 132.17 258.753 133.123 258.753H143.406C144.359 258.753 145.131 257.982 145.131 257.031V251.926C145.131 250.975 144.359 250.204 143.406 250.204Z" fill="#FFD31F"/>
<path d="M139.167 244.896H137.382C135.881 244.896 134.664 246.111 134.664 247.61V249.677C134.664 251.176 135.881 252.391 137.382 252.391H139.167C140.668 252.391 141.885 251.176 141.885 249.677V247.61C141.885 246.111 140.668 244.896 139.167 244.896Z" stroke="#FFD31F" stroke-miterlimit="10"/>
<path d="M138.254 254.661C138.949 254.661 139.512 254.098 139.512 253.405C139.512 252.711 138.949 252.148 138.254 252.148C137.56 252.148 136.997 252.711 136.997 253.405C136.997 254.098 137.56 254.661 138.254 254.661Z" fill="white"/>
<path d="M147.2 254.438H129.471C128.486 254.438 127.687 255.236 127.687 256.22V260.171C127.687 261.156 128.486 261.954 129.471 261.954H147.2C148.185 261.954 148.984 261.156 148.984 260.171V256.22C148.984 255.236 148.185 254.438 147.2 254.438Z" fill="white"/>
<path d="M130.972 259.887L131.053 258.732L130.08 259.381L129.694 258.692L130.729 258.185L129.694 257.659L130.08 256.97L131.053 257.618L130.972 256.463H131.763L131.682 257.618L132.656 256.97L133.041 257.659L132.007 258.185L133.041 258.692L132.656 259.381L131.682 258.732L131.763 259.887H130.972Z" fill="#327AFF"/>
<path d="M135.617 259.887L135.698 258.732L134.725 259.381L134.339 258.692L135.374 258.185L134.339 257.659L134.725 256.97L135.698 257.618L135.617 256.463H136.408L136.327 257.618L137.301 256.97L137.686 257.659L136.652 258.185L137.686 258.692L137.301 259.381L136.327 258.732L136.408 259.887H135.617Z" fill="#327AFF"/>
<path d="M140.262 259.887L140.343 258.732L139.37 259.381L138.984 258.692L140.019 258.185L138.984 257.659L139.37 256.97L140.343 257.618L140.262 256.463H141.053L140.972 257.618L141.946 256.97L142.331 257.659L141.297 258.185L142.331 258.692L141.946 259.381L140.972 258.732L141.053 259.887H140.262Z" fill="#327AFF"/>
<path d="M144.907 259.887L144.988 258.732L144.015 259.381L143.629 258.692L144.664 258.185L143.629 257.659L144.015 256.97L144.988 257.618L144.907 256.463H145.698L145.617 257.618L146.591 256.97L146.976 257.659L145.942 258.185L146.976 258.692L146.591 259.381L145.617 258.732L145.698 259.887H144.907Z" fill="#327AFF"/>
<path d="M18.9248 97.002H23.6306C26.4907 97.002 28.0322 98.805 28.0322 101.277C28.0322 103.748 26.4704 105.531 23.5901 105.531H21.1763V109.887H18.9248V97.002ZM23.2655 103.627C24.9694 103.627 25.7199 102.654 25.7199 101.277C25.7199 99.899 24.9694 98.9469 23.2655 98.9469H21.156V103.627H23.2655Z" fill="#097EF4"/>
<path d="M32.3731 104.235C33.0222 104.194 34.3609 104.113 34.7666 104.093V103.323C34.7666 102.371 34.1581 101.804 33.083 101.804C32.1094 101.804 31.5009 102.27 31.3183 102.958H29.1885C29.3508 101.317 30.7707 100.082 33.1236 100.082C34.9086 100.082 36.9572 100.831 36.9572 103.404V109.867H34.8477V108.53H34.7869C34.3609 109.34 33.4887 110.069 32.0283 110.069C30.2433 110.069 28.8843 109.056 28.8843 107.152C28.8843 104.984 30.6287 104.336 32.3731 104.235ZM32.5962 108.408C33.9349 108.408 34.7869 107.496 34.7869 106.423V105.612L32.7179 105.754C31.6632 105.835 31.0141 106.281 31.0141 107.152C31.0141 108.023 31.6632 108.408 32.5962 108.408Z" fill="#097EF4"/>
<path d="M42.4538 101.783C41.5004 101.783 40.8108 102.27 40.8311 102.918C40.8311 103.424 41.2165 103.789 42.1495 104.012L43.7316 104.356C45.5166 104.761 46.3483 105.612 46.3685 106.99C46.3685 108.813 44.8067 110.069 42.3726 110.069C39.9386 110.069 38.5796 108.975 38.3564 107.112H40.6079C40.7499 107.922 41.3787 108.347 42.3929 108.347C43.4071 108.347 44.1576 107.902 44.1576 107.193C44.1576 106.646 43.7317 106.281 42.7986 106.078L41.2976 105.734C39.5532 105.369 38.6607 104.437 38.6607 103.039C38.6607 101.257 40.1414 100.082 42.4538 100.082C44.7661 100.082 46.0846 101.196 46.2266 102.958H44.1373C43.9953 102.229 43.4071 101.763 42.4741 101.763L42.4538 101.783Z" fill="#097EF4"/>
<path d="M51.4601 101.783C50.5068 101.783 49.8171 102.27 49.8374 102.918C49.8374 103.424 50.2228 103.789 51.1559 104.012L52.738 104.356C54.523 104.761 55.3546 105.612 55.3749 106.99C55.3749 108.813 53.813 110.069 51.379 110.069C48.9449 110.069 47.5859 108.975 47.3628 107.112H49.6143C49.7563 107.922 50.3851 108.347 51.3993 108.347C52.4135 108.347 53.164 107.902 53.164 107.193C53.164 106.646 52.738 106.281 51.8049 106.078L50.3039 105.734C48.5595 105.369 47.667 104.437 47.667 103.039C47.667 101.257 49.1478 100.082 51.4601 100.082C53.7725 100.082 55.0909 101.196 55.2329 102.958H53.1437C53.0017 102.229 52.4135 101.763 51.4804 101.763L51.4601 101.783Z" fill="#097EF4"/>
<path d="M56.8354 97.002H59.0464V104.113H59.2087L62.5758 100.223H65.1518L61.521 104.397L65.3749 109.907H62.7583L59.878 105.754L59.0667 106.645V109.907H56.8557V97.0222L56.8354 97.002Z" fill="#097EF4"/>
<path d="M65.4153 105.126C65.4153 102.128 67.18 100.102 69.8574 100.102C72.1495 100.102 74.1373 101.581 74.1373 104.985V105.694H67.5857C67.6059 107.335 68.5593 108.307 69.9792 108.307C70.9528 108.307 71.6019 107.882 71.8858 107.314H74.0359C73.6302 108.996 72.1292 110.09 69.9589 110.09C67.1191 110.09 65.395 108.145 65.395 105.126H65.4153ZM72.0278 104.134C72.0278 102.817 71.1556 101.865 69.8777 101.865C68.5999 101.865 67.6668 102.898 67.606 104.134H72.0278Z" fill="#097EF4"/>
<path d="M75.4963 113.473V111.65C75.7803 111.65 76.1251 111.69 76.4294 111.69C76.9567 111.69 77.403 111.63 77.7884 110.596L77.9709 110.09L74.543 100.224H76.8756L79.046 107.517H79.1474L81.3178 100.224H83.6504L79.8776 111.062C79.3502 112.602 78.3563 113.514 76.5916 113.514C76.1657 113.514 75.7194 113.514 75.4557 113.453L75.4963 113.473Z" fill="#097EF4"/>
<path d="M88.8633 97.002H91.0742V101.803H91.1553C91.5002 101.115 92.1695 100.102 93.8328 100.102C96.0032 100.102 97.7273 101.844 97.7273 105.065C97.7273 108.286 96.0437 110.069 93.8531 110.069C92.2304 110.069 91.5002 109.077 91.1553 108.367H91.0134V109.907H88.8633V97.0222V97.002ZM93.2243 108.205C94.6847 108.205 95.4758 106.889 95.4758 105.045C95.4758 103.201 94.705 101.945 93.2243 101.945C91.7436 101.945 91.0134 103.181 91.0134 105.045C91.0134 106.909 91.8044 108.205 93.2243 108.205Z" fill="black"/>
<path d="M99.0661 113.473V111.65C99.3501 111.65 99.6949 111.69 99.9992 111.69C100.527 111.69 100.973 111.63 101.358 110.596L101.541 110.09L98.1128 100.224H100.445L102.616 107.517H102.717L104.888 100.224H107.22L103.447 111.062C102.92 112.602 101.926 113.514 100.161 113.514C99.7355 113.514 99.2893 113.514 99.0256 113.453L99.0661 113.473Z" fill="black"/>
<path d="M116.855 98.8053C115.435 98.8053 114.583 99.5143 114.583 100.487C114.583 101.581 115.678 102.026 116.733 102.27L117.91 102.594C119.776 103.039 121.561 104.052 121.561 106.301C121.561 108.55 119.837 110.11 116.835 110.11C113.833 110.11 112.088 108.672 111.987 106.119H114.198C114.299 107.476 115.415 108.125 116.814 108.125C118.214 108.125 119.309 107.375 119.309 106.281C119.309 105.268 118.396 104.843 117.037 104.478L115.618 104.113C113.569 103.566 112.291 102.492 112.291 100.649C112.291 98.3798 114.259 96.8604 116.875 96.8604C119.492 96.8604 121.338 98.4001 121.358 100.588H119.208C119.106 99.4941 118.194 98.8458 116.835 98.8458L116.855 98.8053Z" fill="black"/>
<path d="M123.163 97.002H125.415V102.938H125.577L130.466 97.002H133.204L128.376 102.796L133.265 109.907H130.547L126.794 104.376L125.395 106.058V109.907H123.143V97.0222L123.163 97.002Z" fill="black"/>
<path d="M137.788 97.002H147.747V98.9469H143.893V109.907H141.642V98.9469H137.768V97.002H137.788Z" fill="black"/>
<path d="M147.402 105.126C147.402 102.128 149.167 100.102 151.844 100.102C154.136 100.102 156.124 101.581 156.124 104.985V105.694H149.572C149.593 107.335 150.546 108.307 151.966 108.307C152.94 108.307 153.589 107.882 153.873 107.314H156.023C155.617 108.996 154.116 110.09 151.946 110.09C149.106 110.09 147.382 108.145 147.382 105.126H147.402ZM154.015 104.134C154.015 102.817 153.142 101.865 151.865 101.865C150.587 101.865 149.654 102.898 149.593 104.134H154.015Z" fill="black"/>
<path d="M159.775 109.887H157.564V97.002H159.775V109.887Z" fill="black"/>
<path d="M161.236 105.126C161.236 102.128 163.001 100.102 165.678 100.102C167.97 100.102 169.958 101.581 169.958 104.985V105.694H163.406C163.427 107.335 164.38 108.307 165.8 108.307C166.774 108.307 167.423 107.882 167.707 107.314H169.857C169.451 108.996 167.95 110.09 165.78 110.09C162.94 110.09 161.216 108.145 161.216 105.126H161.236ZM167.849 104.134C167.849 102.817 166.976 101.865 165.699 101.865C164.421 101.865 163.488 102.898 163.427 104.134H167.849Z" fill="black"/>
<path d="M171.013 105.106C171.013 102.148 172.757 100.102 175.495 100.102C177.767 100.102 179.37 101.48 179.512 103.566H177.402C177.22 102.634 176.57 101.925 175.495 101.925C174.136 101.925 173.224 103.121 173.224 105.066C173.224 107.011 174.116 108.246 175.495 108.246C176.489 108.246 177.199 107.659 177.402 106.605H179.512C179.329 108.652 177.828 110.09 175.495 110.09C172.696 110.09 171.013 108.023 171.013 105.106Z" fill="black"/>
<path d="M180.546 105.106C180.546 102.087 182.311 100.102 185.029 100.102C187.747 100.102 189.511 102.087 189.511 105.106C189.511 108.125 187.767 110.09 185.029 110.09C182.29 110.09 180.546 108.105 180.546 105.106ZM187.28 105.086C187.28 103.323 186.53 101.905 185.029 101.905C183.528 101.905 182.757 103.323 182.757 105.086C182.757 106.848 183.507 108.267 185.029 108.267C186.55 108.267 187.28 106.869 187.28 105.086Z" fill="black"/>
<path d="M190.972 100.224H193.081V101.865H193.203C193.588 100.771 194.542 100.102 195.779 100.102C197.016 100.102 197.949 100.771 198.314 101.865H198.416C198.822 100.791 199.856 100.102 201.235 100.102C202.939 100.102 204.156 101.237 204.156 103.404V109.908H201.965V103.769C201.965 102.553 201.256 102.027 200.363 102.027C199.268 102.027 198.659 102.797 198.659 103.87V109.908H196.529V103.668C196.529 102.675 195.88 102.006 194.947 102.006C194.014 102.006 193.223 102.817 193.223 104.012V109.887H191.012V100.224H190.972Z" fill="black"/>
<path d="M49.675 312.785V321.314C49.675 323.968 47.6872 325.913 44.6446 325.913C41.6021 325.913 39.6143 323.968 39.6143 321.314V312.785H41.2167V321.193C41.2167 323.057 42.5148 324.414 44.6446 324.414C46.7744 324.414 48.0726 323.057 48.0726 321.193V312.785H49.675Z" fill="black"/>
<path d="M55.7397 317.181C54.543 317.181 53.691 317.83 53.691 318.64C53.691 319.288 54.1981 319.734 55.3543 319.997L56.7945 320.362C58.5186 320.767 59.3705 321.618 59.3705 322.976C59.3705 324.657 57.9912 325.873 55.5774 325.873C53.4071 325.873 52.1089 324.92 51.8452 323.158H53.4476C53.6302 324.11 54.3198 324.556 55.5369 324.556C56.9162 324.556 57.7884 323.989 57.7884 323.077C57.7884 322.408 57.3016 321.942 56.2062 321.679L54.7458 321.335C53.0622 320.95 52.1698 320.018 52.1698 318.741C52.1698 317.08 53.6099 315.885 55.76 315.885C57.7478 315.885 59.0257 316.959 59.2285 318.518H57.7275C57.5044 317.708 56.9162 317.181 55.76 317.181H55.7397Z" fill="black"/>
<path d="M60.9121 320.909C60.9121 317.931 62.6565 315.865 65.2934 315.865C67.3218 315.865 69.4719 317.121 69.4719 320.686V321.335H62.4537C62.5348 323.381 63.7113 324.495 65.4557 324.495C66.6119 324.495 67.3421 323.989 67.7072 323.401H69.3502C68.8836 324.86 67.4638 325.853 65.4557 325.853C62.6565 325.853 60.9324 323.867 60.9324 320.909H60.9121ZM67.9303 320.038C67.9303 318.417 66.8958 317.222 65.3137 317.222C63.6301 317.222 62.5754 318.539 62.474 320.038H67.9303Z" fill="black"/>
<path d="M80.2831 317.283H78.2547V322.895C78.2547 324.151 78.8632 324.333 79.5123 324.333C79.7963 324.333 80.1817 324.333 80.4251 324.292V325.711C80.202 325.751 79.7963 325.792 79.35 325.792C78.0721 325.792 76.6929 324.981 76.6929 323.279V317.283H75.2324V316.006H76.6929V313.697H78.2344V316.006H80.2628V317.283H80.2831Z" fill="black"/>
<path d="M83.9952 325.67H82.4536V312.785H83.9952V317.526H84.1169C84.5631 316.533 85.4353 315.885 86.9769 315.885C88.9647 315.885 90.2832 317.06 90.2832 319.532V325.67H88.7416V319.633C88.7416 318.113 87.91 317.242 86.5104 317.242C85.1108 317.242 83.9952 318.194 83.9952 319.856V325.67Z" fill="black"/>
<path d="M92.4331 313.393C92.4331 312.826 92.9199 312.38 93.5081 312.38C94.0964 312.38 94.6035 312.826 94.6035 313.393C94.6035 313.96 94.0964 314.406 93.5081 314.406C92.9199 314.406 92.4331 313.96 92.4331 313.393ZM92.7374 316.006H94.2789V325.67H92.7374V316.006Z" fill="black"/>
<path d="M100.121 317.181C98.9243 317.181 98.0724 317.83 98.0724 318.64C98.0724 319.288 98.5795 319.734 99.7357 319.997L101.176 320.362C102.9 320.767 103.752 321.618 103.752 322.976C103.752 324.657 102.373 325.873 99.9588 325.873C97.7884 325.873 96.4903 324.92 96.2266 323.158H97.829C98.0115 324.11 98.7012 324.556 99.9182 324.556C101.298 324.556 102.17 323.989 102.17 323.077C102.17 322.408 101.683 321.942 100.588 321.679L99.1271 321.335C97.4436 320.95 96.5511 320.018 96.5511 318.741C96.5511 317.08 97.9913 315.885 100.141 315.885C102.129 315.885 103.407 316.959 103.61 318.518H102.109C101.886 317.708 101.298 317.181 100.141 317.181H100.121Z" fill="black"/>
<path d="M110.344 316.006H111.824V317.546H112.007C112.332 317.04 112.94 315.885 114.806 315.885C117.24 315.885 118.924 317.809 118.924 320.869C118.924 323.928 117.24 325.873 114.826 325.873C112.981 325.873 112.332 324.738 112.007 324.191H111.885V329.296H110.344V315.986V316.006ZM114.603 324.495C116.449 324.495 117.382 322.895 117.382 320.828C117.382 318.762 116.449 317.242 114.603 317.242C112.758 317.242 111.845 318.681 111.845 320.828C111.845 322.976 112.818 324.495 114.603 324.495Z" fill="#097EF4"/>
<path d="M124.096 320.079C124.705 320.038 126.287 319.957 126.713 319.937V319.147C126.713 317.911 125.983 317.202 124.522 317.202C123.285 317.202 122.555 317.769 122.352 318.498H120.75C120.952 316.959 122.453 315.865 124.603 315.865C125.861 315.865 128.234 316.229 128.234 319.289V325.67H126.713V324.353H126.632C126.307 325.022 125.415 325.893 123.752 325.893C121.906 325.893 120.445 324.799 120.445 322.915C120.445 320.686 122.413 320.2 124.076 320.058L124.096 320.079ZM124.015 324.536C125.739 324.536 126.713 323.381 126.713 322.165V321.193L124.279 321.375C122.879 321.456 122.007 321.963 122.007 323.016C122.007 324.07 122.859 324.556 124.036 324.556L124.015 324.536Z" fill="#097EF4"/>
<path d="M134.117 317.181C132.92 317.181 132.068 317.83 132.068 318.64C132.068 319.288 132.575 319.734 133.731 319.997L135.171 320.362C136.896 320.767 137.747 321.618 137.747 322.976C137.747 324.657 136.368 325.873 133.954 325.873C131.784 325.873 130.486 324.92 130.222 323.158H131.825C132.007 324.11 132.697 324.556 133.914 324.556C135.293 324.556 136.165 323.989 136.165 323.077C136.165 322.408 135.679 321.942 134.583 321.679L133.123 321.335C131.439 320.95 130.547 320.018 130.547 318.741C130.547 317.08 131.987 315.885 134.137 315.885C136.125 315.885 137.403 316.959 137.605 318.518H136.104C135.881 317.708 135.293 317.181 134.137 317.181H134.117Z" fill="#097EF4"/>
<path d="M143.163 317.181C141.966 317.181 141.114 317.83 141.114 318.64C141.114 319.288 141.621 319.734 142.778 319.997L144.218 320.362C145.942 320.767 146.794 321.618 146.794 322.976C146.794 324.657 145.415 325.873 143.001 325.873C140.83 325.873 139.532 324.92 139.269 323.158H140.871C141.054 324.11 141.743 324.556 142.96 324.556C144.34 324.556 145.212 323.989 145.212 323.077C145.212 322.408 144.725 321.942 143.63 321.679L142.169 321.335C140.486 320.95 139.593 320.018 139.593 318.741C139.593 317.08 141.033 315.885 143.183 315.885C145.171 315.885 146.449 316.959 146.652 318.518H145.151C144.928 317.708 144.339 317.181 143.183 317.181H143.163Z" fill="#097EF4"/>
<path d="M148.802 312.785H150.343V320.281H150.526L154.725 316.006H156.611L152.534 320.139L156.915 325.67H154.968L151.378 321.112L150.343 322.064V325.67H148.802V312.785Z" fill="#097EF4"/>
<path d="M157.362 320.909C157.362 317.931 159.106 315.865 161.743 315.865C163.771 315.865 165.922 317.121 165.922 320.686V321.335H158.903C158.985 323.381 160.161 324.495 161.905 324.495C163.062 324.495 163.792 323.989 164.157 323.401H165.8C165.333 324.86 163.913 325.853 161.905 325.853C159.106 325.853 157.382 323.867 157.382 320.909H157.362ZM164.38 320.038C164.38 318.417 163.346 317.222 161.763 317.222C160.08 317.222 159.025 318.539 158.924 320.038H164.38Z" fill="#097EF4"/>
<path d="M167.747 329.276V327.899C167.909 327.899 168.254 327.939 168.497 327.939C169.126 327.939 169.633 327.878 170.161 326.48L170.445 325.751L166.854 316.006H168.538L171.175 323.685H171.276L173.913 316.006H175.597L171.499 327.068C170.932 328.587 169.978 329.317 168.619 329.317C168.274 329.317 167.95 329.317 167.767 329.276H167.747Z" fill="#097EF4"/>
<path d="M181.195 318.093C181.925 317.647 182.493 316.938 182.493 315.945C182.493 314.73 181.54 313.96 180.363 313.96C179.349 313.96 178.335 314.568 178.234 316.026H176.611C176.692 313.879 178.335 312.603 180.363 312.603C182.595 312.603 184.055 314.041 184.055 316.006C184.055 317.404 183.386 318.376 182.29 319.045C181.195 319.714 180.769 320.402 180.749 321.942V322.023H179.207V321.942C179.207 319.552 179.958 318.822 181.195 318.073V318.093ZM178.903 324.616C178.903 323.988 179.41 323.482 180.039 323.482C180.668 323.482 181.175 323.988 181.175 324.616C181.175 325.244 180.668 325.771 180.039 325.771C179.41 325.771 178.883 325.265 178.903 324.616Z" fill="#097EF4"/>
<path d="M42.454 130.268C42.454 133.631 40.7704 135.779 38.4378 135.779C36.1052 135.779 34.4419 133.651 34.4419 130.268C34.4419 126.885 36.0849 124.758 38.4378 124.758C40.7704 124.758 42.4337 126.905 42.454 130.268ZM35.7603 130.268C35.7603 132.841 36.8557 134.523 38.4378 134.523C40.0199 134.523 41.095 132.841 41.095 130.268C41.095 127.695 40.0199 126.014 38.4378 125.993C36.876 125.993 35.7603 127.675 35.7603 130.268ZM46.4499 129.843H49.1071V131.058H46.4499V139.365H45.0503V123.542H46.4499V129.863V129.843Z" fill="black"/>
<path d="M58.6609 130.268C58.6609 133.631 56.9773 135.778 54.6041 135.778C52.2309 135.778 50.5474 133.651 50.5474 130.268C50.5474 126.885 52.2309 124.757 54.6041 124.757C56.957 124.757 58.6609 126.905 58.6609 130.268ZM51.9064 130.268C51.9064 132.841 53.0017 134.522 54.6041 134.522C56.2065 134.522 57.3019 132.841 57.3019 130.268C57.3019 127.695 56.2065 126.013 54.6041 125.993C53.022 125.993 51.9064 127.675 51.9064 130.268ZM63.0422 139.385H61.6426V123.521H63.0422V139.385Z" fill="black"/>
<path d="M74.3197 126.216H68.194V134.239C71.2771 134.239 73.3055 134.137 75.6787 133.732L75.8207 134.907C73.3664 135.353 71.2772 135.434 68.0723 135.454H66.7944V125.041H74.34V126.216H74.3197ZM78.8227 139.385H77.4231V123.521H78.8227V139.385Z" fill="black"/>
<path d="M82.0684 132.254C82.0684 131.626 82.5755 131.119 83.2043 131.119C83.8331 131.119 84.3402 131.626 84.3402 132.254C84.3402 132.882 83.8331 133.408 83.2043 133.408C82.5755 133.408 82.0482 132.902 82.0684 132.254Z" fill="black"/>
<path d="M88.4779 129.052H93.2041V124.859H94.5834V135.535H87.0986V124.859H88.4982V129.052H88.4779ZM93.2041 134.381V130.187H88.4779V134.381H93.2041ZM99.2283 139.385H97.8288V123.521H99.2283V139.385Z" fill="black"/>
<path d="M110.202 130.855H102.758V124.413H110.202V130.855ZM104.157 129.741H108.843V125.547H104.157V129.741ZM115.009 136.244H106.125V138.027H115.577V139.162H104.746V135.211H113.65V133.59H104.746V132.476H115.03V136.244H115.009ZM115.009 131.686H113.63V123.521H115.009V131.686Z" fill="black"/>
<path d="M130.851 135.252H129.451V129.154H125.699V132.537H118.518V124.575H119.918V127.391H124.34V124.575H125.719V127.979H129.471V123.521H130.871V135.231L130.851 135.252ZM124.319 131.382V128.505H119.897V131.382H124.319ZM131.216 139H120.607V134.077H122.007V137.825H131.216V139Z" fill="black"/>
<path d="M148.011 137.501H133.508V136.346H140.039V134.117C137.22 133.955 135.516 132.861 135.536 131.099C135.536 129.215 137.524 128.1 140.749 128.121C143.934 128.121 145.962 129.215 145.962 131.099C145.962 132.882 144.238 133.976 141.439 134.117V136.346H148.051V137.501H148.011ZM147.179 127.027H134.197V125.872H140.019V123.785H141.398V125.872H147.199V127.027H147.179ZM136.915 131.079C136.915 132.294 138.335 132.963 140.709 132.983C143.041 132.983 144.481 132.294 144.481 131.079C144.481 129.863 143.041 129.215 140.709 129.215C138.376 129.215 136.895 129.903 136.915 131.079Z" fill="black"/>
<path d="M162.271 127.249H165.577V123.501H166.976V131.889H165.577V128.404H162.271C161.987 130.268 160.364 131.504 158.214 131.504C155.8 131.504 154.096 130.025 154.096 127.857C154.096 125.689 155.8 124.231 158.214 124.231C160.344 124.231 161.966 125.426 162.271 127.249ZM155.435 127.857C155.435 129.316 156.591 130.349 158.214 130.349C159.837 130.349 160.952 129.316 160.952 127.857C160.952 126.399 159.816 125.406 158.214 125.406C156.611 125.406 155.435 126.419 155.435 127.857ZM157.017 134.786H159.897V132.801H161.196V139.121H155.678V132.801H156.997V134.786H157.017ZM159.897 138.027V135.86H157.017V138.027H159.897ZM168.64 138.19L167.909 139.263C166.449 138.676 165.475 137.561 165.009 136.245C164.502 137.541 163.548 138.676 162.129 139.263L161.398 138.19C163.305 137.399 164.319 135.657 164.319 134.057V132.699H165.719V134.057C165.719 135.738 166.692 137.48 168.64 138.19Z" fill="black"/>
<path d="M178.315 130.268C178.315 133.631 176.631 135.778 174.258 135.778C171.885 135.778 170.201 133.651 170.201 130.268C170.201 126.885 171.885 124.757 174.258 124.757C176.611 124.757 178.315 126.905 178.315 130.268ZM171.58 130.268C171.58 132.841 172.676 134.522 174.278 134.522C175.881 134.522 176.976 132.841 176.976 130.268C176.976 127.695 175.881 126.013 174.278 125.993C172.696 125.993 171.58 127.675 171.58 130.268ZM182.696 139.385H181.296V123.521H182.696V139.385Z" fill="black"/>
<path d="M186.611 141.552H185.292L186.266 136.71H187.99L186.591 141.552H186.611Z" fill="black"/>
<path d="M54.3202 150.993H52.9409V158.327C53.5291 158.287 54.1174 158.246 54.6244 158.165L54.7056 159.198C52.1904 159.664 48.8436 159.725 46.7543 159.725L46.5718 158.53H48.2959V150.973H46.8963V149.818H54.2999V150.973L54.3202 150.993ZM51.6427 158.428V150.993H49.6143V158.509C50.2837 158.509 50.9734 158.469 51.6427 158.428ZM60.3445 163.655H58.9855V155.39H56.8354V162.825H55.4966V148.177H56.8354V154.214H58.9855V147.812H60.3445V163.635V163.655Z" fill="black"/>
<path d="M77.0381 161.508H62.5352V160.353H77.0381V161.508ZM76.2876 155.815L75.6385 156.99C73.245 156.443 70.7298 154.741 69.6953 152.391C68.6609 154.721 66.166 156.423 63.7522 156.99L63.1031 155.815C65.8414 155.288 68.9245 152.898 68.9245 150.163V148.947H70.385V150.163C70.385 152.878 73.4884 155.288 76.247 155.815H76.2876Z" fill="black"/>
<path d="M79.4112 161.083L78.6201 159.968C81.5816 158.55 83.4274 156.727 84.4416 154.579L78.9244 155.106L78.7013 153.85L84.8878 153.445C85.1718 152.574 85.3341 151.622 85.3949 150.649H79.4923V149.494H86.7945C86.7945 154.073 85.1109 158.287 79.3909 161.083H79.4112ZM91.4192 163.656H90.0196V147.833H91.4192V163.656Z" fill="black"/>
<path d="M108.6 161.69H94.0967V160.515H100.628V157.517H95.9222V152.634H105.415V150.143H95.9019V148.988H106.794V153.769H97.3218V156.342H107.159V157.497H102.007V160.495H108.62V161.67L108.6 161.69Z" fill="black"/>
<path d="M115.07 157.578L114.461 156.464C118.254 155.288 120.729 153.019 121.033 150.224H115.111V149.049H122.555C122.555 153.121 119.634 156.16 115.07 157.578ZM127.565 163.311H116.895V158.246H118.295V162.136H127.565V163.311ZM126.835 152.655H129.228V153.83H126.835V159.421H125.435V147.833H126.835V152.655Z" fill="black"/>
<path d="M139.106 150.264H137.484V155.795C138.234 155.754 138.944 155.694 139.613 155.613L139.694 156.666C136.611 157.152 133.001 157.193 130.425 157.193L130.242 155.998H132.291V150.244H130.688V149.109H139.106V150.244V150.264ZM143.792 163.311H133.143V158.631H134.542V162.136H143.771V163.311H143.792ZM136.145 155.896V150.264H133.67V155.957C134.482 155.957 135.313 155.917 136.145 155.876V155.896ZM143.366 159.624H141.966V155.025H139.248V153.85H141.966V152.006H139.248V150.852H141.966V147.833H143.366V159.624Z" fill="black"/>
<path d="M155.333 151.54H145.901V150.386H149.978V148.036H151.378V150.386H155.333V151.54ZM154.583 156.484C154.583 158.611 152.94 160.11 150.688 160.11C148.437 160.11 146.794 158.611 146.794 156.484C146.794 154.357 148.417 152.857 150.688 152.857C152.96 152.857 154.563 154.357 154.583 156.484ZM148.153 156.484C148.153 157.922 149.228 158.935 150.709 158.915C152.169 158.915 153.244 157.922 153.264 156.484C153.264 155.066 152.169 154.032 150.709 154.032C149.248 154.032 148.133 155.066 148.153 156.484ZM158.254 154.357H160.911V155.511H158.254V163.656H156.855V147.833H158.254V154.377V154.357Z" fill="black"/>
<path d="M172.006 162.865H170.668V155.471H167.321C166.347 157.314 164.826 158.935 162.615 160.252L161.804 159.239C165.252 157.193 166.976 154.336 167.24 151.034H162.473V149.879H168.619C168.619 151.439 168.355 152.938 167.828 154.357H170.668V148.279H172.006V162.886V162.865ZM175.333 163.656H173.994V147.833H175.333V163.656Z" fill="black"/>
<path d="M79.3301 186.001H64.8271V184.826H71.3585V181.828H66.6527V176.946H76.1455V174.454H66.6324V173.299H77.5248V178.08H68.0523V180.653H77.8899V181.808H72.7378V184.806H79.3503V185.981L79.3301 186.001Z" fill="black"/>
<path d="M95.0295 185.637H80.5874V184.482H95.0295V185.637ZM93.1025 175.426C93.1025 177.412 93.1025 179.681 92.5143 183.125L91.0944 182.983C91.7435 179.742 91.7435 177.371 91.7435 175.426V175.001H82.1898V173.846H93.1228V175.426H93.1025Z" fill="black"/>
<path d="M105.05 177.148C105.05 179.458 103.265 181.038 100.892 181.038C98.5184 181.038 96.7334 179.458 96.7334 177.148C96.7334 174.839 98.5184 173.259 100.892 173.259C103.265 173.259 105.05 174.859 105.05 177.148ZM98.1127 177.148C98.1127 178.729 99.2892 179.823 100.892 179.823C102.494 179.823 103.67 178.729 103.67 177.148C103.67 175.568 102.453 174.494 100.892 174.494C99.3297 174.494 98.0924 175.588 98.1127 177.148ZM109.958 187.622H99.2283V182.558H100.628V186.447H109.979V187.622H109.958ZM109.451 183.733H108.052V172.165H109.451V183.733Z" fill="black"/>
<path d="M121.5 175.852H112.068V174.697H116.145V172.347H117.544V174.697H121.5V175.852ZM120.749 180.795C120.749 182.922 119.106 184.421 116.855 184.421C114.603 184.421 112.96 182.922 112.96 180.795C112.96 178.668 114.583 177.168 116.855 177.168C119.127 177.168 120.729 178.668 120.749 180.795ZM114.319 180.795C114.319 182.233 115.394 183.246 116.875 183.226C118.336 183.226 119.411 182.233 119.431 180.795C119.431 179.377 118.336 178.343 116.875 178.343C115.415 178.343 114.299 179.377 114.319 180.795ZM124.421 178.668H127.078V179.822H124.421V187.967H123.021V172.144H124.421V178.688V178.668Z" fill="black"/>
<path d="M135.962 183.125L135.151 184.219C133.63 183.287 132.535 181.605 131.987 179.681C131.399 181.788 130.222 183.591 128.64 184.563L127.748 183.51C129.938 182.233 131.277 179.417 131.277 176.702V173.643H132.636V176.662C132.636 179.174 133.873 181.889 135.962 183.145V183.125ZM138.234 187.177H136.916V179.012H134.218V177.817H136.916V172.468H138.234V187.156V187.177ZM141.52 187.967H140.161V172.144H141.52V187.967Z" fill="black"/>
<path d="M158.213 185.941H143.71V184.766H147.321V180.491C145.962 179.782 145.151 178.648 145.151 177.209C145.151 174.758 147.564 173.157 150.952 173.137C154.339 173.137 156.753 174.758 156.753 177.209C156.753 178.607 155.962 179.742 154.643 180.451V184.766H158.254V185.941H158.213ZM146.489 177.209C146.489 178.972 148.335 180.167 150.931 180.167C153.528 180.167 155.374 178.972 155.374 177.209C155.374 175.447 153.528 174.272 150.931 174.292C148.335 174.292 146.489 175.447 146.489 177.209ZM153.203 184.766V180.998C152.514 181.18 151.743 181.281 150.931 181.281C150.12 181.281 149.37 181.2 148.68 181.018V184.766H153.203Z" fill="black"/>
<path opacity="0.85" d="M187.321 3.03906H35.6591C17.7353 3.03906 3.20508 17.5518 3.20508 35.4541V391.918C3.20508 409.821 17.7353 424.333 35.6591 424.333H187.321C205.245 424.333 219.775 409.821 219.775 391.918V35.4541C219.775 17.5518 205.245 3.03906 187.321 3.03906Z" fill="#231815" stroke="#231815" stroke-width="3" stroke-miterlimit="10"/>
<path d="M0 281.97V394.146C0 412.785 14.9897 428 33.448 428H189.613C208.071 428 222.98 412.785 222.98 394.146V281.97C222.98 276.763 218.801 272.529 213.629 272.529H9.35083C4.19875 272.529 0 276.743 0 281.97Z" fill="#F2F1F6"/>
</g>
<path d="M103.123 300.603C106.517 300.603 109.269 297.855 109.269 294.465C109.269 291.075 106.517 288.326 103.123 288.326C99.7282 288.326 96.9766 291.075 96.9766 294.465C96.9766 297.855 99.7282 300.603 103.123 300.603Z" stroke="#097EF4" stroke-width="2" stroke-miterlimit="10"/>
<path d="M112.189 293.776H126.023L123.974 299.489" stroke="#097EF4" stroke-width="2" stroke-miterlimit="10"/>
<path d="M64.6562 312.869V326.994H62.9844V319.822H61.5781V326.275H59.9375V313.135H61.5781V318.4H62.9844V312.869H64.6562ZM59.125 314.541V315.947H58.1094V322.025C58.5312 321.994 58.9297 321.955 59.3125 321.9L59.4062 323.166C57.2031 323.619 54.2969 323.666 52.5156 323.666L52.3125 322.229L53.625 322.213V315.947H52.5938V314.541H59.125ZM55.1875 322.182L56.5312 322.135V315.947H55.1875V322.182ZM73.5938 314.807C73.5938 316.994 75.7344 319.182 78.6875 319.697L77.9062 321.15C75.5391 320.65 73.6016 319.221 72.6875 317.322C71.75 319.205 69.8125 320.643 67.4531 321.15L66.6875 319.697C69.6094 319.166 71.7344 316.979 71.75 314.807V313.76H73.5938V314.807ZM79.2031 323.76V325.197H66.2969V323.76H79.2031ZM87.7812 314.26C87.7656 318.525 86.4844 322.244 81.2344 324.807L80.3125 323.463C82.7422 322.275 84.2578 320.861 85.125 319.166L80.625 319.572L80.4062 318.088L85.6719 317.76C85.8672 317.104 85.9844 316.4 86.0469 315.666H81.125V314.26H87.7812ZM91.9219 312.869V326.994H90.1719V312.869H91.9219ZM102.797 316.26C102.781 318.775 104.047 321.338 106.234 322.385L105.172 323.775C103.641 323.002 102.539 321.51 101.938 319.713C101.32 321.635 100.164 323.229 98.5469 324.041L97.4844 322.65C99.75 321.572 101.047 318.869 101.062 316.26V314.01H102.797V316.26ZM108.812 312.869V318.4H110.984V319.885H108.812V326.994H107.078V312.869H108.812ZM124.453 319.666V321.057H111.578V319.666H114.578V317.869C113.516 317.424 112.906 316.713 112.906 315.791C112.906 314.104 114.891 313.104 118 313.104C121.109 313.104 123.078 314.104 123.094 315.791C123.086 316.721 122.477 317.432 121.406 317.869V319.666H124.453ZM118 321.916C121.047 321.9 122.875 322.807 122.891 324.432C122.875 326.072 121.047 326.963 118 326.963C114.922 326.963 113.078 326.072 113.078 324.432C113.078 322.807 114.922 321.9 118 321.916ZM118 323.229C115.938 323.229 114.828 323.635 114.844 324.432C114.828 325.229 115.938 325.65 118 325.65C120.016 325.65 121.141 325.229 121.156 324.432C121.141 323.635 120.016 323.229 118 323.229ZM118 314.447C115.906 314.447 114.703 314.916 114.719 315.791C114.703 316.65 115.906 317.104 118 317.104C120.078 317.104 121.297 316.65 121.297 315.791C121.297 314.916 120.078 314.447 118 314.447ZM116.328 319.666H119.672V318.322C119.164 318.393 118.602 318.432 118 318.432C117.398 318.432 116.836 318.393 116.328 318.322V319.666ZM130.469 316.885C130.469 319.072 131.766 321.557 134 322.588L133.031 323.963C131.438 323.213 130.258 321.697 129.625 319.932C128.984 321.869 127.75 323.525 126.125 324.307L125.109 322.947C127.359 321.885 128.719 319.229 128.734 316.885V315.697H125.656V314.26H133.422V315.697H130.469V316.885ZM136.469 312.869V318.369H138.641V319.822H136.469V326.994H134.734V312.869H136.469ZM154.797 312.885V323.088H153.047V312.885H154.797ZM155.188 325.307V326.713H145.453V322.057H147.203V325.307H155.188ZM147.094 313.807C149.234 313.807 150.891 315.291 150.891 317.338C150.891 319.432 149.234 320.885 147.094 320.885C144.938 320.885 143.281 319.432 143.281 317.338C143.281 315.291 144.938 313.807 147.094 313.807ZM147.094 315.322C145.891 315.322 144.969 316.119 144.984 317.338C144.969 318.588 145.891 319.369 147.094 319.369C148.266 319.369 149.188 318.588 149.188 317.338C149.188 316.119 148.266 315.322 147.094 315.322ZM169.734 319.447V320.854H156.859V319.447H169.734ZM163.281 321.791C166.328 321.791 168.156 322.744 168.172 324.385C168.156 326.041 166.328 326.979 163.281 326.979C160.203 326.979 158.359 326.041 158.359 324.385C158.359 322.744 160.203 321.791 163.281 321.791ZM163.281 323.15C161.219 323.15 160.109 323.572 160.125 324.385C160.109 325.197 161.219 325.619 163.281 325.619C165.297 325.619 166.422 325.197 166.438 324.385C166.422 323.572 165.297 323.15 163.281 323.15ZM168.578 313.541V314.963H164.5C164.758 316.135 166.453 317.189 169.125 317.447L168.516 318.822C165.953 318.549 164.047 317.541 163.281 316.104C162.516 317.533 160.641 318.549 158.078 318.822L157.484 317.447C160.102 317.189 161.805 316.135 162.078 314.963H158.031V313.541H168.578Z" fill="black"/>
<circle cx="111.5" cy="374.929" r="29.3257" fill="#097EF4" fill-opacity="0.05"/>
<g clip-path="url(#clip1_100_4101)">
<path d="M93.71 368.539C93.71 368.539 95.1132 364.522 98.6308 361.254C103.379 356.814 112.874 353.431 124.292 361.062" stroke="#097EF4" stroke-width="2.5" stroke-miterlimit="10" stroke-linecap="round"/>
<path d="M127.771 365.964C127.771 365.964 132.558 370.27 129.655 381.438" stroke="#097EF4" stroke-width="2.5" stroke-miterlimit="10" stroke-linecap="round"/>
<path d="M92.6721 373.826C92.6721 373.826 91.6341 378.074 93.7101 380.919" stroke="#097EF4" stroke-width="2.5" stroke-miterlimit="10" stroke-linecap="round"/>
<path d="M106.877 363.888C106.877 363.888 111.452 362.235 115.873 363.35C120.14 364.426 124.292 368.078 124.292 377.362C124.292 381.072 122.735 392.125 122.735 392.125" stroke="#097EF4" stroke-width="2.5" stroke-miterlimit="10" stroke-linecap="round"/>
<path d="M101.841 366.867C101.841 366.867 98.9576 368.789 98.8808 373.191C98.8039 377.093 98.7462 386.993 97.8428 388.799" stroke="#097EF4" stroke-width="2.5" stroke-miterlimit="10" stroke-linecap="round"/>
<path d="M117.834 381.687C117.834 381.687 118.007 376.651 117.834 374.979C117.584 372.73 116.411 368.405 110.875 369.174C110.875 369.174 104.551 369.693 105.455 376.651C105.455 376.651 106.223 389.549 103.513 393.547" stroke="#097EF4" stroke-width="2.5" stroke-miterlimit="10" stroke-linecap="round"/>
<path d="M111.644 374.979C111.644 374.979 112.279 379.977 110.683 386.839" stroke="#097EF4" stroke-width="2.5" stroke-miterlimit="10" stroke-linecap="round"/>
<path d="M116.795 387.877L116.161 394.72" stroke="#097EF4" stroke-width="2.5" stroke-miterlimit="10" stroke-linecap="round"/>
<path d="M110.683 391.298L108.992 395.758" stroke="#097EF4" stroke-width="2.5" stroke-miterlimit="10" stroke-linecap="round"/>
</g>
<defs>
<clipPath id="clip0_100_4101">
<rect width="223" height="428" fill="white"/>
</clipPath>
<clipPath id="clip1_100_4101">
<rect width="42" height="43.0764" fill="white" transform="translate(90.5 354.604)"/>
</clipPath>
</defs>
</svg>
