<svg width="222" height="427" viewBox="0 0 222 427" fill="none" xmlns="http://www.w3.org/2000/svg">
<path d="M186.608 3.03613H35.3923C17.5211 3.03613 3.03369 17.5362 3.03369 35.423V391.577C3.03369 409.464 17.5211 423.964 35.3923 423.964H186.608C204.479 423.964 218.966 409.464 218.966 391.577V35.423C218.966 17.5362 204.479 3.03613 186.608 3.03613Z" fill="#EEF0F2" stroke="#EEF0F2" stroke-width="3" stroke-miterlimit="10"/>
<path d="M82.1501 29.6739C82.1501 29.6739 82.0692 29.6739 82.0287 29.6537C81.9883 29.6537 81.968 29.6132 81.9276 29.593L80.0467 27.7105C80.0467 27.7105 79.9861 27.6498 79.9861 27.6093C79.9861 27.5688 79.9659 27.5283 79.9659 27.4878C79.9659 27.4473 79.9658 27.4069 79.9861 27.3664C79.9861 27.3259 80.0265 27.3056 80.0467 27.2652C80.6332 26.7794 81.3613 26.5162 82.1096 26.5162C82.8579 26.5162 83.6062 26.7794 84.1725 27.2652C84.1927 27.2854 84.2331 27.3259 84.2331 27.3664C84.2331 27.4069 84.2534 27.4473 84.2534 27.4878C84.2534 27.5283 84.2534 27.5688 84.2331 27.6093C84.2331 27.6498 84.1927 27.67 84.1725 27.7105L82.3118 29.593C82.3118 29.593 82.2512 29.6334 82.2107 29.6537C82.1703 29.6537 82.1298 29.6739 82.0894 29.6739H82.1501ZM85.4466 26.3543C85.4466 26.3543 85.305 26.334 85.2443 26.2733C84.3949 25.5041 83.3028 25.079 82.1501 25.079C80.9973 25.079 79.9052 25.5041 79.0558 26.2733C78.9951 26.334 78.9344 26.3543 78.8535 26.3543C78.8131 26.3543 78.7726 26.3543 78.7524 26.334C78.712 26.334 78.6917 26.2936 78.6513 26.2733L77.5592 25.1803C77.5592 25.1803 77.4985 25.1195 77.4985 25.079C77.4985 25.0386 77.4783 24.9981 77.4783 24.9576C77.4783 24.9171 77.4783 24.8766 77.4985 24.8361C77.5187 24.7957 77.539 24.7754 77.5592 24.7349C78.7928 23.5812 80.431 22.9334 82.1298 22.9334C83.8287 22.9334 85.4466 23.5812 86.7005 24.7349C86.7207 24.7552 86.7612 24.7957 86.7612 24.8361C86.7612 24.8766 86.7814 24.9171 86.7814 24.9576C86.7814 24.9981 86.7814 25.0386 86.7612 25.079C86.7612 25.1195 86.7207 25.1398 86.7005 25.1803L85.6286 26.2733C85.6286 26.2733 85.5679 26.3138 85.5275 26.334C85.487 26.334 85.4466 26.3543 85.4264 26.3543H85.4466ZM87.9341 23.8443C87.9341 23.8443 87.8533 23.8443 87.833 23.8241C87.7926 23.8241 87.7724 23.7836 87.7319 23.7633C86.2353 22.3262 84.2331 21.5367 82.1501 21.5367C80.067 21.5367 78.085 22.3262 76.5682 23.7633C76.548 23.7836 76.5075 23.8038 76.4671 23.8241C76.4266 23.8443 76.3862 23.8443 76.366 23.8443C76.3457 23.8443 76.2851 23.8443 76.2648 23.8241C76.2244 23.8241 76.2042 23.7836 76.1637 23.7633L75.0716 22.6703C75.0716 22.6703 75.0312 22.6096 75.0109 22.5691C75.0109 22.5286 74.9907 22.4881 74.9907 22.4476C74.9907 22.4071 74.9907 22.3667 75.0109 22.3262C75.0109 22.2857 75.0514 22.2654 75.0716 22.225C76.9727 20.4032 79.5007 19.3911 82.1298 19.3911C84.759 19.3911 87.287 20.4032 89.188 22.225C89.2083 22.2452 89.2285 22.2857 89.2487 22.3262C89.2487 22.3667 89.2689 22.4071 89.2689 22.4476C89.2689 22.4881 89.2689 22.5286 89.2487 22.5691C89.2487 22.6096 89.2083 22.6298 89.188 22.6703L88.0959 23.7633C88.0959 23.7633 87.9746 23.8443 87.8937 23.8443H87.9341Z" fill="black"/>
<path d="M44.9785 29.3097V28.0547C45.1201 28.1762 45.3021 28.2976 45.5043 28.3988C45.7066 28.5 45.929 28.581 46.1515 28.662C46.374 28.7227 46.5964 28.7834 46.8189 28.8239C47.0414 28.8644 47.2436 28.8846 47.4459 28.8846C48.1133 28.8846 48.5986 28.7632 48.9222 28.5203C49.2458 28.2774 49.4076 27.913 49.4076 27.4677C49.4076 27.2248 49.3469 27.0021 49.2458 26.82C49.1447 26.6378 48.9829 26.4758 48.8009 26.3139C48.6189 26.152 48.3762 26.0103 48.1133 25.8888C47.8503 25.7471 47.5672 25.6055 47.2638 25.4435C46.9403 25.2816 46.6571 25.1197 46.374 24.9577C46.0908 24.7958 45.8482 24.6136 45.6459 24.4112C45.4437 24.2088 45.2819 23.9861 45.1605 23.7432C45.0392 23.4801 44.9785 23.1967 44.9785 22.8526C44.9785 22.4275 45.0796 22.0834 45.2617 21.7595C45.4437 21.4559 45.6864 21.1927 45.9897 20.9903C46.2931 20.7879 46.6167 20.6462 47.0009 20.545C47.3852 20.4438 47.7694 20.4033 48.1739 20.4033C49.084 20.4033 49.7312 20.5045 50.1357 20.7272V21.9417C49.5896 21.5571 48.902 21.3749 48.0526 21.3749C47.8099 21.3749 47.5874 21.3952 47.3447 21.4559C47.102 21.4964 46.8998 21.5773 46.7178 21.6988C46.5358 21.8 46.3942 21.9619 46.2729 22.1239C46.1515 22.306 46.0908 22.5085 46.0908 22.7716C46.0908 23.0145 46.1313 23.2169 46.2122 23.3789C46.2931 23.5408 46.4347 23.7027 46.5964 23.8444C46.7582 23.9861 46.9807 24.1278 47.2234 24.2493C47.4661 24.3909 47.7492 24.5326 48.0728 24.6743C48.3964 24.8363 48.72 24.9982 49.0031 25.1804C49.3065 25.3626 49.5492 25.565 49.7716 25.7674C49.9941 25.99 50.1761 26.2329 50.2975 26.4961C50.439 26.7592 50.4997 27.0629 50.4997 27.407C50.4997 27.8523 50.4188 28.2369 50.2368 28.5608C50.0548 28.8644 49.8323 29.1275 49.5289 29.3299C49.2256 29.5324 48.8818 29.674 48.4975 29.755C48.1133 29.836 47.6885 29.8967 47.2638 29.8967C47.1223 29.8967 46.9403 29.8967 46.738 29.8562C46.5155 29.836 46.3133 29.7955 46.0908 29.755C45.8684 29.7145 45.6661 29.6538 45.4639 29.5931C45.2617 29.5324 45.1201 29.4514 44.9987 29.3704L44.9785 29.3097ZM58.7107 29.674H57.2141L53.6749 25.484C53.5333 25.3221 53.4524 25.2209 53.4322 25.1601H53.412V29.674H52.3401V20.5248H53.412V24.8363H53.4322C53.4322 24.8363 53.5738 24.6338 53.6749 24.5326L57.0928 20.545H58.4275L54.5041 24.9375L58.7107 29.6943V29.674ZM65.324 21.4964H62.6746V29.674H61.6027V21.4964H58.9736V20.5248H65.324V21.4964Z" fill="#222222"/>
<path d="M38.6077 29.3705H37.6774C37.4347 29.3705 37.192 29.2693 37.01 29.0871C36.828 28.905 36.7269 28.6823 36.7269 28.4192V20.3225C36.7269 20.0796 36.828 19.8367 37.01 19.6545C37.192 19.4723 37.4145 19.3711 37.6774 19.3711H38.6077C38.8504 19.3711 39.0931 19.4723 39.2751 19.6545C39.4571 19.8367 39.5583 20.0593 39.5583 20.3225V28.4192C39.5583 28.6621 39.4571 28.905 39.2751 29.0871C39.0931 29.2693 38.8706 29.3705 38.6077 29.3705ZM34.2595 29.3705H33.3292C33.0865 29.3705 32.8439 29.2693 32.6618 29.0871C32.4798 28.905 32.3787 28.6823 32.3787 28.4192V22.5086C32.3787 22.2657 32.4798 22.0228 32.6618 21.8406C32.8439 21.6584 33.0663 21.5572 33.3292 21.5572H34.2595C34.5022 21.5572 34.7449 21.6584 34.9269 21.8406C35.109 22.0228 35.2101 22.2454 35.2101 22.5086V28.4192C35.2101 28.6621 35.109 28.905 34.9472 29.0871C34.7651 29.2693 34.5427 29.3705 34.2798 29.3705H34.2595ZM29.8911 29.3705H28.9608C28.7181 29.3705 28.4754 29.2693 28.2934 29.0871C28.1114 28.905 28.0103 28.6823 28.0103 28.4192V24.6744C28.0103 24.4315 28.1114 24.1886 28.2934 24.0065C28.4754 23.8243 28.6979 23.7231 28.9608 23.7231H29.8911C30.1338 23.7231 30.3765 23.8243 30.5585 24.0065C30.7405 24.1886 30.8417 24.4113 30.8417 24.6744V28.4192C30.8417 28.6621 30.7405 28.905 30.5585 29.0871C30.3765 29.2693 30.154 29.3705 29.8911 29.3705ZM25.543 29.3705H24.6126C24.37 29.3705 24.1273 29.2693 23.9452 29.0871C23.7632 28.905 23.6621 28.6823 23.6621 28.4192V26.5569C23.6621 26.314 23.7632 26.0711 23.9452 25.8889C24.1273 25.7068 24.3497 25.6056 24.6126 25.6056H25.543C25.7856 25.6056 26.0283 25.7068 26.2103 25.8889C26.3924 26.0711 26.4935 26.2938 26.4935 26.5569V28.4192C26.4935 28.6621 26.3924 28.905 26.2103 29.0871C26.0283 29.2693 25.8059 29.3705 25.543 29.3705Z" fill="black"/>
<path d="M186.264 19.7964H170.711C169.599 19.7964 168.689 20.7073 168.689 21.8206V27.4275C168.689 28.5408 169.599 29.4517 170.711 29.4517H186.264C187.376 29.4517 188.286 28.5408 188.286 27.4275V21.8206C188.286 20.7073 187.376 19.7964 186.264 19.7964Z" stroke="black" stroke-width="0.4" stroke-miterlimit="10"/>
<path d="M189.702 22.7515V26.4962C190.066 26.3343 190.389 26.0914 190.612 25.7472C190.834 25.4234 190.956 25.0185 190.956 24.6339C190.956 24.2494 190.834 23.8445 190.612 23.5207C190.389 23.1968 190.086 22.9336 189.702 22.7717V22.7515Z" fill="black"/>
<path d="M185.657 21.1929H171.359C170.671 21.1929 170.125 21.7596 170.125 22.4276V26.7796C170.125 27.4678 170.691 28.0143 171.359 28.0143H185.657C186.345 28.0143 186.891 27.4476 186.891 26.7796V22.4276C186.891 21.7394 186.325 21.1929 185.657 21.1929Z" fill="black"/>
<path d="M24.6853 137.354V126.042H29.3103C31.8571 126.042 33.4196 127.635 33.4196 129.932C33.4196 132.276 31.8259 133.807 29.2321 133.807H27.3415V137.354H24.6853ZM27.3415 131.698H28.7478C29.9978 131.698 30.6696 130.995 30.6696 129.932C30.6696 128.87 29.9978 128.198 28.7478 128.198H27.3415V131.698ZM33.9803 134.995C33.9803 133.12 35.4334 132.448 37.1209 132.338C37.7303 132.299 38.7928 132.26 39.1521 132.245V131.557C39.1521 130.963 38.7146 130.635 37.9959 130.635C37.2928 130.635 36.8553 130.932 36.7459 131.495H34.2928C34.4021 129.995 35.6834 128.76 38.0584 128.76C40.1521 128.76 41.7928 129.76 41.7928 131.588V137.354H39.3084V136.167H39.2459C38.7771 137.026 37.9646 137.51 36.7771 137.51C35.1521 137.51 33.9803 136.682 33.9803 134.995ZM36.4803 134.885C36.4803 135.463 36.9334 135.76 37.574 135.76C38.4646 135.76 39.1834 135.182 39.1678 134.338V133.792C38.8474 133.807 37.949 133.846 37.5584 133.885C36.9021 133.963 36.4803 134.323 36.4803 134.885ZM48.2128 131.495C48.1346 130.932 47.6346 130.573 46.9315 130.573C46.2753 130.573 45.7596 130.87 45.7753 131.307C45.7596 131.635 46.0096 131.901 46.744 132.042L48.3534 132.354C50.0409 132.682 50.8534 133.417 50.869 134.651C50.8534 136.385 49.2596 137.51 46.9628 137.51C44.5409 137.51 43.119 136.432 42.9471 134.745H45.5721C45.6659 135.354 46.1971 135.682 46.9784 135.682C47.6971 135.682 48.1815 135.401 48.1971 134.932C48.1815 134.557 47.8534 134.323 47.119 134.167L45.6659 133.901C43.994 133.588 43.1503 132.745 43.1659 131.448C43.1503 129.76 44.5878 128.76 46.8846 128.76C49.1659 128.76 50.5565 129.807 50.6659 131.495H48.2128ZM56.9765 131.495C56.8984 130.932 56.3984 130.573 55.6953 130.573C55.039 130.573 54.5234 130.87 54.539 131.307C54.5234 131.635 54.7734 131.901 55.5078 132.042L57.1171 132.354C58.8046 132.682 59.6171 133.417 59.6328 134.651C59.6171 136.385 58.0234 137.51 55.7265 137.51C53.3046 137.51 51.8828 136.432 51.7109 134.745H54.3359C54.4296 135.354 54.9609 135.682 55.7421 135.682C56.4609 135.682 56.9453 135.401 56.9609 134.932C56.9453 134.557 56.6171 134.323 55.8828 134.167L54.4296 133.901C52.7578 133.588 51.914 132.745 51.9296 131.448C51.914 129.76 53.3515 128.76 55.6484 128.76C57.9296 128.76 59.3203 129.807 59.4296 131.495H56.9765ZM60.8496 137.354V126.042H63.4903V131.948H63.5996L66.0528 128.87H69.0528L66.0059 132.557L69.1778 137.354H66.1309L64.0528 134.104L63.4903 134.76V137.354H60.8496ZM73.5196 137.51C70.8634 137.51 69.2384 135.854 69.2384 133.151C69.2384 130.526 70.879 128.76 73.4259 128.76C75.8009 128.76 77.5196 130.276 77.5196 133.088V133.76H71.8321V133.807C71.8321 134.901 72.504 135.604 73.5665 135.604C74.2853 135.604 74.8165 135.292 75.0353 134.792H77.4884C77.1759 136.448 75.7228 137.51 73.5196 137.51ZM71.8321 132.213H75.0665C75.0509 131.307 74.3946 130.667 73.4884 130.667C72.5509 130.667 71.8712 131.331 71.8321 132.213ZM80.0959 140.542C79.5959 140.542 79.1271 140.526 78.7834 140.495V138.495C79.1271 138.526 79.5021 138.526 79.8146 138.526C80.2521 138.526 80.5803 138.479 80.8146 137.917L80.9084 137.651L77.8928 128.87H80.6428L82.2521 134.963H82.3459L83.9553 128.87H86.7365L83.5178 138.182C83.049 139.573 82.0803 140.542 80.0959 140.542Z" fill="#097EF4"/>
<path d="M91.1859 137.354V126.042H93.8109V130.323H93.8734C94.2015 129.557 94.9203 128.76 96.2796 128.76C98.0609 128.76 99.6703 130.135 99.6703 133.12C99.6703 135.995 98.1546 137.479 96.264 137.479C94.9671 137.479 94.2171 136.745 93.8734 135.979H93.7953V137.354H91.1859ZM93.764 133.104C93.764 134.51 94.3578 135.417 95.3734 135.417C96.389 135.417 96.9671 134.51 96.9671 133.104C96.9671 131.729 96.4046 130.823 95.3734 130.823C94.3421 130.823 93.764 131.698 93.764 133.104ZM102.231 140.542C101.731 140.542 101.262 140.526 100.918 140.495V138.495C101.262 138.526 101.637 138.526 101.95 138.526C102.387 138.526 102.715 138.479 102.95 137.917L103.043 137.651L100.028 128.87H102.778L104.387 134.963H104.481L106.09 128.87H108.872L105.653 138.182C105.184 139.573 104.215 140.542 102.231 140.542ZM119.43 129.401C119.368 128.573 118.758 128.088 117.665 128.088C116.587 128.088 116.04 128.557 116.024 129.198C116.008 129.901 116.696 130.245 117.712 130.463L118.696 130.698C120.868 131.182 122.133 132.26 122.149 134.073C122.133 136.213 120.477 137.51 117.665 137.51C114.852 137.51 113.024 136.229 112.977 133.635H115.54C115.602 134.729 116.415 135.292 117.633 135.292C118.758 135.292 119.43 134.792 119.446 134.073C119.43 133.417 118.852 133.073 117.602 132.792L116.415 132.51C114.462 132.057 113.274 131.088 113.274 129.385C113.258 127.292 115.118 125.885 117.68 125.885C120.29 125.885 121.962 127.307 121.993 129.401H119.43ZM123.444 137.354V126.042H126.1V130.87H126.257L130.053 126.042H133.21L129.163 131.088L133.272 137.354H130.085L127.225 132.87L126.1 134.26V137.354H123.444ZM142.409 128.87V130.807H140.862V134.698C140.862 135.229 141.128 135.385 141.581 135.401C141.8 135.417 142.221 135.385 142.518 135.37V137.385C142.268 137.417 141.831 137.479 141.206 137.479C139.346 137.479 138.221 136.713 138.237 134.995V130.807H137.096V128.87H138.237V126.838H140.862V128.87H142.409ZM147.548 137.51C144.892 137.51 143.267 135.854 143.267 133.151C143.267 130.526 144.907 128.76 147.454 128.76C149.829 128.76 151.548 130.276 151.548 133.088V133.76H145.86V133.807C145.86 134.901 146.532 135.604 147.595 135.604C148.313 135.604 148.845 135.292 149.063 134.792H151.517C151.204 136.448 149.751 137.51 147.548 137.51ZM145.86 132.213H149.095C149.079 131.307 148.423 130.667 147.517 130.667C146.579 130.667 145.899 131.331 145.86 132.213ZM155.468 126.042V137.354H152.827V126.042H155.468ZM161.028 137.51C158.372 137.51 156.747 135.854 156.747 133.151C156.747 130.526 158.388 128.76 160.935 128.76C163.31 128.76 165.028 130.276 165.028 133.088V133.76H159.341V133.807C159.341 134.901 160.013 135.604 161.075 135.604C161.794 135.604 162.325 135.292 162.544 134.792H164.997C164.685 136.448 163.232 137.51 161.028 137.51ZM159.341 132.213H162.575C162.56 131.307 161.903 130.667 160.997 130.667C160.06 130.667 159.38 131.331 159.341 132.213ZM170.245 137.51C167.573 137.51 165.98 135.729 165.98 133.135C165.98 130.542 167.589 128.76 170.245 128.76C172.573 128.76 174.089 130.104 174.152 132.167H171.698C171.573 131.307 171.073 130.76 170.277 130.76C169.308 130.76 168.667 131.588 168.667 133.104C168.667 134.635 169.292 135.463 170.277 135.463C171.027 135.463 171.589 134.979 171.698 134.073H174.152C174.073 136.135 172.605 137.51 170.245 137.51ZM179.368 137.51C176.712 137.51 175.103 135.745 175.103 133.135C175.103 130.526 176.712 128.76 179.368 128.76C182.025 128.76 183.634 130.526 183.634 133.135C183.634 135.745 182.025 137.51 179.368 137.51ZM179.384 135.526C180.384 135.526 180.947 134.542 180.947 133.12C180.947 131.698 180.384 130.713 179.384 130.713C178.353 130.713 177.79 131.698 177.79 133.12C177.79 134.542 178.353 135.526 179.384 135.526ZM184.913 137.354V128.87H187.413V130.417H187.507C187.867 129.385 188.742 128.76 189.913 128.76C191.085 128.76 191.992 129.401 192.21 130.417H192.304C192.632 129.417 193.617 128.76 194.867 128.76C196.46 128.76 197.57 129.838 197.57 131.635V137.354H194.929V132.229C194.929 131.37 194.429 130.901 193.726 130.901C192.96 130.901 192.507 131.448 192.507 132.26V137.354H189.976V132.198C189.976 131.401 189.492 130.901 188.788 130.901C188.054 130.901 187.554 131.463 187.554 132.323V137.354H184.913Z" fill="#121212"/>
<path d="M31.0708 150.885V161.327H30.145V150.885H31.0708ZM25.5278 151.694C27.0747 151.706 28.188 153.112 28.188 155.327C28.188 157.542 27.0747 158.948 25.5278 158.948C23.9692 158.948 22.8677 157.542 22.8677 155.327C22.8677 153.112 23.9692 151.706 25.5278 151.694ZM25.5278 152.514C24.4849 152.526 23.7583 153.627 23.7583 155.327C23.7583 157.026 24.4849 158.127 25.5278 158.127C26.5708 158.127 27.2974 157.026 27.2974 155.327C27.2974 153.627 26.5708 152.526 25.5278 152.514ZM41.7583 150.885V161.303H40.8794V150.885H41.7583ZM39.6489 151.143V160.764H38.7817V155.397H37.0239V154.647H38.7817V151.143H39.6489ZM35.9106 153.862C35.9106 155.667 36.7192 157.459 38.1606 158.292L37.5981 158.971C36.5728 158.356 35.8462 157.231 35.4888 155.901C35.1079 157.336 34.3521 158.561 33.3091 159.217L32.7231 158.526C34.1763 157.659 35.02 155.76 35.02 153.862V152.877H33.0161V152.116H37.8208V152.877H35.9106V153.862ZM52.7505 157.073V157.823H48.4028V161.303H47.5005V157.823H43.2114V157.073H52.7505ZM45.3442 151.319V152.76H50.5942V151.319H51.52V155.807H44.4302V151.319H45.3442ZM45.3442 155.057H50.5942V153.51H45.3442V155.057ZM62.231 150.885V161.327H61.3169V155.584H59.1138V154.823H61.3169V150.885H62.231ZM58.938 151.846V152.608H55.0005V154.776H58.481V155.526H55.0005V158.045C56.9165 158.045 58.1353 157.981 59.5708 157.729L59.6763 158.491C58.1646 158.737 56.8872 158.807 54.8716 158.807H54.0747V151.846H58.938ZM69.7661 151.694C71.3013 151.706 72.3911 153.112 72.4028 155.327C72.3911 157.542 71.3013 158.948 69.7661 158.948C68.2192 158.948 67.1411 157.542 67.1411 155.327C67.1411 153.112 68.2192 151.706 69.7661 151.694ZM69.7661 152.514C68.7349 152.526 68.0083 153.627 68.0083 155.327C68.0083 157.026 68.7349 158.127 69.7661 158.127C70.8091 158.127 71.5122 157.026 71.5122 155.327C71.5122 153.627 70.8091 152.526 69.7661 152.514ZM75.0396 150.885V155.045H76.7856V155.842H75.0396V161.303H74.1255V150.885H75.0396ZM85.938 150.885V161.327H85.0122V150.885H85.938ZM80.395 151.694C81.9419 151.706 83.0552 153.112 83.0552 155.327C83.0552 157.542 81.9419 158.948 80.395 158.948C78.8364 158.948 77.7349 157.542 77.7349 155.327C77.7349 153.112 78.8364 151.706 80.395 151.694ZM80.395 152.514C79.3521 152.526 78.6255 153.627 78.6255 155.327C78.6255 157.026 79.3521 158.127 80.395 158.127C81.438 158.127 82.1646 157.026 82.1646 155.327C82.1646 153.627 81.438 152.526 80.395 152.514ZM96.3091 150.885V161.327H95.3833V150.885H96.3091ZM93.356 151.881V152.655H89.3247V157.94C91.3521 157.94 92.688 157.875 94.2466 157.6L94.3403 158.374C92.7231 158.667 91.3521 158.725 89.2427 158.737H88.3989V151.881H93.356ZM101.231 151.565C102.836 151.577 103.997 152.561 104.008 154.014C103.997 155.321 103.059 156.252 101.7 156.417V158.198C102.672 158.151 103.651 158.081 104.559 157.963L104.618 158.655C102.415 159.03 99.9419 159.053 98.1138 159.042L97.9614 158.268C98.7993 158.262 99.772 158.256 100.774 158.221V156.417C99.3911 156.258 98.4419 155.327 98.4536 154.014C98.4419 152.561 99.6021 151.577 101.231 151.565ZM101.231 152.362C100.141 152.362 99.3442 153.042 99.356 154.014C99.3442 154.987 100.141 155.667 101.231 155.667C102.309 155.667 103.094 154.987 103.106 154.014C103.094 153.042 102.309 152.362 101.231 152.362ZM106.141 150.885V155.186H107.84V155.983H106.141V161.303H105.227V150.885H106.141ZM120.063 150.885V161.327H119.137V150.885H120.063ZM112.997 151.776V154.53H116.102V151.776H117.004V158.807H112.083V151.776H112.997ZM112.997 158.034H116.102V155.268H112.997V158.034ZM127.282 151.471V155.713H122.395V151.471H127.282ZM123.297 152.221V154.987H126.379V152.221H123.297ZM130.434 150.885V156.264H129.532V150.885H130.434ZM130.434 156.78V159.264H124.598V160.436H130.809V161.186H123.684V158.584H129.532V157.518H123.672V156.78H130.434ZM140.852 150.897V158.608H139.926V154.6H137.465V156.827H132.743V151.588H133.657V153.44H136.563V151.588H137.465V153.827H139.926V150.897H140.852ZM141.086 160.307V161.081H134.114V157.846H135.04V160.307H141.086ZM133.657 156.065H136.563V154.167H133.657V156.065ZM151.586 152.432V153.194H143.055V152.432H146.875V151.061H147.778V152.432H151.586ZM152.125 159.323V160.084H142.586V159.323H146.875V157.858C145.024 157.758 143.899 157.038 143.911 155.866C143.899 154.624 145.211 153.897 147.333 153.909C149.43 153.897 150.754 154.624 150.754 155.866C150.754 157.038 149.618 157.758 147.778 157.858V159.323H152.125ZM147.333 154.635C145.774 154.635 144.825 155.092 144.836 155.866C144.825 156.663 145.774 157.108 147.333 157.12C148.868 157.108 149.817 156.663 149.817 155.866C149.817 155.092 148.868 154.635 147.333 154.635ZM164.571 150.885V156.475H163.657V150.885H164.571ZM158.735 157.002V158.268H163.657V157.002H164.571V161.163H157.821V157.002H158.735ZM158.735 160.413H163.657V159.006H158.735V160.413ZM158.946 151.401C160.528 151.389 161.676 152.362 161.676 153.792C161.676 155.209 160.528 156.182 158.946 156.182C157.364 156.182 156.215 155.209 156.215 153.792C156.215 152.362 157.364 151.389 158.946 151.401ZM158.946 152.174C157.879 152.163 157.106 152.842 157.118 153.792C157.106 154.741 157.879 155.42 158.946 155.42C160 155.42 160.774 154.741 160.774 153.792C160.774 152.842 160 152.163 158.946 152.174ZM171.286 151.53V154.448H167.7V156.065C169.657 156.065 170.665 156.036 171.895 155.807L171.989 156.569C170.688 156.78 169.633 156.815 167.524 156.815H166.786V153.745H170.372V152.268H166.762V151.53H171.286ZM174.977 150.897V157.295H174.051V155.362H171.977V154.6H174.051V153.194H171.977V152.444H174.051V150.897H174.977ZM174.977 157.858V161.327H174.051V158.608H167.958V157.858H174.977ZM178.786 157.002V158.303H180.684V157.002H181.54V161.163H177.918V157.002H178.786ZM178.786 160.436H180.684V159.006H178.786V160.436ZM184.516 157.823C184.504 158.924 185.161 160.073 186.438 160.542L185.958 161.245C184.997 160.858 184.364 160.125 184.047 159.252C183.713 160.108 183.081 160.846 182.161 161.245L181.68 160.542C182.934 160.026 183.602 158.877 183.602 157.823V156.932H184.516V157.823ZM179.583 151.354C180.977 151.354 182.043 152.145 182.243 153.346H184.422V150.885H185.348V156.405H184.422V154.108H182.254C182.067 155.338 180.995 156.147 179.583 156.147C178 156.147 176.875 155.174 176.875 153.745C176.875 152.327 178 151.354 179.583 151.354ZM179.583 152.127C178.516 152.127 177.754 152.795 177.754 153.745C177.754 154.706 178.516 155.385 179.583 155.385C180.637 155.385 181.387 154.706 181.387 153.745C181.387 152.795 180.637 152.127 179.583 152.127ZM195.672 150.885V161.327H194.747V150.885H195.672ZM190.129 151.694C191.676 151.706 192.79 153.112 192.79 155.327C192.79 157.542 191.676 158.948 190.129 158.948C188.571 158.948 187.469 157.542 187.469 155.327C187.469 153.112 188.571 151.706 190.129 151.694ZM190.129 152.514C189.086 152.526 188.36 153.627 188.36 155.327C188.36 157.026 189.086 158.127 190.129 158.127C191.172 158.127 191.899 157.026 191.899 155.327C191.899 153.627 191.172 152.526 190.129 152.514ZM47.7231 168.885V172.061H49.2935V172.834H47.7231V176.514H46.7974V168.885H47.7231ZM44.9106 169.694C44.9106 172.377 42.9888 174.37 39.9888 175.307L39.5903 174.569C42.0864 173.79 43.7153 172.301 43.9146 170.467H40.0239V169.694H44.9106ZM48.2036 178.307V179.081H41.1958V175.741H42.1099V178.307H48.2036ZM58.5864 168.885V176.643H57.6606V173.62H55.8794V172.846H57.6606V171.639H55.8794V170.877H57.6606V168.885H58.5864ZM55.7974 169.741V170.491H54.731V174.135C55.2173 174.106 55.686 174.071 56.1372 174.018L56.1841 174.709C54.1567 175.026 51.7778 175.061 50.0903 175.061L49.9731 174.276L51.3208 174.264V170.491H50.2661V169.741H55.7974ZM58.8677 178.307V179.081H51.8716V175.999H52.7974V178.307H58.8677ZM52.2114 174.241C52.7446 174.235 53.2954 174.217 53.8403 174.194V170.491H52.2114V174.241ZM68.3833 168.885V173.186H70.1294V173.948H68.3833V179.303H67.4692V168.885H68.3833ZM66.4614 170.561V171.323H60.2622V170.561H62.9458V169.014H63.8599V170.561H66.4614ZM63.4146 172.19C64.8911 172.19 65.9575 173.174 65.9692 174.581C65.9575 175.987 64.8911 176.971 63.4146 176.971C61.9263 176.971 60.8481 175.987 60.8599 174.581C60.8481 173.174 61.9263 172.19 63.4146 172.19ZM63.4146 172.963C62.4419 172.963 61.7271 173.643 61.7388 174.581C61.7271 175.53 62.4419 176.198 63.4146 176.186C64.3755 176.198 65.0786 175.53 65.0903 174.581C65.0786 173.643 64.3755 172.963 63.4146 172.963ZM79.6099 168.885V179.303H78.731V168.885H79.6099ZM77.4185 169.167V178.776H76.5396V173.913H74.3364C73.6978 175.125 72.6958 176.198 71.2427 177.053L70.7036 176.385C72.9712 175.043 74.1079 173.163 74.2778 170.983H71.1489V170.221H75.1919C75.186 171.247 75.022 172.237 74.6763 173.163H76.5396V169.167H77.4185ZM93.6138 177.241V178.014H84.0747V177.241H88.3638V175.272H85.27V172.061H91.5044V170.42H85.2466V169.659H92.4067V172.811H86.1841V174.51H92.6528V175.272H89.2661V177.241H93.6138ZM102.661 169.999V171.042C102.661 172.354 102.661 173.842 102.274 176.104L101.336 176.01C101.758 173.877 101.758 172.319 101.758 171.042V170.76H95.4771V169.999H102.661ZM103.938 177.006V177.768H94.4458V177.006H103.938ZM113.418 168.897V176.514H112.504V168.897H113.418ZM113.747 178.307V179.081H106.692V175.741H107.606V178.307H113.747ZM107.793 169.624C109.352 169.624 110.524 170.678 110.524 172.178C110.524 173.702 109.352 174.745 107.793 174.745C106.235 174.745 105.063 173.702 105.063 172.178C105.063 170.678 106.235 169.624 107.793 169.624ZM107.793 170.432C106.739 170.432 105.954 171.159 105.965 172.178C105.954 173.221 106.739 173.936 107.793 173.936C108.825 173.936 109.622 173.221 109.622 172.178C109.622 171.159 108.825 170.432 107.793 170.432ZM123.778 168.885V179.327H122.852V168.885H123.778ZM118.235 169.694C119.782 169.706 120.895 171.112 120.895 173.327C120.895 175.542 119.782 176.948 118.235 176.948C116.676 176.948 115.575 175.542 115.575 173.327C115.575 171.112 116.676 169.706 118.235 169.694ZM118.235 170.514C117.192 170.526 116.465 171.627 116.465 173.327C116.465 175.026 117.192 176.127 118.235 176.127C119.278 176.127 120.004 175.026 120.004 173.327C120.004 171.627 119.278 170.526 118.235 170.514ZM136.633 168.885V173.127H138.321V173.901H136.633V179.303H135.719V168.885H136.633ZM133.938 170.01C133.938 172.963 132.555 175.647 129.157 177.323L128.641 176.596C131.336 175.254 132.801 173.25 133.012 170.784H129.122V170.01H133.938ZM147.356 171.803V172.565H140.243V169.096H141.157V171.803H147.356ZM148.446 173.784V174.545H138.942V173.784H148.446ZM143.688 175.483C145.926 175.483 147.262 176.163 147.274 177.37C147.262 178.577 145.926 179.256 143.688 179.256C141.438 179.256 140.09 178.577 140.09 177.37C140.09 176.163 141.438 175.483 143.688 175.483ZM143.688 176.209C142.012 176.221 141.016 176.631 141.028 177.37C141.016 178.096 142.012 178.542 143.688 178.542C145.34 178.542 146.348 178.096 146.348 177.37C146.348 176.631 145.34 176.221 143.688 176.209ZM157.458 168.885V171.557H159.028V172.342H157.458V174.944H156.543V168.885H157.458ZM151.786 175.401V176.514H156.543V175.401H157.458V179.163H150.872V175.401H151.786ZM151.786 178.424H156.543V177.241H151.786V178.424ZM155.547 169.963V170.725H149.336V169.963H151.985V168.792H152.899V169.963H155.547ZM152.442 171.206C153.942 171.206 154.938 171.92 154.95 173.034C154.938 174.147 153.942 174.862 152.442 174.862C150.93 174.862 149.922 174.147 149.934 173.034C149.922 171.92 150.93 171.206 152.442 171.206ZM152.442 171.92C151.458 171.909 150.801 172.366 150.813 173.034C150.801 173.713 151.458 174.159 152.442 174.159C153.415 174.159 154.071 173.713 154.083 173.034C154.071 172.366 153.415 171.909 152.442 171.92ZM168.274 168.885V179.303H167.36V168.885H168.274ZM161.266 169.917V175.823C162.854 175.817 164.5 175.688 166.247 175.319L166.375 176.104C164.524 176.491 162.872 176.62 161.208 176.62H160.364V169.917H161.266ZM178.118 168.885V173.01H179.864V173.784H178.118V179.327H177.204V168.885H178.118ZM175.375 169.905V170.667H171.426V175.94C173.313 175.94 174.649 175.852 176.196 175.565L176.313 176.362C174.684 176.655 173.313 176.713 171.333 176.713H170.512V169.905H175.375ZM181.528 178.424C181.118 178.424 180.766 178.084 180.778 177.663C180.766 177.252 181.118 176.913 181.528 176.913C181.938 176.913 182.278 177.252 182.278 177.663C182.278 178.084 181.938 178.424 181.528 178.424Z" fill="#939090"/>
<path d="M111.104 253.661C124.167 253.661 134.757 243.071 134.757 230.007C134.757 216.944 124.167 206.354 111.104 206.354C98.0406 206.354 87.4507 216.944 87.4507 230.007C87.4507 243.071 98.0406 253.661 111.104 253.661Z" fill="#097EF4"/>
<path d="M99.1851 228.21L108.568 237.235L123.023 222.779" stroke="white" stroke-width="3" stroke-miterlimit="10"/>
<path d="M5.1582 377.872V389.773C5.1582 407.333 19.3833 421.563 36.9362 421.563H185.463C203.016 421.563 217.241 407.333 217.241 389.773V377.872H5.1582Z" fill="white"/>
<path d="M110.631 405.471C114.745 405.471 118.08 402.135 118.08 398.02C118.08 393.905 114.745 390.568 110.631 390.568C106.517 390.568 103.182 393.905 103.182 398.02C103.182 402.135 106.517 405.471 110.631 405.471Z" stroke="#DCE1E5" stroke-width="2" stroke-miterlimit="10"/>
<path d="M182.273 391.033H168.324V404.988H182.273V391.033Z" stroke="#DCE1E5" stroke-width="2" stroke-miterlimit="10"/>
<path d="M40.126 398.02L51.7819 406.265V389.757L40.126 398.02Z" stroke="#DCE1E5" stroke-width="2" stroke-miterlimit="10"/>
</svg>
