<svg width="36" height="26" viewBox="0 0 36 26" fill="none" xmlns="http://www.w3.org/2000/svg">
<path d="M3 23.4365V25.4365H32.0918V23.4365H3ZM2 22.4365V3C2 2.48207 2.39396 2.05588 2.89844 2.00488L3 2H32.0918C32.6441 2 33.0918 2.44772 33.0918 3V22.4365C33.0917 22.9888 32.644 23.4365 32.0918 23.4365V25.4365L32.2461 25.4326C33.7801 25.3549 35.0101 24.1248 35.0879 22.5908L35.0918 22.4365V3C35.0918 1.39489 33.8312 0.0842144 32.2461 0.00390625L32.0918 0H3L2.8457 0.00390625C1.26067 0.084336 0 1.39498 0 3V22.4365L0.00390625 22.5908C0.0816727 24.1247 1.31181 25.3548 2.8457 25.4326L3 25.4365V23.4365C2.44787 23.4364 2.00006 22.9887 2 22.4365Z" fill="white"/>
<path d="M34.7295 2.29395L17.543 15.1279L0.0927734 2.69434L1.25293 1.06543L17.5146 12.6523L33.5332 0.692383L34.7295 2.29395Z" fill="white"/>
<path d="M34.7864 21.8008L33.5082 23.3391L20.2345 12.31L21.5127 10.7717L34.7864 21.8008Z" fill="white"/>
<path d="M13.6617 10.622L14.9841 12.1225L1.86139 23.687L0.539062 22.1865L13.6617 10.622Z" fill="white"/>
</svg>
