<?xml version="1.0" encoding="UTF-8"?>
<svg id="_레이어_1" xmlns="http://www.w3.org/2000/svg" version="1.1" viewBox="0 0 1320 760">
  <!-- Generator: Adobe Illustrator 29.8.6, SVG Export Plug-In . SVG Version: 2.1.1 Build 1)  -->
  <defs>
    <style>
      .st0, .st1, .st2, .st3, .st4, .st5, .st6, .st7, .st8, .st9, .st10, .st11 {
        stroke-miterlimit: 10;
      }

      .st0, .st2, .st3, .st4, .st12, .st5, .st6, .st7, .st8, .st9, .st10, .st11 {
        stroke: #9cc5ff;
      }

      .st0, .st13, .st12, .st5, .st8, .st10 {
        fill: #fff;
      }

      .st0, .st9 {
        stroke-width: 2.2px;
      }

      .st14 {
        fill: #121212;
      }

      .st1, .st2, .st3, .st15, .st4, .st6, .st7, .st9, .st11 {
        fill: none;
      }

      .st1, .st15 {
        stroke: #0065fa;
        stroke-width: 2.5px;
      }

      .st1, .st15, .st12 {
        stroke-linecap: round;
      }

      .st2 {
        stroke-width: 2.1px;
      }

      .st16 {
        fill: #0065fa;
      }

      .st3 {
        stroke-width: 1.1px;
      }

      .st17 {
        fill: #cc5b63;
      }

      .st15, .st12 {
        stroke-linejoin: round;
      }

      .st4 {
        stroke-width: 3.6px;
      }

      .st12 {
        stroke-width: 2.8px;
      }

      .st18 {
        fill: #9cc1e7;
      }

      .st19 {
        fill: #fb6c76;
      }

      .st5 {
        stroke-width: 1.4px;
      }

      .st6, .st8 {
        stroke-width: 1.7px;
      }

      .st7 {
        stroke-width: 1.8px;
      }

      .st20 {
        fill: #dcebff;
      }

      .st21 {
        fill: #95b5d9;
      }

      .st10 {
        stroke-width: 1.4px;
      }

      .st11 {
        stroke-width: 2.2px;
      }

      .st22 {
        fill: #9cc5ff;
      }
    </style>
  </defs>
  <polyline class="st3" points="192.6 265 160.2 265 160.2 501 192.6 501"/>
  <g>
    <circle class="st16" cx="76.7" cy="355.9" r="20.7"/>
    <path class="st22" d="M77,380.5c-20.7,0-38,14.5-42.3,33.9h84.7c-4.3-19.4-21.6-33.9-42.3-33.9Z"/>
  </g>
  <g>
    <circle class="st20" cx="246.6" cy="270.7" r="56.8"/>
    <g>
      <g>
        <path class="st13" d="M218.7,248.5h55.9c.9,0,1.5.7,1.5,1.5v38.3h-59v-38.3c0-.9.7-1.5,1.5-1.5Z"/>
        <path class="st11" d="M273.7,247.5h-54.1c-2.1,0-3.7,1.7-3.7,3.7v38.4h61.5v-38.4c0-2.1-1.7-3.7-3.7-3.7Z"/>
      </g>
      <g>
        <path class="st13" d="M279.2,292.9h-65.1c-.5,0-1-.3-1.2-.8l-2.6-4.9c-.5-.9.2-2.1,1.2-2.1h30.1l1.1,2h7.8s.9-2,.9-2h30.4c1.1,0,1.8,1.1,1.3,2.1l-2.6,4.9c-.2.5-.7.8-1.3.8Z"/>
        <path class="st22" d="M279.2,293.9h-65.1c-.9,0-1.8-.5-2.2-1.3l-2.6-5c-.4-.8-.4-1.7,0-2.4.5-.8,1.3-1.2,2.1-1.2h30.8l1.1,2h6.4s.9-2,.9-2h31c.9,0,1.7.5,2.1,1.2.5.8.5,1.7,0,2.5l-2.6,4.9c-.4.8-1.3,1.3-2.2,1.3ZM211.5,286.2c-.2,0-.2,0-.3.2s0,.2,0,.3l2.6,5c0,.1.2.2.3.2h65.1c.1,0,.3,0,.3-.2l2.6-4.9c0-.2,0-.3,0-.3,0,0-.1-.2-.3-.2h-29.7l-.9,2h-9.1s-1.1-2-1.1-2h-29.5Z"/>
      </g>
    </g>
  </g>
  <g>
    <path class="st14" d="M380.1,254.2h-1.2v-5.9h-3.4v-1h3.4v-3.2h-3.1c-.8,2.9-2.7,5.5-5.9,7.4l-.7-.9c3.7-2.2,5.7-5.5,6-9.1h-5.3v-1h6.5c0,.9,0,1.7-.2,2.6h2.8v-4.3h1.2v15.4ZM383.5,255.1h-1.2v-16.8h1.2v16.8Z"/>
    <path class="st14" d="M395.1,243.3c0,2.3-1.8,3.9-4.3,3.9s-4.4-1.6-4.4-3.9,1.8-3.9,4.4-3.9,4.3,1.6,4.3,3.9ZM387.6,243.3c0,1.7,1.3,2.9,3.2,2.9s3.2-1.2,3.2-2.9c0-1.7-1.4-2.9-3.2-2.9s-3.2,1.2-3.2,2.9ZM399.1,255.1h-1.2v-5h-9.7v-1h10.9v6ZM401.7,242h-2.6v2.6h2.6v1h-2.6v2.7h-1.2v-10h1.2v2.7h2.6v1Z"/>
    <path class="st14" d="M413.2,250.2l-.7,1c-1.9-1-3.6-3.1-4.4-5.6-.7,2.6-2.5,4.9-4.3,5.9l-.8-1c2.3-1.2,4.5-4.4,4.5-7.5v-3.2h1.2v3.2c0,3,2.2,6.1,4.5,7.2ZM416.7,255.1h-1.2v-10h-4.2v-1h4.2v-5.9h1.2v16.8Z"/>
    <path class="st14" d="M439.9,252.9h-15.4v-1h7.1v-4.2h1.2v4.2h7.1v1ZM439.1,247.2l-.5,1c-2.4-.5-5.4-2.2-6.4-4.6-1.1,2.4-4,4.2-6.4,4.7l-.5-1c2.6-.5,6.3-2.8,6.3-5.6v-.7h-5.8v-1h12.8v1h-5.8v.7c0,2.8,3.7,5.1,6.3,5.6Z"/>
    <path class="st14" d="M446.4,250.6v-2c-2.1-.2-3.4-1.3-3.4-3.1,0-1.9,1.6-3.1,4-3.1s4,1.2,4,3.1-1.3,2.9-3.4,3.1v1.9c1.7,0,3.4-.2,5-.4v.9c-3.7.6-7.9.6-11,.6l-.2-1c1.5,0,3.2,0,5,0ZM452.2,241.4h-10.4v-1h4.6v-2.2h1.2v2.2h4.6v1ZM444.1,245.6c0,1.3,1.2,2.1,2.9,2.1,1.7,0,2.9-.8,2.9-2.1s-1.2-2.2-2.9-2.2-2.9.9-2.9,2.2ZM455,255.1h-1.2v-16.8h1.2v16.8Z"/>
  </g>
  <g>
    <path class="st14" d="M67.9,431.3c0,1.4,0,3.2-.5,5.5h2.5v1h-15.4v-1h11.7c.5-2.4.5-4.1.5-5.5v-.2h-10.1v-1h11.3v1.3ZM68.4,445.5h-11.8v-5.5h1.2v4.5h10.6v1Z"/>
    <path class="st14" d="M86.8,443.7h-15.4v-1h7.1v-3.4h-5.1v-5h10.2v-2.9h-10.3v-1h11.5v4.9h-10.2v3h10.6v1h-5.6v3.4h7.2v1Z"/>
    <path class="st14" d="M98.3,441.2l-.7,1c-1.9-.9-3.6-3-4.3-5.3-.8,2.5-2.6,4.8-4.4,5.8l-.7-1c2.3-1.1,4.6-4.3,4.6-7.2v-2.6h-4v-1h9.1v1h-3.9v2.6c0,2.7,2.1,5.7,4.5,6.8ZM101.3,436h2.9v1h-2.9v8.9h-1.2v-16.8h1.2v6.9Z"/>
  </g>
  <g>
    <path class="st14" d="M1216.4,440.9l-.7,1c-1.9-1-3.6-3.1-4.4-5.6-.7,2.6-2.5,4.9-4.3,5.9l-.8-1c2.3-1.2,4.5-4.4,4.5-7.5v-3.2h1.2v3.2c0,3,2.2,6.1,4.5,7.2ZM1220,445.9h-1.2v-10h-4.2v-1h4.2v-5.9h1.2v16.8Z"/>
    <path class="st14" d="M1238.3,437.3h-7.1v1.7h5.1v3.6h-10.2v2h10.7v1h-11.9v-3.9h10.2v-1.7h-10.3v-1h5.2v-1.7h-7.1v-1h15.3v1ZM1236.5,432.2c0,1.9-2.2,2.9-5.9,2.9s-5.9-1-5.9-2.9,2.2-2.9,5.9-2.9,5.9,1,5.9,2.9ZM1226,432.2c0,1.3,1.8,2,4.7,2s4.7-.7,4.7-2-1.8-2-4.7-2-4.7.7-4.7,2Z"/>
    <path class="st14" d="M1250.3,441l-.7,1c-1.9-1-3.7-3-4.5-5.5-.8,2.6-2.6,4.8-4.5,5.8l-.8-1c2.4-1.1,4.7-4.3,4.7-7.5v-3.2h1.2v3.2c0,3.1,2.3,6.1,4.7,7.2ZM1253.7,445.9h-1.2v-16.8h1.2v16.8Z"/>
  </g>
  <g>
    <path class="st14" d="M374,476.7c0,1.4,0,3.2-.5,5.6h2.5v1h-15.4v-1h11.7c.5-2.4.5-4.1.5-5.6v-.2h-10.1v-1h11.3v1.3ZM374.5,490.8h-11.8v-5.5h1.2v4.5h10.6v1Z"/>
    <path class="st14" d="M393,489h-15.4v-1h7.1v-3.4h-5.1v-5h10.2v-2.9h-10.3v-1h11.5v4.9h-10.2v3h10.6v1h-5.6v3.4h7.2v1Z"/>
    <path class="st14" d="M403.6,481.5c0,3.5-1.8,5.8-4.3,5.8s-4.3-2.3-4.3-5.8,1.8-5.8,4.3-5.8,4.3,2.3,4.3,5.8ZM396.3,481.5c0,2.8,1.3,4.8,3.1,4.8s3.1-1.9,3.1-4.8-1.3-4.7-3.1-4.7-3.1,1.9-3.1,4.7ZM408.3,491.2h-1.2v-16.8h1.2v16.8Z"/>
    <path class="st14" d="M419.3,480h-6v2.9c3.4,0,5.1,0,7.1-.4v1c-2,.3-3.7.4-7.2.4h-1.2v-4.8h6v-2.6h-6v-1h7.2v4.6ZM425.2,491.2h-1.2v-4.6h-10.1v-1h11.3v5.6ZM425.2,484.7h-1.2v-3.3h-3.5v-1h3.5v-2.4h-3.5v-1h3.5v-2.6h1.2v10.3Z"/>
    <path class="st14" d="M443.1,483l-.6,1c-1.9-.8-3.6-2.4-4.3-4.5-.7,2.2-2.3,3.9-4.3,4.8l-.7-1c2.4-1,4.3-3.5,4.3-6.3v-1.7h1.2v1.7c0,2.7,1.9,5,4.3,5.9ZM447.3,490.8h-11.3v-5.2h1.2v4.2h10.1v1ZM446.7,486.7h-1.2v-12.4h1.2v12.4Z"/>
    <path class="st14" d="M459.8,482.8l-.6,1c-1.9-.6-3.6-2-4.3-3.7-.7,1.9-2.3,3.5-4.3,4.2l-.6-.9c2.4-.8,4.3-2.9,4.3-5.3v-.5h-3.9v-1h3.9v-2.2h1.2v2.2h3.9v1h-3.9v.5c0,2.2,2,4.1,4.4,4.9ZM463.7,488.1c0,1.9-2.1,3-5.6,3s-5.6-1.1-5.6-3c0-1.9,2.1-3,5.6-3s5.6,1.1,5.6,3ZM453.7,488.1c0,1.3,1.7,2.1,4.4,2.1s4.4-.8,4.4-2.1-1.7-2.1-4.4-2.1c-2.7,0-4.4.8-4.4,2.1ZM463.7,484.6h-1.2v-4.3h-3.7v-1h3.7v-4.9h1.2v10.2Z"/>
  </g>
  <g>
    <path class="st14" d="M374,521.3c0,1.4,0,3.2-.5,5.6h2.5v1h-15.4v-1h11.7c.5-2.4.5-4.1.5-5.6v-.2h-10.1v-1h11.3v1.3ZM374.5,535.4h-11.8v-5.5h1.2v4.5h10.6v1Z"/>
    <path class="st14" d="M393,533.7h-15.4v-1h7.1v-3.4h-5.1v-5h10.2v-2.9h-10.3v-1h11.5v4.9h-10.2v3h10.6v1h-5.6v3.4h7.2v1Z"/>
    <path class="st14" d="M403.6,526.2c0,3.5-1.8,5.8-4.3,5.8s-4.3-2.3-4.3-5.8,1.8-5.8,4.3-5.8,4.3,2.3,4.3,5.8ZM396.3,526.2c0,2.8,1.3,4.8,3.1,4.8s3.1-1.9,3.1-4.8-1.3-4.7-3.1-4.7-3.1,1.9-3.1,4.7ZM408.3,535.8h-1.2v-16.8h1.2v16.8Z"/>
    <path class="st14" d="M419.3,524.6h-6v2.9c3.4,0,5.1,0,7.1-.4v1c-2,.3-3.7.4-7.2.4h-1.2v-4.8h6v-2.6h-6v-1h7.2v4.6ZM425.2,535.9h-1.2v-4.6h-10.1v-1h11.3v5.6ZM425.2,529.3h-1.2v-3.3h-3.5v-1h3.5v-2.4h-3.5v-1h3.5v-2.6h1.2v10.3Z"/>
    <path class="st14" d="M441.5,531.1l-.7.9c-1.7-1-3-2.9-3.5-5.2-.6,2.4-1.9,4.5-3.6,5.6l-.8-.9c2.3-1.4,3.8-4.5,3.8-7.6v-1.8h-3.4v-1h7.8v1h-3.2v1.8c0,3,1.4,5.9,3.7,7.2ZM443.8,534.9h-1.1v-8.8h-3v-1h3v-5.7h1.1v15.5ZM447.2,535.8h-1.2v-16.8h1.2v16.8Z"/>
    <path class="st14" d="M465.1,527.6h-7.1v1.7h5.1v3.5h-10.2v1.8h10.7v1h-11.9v-3.7h10.2v-1.7h-10.3v-.9h5.2v-1.7h-7.1v-1h15.3v1ZM458.1,520.5h5.5v1h-5.4c.2,1.9,3.2,3.1,6.1,3.3l-.4,1c-2.7-.3-5.4-1.2-6.4-2.9-1,1.7-3.7,2.6-6.4,2.9l-.4-1c2.9-.2,5.9-1.3,6.1-3.3h-5.4v-1h5.5v-1.7h1.2v1.7Z"/>
  </g>
  <g>
    <path class="st14" d="M387.5,291.9l-.6,1c-1.9-.7-3.5-2.2-4.2-4-.7,2-2.4,3.6-4.4,4.4l-.6-1c2.4-.9,4.4-3.1,4.4-5.6v-1h-3.9v-1h9v1h-3.9v1c0,2.2,1.8,4.4,4.2,5.2ZM391.9,299.6h-11.2v-5.2h1.2v4.2h10v1ZM391.4,295.5h-1.2v-6.6h-3.7v-1h3.7v-4.7h1.2v12.4Z"/>
    <path class="st14" d="M404.4,295.4l-.7,1c-1.9-.9-3.6-3-4.3-5.3-.8,2.5-2.6,4.8-4.4,5.8l-.7-1c2.3-1.1,4.6-4.3,4.6-7.2v-2.6h-4v-1h9.1v1h-3.9v2.6c0,2.7,2.1,5.7,4.5,6.8ZM407.4,290.1h2.9v1h-2.9v8.9h-1.2v-16.8h1.2v6.9Z"/>
    <path class="st14" d="M426.3,295.1l-.7,1c-1.9-1-3.6-3.1-4.4-5.6-.7,2.6-2.5,4.9-4.3,5.9l-.8-1c2.3-1.2,4.5-4.4,4.5-7.5v-3.2h1.2v3.2c0,3,2.2,6.1,4.5,7.2ZM429.9,300h-1.2v-10h-4.2v-1h4.2v-5.9h1.2v16.8Z"/>
    <path class="st14" d="M446.8,293.2h-1.2v-2.8h-4.2v1.5h-7.6v-7.4h7.6v1.5h4.2v-2.8h1.2v10ZM434.9,290.9h5.3v-5.4h-5.3v5.4ZM446.8,296.8c0,2-2.1,3.1-5.6,3.1s-5.6-1.1-5.6-3.1c0-2,2.1-3.1,5.6-3.2,3.5,0,5.6,1.2,5.6,3.2ZM436.9,296.8c0,1.3,1.7,2.1,4.4,2.1s4.4-.8,4.4-2.1-1.7-2.2-4.4-2.2c-2.7,0-4.4.8-4.4,2.2ZM445.6,289.3v-2.3h-4.2v2.3h4.2Z"/>
  </g>
  <g>
    <line class="st3" x1="324.4" y1="268" x2="501.2" y2="268"/>
    <polyline class="st3" points="495.6 261.9 501.4 268.4 496.2 274.6"/>
  </g>
  <g>
    <line class="st3" x1="324.4" y1="503.3" x2="501.2" y2="503.3"/>
    <polyline class="st3" points="495.6 497.3 501.4 503.7 496.2 509.9"/>
  </g>
  <g>
    <circle class="st20" cx="247.1" cy="489.3" r="56.8"/>
    <g>
      <rect class="st0" x="226.4" y="461.3" width="41.5" height="55.9" rx="2.6" ry="2.6"/>
      <line class="st2" x1="226.5" y1="469.6" x2="267.8" y2="469.6"/>
      <line class="st9" x1="229.9" y1="507.3" x2="264.4" y2="507.3"/>
      <line class="st9" x1="239.3" y1="511.7" x2="255" y2="511.7"/>
      <path class="st16" d="M238.7,488.1c2.7,1.2,5.1,2.8,7.4,4.5,0,0-2.3.1-2.3.1,1.7-2.1,3.4-4.1,5.4-6,2-1.9,4-3.7,6.3-5.1,0,0,.5.5.5.5-1.2,2.5-2.7,4.7-4.4,6.8-2,2.5-4.3,4.9-6.6,7.1-2.4-2.4-4.7-4.8-6.5-7.8,0,0,.2-.3.2-.3h0Z"/>
    </g>
  </g>
  <g>
    <path class="st14" d="M835,254.2h-1.2v-5.9h-3.4v-1h3.4v-3.2h-3.1c-.8,2.9-2.7,5.5-5.9,7.4l-.7-.9c3.7-2.2,5.7-5.5,6-9.1h-5.3v-1h6.5c0,.9,0,1.7-.2,2.6h2.8v-4.3h1.2v15.4ZM838.3,255.1h-1.2v-16.8h1.2v16.8Z"/>
    <path class="st14" d="M850,243.3c0,2.3-1.8,3.9-4.3,3.9s-4.4-1.6-4.4-3.9,1.8-3.9,4.4-3.9,4.3,1.6,4.3,3.9ZM842.4,243.3c0,1.7,1.3,2.9,3.2,2.9s3.2-1.2,3.2-2.9c0-1.7-1.4-2.9-3.2-2.9s-3.2,1.2-3.2,2.9ZM854,255.1h-1.2v-5h-9.7v-1h10.9v6ZM856.6,242h-2.6v2.6h2.6v1h-2.6v2.7h-1.2v-10h1.2v2.7h2.6v1Z"/>
    <path class="st14" d="M868,250.2l-.7,1c-1.9-1-3.6-3.1-4.4-5.6-.7,2.6-2.5,4.9-4.3,5.9l-.8-1c2.3-1.2,4.5-4.4,4.5-7.5v-3.2h1.2v3.2c0,3,2.2,6.1,4.5,7.2ZM871.6,255.1h-1.2v-10h-4.2v-1h4.2v-5.9h1.2v16.8Z"/>
    <path class="st14" d="M887.8,246.3l-.6,1c-1.7-.6-2.9-1.9-3.5-3.5-.6,1.6-1.9,3.1-3.6,3.9l-.7-.9c2.2-1,3.6-3.2,3.7-5v-2.4h1.1v2.4c0,1.9,1.4,3.8,3.6,4.6ZM893.7,252.1c0,1.9-2.1,3-5.6,3s-5.6-1.1-5.6-3,2.1-3,5.6-3,5.6,1.1,5.6,3ZM883.7,252.1c0,1.2,1.7,2,4.4,2s4.4-.8,4.4-2c0-1.2-1.7-2-4.4-2s-4.4.8-4.4,2ZM893.6,248.7h-1.1v-4.7h-2.5v4.2h-1.1v-9.6h1.1v4.3h2.5v-4.7h1.1v10.4Z"/>
    <path class="st14" d="M906.1,246.5l-.7.9c-1.9-.7-3.4-2.1-4.2-4-.7,2.1-2.3,3.7-4.3,4.5l-.6-1c2.5-.9,4.4-3.1,4.4-5.8v-1.8h1.2v1.8c0,2.4,1.9,4.6,4.3,5.4ZM910.2,252c0,2-2.1,3.1-5.6,3.1s-5.6-1.1-5.6-3.1c0-2,2.1-3.1,5.6-3.2,3.5,0,5.6,1.2,5.6,3.2ZM900.2,252c0,1.3,1.7,2.1,4.4,2.1s4.4-.8,4.4-2.1-1.7-2.2-4.4-2.2-4.4.8-4.4,2.2ZM910.1,248.3h-1.2v-5.2h-3.9v-1h3.9v-3.8h1.2v10Z"/>
  </g>
  <g>
    <path class="st14" d="M828.9,476.7c0,1.4,0,3.2-.5,5.6h2.5v1h-15.4v-1h11.7c.5-2.4.5-4.1.5-5.6v-.2h-10.1v-1h11.3v1.3ZM829.4,490.8h-11.8v-5.5h1.2v4.5h10.6v1Z"/>
    <path class="st14" d="M847.8,489h-15.4v-1h7.1v-3.4h-5.1v-5h10.2v-2.9h-10.3v-1h11.5v4.9h-10.2v3h10.6v1h-5.6v3.4h7.2v1Z"/>
    <path class="st14" d="M858.5,481.5c0,3.5-1.8,5.8-4.3,5.8s-4.3-2.3-4.3-5.8,1.8-5.8,4.3-5.8,4.3,2.3,4.3,5.8ZM851.1,481.5c0,2.8,1.3,4.8,3.1,4.8s3.1-1.9,3.1-4.8-1.3-4.7-3.1-4.7-3.1,1.9-3.1,4.7ZM863.1,491.2h-1.2v-16.8h1.2v16.8Z"/>
    <path class="st14" d="M874.2,480h-6v2.9c3.4,0,5.1,0,7.1-.4v1c-2,.3-3.7.4-7.2.4h-1.2v-4.8h6v-2.6h-6v-1h7.2v4.6ZM880.1,491.2h-1.2v-4.6h-10.1v-1h11.3v5.6ZM880.1,484.7h-1.2v-3.3h-3.5v-1h3.5v-2.4h-3.5v-1h3.5v-2.6h1.2v10.3Z"/>
    <path class="st14" d="M889.8,477.6h5.4v-2.6h1.2v7.3h-7.7v-7.3h1.2v2.6ZM895.1,481.4v-2.8h-5.4v2.8h5.4ZM900.9,487.8h-9.4v2.1h10v1h-11.2v-4.1h9.4v-2h-9.4v-1h10.6v3.9ZM900.9,478.1h2.6v1h-2.6v3.9h-1.2v-8.7h1.2v3.8Z"/>
    <path class="st14" d="M918,476.4c0,1.3,0,2.8-.5,5h2.6v1h-15.4v-1h11.7c.5-2.1.5-3.7.5-5v-.2h-10.1v-1h11.3v1.2ZM907.9,486.4h8.9v-2.4h1.2v6.9h-11.3v-6.9h1.2v2.4ZM916.8,489.9v-2.6h-8.9v2.6h8.9Z"/>
  </g>
  <g>
    <path class="st14" d="M828.9,521.3c0,1.4,0,3.2-.5,5.6h2.5v1h-15.4v-1h11.7c.5-2.4.5-4.1.5-5.6v-.2h-10.1v-1h11.3v1.3ZM829.4,535.4h-11.8v-5.5h1.2v4.5h10.6v1Z"/>
    <path class="st14" d="M847.8,533.7h-15.4v-1h7.1v-3.4h-5.1v-5h10.2v-2.9h-10.3v-1h11.5v4.9h-10.2v3h10.6v1h-5.6v3.4h7.2v1Z"/>
    <path class="st14" d="M858.5,526.2c0,3.5-1.8,5.8-4.3,5.8s-4.3-2.3-4.3-5.8,1.8-5.8,4.3-5.8,4.3,2.3,4.3,5.8ZM851.1,526.2c0,2.8,1.3,4.8,3.1,4.8s3.1-1.9,3.1-4.8-1.3-4.7-3.1-4.7-3.1,1.9-3.1,4.7ZM863.1,535.8h-1.2v-16.8h1.2v16.8Z"/>
    <path class="st14" d="M874.2,524.6h-6v2.9c3.4,0,5.1,0,7.1-.4v1c-2,.3-3.7.4-7.2.4h-1.2v-4.8h6v-2.6h-6v-1h7.2v4.6ZM880.1,535.9h-1.2v-4.6h-10.1v-1h11.3v5.6ZM880.1,529.3h-1.2v-3.3h-3.5v-1h3.5v-2.4h-3.5v-1h3.5v-2.6h1.2v10.3Z"/>
    <path class="st14" d="M888.5,528.7l-.5-1c4.1-1.2,6.9-3.5,7.2-6.6h-6.3v-1h7.6c0,4.2-3.1,7.2-7.9,8.6ZM901.7,535.6h-10.9v-6.2h10.9v6.2ZM892,534.6h8.5v-4.2h-8.5v4.2ZM901.7,528.7h-1.2v-4.2h-4v-1h4v-4.5h1.2v9.7Z"/>
    <path class="st14" d="M920,528.1h-15.3v-1h15.3v1ZM919.1,525l-.5,1c-2.6-.4-5.4-1.6-6.3-3.6-.9,2-3.7,3.2-6.3,3.6l-.5-1c2.7-.3,6-1.8,6-4h0c0,0-5.5,0-5.5,0v-1h12.6v1h-5.6c0,2.2,3.2,3.7,6,4.1ZM918.1,532.8c0,1.9-2.2,3-5.8,3s-5.8-1.1-5.8-3,2.2-3,5.8-3,5.8,1.1,5.8,3ZM907.8,532.8c0,1.3,1.8,2,4.6,2s4.6-.8,4.6-2-1.8-2-4.6-2.1c-2.8,0-4.6.8-4.6,2.1Z"/>
  </g>
  <g>
    <path class="st14" d="M842.4,291.9l-.6,1c-1.9-.7-3.5-2.2-4.2-4-.7,2-2.4,3.6-4.4,4.4l-.6-1c2.4-.9,4.4-3.1,4.4-5.6v-1h-3.9v-1h9v1h-3.9v1c0,2.2,1.8,4.4,4.2,5.2ZM846.8,299.6h-11.2v-5.2h1.2v4.2h10v1ZM846.3,295.5h-1.2v-6.6h-3.7v-1h3.7v-4.7h1.2v12.4Z"/>
    <path class="st14" d="M859.3,295.4l-.7,1c-1.9-.9-3.6-3-4.3-5.3-.8,2.5-2.6,4.8-4.4,5.8l-.7-1c2.3-1.1,4.6-4.3,4.6-7.2v-2.6h-4v-1h9.1v1h-3.9v2.6c0,2.7,2.1,5.7,4.5,6.8ZM862.3,290.1h2.9v1h-2.9v8.9h-1.2v-16.8h1.2v6.9Z"/>
    <path class="st14" d="M881.2,295.1l-.7,1c-1.9-1-3.6-3.1-4.4-5.6-.7,2.6-2.5,4.9-4.3,5.9l-.8-1c2.3-1.2,4.5-4.4,4.5-7.5v-3.2h1.2v3.2c0,3,2.2,6.1,4.5,7.2ZM884.8,300h-1.2v-10h-4.2v-1h4.2v-5.9h1.2v16.8Z"/>
    <path class="st14" d="M901.7,293.2h-1.2v-2.8h-4.2v1.5h-7.6v-7.4h7.6v1.5h4.2v-2.8h1.2v10ZM889.8,290.9h5.3v-5.4h-5.3v5.4ZM901.7,296.8c0,2-2.1,3.1-5.6,3.1s-5.6-1.1-5.6-3.1c0-2,2.1-3.1,5.6-3.2,3.5,0,5.6,1.2,5.6,3.2ZM891.7,296.8c0,1.3,1.7,2.1,4.4,2.1s4.4-.8,4.4-2.1-1.7-2.2-4.4-2.2c-2.7,0-4.4.8-4.4,2.2ZM900.5,289.3v-2.3h-4.2v2.3h4.2Z"/>
  </g>
  <g>
    <line class="st3" x1="779.3" y1="268" x2="956.1" y2="268"/>
    <polyline class="st3" points="950.5 261.9 956.3 268.4 951.1 274.6"/>
  </g>
  <g>
    <line class="st3" x1="779.3" y1="503.3" x2="956.1" y2="503.3"/>
    <polyline class="st3" points="950.5 497.3 956.3 503.7 951.1 509.9"/>
  </g>
  <g>
    <path class="st14" d="M563.1,480.5h4.2c2.8,0,4.2,1.7,4.2,4s-1.4,4-4.2,4h-3v4.9h-1.3v-12.9ZM567.3,487.4c2,0,3-1.2,3-2.9s-1-2.9-3-2.9h-2.9v5.7h2.9Z"/>
    <path class="st14" d="M573.9,493.4v-12.9h4.1c3.7,0,5.9,2.4,5.9,6.4s-2.2,6.5-6.1,6.5h-3.8ZM577.7,492.3c3.3,0,5-2,4.9-5.4,0-3.3-1.6-5.3-4.7-5.3h-2.7v10.6h2.5Z"/>
    <path class="st14" d="M586.4,480.5h7.6v1.1h-6.3v4.7h5.7v1.1h-5.7v5.9h-1.3v-12.9Z"/>
    <path class="st14" d="M608.7,490.8h-1.1v-4.4h-4v1.6h-7.1v-7.9h1.1v2.9h4.8v-2.9h1.1v1.9h4v-3h1.1v11.7ZM602.4,487.1v-3.1h-4.8v3.1h4.8ZM609,494.5h-10.5v-4.8h1.1v3.9h9.3v.9ZM607.5,485.5v-2.4h-4v2.4h4Z"/>
    <path class="st14" d="M615.8,488.5v-1.3c-1.9-.1-3.1-1-3.1-2.4s1.4-2.4,3.6-2.4c2.2,0,3.6.9,3.6,2.4,0,1.4-1.2,2.2-3.1,2.4v1.2c1.5,0,3.1-.2,4.5-.4v.8c-3.3.6-7.1.7-9.9.7l-.2-1c1.3,0,2.8,0,4.4,0ZM621,481.6h-9.2v-.9h4v-1.7h1.1v1.7h4v.9ZM613.8,484.8c0,.9,1,1.6,2.6,1.6s2.6-.6,2.6-1.6c0-1-1-1.6-2.6-1.6s-2.6.6-2.6,1.6ZM624.3,494.5h-10.4v-3.9h1.1v2.9h9.3v.9ZM623.7,484.7h2.5v1h-2.5v5.7h-1.1v-12.3h1.1v5.6Z"/>
    <path class="st14" d="M632.4,495.4h-1.1l4.2-15.5h1.1l-4.2,15.5Z"/>
    <path class="st14" d="M652.2,494h-1.1v-5.6h-3.1v-.9h3.1v-3h-2.9c-.8,2.7-2.6,5.1-5.6,6.9l-.7-.8c3.5-2.1,5.3-5.1,5.6-8.5h-5v-1h6.1c0,.8,0,1.6-.2,2.4h2.7v-4h1.1v14.5ZM655.4,494.8h-1.1v-15.7h1.1v15.7Z"/>
    <path class="st14" d="M666.3,483.7c0,2.2-1.7,3.7-4.1,3.7s-4.1-1.5-4.1-3.7,1.7-3.7,4.1-3.7,4.1,1.5,4.1,3.7ZM659.2,483.7c0,1.6,1.2,2.7,3,2.7s3-1.1,3-2.7c0-1.6-1.3-2.7-3-2.7s-3,1.1-3,2.7ZM670,494.8h-1.1v-4.7h-9.1v-.9h10.2v5.6ZM672.4,482.6h-2.4v2.4h2.4v1h-2.4v2.5h-1.1v-9.4h1.1v2.5h2.4v.9Z"/>
    <path class="st14" d="M683.2,490.2l-.7.9c-1.8-.9-3.4-2.9-4.1-5.2-.7,2.4-2.3,4.5-4.1,5.5l-.7-.9c2.2-1.1,4.2-4.1,4.2-7v-3h1.1v3c0,2.8,2.1,5.7,4.2,6.7ZM686.5,494.9h-1.1v-9.3h-4v-.9h4v-5.5h1.1v15.8Z"/>
    <path class="st14" d="M708.2,492.8h-14.4v-1h6.6v-3.6h-4.9v-8h1.1v3h8.6v-3h1.1v8h-4.9v3.6h6.7v1ZM705.3,487.3v-3.2h-8.6v3.2h8.6Z"/>
    <path class="st14" d="M714.1,487.3c1.8,0,3.7-.2,5.4-.4v.9c-3.2.6-7.1.6-9.9.6v-.9c.9,0,2.1,0,3.4,0v-3.5h1.1v3.5ZM718.2,481.1c0,1,0,2.6-.4,4.7h-1.1c.4-2.1.4-3.5.4-4.5h-6.7v-1h7.8v.8ZM722.3,494.5h-10.3v-4.6h1.1v3.6h9.2v.9ZM721.8,484.3h2.4v1h-2.4v5.7h-1.1v-11.9h1.1v5.2Z"/>
  </g>
  <g>
    <circle class="st20" cx="643.1" cy="361.4" r="83.5"/>
    <g>
      <path class="st17" d="M611.7,329.8l5-4.8v4.8h-5c0,0,0,0,0,0Z"/>
      <path class="st10" d="M672.1,400.7h-51.9c-3.4,0-6.2-2.8-6.2-6.2v-64.7c0-3.4,2.8-6.2,6.2-6.2h37.9c2.1,0,4.1.8,5.5,2.3l13.7,14.2c.6.6,1,1.5,1,2.4v52c0,3.4-2.8,6.2-6.2,6.2Z"/>
      <g>
        <line class="st4" x1="625.6" y1="359.1" x2="653.1" y2="359.1"/>
        <line class="st4" x1="625.6" y1="371.5" x2="662.1" y2="371.5"/>
        <line class="st4" x1="625.6" y1="383.9" x2="662.1" y2="383.9"/>
      </g>
      <path class="st19" d="M611.7,329.8h30.9c1.5,0,2.8,1.2,2.8,2.8v8.9c0,1.5-1.2,2.8-2.8,2.8h-30.9v-14.4h0Z"/>
      <path class="st5" d="M658.1,325.6v14.6c0,1.6,1.3,2.9,3,2.9h14.8"/>
      <g>
        <path class="st13" d="M617.3,333.1h3.4c2.1,0,3.2,1.3,3.2,3s-1.1,3-3.2,3h-1.7v3h-1.6v-9ZM620.4,337.7c1.2,0,1.8-.7,1.8-1.6s-.5-1.6-1.8-1.6h-1.5v3.3h1.5Z"/>
        <path class="st13" d="M625.2,342.1v-9h3.1c2.7,0,4.3,1.7,4.3,4.5s-1.6,4.5-4.4,4.5h-3.1ZM628.1,340.7c1.9,0,2.8-1,2.8-3.1s-1-3.1-2.8-3.1h-1.4v6.2h1.4Z"/>
        <path class="st13" d="M634,333.1h5.8v1.4h-4.2v2.5h3.8v1.4h-3.8v3.8h-1.6v-9Z"/>
      </g>
    </g>
    <g>
      <path class="st1" d="M577.2,342.6s13.9-62,83.2-51.1"/>
      <polyline class="st15" points="658.8 286.7 662.4 291.9 657 294.6"/>
    </g>
    <g>
      <path class="st1" d="M714.3,379.5s-13.9,62-83.2,51.1"/>
      <polyline class="st15" points="632.6 435.5 629 430.3 634.5 427.6"/>
    </g>
  </g>
  <g>
    <circle class="st20" cx="1036.5" cy="489.3" r="56.8"/>
    <g>
      <rect class="st8" x="999.8" y="467.6" width="76.4" height="49.9" rx="4.7" ry="4.7"/>
      <g>
        <g>
          <circle class="st16" cx="1022" cy="485" r="7.1"/>
          <path class="st22" d="M1022.1,493.4c-7.1,0-13.1,5-14.5,11.7h29.1c-1.5-6.7-7.4-11.7-14.5-11.7Z"/>
        </g>
        <g>
          <line class="st6" x1="1041.3" y1="483.2" x2="1061.4" y2="483.2"/>
          <line class="st6" x1="1041.3" y1="491.5" x2="1064.4" y2="491.5"/>
          <line class="st6" x1="1041.3" y1="499.7" x2="1068.5" y2="499.7"/>
        </g>
      </g>
    </g>
  </g>
  <g>
    <circle class="st20" cx="1036" cy="270.7" r="56.8"/>
    <g>
      <g>
        <path class="st22" d="M1039.5,291.1l.5,9.5c0,1.2,1.7,2.4,2.5,3.3,1.1,1.2,3.5,4.3,7,4.4l-40.4.2c-.3,0-.6,0-.9-.1-1.4-.5-5.3-2.1-7.2-6.6-.4-1-.6-2.1-.6-3.2v-7.5h39.1Z"/>
        <path class="st22" d="M1052.9,259.6h14.7v-11c0-2-.7-3.9-2-5.3-1.2-1.3-3.1-2.4-5.8-2-3.9.5-5.8,2.7-6.9,5.5,0,0,0,12.9,0,12.9Z"/>
        <path class="st12" d="M1011,290.6v-43.3s.4-4.9,5.1-4.6l44.7-.2s-2.7,1-2.8,6.1v51.1c0,1.4-.6,2.8-1.6,3.8-2.2,2.1-6.4,4.9-11.9,1.7s-4.3-4.5-4.3-7.6v-6.1h-29.2v-1.1Z"/>
        <path class="st22" d="M1034.5,276.2l-11.5-8.5v-10.4l11.5-7.6,11.3,7.6v10.4l-11.3,8.5ZM1024.5,267l10,7.4,9.8-7.4v-8.8l-9.8-6.6-10,6.6v8.8Z"/>
        <line class="st7" x1="1019.4" y1="279.3" x2="1041.5" y2="279.3"/>
        <line class="st7" x1="1019.4" y1="285.4" x2="1049.5" y2="285.4"/>
      </g>
      <path class="st16" d="M1027.7,260.9c2.4,1.1,4.5,2.5,6.6,4,0,0-2.1.1-2.1.1,2.2-2.9,4.7-5.6,8-7.4,0,0,.5.4.5.4-.3.9-.7,1.7-1.2,2.5-1.6,2.8-3.8,5.2-6.2,7.4-2.1-2.1-4.2-4.3-5.8-6.9,0,0,.2-.2.2-.2h0Z"/>
    </g>
  </g>
  <polyline class="st3" points="1103.8 265 1136.2 265 1136.2 501 1103.8 501"/>
  <g>
    <rect class="st21" x="1177.2" y="346.4" width="35.4" height="60.9"/>
    <rect class="st22" x="1206.7" y="325.6" width="39.9" height="81.8"/>
    <rect class="st18" x="1246.6" y="358.9" width="38.8" height="48.5"/>
    <g>
      <rect class="st13" x="1181.5" y="353.9" width="10.5" height="10.3"/>
      <rect class="st13" x="1196.4" y="353.9" width="10.5" height="10.3"/>
    </g>
    <g>
      <rect class="st13" x="1212.9" y="334" width="10.5" height="10.3"/>
      <rect class="st13" x="1229.9" y="334" width="10.5" height="10.3"/>
    </g>
    <g>
      <rect class="st13" x="1212.9" y="351.8" width="10.5" height="10.3"/>
      <rect class="st13" x="1229.9" y="351.8" width="10.5" height="10.3"/>
    </g>
    <g>
      <rect class="st13" x="1212.9" y="369.6" width="10.5" height="10.3"/>
      <rect class="st13" x="1229.9" y="369.6" width="10.5" height="10.3"/>
    </g>
    <g>
      <rect class="st13" x="1212.9" y="387.5" width="10.5" height="10.3"/>
      <rect class="st13" x="1229.9" y="387.5" width="10.5" height="10.3"/>
    </g>
    <g>
      <rect class="st13" x="1252.3" y="369" width="10.5" height="10.3"/>
      <rect class="st13" x="1269.2" y="369" width="10.5" height="10.3"/>
    </g>
    <g>
      <rect class="st13" x="1252.3" y="387" width="10.5" height="10.3"/>
      <rect class="st13" x="1269.2" y="387" width="10.5" height="10.3"/>
    </g>
    <g>
      <rect class="st13" x="1181.5" y="369.9" width="10.5" height="10.3"/>
      <rect class="st13" x="1196.4" y="369.9" width="10.5" height="10.3"/>
    </g>
    <g>
      <rect class="st13" x="1181.5" y="386.9" width="10.5" height="10.3"/>
      <rect class="st13" x="1196.4" y="386.9" width="10.5" height="10.3"/>
    </g>
  </g>
</svg>