<?xml version="1.0" encoding="UTF-8"?>
<svg id="_레이어_1" xmlns="http://www.w3.org/2000/svg" version="1.1" viewBox="0 0 1320 760">
  <!-- Generator: Adobe Illustrator 29.8.6, SVG Export Plug-In . SVG Version: 2.1.1 Build 1)  -->
  <defs>
    <style>
      .st0 {
        stroke-width: 1.8px;
      }

      .st0, .st1, .st2, .st3, .st4, .st5, .st6, .st7, .st8, .st9 {
        fill: none;
      }

      .st0, .st2, .st3, .st4, .st6, .st8, .st9, .st10 {
        stroke-miterlimit: 10;
      }

      .st0, .st8, .st9 {
        stroke: #9cc5ff;
      }

      .st11 {
        fill: #121212;
      }

      .st12, .st13 {
        fill: #fff;
      }

      .st14 {
        fill: #0065fa;
      }

      .st1, .st2, .st3, .st4, .st15, .st16, .st6, .st10 {
        stroke: #fff;
      }

      .st1, .st13, .st15, .st7 {
        stroke-linejoin: round;
      }

      .st3 {
        stroke-width: .7px;
      }

      .st4, .st13, .st15, .st16, .st7 {
        stroke-width: .5px;
      }

      .st13, .st15, .st7 {
        stroke-linecap: square;
      }

      .st13, .st7 {
        stroke: #231815;
      }

      .st15, .st16, .st10, .st17 {
        fill: #9cc5ff;
      }

      .st18 {
        fill: #9fbfe5;
      }

      .st16 {
        stroke-linecap: round;
        stroke-linejoin: bevel;
      }

      .st6, .st8 {
        stroke-width: 1.7px;
      }

      .st19 {
        fill: #dcebff;
      }

      .st10 {
        stroke-width: 1.4px;
      }
    </style>
  </defs>
  <rect class="st19" x="772.7" y="229.5" width="373.6" height="173.2"/>
  <rect class="st19" x="772.7" y="411.8" width="373.6" height="180.4"/>
  <rect class="st19" x="656.9" y="229.9" width="108.5" height="363.4"/>
  <rect class="st19" x="222.4" y="229.9" width="426.8" height="123.1"/>
  <g>
    <rect class="st19" x="218.5" y="178.5" width="926.6" height="41.2"/>
    <g>
      <path class="st11" d="M636.6,201h-4.9v3h6.6v1.6h-15.2v-1.6h6.6v-3h-4.7v-8.8h11.5v1.7h-9.5v1.9h9.1v1.6h-9.1v2h9.6v1.6h0Z"/>
      <path class="st11" d="M652.6,193.3c0,1.6,0,3.4-.4,5.7h2.3v1.7h-15.2v-1.7h10.9c.2-.8.3-1.6.4-2.4l-9.5.4-.2-1.7,9.8-.2v-1.7h-9.4v-1.6h11.5v1.5h-.2ZM653,207.3h-11.8v-5.3h2v3.6h9.8v1.7Z"/>
      <path class="st11" d="M670.8,200.4h-15.2v-1.7h15.2v1.7ZM669.5,193.5h-4.8c.3,1.4,2.3,2.6,5.5,2.9l-.7,1.6c-3-.3-5.3-1.5-6.2-3.2-.9,1.7-3.1,2.9-6.1,3.2l-.7-1.6c3.1-.3,5.1-1.5,5.4-2.9h-4.8v-1.7h12.4v1.7h0ZM669,204.6c0,2-2.2,3.1-5.8,3.1s-5.8-1.1-5.8-3.1,2.2-3.1,5.8-3.1,5.8,1.1,5.8,3.1ZM659.5,204.6c0,1,1.3,1.5,3.7,1.5s3.7-.5,3.7-1.5-1.3-1.5-3.7-1.5-3.7.5-3.7,1.5Z"/>
      <path class="st11" d="M678.9,197.2c.2-1.5.3-2.8.4-3.7h-5.9v-1.6h7.9v.6c0,.9,0,2.4-.3,4.5.6,0,1.1-.1,1.7-.2v1.5c-1.3.2-2.8.4-4.2.5v3.6h-2v-3.5h-4.3l-.3-1.6c2,0,4.5,0,7.1-.2h-.1ZM686.4,207.3h-12.2v-5.1h2v3.4h10.2v1.7h0ZM686.1,203.6h-2.1v-2h-3.4v-1.6h3.4v-8.9h2.1v12.6h0Z"/>
      <path class="st11" d="M707.9,199.8h-15.2v-1.6h15.2v1.6ZM706.5,193h-2.3v2.5h2.2v1.5h-12.2v-1.5h2.2v-2.5h-2.3v-1.5h12.4v1.5h0ZM706.1,204.9h-9.5v1.1h9.9v1.5h-11.9v-4.1h9.5v-1.1h-9.5v-1.5h11.5v4h0ZM702.1,195.6v-2.5h-3.7v2.5h3.7Z"/>
      <path class="st11" d="M716.1,197.1h-4.3v1.9c1.9,0,3.4-.1,5.1-.5l.2,1.6c-2,.4-3.7.5-6.1.5h-1.1v-5h4.3v-1.8h-4.4v-1.7h6.3v4.9h0ZM724.1,206l-.8,1.6c-2.6-.4-4.7-1.6-5.7-3.2-1,1.6-3.1,2.8-5.7,3.2l-.8-1.6c3.4-.4,5.5-2.2,5.5-4.1v-.4h2v.4c0,1.9,2.1,3.7,5.5,4.1ZM723.3,202.3h-2v-5.4h-1.7v4h-1.9v-9.5h1.9v3.8h1.7v-4.1h2v11.2Z"/>
      <path class="st11" d="M740.6,200.8h-15.2v-1.6h6.5v-1.5h-5.1v-1.7h2.2v-2.9h-2.3v-1.6h12.4v1.6h-2.3v2.9h2.2v1.7h-5.1v1.5h6.6v1.6h0ZM738.6,207.5h-11.6v-5.3h11.6v5.3ZM729.1,205.8h7.5v-2.1h-7.5v2.1ZM734.8,196v-2.9h-3.7v2.9h3.7Z"/>
    </g>
  </g>
  <g>
    <path class="st11" d="M403.4,261.5l-1.3,1.6c-1.8-.9-3.1-2.7-3.8-4.8-.7,2.3-2.1,4.1-4,5.1l-1.3-1.6c2.7-1.3,4.2-4.5,4.2-7.5v-2.7h2v2.7c0,3,1.5,6,4.1,7.2h0ZM406.4,256.8h2.6v1.8h-2.6v8.4h-2v-16.7h2v6.5Z"/>
    <path class="st11" d="M424.8,259.9h-15.2v-1.6h3.5v-2.1c-1.3-.5-2-1.4-2-2.5,0-2,2.3-3.2,6-3.2s6,1.2,6,3.2-.7,1.9-2,2.5v2.1h3.6v1.6h.1ZM423,263.9c0,1.9-2.2,3-5.8,3s-5.8-1-5.8-3,2.2-3,5.8-3,5.8,1.1,5.8,3ZM413.4,253.7c0,1,1.4,1.5,3.9,1.5s3.9-.5,3.9-1.5-1.4-1.6-3.9-1.6-3.9.6-3.9,1.6ZM413.5,263.9c0,.9,1.3,1.4,3.7,1.4s3.7-.5,3.7-1.4-1.3-1.4-3.7-1.4-3.7.5-3.7,1.4ZM419.2,258.3v-1.6c-.6,0-1.3.1-2,.1s-1.4,0-2-.1v1.6h4Z"/>
    <path class="st11" d="M436.1,261.7l-1.1,1.6c-1.9-.9-3.3-2.7-4-4.8-.8,2.3-2.2,4.2-4.1,5.2l-1.2-1.6c2.7-1.3,4.3-4.4,4.3-7.2v-1.4h-3.6v-1.7h9.2v1.7h-3.5v1.4c0,2.6,1.5,5.5,4.2,6.7h-.2ZM439,256.8h2.6v1.7h-2.6v8.5h-2v-16.7h2v6.5Z"/>
    <path class="st11" d="M462,265h-15.2v-1.7h6.5v-3.3h-5.2v-1.6h2.3v-5h-2.4v-1.7h12.6v1.7h-2.4v5h2.4v1.6h-5.3v3.3h6.7v1.7ZM456.2,258.4v-5h-3.7v5h3.7Z"/>
    <path class="st11" d="M471.5,252.6h-5.8v1.3h5.4v1.5h-5.4v1.4c3,0,4.7,0,6.8-.4l.2,1.6c-2.3.4-4.2.4-7.7.4h-1.3v-7.5h7.8v1.6h0ZM476.2,263.9h-8.8v1.3h9.4v1.6h-11.4v-4.4h8.8v-1.2h-8.8v-1.6h10.9v4.3h-.1ZM476.2,253.7h2.3v1.7h-2.3v3.5h-2v-8.6h2v3.4h0Z"/>
  </g>
  <g>
    <path class="st11" d="M689,247.8c-1.2,0-2,.6-2,1.4s1,1.3,1.9,1.5l1,.3c1.6.4,3.2,1.2,3.2,3.1s-1.5,3.2-4.1,3.2-4.1-1.2-4.2-3.4h1.9c0,1.1,1.1,1.7,2.3,1.7s2.2-.6,2.2-1.6-.8-1.2-2-1.5l-1.2-.3c-1.8-.5-2.9-1.4-2.9-2.9s1.7-3.2,4-3.2,3.9,1.3,3.9,3.2h-1.9c0-.9-.9-1.5-2.1-1.5h0Z"/>
    <path class="st11" d="M694.3,253.2c0-2.5,1.5-4.3,3.9-4.3s3.7,1.3,3.7,4.1v.6h-5.7c0,1.4.8,2.2,2.1,2.2s1.4-.4,1.7-.8h1.9c-.3,1.4-1.7,2.4-3.6,2.4s-4-1.6-4-4.2h0ZM700,252.4c0-1.1-.8-1.9-1.9-1.9s-1.9.9-2,1.9h3.9Z"/>
    <path class="st11" d="M703.4,249h1.9v1.4h0c.3-.9,1.1-1.5,2-1.5s.5,0,.7,0v1.8c-.2,0-.6-.1-.9-.1-1.1,0-1.9.7-1.9,1.8v4.8h-1.9v-8.2h.1Z"/>
    <path class="st11" d="M713.8,257.2h-2.1l-2.9-8.2h2l1.9,6.1h0l1.9-6.1h2l-2.9,8.2h0Z"/>
    <path class="st11" d="M717.8,246.8c0-.6.5-1,1.1-1s1.1.5,1.1,1-.5,1.1-1.1,1.1-1.1-.5-1.1-1.1ZM718,249h1.9v8.2h-1.9v-8.2h0Z"/>
    <path class="st11" d="M721.4,253.2c0-2.5,1.5-4.2,3.9-4.2s3.4,1.2,3.5,2.9h-1.8c-.2-.8-.7-1.4-1.7-1.4s-2,1-2,2.7.8,2.7,2,2.7,1.5-.5,1.7-1.4h1.8c-.2,1.7-1.5,3-3.5,3s-3.9-1.7-3.9-4.2h0Z"/>
    <path class="st11" d="M729.9,253.2c0-2.5,1.5-4.3,3.9-4.3s3.7,1.3,3.7,4.1v.6h-5.7c0,1.4.8,2.2,2.1,2.2s1.4-.4,1.7-.8h1.9c-.3,1.4-1.7,2.4-3.6,2.4s-4-1.6-4-4.2h0ZM735.7,252.4c0-1.1-.8-1.9-1.9-1.9s-1.9.9-2,1.9h3.9Z"/>
    <path class="st11" d="M681.8,274.4h-2v-10.9h2v10.9Z"/>
    <path class="st11" d="M685.7,274.4h-1.9v-8.2h1.8v1.4h0c.4-.9,1.2-1.5,2.4-1.5s2.8,1.1,2.8,3.1v5.2h-1.9v-4.9c0-1.1-.6-1.7-1.6-1.7s-1.7.7-1.7,1.9v4.8h0Z"/>
    <path class="st11" d="M696.9,267.7h-1.6v4.3c0,.8.4,1,.9,1h.8v1.6h-1.1c-1.4,0-2.6-.7-2.5-2.2v-4.6h-1.2v-1.5h1.2v-2h1.9v2h1.6v1.5h0Z"/>
    <path class="st11" d="M697.9,270.3c0-2.5,1.5-4.3,3.9-4.3s3.7,1.3,3.7,4.1v.6h-5.7c0,1.4.8,2.2,2.1,2.2s1.4-.4,1.7-.8h1.9c-.3,1.4-1.7,2.4-3.6,2.4s-4-1.6-4-4.2h0ZM703.7,269.5c0-1.1-.8-1.9-1.9-1.9s-1.9.9-2,1.9h3.9Z"/>
    <path class="st11" d="M707,266.2h1.9v1.4h0c.3-.9,1.1-1.5,2-1.5s.5,0,.7,0v1.8c-.2,0-.6-.1-.9-.1-1.1,0-1.9.7-1.9,1.8v4.8h-1.9v-8.2h.1Z"/>
    <path class="st11" d="M717.4,267.7h-1.7v6.7h-1.9v-6.7h-1.2v-1.5h1.2v-.8c0-1.6,1-2.5,2.6-2.5s.9,0,1.2.1v1.5h-.7c-.8,0-1.2.3-1.2,1.1v.6h1.7v1.5h0Z"/>
    <path class="st11" d="M721.2,269.6c.6,0,1.7-.1,2.1-.1v-.6c0-.8-.5-1.3-1.5-1.3s-1.4.4-1.5,1h-1.9c0-1.4,1.4-2.4,3.4-2.4s3.3.6,3.3,2.8v5.5h-1.8v-1.1h0c-.4.7-1.1,1.3-2.4,1.3s-2.7-.9-2.7-2.5,1.5-2.4,3-2.5h0ZM721.4,273.1c1.2,0,1.9-.8,1.9-1.7v-.7h-1.8c-.9.2-1.5.6-1.5,1.3s.6,1.1,1.4,1.1h0Z"/>
    <path class="st11" d="M726.7,270.3c0-2.5,1.5-4.2,3.9-4.2s3.4,1.2,3.5,2.9h-1.8c-.2-.8-.7-1.4-1.7-1.4s-2,1-2,2.7.8,2.7,2,2.7,1.5-.5,1.7-1.4h1.8c-.2,1.7-1.5,3-3.5,3s-3.9-1.7-3.9-4.2h0Z"/>
    <path class="st11" d="M735.2,270.3c0-2.5,1.5-4.3,3.9-4.3s3.7,1.3,3.7,4.1v.6h-5.7c0,1.4.8,2.2,2.1,2.2s1.4-.4,1.7-.8h1.9c-.3,1.4-1.7,2.4-3.6,2.4s-4-1.6-4-4.2h0ZM741,269.5c0-1.1-.8-1.9-1.9-1.9s-1.9.9-2,1.9h3.9Z"/>
  </g>
  <g>
    <path class="st11" d="M905.2,249.4c-1.2,0-2,.6-2,1.4s1,1.3,1.9,1.5l1,.3c1.6.4,3.2,1.2,3.2,3.1s-1.5,3.2-4.1,3.2-4.1-1.2-4.2-3.4h1.9c0,1.1,1.1,1.7,2.3,1.7s2.2-.6,2.2-1.6-.8-1.2-2-1.5l-1.2-.3c-1.8-.5-2.9-1.4-2.9-2.9s1.7-3.2,4-3.2,3.9,1.3,3.9,3.2h-1.9c0-.9-.9-1.5-2.1-1.5h0Z"/>
    <path class="st11" d="M910.5,254.7c0-2.5,1.5-4.3,3.9-4.3s3.7,1.3,3.7,4.1v.6h-5.7c0,1.4.8,2.2,2.1,2.2s1.4-.4,1.7-.8h1.9c-.3,1.4-1.7,2.4-3.6,2.4s-4-1.6-4-4.2h0ZM916.3,253.9c0-1.1-.8-1.9-1.9-1.9s-1.9.9-2,1.9h3.9Z"/>
    <path class="st11" d="M919.6,250.6h1.9v1.4h0c.3-.9,1.1-1.5,2-1.5s.5,0,.7,0v1.8c-.2,0-.6-.1-.9-.1-1.1,0-1.9.7-1.9,1.8v4.8h-1.9v-8.2h.1Z"/>
    <path class="st11" d="M930.1,258.8h-2.1l-2.9-8.2h2.1l1.9,6.1h0l1.9-6.1h2l-2.9,8.2Z"/>
    <path class="st11" d="M934.1,248.3c0-.6.5-1,1.1-1s1.1.5,1.1,1-.5,1.1-1.1,1.1-1.1-.5-1.1-1.1ZM934.2,250.6h1.9v8.2h-1.9v-8.2h0Z"/>
    <path class="st11" d="M937.6,254.7c0-2.5,1.5-4.2,3.9-4.2s3.4,1.2,3.5,2.9h-1.8c-.2-.8-.7-1.4-1.7-1.4s-2,1-2,2.7.8,2.7,2,2.7,1.5-.5,1.7-1.4h1.8c-.2,1.7-1.5,3-3.5,3s-3.9-1.7-3.9-4.2h0Z"/>
    <path class="st11" d="M946.2,254.7c0-2.5,1.5-4.3,3.9-4.3s3.7,1.3,3.7,4.1v.6h-5.7c0,1.4.8,2.2,2.1,2.2s1.4-.4,1.7-.8h1.9c-.3,1.4-1.7,2.4-3.6,2.4s-4-1.6-4-4.2h0ZM951.9,253.9c0-1.1-.8-1.9-1.9-1.9s-1.9.9-2,1.9h3.9Z"/>
    <path class="st11" d="M959,247.8h4.1c2.5,0,3.8,1.5,3.8,3.6s-1.4,3.6-3.9,3.6h-2.1v3.7h-2v-10.9h.1ZM962.8,253.4c1.5,0,2.1-.8,2.1-2s-.7-2-2.1-2h-1.8v4h1.8Z"/>
    <path class="st11" d="M970.4,258.8h-1.9v-10.9h1.9v10.9Z"/>
    <path class="st11" d="M974.9,254c.6,0,1.7-.1,2.1-.1v-.6c0-.8-.5-1.3-1.5-1.3s-1.4.4-1.5,1h-1.9c0-1.4,1.4-2.4,3.4-2.4s3.3.6,3.3,2.8v5.5h-1.8v-1.1h0c-.4.7-1.1,1.3-2.4,1.3s-2.7-.9-2.7-2.5,1.5-2.4,3-2.5h0ZM975.1,257.5c1.2,0,1.9-.8,1.9-1.7v-.7h-1.8c-.9.2-1.5.6-1.5,1.3s.6,1.1,1.4,1.1h0Z"/>
    <path class="st11" d="M984.8,252h-1.6v4.3c0,.8.4,1,.9,1h.8v1.6h-1.1c-1.4,0-2.6-.7-2.5-2.2v-4.6h-1.2v-1.5h1.2v-2h1.9v2h1.6v1.5h0Z"/>
    <path class="st11" d="M990.4,252h-1.7v6.7h-1.9v-6.7h-1.2v-1.5h1.2v-.8c0-1.6,1-2.5,2.6-2.5s.9,0,1.2.1v1.5h-.7c-.8,0-1.2.3-1.2,1.1v.6h1.7v1.5h0Z"/>
    <path class="st11" d="M991.2,254.7c0-2.5,1.5-4.2,3.9-4.2s3.9,1.7,3.9,4.2-1.5,4.2-3.9,4.2-3.9-1.7-3.9-4.2ZM997,254.7c0-1.5-.6-2.7-2-2.7s-2,1.2-2,2.7.6,2.7,2,2.7,2-1.2,2-2.7Z"/>
    <path class="st11" d="M1000.5,250.6h1.9v1.4h0c.3-.9,1.1-1.5,2-1.5s.5,0,.7,0v1.8c-.2,0-.6-.1-.9-.1-1.1,0-1.9.7-1.9,1.8v4.8h-1.9v-8.2h.1Z"/>
    <path class="st11" d="M1006.3,250.6h1.8v1.4h0c.3-.9,1.2-1.5,2.2-1.5s1.9.6,2.2,1.5h0c.4-.9,1.3-1.5,2.5-1.5s2.5,1,2.5,2.8v5.5h-1.9v-5.2c0-1-.6-1.5-1.4-1.5s-1.5.6-1.5,1.6v5.1h-1.9v-5.3c0-.8-.6-1.4-1.4-1.4s-1.5.7-1.5,1.7v5h-1.9v-8.2h.2Z"/>
  </g>
  <g>
    <path class="st11" d="M789.4,423.1c-1.1,0-1.9.6-1.9,1.4s1,1.2,1.6,1.4l.8.2c.9.2,2.4.8,2.4,2.3s-1.1,2.5-3.1,2.5-3-.9-3.1-2.4h1.1c0,.9,1,1.4,2,1.4s2.1-.6,2.1-1.5-.8-1.1-1.7-1.4l-1-.3c-1.3-.4-2.2-1.1-2.2-2.2s1.3-2.4,2.9-2.4,2.8,1,2.9,2.2h-1c0-.8-.9-1.3-1.9-1.3h.1Z"/>
    <path class="st11" d="M793.5,427.7c0-2,1.1-3.3,2.9-3.3s2.7.8,2.7,3.2v.4h-4.6c0,1.3.8,2.1,2,2.1s1.2-.3,1.5-.7h1.1c-.3,1-1.2,1.6-2.6,1.6s-3-1.3-3-3.3h0ZM798.1,427.1c0-1.1-.7-1.9-1.7-1.9s-1.8.9-1.9,1.9h3.6Z"/>
    <path class="st11" d="M800.5,424.4h1v1h0c.2-.6.9-1.1,1.6-1.1s.4,0,.5,0v1h-.6c-.9,0-1.6.6-1.6,1.5v4h-1v-6.4h0Z"/>
    <path class="st11" d="M807.8,430.8h-1l-2.3-6.4h1.1l1.7,5.1h0l1.7-5.1h1.1l-2.4,6.4h.1Z"/>
    <path class="st11" d="M811,422.7c0-.4.3-.7.7-.7s.7.3.7.7-.3.7-.7.7-.7-.3-.7-.7ZM811.2,424.4h1v6.4h-1v-6.4Z"/>
    <path class="st11" d="M813.5,427.6c0-1.9,1.1-3.3,2.9-3.3s2.4.8,2.5,2h-1c0-.6-.7-1.1-1.5-1.1s-1.9.9-1.9,2.4.7,2.4,1.9,2.4,1.3-.4,1.5-1.1h1c-.2,1.1-1.1,2-2.5,2s-2.9-1.4-2.9-3.3Z"/>
    <path class="st11" d="M819.9,427.7c0-2,1.1-3.3,2.9-3.3s2.7.8,2.7,3.2v.4h-4.6c0,1.3.8,2.1,2,2.1s1.2-.3,1.5-.7h1.1c-.3,1-1.2,1.6-2.6,1.6s-3-1.3-3-3.3h0ZM824.5,427.1c0-1.1-.7-1.9-1.7-1.9s-1.8.9-1.9,1.9h3.6Z"/>
    <path class="st11" d="M831,430.8h-1.1v-8.5h1.1v8.5Z"/>
    <path class="st11" d="M833.8,430.8h-1v-6.4h1v1h0c.3-.6.9-1.1,1.9-1.1s2.1.8,2.1,2.4v4h-1v-4c0-1-.5-1.6-1.4-1.6s-1.6.6-1.6,1.7v4Z"/>
    <path class="st11" d="M842.3,425.3h-1.4v5.5h-1v-5.5h-1v-.8h1v-.9c0-1,.7-1.7,1.8-1.7s.5,0,.8,0v.9h-.5c-.7,0-1,.3-1,.9v.6h1.4v1Z"/>
    <path class="st11" d="M843.5,424.4h1v1h0c.2-.6.9-1.1,1.6-1.1s.4,0,.5,0v1h-.6c-.9,0-1.6.6-1.6,1.5v4h-1v-6.4h0Z"/>
    <path class="st11" d="M849.8,427.1h1.7v-.5c0-.8-.5-1.3-1.4-1.3s-1.3.4-1.4.9h-1.1c0-1,1.1-1.7,2.5-1.7s2.4.2,2.4,2.2v4.2h-1v-.9h0c-.2.4-.8,1-1.9,1s-2.2-.7-2.2-2,1.3-1.8,2.4-1.9h0ZM849.7,430c1.1,0,1.8-.8,1.8-1.6v-.6h-1.6c-.9.2-1.5.5-1.5,1.2s.6,1,1.3,1Z"/>
  </g>
  <g>
    <g>
      <rect class="st17" x="238.3" y="292.4" width="189.9" height="36.2"/>
      <g>
        <path class="st12" d="M275.3,311.1h-4.5v2.8h6v1.5h-13.8v-1.5h6v-2.8h-4.3v-8h10.5v1.5h-8.6v1.7h8.2v1.5h-8.2v1.8h8.7v1.5h0Z"/>
        <path class="st12" d="M289.9,304.1c0,1.5,0,3-.4,5.2h2.1v1.5h-13.8v-1.5h9.9c.2-.8.2-1.5.3-2.1l-8.6.4-.2-1.5,8.9-.2v-1.6h-8.6v-1.5h10.4v1.4h0ZM290.2,316.8h-10.8v-4.8h1.9v3.3h8.9v1.5Z"/>
        <path class="st12" d="M306.4,310.6h-13.8v-1.5h13.8v1.5ZM305.2,304.2h-4.4c.3,1.3,2.1,2.4,5,2.7l-.7,1.5c-2.7-.3-4.8-1.4-5.6-2.9-.8,1.5-2.8,2.6-5.6,2.9l-.6-1.5c2.8-.3,4.6-1.4,4.9-2.7h-4.3v-1.5h11.3v1.5h0ZM304.8,314.3c0,1.8-2,2.8-5.2,2.8s-5.3-1-5.3-2.8,2-2.8,5.3-2.8,5.2,1,5.2,2.8ZM296.1,314.3c0,.9,1.2,1.3,3.4,1.3s3.4-.5,3.4-1.3-1.2-1.3-3.4-1.3-3.4.5-3.4,1.3Z"/>
        <path class="st12" d="M313.8,307.7c.2-1.4.3-2.5.3-3.4h-5.4v-1.5h7.2v.6c0,.8,0,2.2-.3,4.1.5,0,1-.1,1.5-.2v1.3c-1.2.2-2.5.4-3.9.5v3.3h-1.8v-3.2h-3.9l-.2-1.5c1.8,0,4.1,0,6.4-.2v.2ZM320.6,316.8h-11.1v-4.6h1.9v3.1h9.2v1.5ZM320.3,313.4h-1.9v-1.8h-3.1v-1.5h3.1v-8.1h1.9v11.4Z"/>
        <path class="st12" d="M328.7,304.6h3.5v-1.9h1.8v6.6h-7.2v-6.6h1.8v1.9h.1ZM338.3,314.3h-8v1.2h8.5v1.5h-10.4v-4h8v-1.2h-8v-1.5h9.9v4ZM332.2,307.8v-1.8h-3.5v1.8h3.5ZM338.3,305.1h2.1v1.5h-2.1v3.2h-1.9v-7.8h1.9v3.1h0Z"/>
        <path class="st12" d="M348.6,305.1h-7.5v-1.5h2.9v-1.5h1.8v1.5h2.8v1.5h0ZM348.2,308.3c0,1.6-1.4,2.6-3.3,2.6s-3.3-1-3.2-2.6c0-1.6,1.4-2.6,3.2-2.6s3.3,1,3.3,2.6ZM343.3,308.3c0,.8.6,1.3,1.6,1.3s1.6-.5,1.6-1.3-.7-1.3-1.6-1.3-1.6.5-1.6,1.3ZM354.2,314.4c0,1.7-2,2.7-5.2,2.7s-5.2-1-5.2-2.7,2-2.7,5.2-2.7,5.2,1,5.2,2.7ZM345.7,314.4c0,.8,1.2,1.3,3.3,1.3s3.3-.4,3.3-1.3-1.2-1.3-3.3-1.3-3.3.4-3.3,1.3ZM354.1,311.5h-1.8v-4.1h-1.5v3.6h-1.7v-8.7h1.7v3.6h1.5v-3.9h1.8v9.5Z"/>
        <path class="st12" d="M369.4,312.3l-1.1,1.5c-1.7-.8-2.9-2.4-3.6-4.4-.7,2.1-1.9,3.8-3.6,4.7l-1.2-1.5c2.5-1.2,3.8-4.1,3.9-6.9v-2.4h1.9v2.4c0,2.8,1.3,5.6,3.8,6.6h0ZM372.8,317.2h-1.8v-8.8h-3.2v-1.5h3.2v-4.9h1.8v15.2h0Z"/>
        <path class="st12" d="M377.6,307h3.7v-3.8h1.8v10.4h-7.4v-10.4h1.9v3.8ZM381.2,312.1v-3.6h-3.7v3.6h3.7ZM387.5,317.2h-1.9v-15.2h1.9v15.2Z"/>
        <path class="st12" d="M403.6,315.2h-13.8v-1.5h13.8v1.5ZM403,309.3l-.8,1.6c-2.5-.5-4.6-2.1-5.6-4.1-1,2-3.1,3.6-5.6,4.1l-.8-1.6c3.1-.6,5.4-2.9,5.4-5.2v-1.1h2v1.1c0,2.3,2.3,4.7,5.5,5.2h-.1Z"/>
      </g>
    </g>
    <g>
      <rect class="st17" x="439.4" y="292.4" width="194" height="36.2"/>
      <g>
        <path class="st12" d="M463.5,311.1h-4.5v2.8h6v1.5h-13.8v-1.5h6v-2.8h-4.3v-8h10.5v1.5h-8.6v1.7h8.2v1.5h-8.2v1.8h8.7v1.5h0Z"/>
        <path class="st12" d="M478.2,304.1c0,1.5,0,3-.4,5.2h2.1v1.5h-13.8v-1.5h9.9c.2-.8.2-1.5.3-2.1l-8.6.4-.2-1.5,8.9-.2v-1.6h-8.6v-1.5h10.4v1.4h0ZM478.5,316.8h-10.8v-4.8h1.9v3.3h8.9v1.5Z"/>
        <path class="st12" d="M494.7,310.6h-13.8v-1.5h13.8v1.5ZM493.4,304.2h-4.4c.3,1.3,2.1,2.4,5,2.7l-.7,1.5c-2.7-.3-4.8-1.4-5.6-2.9-.8,1.5-2.8,2.6-5.6,2.9l-.6-1.5c2.8-.3,4.6-1.4,4.9-2.7h-4.3v-1.5h11.3v1.5h0ZM493,314.3c0,1.8-2,2.8-5.2,2.8s-5.3-1-5.3-2.8,2-2.8,5.3-2.8,5.2,1,5.2,2.8ZM484.4,314.3c0,.9,1.2,1.3,3.4,1.3s3.4-.5,3.4-1.3-1.2-1.3-3.4-1.3-3.4.5-3.4,1.3Z"/>
        <path class="st12" d="M502,307.7c.2-1.4.3-2.5.3-3.4h-5.4v-1.5h7.2v.6c0,.8,0,2.2-.3,4.1.5,0,1-.1,1.5-.2v1.3c-1.2.2-2.5.4-3.9.5v3.3h-1.8v-3.2h-3.9l-.2-1.5c1.8,0,4.1,0,6.4-.2v.2ZM508.9,316.8h-11.1v-4.6h1.9v3.1h9.2v1.5ZM508.5,313.4h-1.9v-1.8h-3.1v-1.5h3.1v-8.1h1.9v11.4Z"/>
        <path class="st12" d="M517,304.6h3.5v-1.9h1.8v6.6h-7.2v-6.6h1.8v1.9h.1ZM526.5,314.3h-8v1.2h8.5v1.5h-10.4v-4h8v-1.2h-8v-1.5h9.9v4ZM520.5,307.8v-1.8h-3.5v1.8h3.5ZM526.5,305.1h2.1v1.5h-2.1v3.2h-1.9v-7.8h1.9v3.1h0Z"/>
        <path class="st12" d="M536.9,305.1h-7.5v-1.5h2.9v-1.5h1.8v1.5h2.8v1.5ZM536.4,308.3c0,1.6-1.4,2.6-3.3,2.6s-3.3-1-3.2-2.6c0-1.6,1.4-2.6,3.2-2.6s3.3,1,3.3,2.6ZM531.5,308.3c0,.8.6,1.3,1.6,1.3s1.6-.5,1.6-1.3-.7-1.3-1.6-1.3-1.6.5-1.6,1.3ZM542.5,314.4c0,1.7-2,2.7-5.2,2.7s-5.2-1-5.2-2.7,2-2.7,5.2-2.7,5.2,1,5.2,2.7ZM533.9,314.4c0,.8,1.2,1.3,3.3,1.3s3.3-.4,3.3-1.3-1.2-1.3-3.3-1.3-3.3.4-3.3,1.3ZM542.4,311.5h-1.8v-4.1h-1.5v3.6h-1.7v-8.7h1.7v3.6h1.5v-3.9h1.8v9.5Z"/>
        <path class="st12" d="M552.7,306.8c0,2.2-1.8,3.8-4.1,3.8s-4.1-1.6-4.1-3.8,1.8-3.8,4.1-3.8,4.1,1.6,4.1,3.8ZM546.4,306.8c0,1.3,1,2.2,2.3,2.2s2.2-.8,2.2-2.2-1-2.2-2.2-2.2-2.3.9-2.3,2.2ZM557.3,316.8h-10.4v-5h1.9v3.5h8.6v1.5h0ZM556.9,313h-1.9v-10.9h1.9v10.9Z"/>
        <path class="st12" d="M569.3,305.3h-3.8v6.7c1.7,0,3-.1,4.5-.4v1.5c-1.7.4-3.3.4-5.4.4h-1v-9.8h5.7v1.5h0ZM576.2,317.1h-1.8v-7.7h-1.7v7h-1.7v-14.1h1.7v5.6h1.7v-5.9h1.8v15.1Z"/>
        <path class="st12" d="M587.6,312.3l-1.1,1.5c-1.7-.8-3-2.4-3.7-4.4-.7,2.1-2,3.9-3.8,4.7l-1.1-1.6c2.5-1.1,4-4,4-6.9v-2.4h1.9v2.4c0,2.8,1.4,5.6,3.9,6.6h-.1ZM590.6,317.2h-1.9v-15.2h1.9v15.2Z"/>
        <path class="st12" d="M606.7,315.3h-13.8v-1.5h6v-2.9h-4.4v-7.8h1.9v2.5h7v-2.5h1.9v7.8h-4.5v2.9h6v1.5h-.1ZM603.2,309.3v-2.4h-7v2.4h7Z"/>
        <path class="st12" d="M621.5,315.2h-13.8v-1.5h13.8v1.5ZM619.9,310.6h-10.6v-7.3h10.5v1.5h-8.7v4.3h8.8v1.5Z"/>
      </g>
    </g>
  </g>
  <g>
    <circle class="st19" cx="254" cy="528" r="35.2"/>
    <g>
      <circle class="st14" cx="253.8" cy="518.1" r="10.7"/>
      <path class="st17" d="M254,530.9c-10.8,0-19.8,7.5-22,17.6h44c-2.2-10.1-11.2-17.6-22-17.6Z"/>
    </g>
  </g>
  <g>
    <circle class="st19" cx="254" cy="406.5" r="35.2"/>
    <g>
      <polygon class="st17" points="233.7 398.4 273.1 398.4 253.4 385.7 233.7 398.4"/>
      <path class="st5" d="M234.2,399.4c-.2,0-.3-.1-.3-.3s0-.3.1-.4l19.7-12.8h.4l19.7,12.8c.1,0,.2.3.1.4,0,.2-.2.3-.3.3h-39.4Z"/>
      <rect class="st17" x="239.2" y="401.7" width="5.1" height="19.6"/>
      <rect class="st17" x="247.4" y="401.7" width="5.1" height="19.6"/>
      <rect class="st17" x="255.5" y="401.7" width="5.1" height="19.6"/>
      <rect class="st17" x="263.6" y="401.7" width="5.1" height="19.6"/>
      <rect class="st14" x="233.9" y="420.5" width="40.2" height="3.7" rx=".4" ry=".4"/>
      <rect class="st17" x="231.3" y="423.5" width="45.3" height="3.8" rx=".4" ry=".4"/>
      <path class="st14" d="M272.7,398.1h-39.5c-.4,0-.7.3-.7.7v3c0,.4.3.7.7.7h39.5c.4,0,.7-.3.7-.7v-3c0-.4-.3-.7-.7-.7h0Z"/>
    </g>
  </g>
  <g>
    <line class="st9" x1="298.8" y1="404.8" x2="446.7" y2="404.8"/>
    <polyline class="st9" points="441.4 399 446.9 404.8 441.9 411.2"/>
  </g>
  <g>
    <line class="st9" x1="98.5" y1="312.5" x2="235.6" y2="312.5"/>
    <polyline class="st9" points="230.6 307.1 235.7 312.5 231.1 318.4"/>
  </g>
  <g>
    <line class="st9" x1="298.8" y1="522.9" x2="446.7" y2="522.9"/>
    <polyline class="st9" points="441.4 517.1 447 523.1 441.9 529.3"/>
  </g>
  <g>
    <path class="st11" d="M227.4,461.6h-.8v-4.2h-2.3v-.7h2.3v-2.3h-2.1c-.6,2-1.9,3.8-4,5.2l-.5-.6c2.5-1.6,3.9-3.9,4.1-6.4h-3.6v-.7h4.4c0,.6,0,1.2-.2,1.8h1.9v-3h.8v10.9h0ZM229.7,462.2h-.8v-11.8h.8v11.8Z"/>
    <path class="st11" d="M235.4,458.8c1.1,0,2.2-.1,3.2-.3v.6c-2.4.4-5.2.4-7.2.4v-.7h3.1v-2.5h.8v2.5h0ZM238.3,456l-.4.7c-1.3-.5-2.4-1.4-2.9-2.7-.5,1.4-1.6,2.4-3,2.9l-.4-.7c1.7-.5,3-1.9,3-3.6v-.3h-2.7v-.7h6.2v.7h-2.7v.3c0,1.6,1.3,2.9,2.9,3.5h0ZM242.2,456.1h-2v6.1h-.8v-11.8h.8v5h2v.7h0Z"/>
    <path class="st11" d="M246.3,456.5c1.3,0,2.7-.1,3.9-.3v.6c-2.4.4-5.1.5-7.2.5v-.7h2.5v-2.7h.8v2.6ZM249.3,451.9c0,.8,0,1.9-.3,3.5h-.8c.3-1.6.3-2.6.3-3.4h-4.8v-.7h5.7v.6h0ZM252.2,461.9h-7.5v-3.4h.8v2.7h6.7v.7h0ZM251.9,454.3h1.8v.7h-1.8v4.3h-.8v-8.9h.8v3.9Z"/>
    <path class="st11" d="M261.9,458.1v.7c-2.1.3-3.8.4-5.8.4h-.9v-4.4h4.5v-2.7h-4.5v-.7h5.3v4.1h-4.4v3h.1c1.9,0,3.6,0,5.8-.4h-.1ZM263.9,462.2h-.8v-11.8h.8v11.8Z"/>
    <path class="st11" d="M266.6,459.9l-.5-.7c3.1-1.5,4.8-4,5-6.8h-4.5v-.7h5.4c0,3.3-1.6,6.4-5.4,8.2ZM275.4,462.2h-.8v-11.8h.8v11.8Z"/>
    <path class="st11" d="M280.8,456.5c1.3,0,2.7-.1,3.9-.3v.6c-2.4.4-5.1.5-7.2.5v-.7h2.5v-2.7h.8v2.6h0ZM283.8,451.9c0,.8,0,1.9-.3,3.5h-.8c.3-1.6.3-2.6.3-3.4h-4.8v-.7h5.7v.6h-.1ZM286.8,461.9h-7.5v-3.4h.8v2.7h6.7v.7h0ZM286.4,454.3h1.8v.7h-1.8v4.3h-.8v-8.9h.8v3.9Z"/>
  </g>
  <g>
    <path class="st11" d="M1141.3,358.7l-.5-.7c3.4-1.7,5.2-4.4,5.4-7.5h-4.9v-.8h5.8c0,3.6-1.8,6.9-5.8,9ZM1150.4,353.7h2.1v.8h-2.1v6.8h-.9v-13h.9v5.4h0Z"/>
    <path class="st11" d="M1160.6,354.6l-.5.8c-1.4-.6-2.6-1.7-3.1-3.1-.5,1.6-1.7,2.9-3.2,3.5l-.5-.8c1.8-.7,3.2-2.5,3.2-4.5v-1.4h.9v1.5c0,1.8,1.4,3.5,3.2,4.1h0ZM1163.2,358.9c0,1.5-1.5,2.3-4.1,2.3s-4.1-.8-4.1-2.3,1.5-2.3,4.1-2.3,4.1.9,4.1,2.3ZM1155.9,358.9c0,1,1.3,1.6,3.2,1.6s3.2-.6,3.2-1.6-1.3-1.5-3.2-1.5-3.3.6-3.2,1.5ZM1163.1,351.8h1.9v.8h-1.9v3.7h-.9v-8h.9v3.5Z"/>
    <path class="st11" d="M1174.2,360.6h-.9v-4.6h-2.5v-.8h2.5v-2.5h-2.3c-.6,2.2-2,4.2-4.4,5.7l-.5-.7c2.8-1.7,4.3-4.2,4.5-7h-4v-.8h4.8c0,.7,0,1.3-.2,2h2.1v-3.3h.9v11.9h0ZM1176.7,361.3h-.9v-13h.9v13Z"/>
    <path class="st11" d="M1182.9,357.6c1.2,0,2.4-.2,3.6-.3v.7c-2.7.5-5.7.5-7.9.5v-.8h3.4v-2.8h.9v2.8h0ZM1186.1,354.5l-.4.7c-1.5-.5-2.7-1.5-3.2-2.9-.5,1.5-1.8,2.6-3.3,3.1l-.5-.8c1.8-.6,3.3-2.1,3.3-4v-.3h-2.9v-.8h6.8v.8h-2.9v.3c0,1.7,1.4,3.2,3.2,3.8h0ZM1190.4,354.6h-2.2v6.7h-.9v-13h.9v5.5h2.2v.8Z"/>
    <path class="st11" d="M1205.1,358h-.9v-3.7h-3.4c-.6.8-1.5,1.3-2.6,1.3-1.9,0-3.3-1.3-3.2-3.2,0-1.9,1.4-3.2,3.2-3.2s2,.5,2.6,1.3h3.4v-2.1h.9v9.6h0ZM1195.8,352.4c0,1.4,1,2.4,2.4,2.4s2.4-1,2.4-2.4-1-2.4-2.4-2.4-2.4,1-2.4,2.4ZM1205.5,361h-8.4v-4.1h.9v3.3h7.5v.8h0ZM1201.4,352.4c0,.4,0,.8-.2,1.1h3v-2.3h-3c0,.4.2.7.2,1.2h0Z"/>
    <path class="st11" d="M1218.9,355.6h-11.5v-.8h5.3v-1.6h-3.8v-4.2h8.6v.8h-7.7v2.7h7.8v.8h-4v1.6h5.3v.8h0ZM1217.4,358.9c0,1.5-1.6,2.3-4.3,2.3s-4.3-.8-4.3-2.3,1.6-2.3,4.3-2.3,4.3.8,4.3,2.3ZM1209.7,358.9c0,1,1.3,1.6,3.4,1.6s3.4-.6,3.4-1.6-1.3-1.6-3.4-1.6-3.4.6-3.4,1.6Z"/>
  </g>
  <g>
    <path class="st11" d="M221.9,580.2h-3.6v2.6h4.9v.7h-10.5v-.7h4.8v-2.6h-3.4v-5.9h7.7v.7h-6.9v1.8h6.7v.7h-6.7v2h7v.7Z"/>
    <path class="st11" d="M233.2,574.9c0,1.1,0,2.4-.3,4.2h1.7v.7h-10.5v-.7h7.9c.2-.8.2-1.6.3-2.2l-7,.3v-.7c-.1,0,7.1-.3,7.1-.3v-1.7h-6.9v-.7h7.7v1h0ZM233.4,584.8h-8v-3.7h.8v2.9h7.2v.7h0Z"/>
    <path class="st11" d="M238.9,579.4c1.3,0,2.7,0,3.9-.3v.6c-2.4.4-5.1.5-7.2.5v-.7h2.5v-2.7h.8v2.6h0ZM241.9,574.8c0,.8,0,1.9-.3,3.5h-.8c.3-1.6.3-2.6.3-3.4h-4.8v-.7h5.7v.6h0ZM244.9,584.8h-7.5v-3.4h.8v2.7h6.7v.7ZM244.5,577.2h1.8v.7h-1.8v4.3h-.8v-8.9h.8v3.9Z"/>
    <path class="st11" d="M254.5,581v.7c-2.1.3-3.8.4-5.8.4h-.9v-4.4h4.5v-2.7h-4.5v-.7h5.3v4.1h-4.4v3h.1c1.9,0,3.6,0,5.8-.4h-.1ZM256.5,585.1h-.8v-11.8h.8v11.8Z"/>
    <path class="st11" d="M272.3,580.1h-4.7v2.5h-.8v-2.5h-4.9v-.7h10.5v.7h-.1ZM271,575.9c0,1.4-1.6,2.3-4,2.3s-4-.9-4-2.3,1.6-2.4,4-2.4,4,.9,4,2.4ZM271.1,584.8h-7.9v-3.4h.8v2.7h7.1v.7ZM263.9,575.9c0,1,1.3,1.6,3.1,1.6s3.2-.6,3.2-1.6-1.3-1.6-3.2-1.6-3.1.6-3.1,1.6Z"/>
    <path class="st11" d="M278.8,575h3.1v-1.8h.8v7h-.8v-1.8h-3.1c-.5.7-1.4,1-2.4,1-1.7,0-3-1.1-3-2.8s1.2-2.8,3-2.8,1.8.4,2.3,1v.2ZM274.3,576.8c0,1.2.9,2,2.2,2s2.1-.9,2.1-2-.9-2-2.1-2-2.2.9-2.2,2ZM282.8,582.8c0,1.4-1.4,2.2-3.8,2.2s-3.8-.8-3.8-2.2,1.4-2.2,3.8-2.2,3.8.8,3.8,2.2ZM276,582.8c0,1,1.2,1.6,3,1.6s3-.6,3-1.6-1.2-1.6-3-1.6-3,.6-3,1.6ZM279.4,576.8c0,.4,0,.7-.2,1h2.7v-2.1h-2.7c.1.3.2.7.2,1h0Z"/>
    <path class="st11" d="M291.6,581.8l-.5.7c-1.3-.7-2.4-2.1-3-3.8-.5,1.8-1.8,3.4-3,4l-.5-.7c1.6-.8,3.1-3.1,3.1-5.1v-1.8h-2.7v-.7h6.2v.7h-2.7v1.8c0,1.9,1.5,4,3,4.8h.1ZM293.7,578.1h2v.7h-2v6.2h-.8v-11.8h.8v4.9h0Z"/>
  </g>
  <rect class="st19" x="457" y="362.6" width="192.2" height="232"/>
  <g>
    <path class="st11" d="M515.7,387.8c1.7,0,3.5-.2,5.1-.4v1.5c-3.4.6-7.3.7-10.2.7l-.2-1.6h3.3v-3.4h2v3.3h0ZM519.9,381.7c0,1.1,0,2.8-.4,4.9l-2-.2c.3-1.7.4-3,.4-4h-6.5v-1.7h8.5v1h0ZM524.4,395.8h-11.5v-5h2.1v3.3h9.5v1.7h0ZM523.9,384.7h2.2v1.7h-2.2v5.6h-2.1v-12.5h2.1v5.2h0Z"/>
    <path class="st11" d="M535.7,387.2h-5.7v3.4c2.6,0,4.9-.1,7.5-.6l.2,1.7c-2.8.5-5.3.6-8.3.6h-1.5v-6.7h5.8v-3h-5.8v-1.7h7.9v6.2h-.1ZM540.8,396.1h-2v-16.7h2v16.7Z"/>
    <path class="st11" d="M553.4,390.9l-1.1,1.6c-1.9-.9-3.3-2.7-4-4.8-.8,2.3-2.2,4.2-4.1,5.2l-1.2-1.6c2.7-1.3,4.3-4.4,4.3-7.2v-1.4h-3.6v-1.7h9.2v1.7h-3.5v1.4c0,2.6,1.5,5.5,4.2,6.7h-.2ZM556.3,385.9h2.6v1.7h-2.6v8.5h-2v-16.7h2v6.5Z"/>
    <path class="st11" d="M579.2,394.2h-15.2v-1.7h6.5v-3.3h-5.2v-1.6h2.3v-5h-2.4v-1.7h12.6v1.7h-2.4v5h2.4v1.6h-5.3v3.3h6.7v1.7h0ZM573.5,387.6v-5h-3.7v5h3.7Z"/>
    <path class="st11" d="M588.8,381.8h-5.8v1.3h5.4v1.5h-5.4v1.4c3,0,4.7,0,6.8-.4l.2,1.6c-2.3.4-4.2.4-7.7.4h-1.3v-7.5h7.8v1.6h0ZM593.5,393.1h-8.8v1.3h9.4v1.6h-11.4v-4.4h8.8v-1.2h-8.8v-1.6h10.9v4.3h-.1ZM593.5,382.9h2.3v1.7h-2.3v3.5h-2v-8.6h2v3.4Z"/>
  </g>
  <g>
    <path class="st11" d="M526.3,444.3l-.6.8c-1.5-.8-2.8-2.4-3.4-4.3-.6,2-2,3.8-3.4,4.6l-.6-.8c1.8-1,3.5-3.5,3.6-5.9v-2.6h.9v2.6c0,2.3,1.7,4.7,3.5,5.6h0ZM528.7,440.3h2.3v.8h-2.3v7h-.9v-13.3h.9v5.5Z"/>
    <path class="st11" d="M543.9,442.3h-12.1v-.8h3.1v-2c-1.1-.4-1.7-1.1-1.7-2,0-1.6,1.8-2.4,4.7-2.4s4.7.9,4.7,2.4-.6,1.6-1.7,2v2h3.1v.8h0ZM542.4,445.8c0,1.5-1.7,2.4-4.6,2.4s-4.6-.8-4.6-2.4,1.7-2.3,4.6-2.3,4.6.8,4.6,2.3ZM534.2,437.6c0,1,1.4,1.7,3.7,1.7s3.7-.6,3.7-1.7-1.4-1.7-3.7-1.7-3.7.6-3.7,1.7ZM534.2,445.8c0,1,1.4,1.6,3.6,1.6s3.6-.6,3.6-1.6-1.4-1.6-3.6-1.6-3.6.6-3.6,1.6ZM539.9,441.5v-1.7c-.6.1-1.3.2-2.1.2s-1.4,0-2-.2v1.7h4.1Z"/>
    <path class="st11" d="M553,444.5l-.6.8c-1.5-.7-2.8-2.4-3.4-4.2-.6,2-2.1,3.8-3.5,4.6l-.6-.8c1.8-.9,3.6-3.4,3.6-5.7v-2h-3.2v-.8h7.2v.8h-3.1v2c0,2.2,1.7,4.5,3.5,5.4h0ZM555.4,440.3h2.3v.8h-2.3v7h-.9v-13.3h.9v5.5Z"/>
    <path class="st11" d="M566.1,441.8c1.5,0,3.1-.2,4.5-.4v.7c-2.7.5-6,.5-8.4.5v-.8h2.9v-3h.9v3h0ZM569.5,436.6c0,.8,0,2.2-.4,3.9h-.9c.4-1.8.4-3,.4-3.8h-5.6v-.8h6.6v.7h0ZM573,447.8h-8.7v-3.9h1v3.1h7.8v.8h0ZM572.5,439.3h2v.8h-2v4.8h-1v-10h1v4.4h0Z"/>
    <path class="st11" d="M584.1,443.6v.8c-2.4.4-4.5.5-6.7.5h-1.1v-5h5.2v-3h-5.2v-.8h6.1v4.6h-5.1v3.4h0c2.2,0,4.2,0,6.7-.5ZM586.5,448.2h-.9v-13.3h.9v13.3Z"/>
  </g>
  <g>
    <path class="st11" d="M510.5,560.9h-12.1v-.8h12.1v.8ZM508.9,565.1h-8.1v1.5h8.5v.8h-9.4v-3h8.1v-1.3h-8.1v-.8h9v2.8ZM501,555.9h7v-1.4h.9v4.4h-8.9v-4.4h.9v1.4h.1ZM508,558.1v-1.4h-7v1.4h7Z"/>
    <path class="st11" d="M523.9,562.4h-12.2v-.8h5.6v-1.6h-4v-3.1h8v-1.6h-8.1v-.8h9v3.1h-8.1v1.6h8.3v.8h-4.3v1.6h5.6v.8h.2ZM522.4,567.4h-1v-3.1h-8.3v-.8h9.3v3.9h0Z"/>
    <path class="st11" d="M531.9,563.7l-.6.7c-1.4-.8-2.4-2.2-2.9-3.9-.5,1.8-1.5,3.4-2.8,4.2l-.6-.7c1.8-1,3-3.4,3-5.7v-.8h-2.7v-.8h2.7v-2h.9v2h2.6v.8h-2.6v.8c0,2.2,1.2,4.4,3,5.4h0ZM533.7,566.8h-.9v-6.4h-2.3v-.8h2.3v-5h.9v12.2ZM536.4,567.6h-.9v-13.3h.9v13.3Z"/>
    <path class="st11" d="M545.7,558.4c0,1.9-1.5,3.3-3.4,3.2-2,0-3.5-1.3-3.4-3.2,0-1.9,1.5-3.2,3.4-3.2s3.4,1.3,3.4,3.2ZM539.7,558.4c0,1.4,1.1,2.4,2.5,2.4s2.5-1,2.5-2.4-1.1-2.4-2.5-2.4-2.5,1-2.5,2.4ZM549.8,567.2h-8.9v-4.2h.9v3.4h8v.8ZM549.4,564h-1v-9.8h1v9.8Z"/>
    <path class="st11" d="M567.7,565.8h-12.2v-.8h5.6v-3.4h-4.1v-6.2h9.2v6.2h-4.1v3.4h5.7v.8h-.1ZM557.9,560.8h7.3v-4.6h-7.3v4.6Z"/>
    <path class="st11" d="M570.7,563.2h0c2.1,0,4.2-.2,6.5-.6v.8c-2.2.5-4.3.7-6.5.7h-1.1v-8.5h.9v7.7h0ZM579.8,567.6h-.9v-13.3h.9v13.3Z"/>
    <path class="st11" d="M589.9,563.1v.8c-1.8.3-3.4.4-6.1.4h-1v-8.8h6.2v.8h-5.2v2.9h4.6v.8h-4.6v3.4h0c2.6,0,4.2,0,6.1-.4h0ZM593.2,567.6h-.9v-7.4h-3v-.8h3v-5.1h.9v13.3Z"/>
    <path class="st11" d="M603.7,560.3v.8c-2.2.4-4,.4-6.4.4h-1.1v-3.7h5.1v-1.9h-5.1v-.8h6v3.5h-5.1v2.1h0c2.4,0,4.2,0,6.4-.4h0ZM606.6,565.1c0,1.5-1.7,2.4-4.5,2.4s-4.5-.9-4.5-2.4,1.7-2.4,4.5-2.4,4.5.9,4.5,2.4ZM598.6,565.1c0,1,1.4,1.6,3.5,1.6s3.5-.6,3.5-1.6-1.4-1.6-3.5-1.6-3.5.6-3.5,1.6ZM606.5,562.5h-.9v-8.2h.9v8.2Z"/>
  </g>
  <g>
    <path class="st11" d="M493.7,499.1h-.9v-4.7h-2.7v-.8h2.7v-2.5h-2.4c-.7,2.3-2.2,4.3-4.7,5.8l-.6-.7c3-1.8,4.5-4.3,4.7-7.2h-4.2v-.8h5.1c0,.7,0,1.4-.2,2h2.2v-3.4h.9v12.2h.1ZM496.4,499.8h-.9v-13.3h.9v13.3Z"/>
    <path class="st11" d="M503,496c1.3,0,2.6-.2,3.8-.3v.7c-2.8.5-6,.5-8.4.5l-.2-.8h3.8v-2.8h.9v2.8h.1ZM506.4,492.8l-.5.8c-1.6-.5-2.8-1.6-3.4-3-.6,1.5-1.9,2.7-3.5,3.2l-.5-.8c1.9-.6,3.5-2.2,3.5-4.1v-.3h-3.1v-.8h7.2v.8h-3.1v.3c0,1.8,1.5,3.3,3.4,3.9ZM510.9,492.9h-2.3v6.9h-.9v-13.3h.9v5.6h2.3v.8Z"/>
    <path class="st11" d="M515.6,493.4c1.5,0,3.1-.2,4.5-.4v.7c-2.7.5-6,.5-8.4.5v-.8h2.9v-3h.9v3h0ZM519.1,488.2c0,.8,0,2.2-.4,3.9h-.9c.4-1.8.4-3,.4-3.8h-5.6v-.8h6.6v.7h0ZM522.5,499.5h-8.7v-3.9h.9v3.1h7.8v.8ZM522.1,490.9h2.1v.8h-2.1v4.8h-.9v-10h.9v4.4h0Z"/>
    <path class="st11" d="M533.7,495.2v.8c-2.4.4-4.5.5-6.7.5h-1.1v-5h5.2v-3h-5.2v-.8h6.1v4.6h-5.1v3.4h0c2.2,0,4.2,0,6.7-.5ZM536,499.8h-.9v-13.3h.9v13.3Z"/>
    <path class="st11" d="M539.2,497.2l-.5-.8c3.6-1.7,5.6-4.4,5.8-7.7h-5.3v-.8h6.2c0,3.8-1.9,7.1-6.3,9.3h0ZM549.4,499.8h-.9v-13.3h.9v13.3Z"/>
    <path class="st11" d="M555.7,493.4c1.5,0,3.1-.2,4.5-.4v.7c-2.7.5-6,.5-8.4.5v-.8h2.9v-3h.9v3h0ZM559.1,488.2c0,.8,0,2.2-.4,3.9h-1c.4-1.8.4-3,.4-3.8h-5.6v-.8h6.6v.7h0ZM562.6,499.5h-8.7v-3.9h.9v3.1h7.8v.8ZM562.1,490.9h2.1v.8h-2.1v4.8h-.9v-10h.9v4.4h0Z"/>
    <path class="st11" d="M574.4,488.9h-4v6.6c2,0,3.3,0,4.8-.4v.8c-1.5.3-2.8.4-5,.4h-.8v-8.3h5v.8h0ZM580.2,499.8h-.9v-7.1h-2.2v6.4h-.9v-12.3h.9v5.1h2.2v-5.4h.9v13.3Z"/>
    <path class="st11" d="M590.5,496l-.6.8c-1.5-.8-2.9-2.4-3.6-4.4-.6,2.1-2,3.8-3.5,4.6l-.6-.8c1.9-.9,3.7-3.4,3.7-5.9v-2.6h.9v2.6c0,2.4,1.8,4.9,3.7,5.7h0ZM593.1,499.8h-.9v-13.3h.9v13.3Z"/>
    <path class="st11" d="M607.7,498h-12.2v-.8h5.6v-3h-4.1v-6.8h1v2.5h7.3v-2.5h.9v6.8h-4.1v3h5.7v.8h-.1ZM605.3,493.4v-2.7h-7.3v2.7h7.3Z"/>
    <path class="st11" d="M621.1,497.9h-12.2v-.8h12.2v.8ZM619.6,493.8h-9.1v-6h9v.8h-8v4.4h8.2v.8h-.1Z"/>
    <path class="st11" d="M468,505.7h.8c-.9,1.5-1.7,4-1.7,6.4s.8,4.9,1.7,6.4h-.8c-1.2-1.8-1.8-4-1.8-6.4s.7-4.6,1.8-6.4h0Z"/>
    <path class="st11" d="M479.4,511.9h-3.8v2.6h5v.7h-10.8v-.7h5v-2.6h-3.5v-5.9h8v.7h-7.1v1.8h6.9v.7h-6.9v2h7.3v.7h-.1Z"/>
    <path class="st11" d="M491.1,506.6c0,1.1,0,2.4-.3,4.2h1.8v.7h-10.8v-.7h8.2c.2-.8.2-1.6.3-2.2l-7.2.3v-.7c-.1,0,7.3-.3,7.3-.3v-1.7h-7.1v-.7h8v1h-.2ZM491.4,516.5h-8.2v-3.7h.8v2.9h7.4v.7h0Z"/>
    <path class="st11" d="M504.4,511.4h-10.8v-.7h10.8v.7ZM503.7,509.2l-.3.7c-1.8-.3-3.8-1.1-4.4-2.5-.6,1.4-2.6,2.2-4.4,2.5l-.3-.7c1.9-.2,4.2-1.3,4.2-2.8h-3.9v-.7h8.8v.7h-3.9c0,1.5,2.3,2.6,4.2,2.9h0ZM503,514.7c0,1.4-1.5,2.1-4,2.1s-4.1-.8-4.1-2.1,1.5-2.1,4.1-2.1,4,.8,4,2.1ZM495.8,514.7c0,.9,1.2,1.4,3.2,1.4s3.2-.5,3.2-1.4-1.2-1.4-3.2-1.4-3.2.5-3.2,1.4Z"/>
    <path class="st11" d="M510.8,509.6c.3-1.4.3-2.4.3-3.1h-4.7v-.7h5.5v.5c0,.7,0,1.8-.3,3.3.5,0,1,0,1.4-.2v.6c-1.1.2-2.3.3-3.5.4v2.8h-.8v-2.8h-3.3v-.7c1.4,0,3.4,0,5.3-.2h0ZM515.4,516.5h-8.3v-3.6h.8v2.9h7.4v.7h0ZM515.1,514h-.9v-1.8h-2.7v-.7h2.7v-6.5h.9v9Z"/>
    <path class="st11" d="M531.5,515.3h-10.8v-.7h5v-3h-3.6v-5.5h8.1v5.5h-3.6v3h5v.7h-.1ZM522.8,510.8h6.5v-4.1h-6.5v4.1Z"/>
    <path class="st11" d="M534.1,513h0c1.8,0,3.7,0,5.7-.6v.7c-2,.4-3.8.6-5.7.6h-.9v-7.6h.8v6.8h0ZM542.2,516.8h-.8v-11.8h.8v11.8Z"/>
    <path class="st11" d="M551.2,512.8v.7c-1.6.3-3,.4-5.4.4h-.9v-7.8h5.5v.7h-4.7v2.6h4.1v.7h-4.1v3.1h0c2.3,0,3.8,0,5.4-.4h.1ZM554.1,516.8h-.8v-6.6h-2.7v-.7h2.7v-4.6h.8v11.8h0Z"/>
    <path class="st11" d="M563.5,510.4v.7c-1.9.3-3.6.4-5.7.4h-.9v-3.3h4.5v-1.7h-4.5v-.7h5.4v3.1h-4.5v1.9h0c2.1,0,3.7,0,5.7-.4h0ZM566,514.7c0,1.3-1.5,2.1-4,2.1s-4-.8-4-2.1,1.5-2.1,4-2.1,4,.8,4,2.1ZM558.9,514.7c0,.9,1.2,1.4,3.1,1.4s3.1-.5,3.1-1.4-1.2-1.4-3.1-1.4-3.1.5-3.1,1.4ZM565.9,512.3h-.8v-7.3h.8v7.3Z"/>
    <path class="st11" d="M577.5,510.5h-5.5v-4.7h5.5v4.7ZM572.8,509.9h3.8v-3.4h-3.8v3.4ZM581.8,516.1l-.3.7c-1.7-.3-3.4-1.2-4.1-2.3-.7,1.2-2.5,2-4.2,2.3l-.3-.7c1.9-.2,4-1.4,4-2.7h-3.6v-.7h3.6v-1.2h.8v1.2h3.6v.7h-3.6c0,1.3,2.1,2.5,4,2.7h0ZM581.1,511.8h-.8v-6.8h.8v6.8Z"/>
    <path class="st11" d="M597.3,511.9h-10.8v-.7h5v-1.6h.8v1.6h5v.7ZM592.4,506.2h3.8v.7h-3.8c0,1.5,2.2,2.4,4.2,2.6l-.3.7c-1.9-.2-3.7-1-4.4-2.2-.7,1.3-2.6,2-4.4,2.2l-.3-.7c2.1-.2,4.2-1.1,4.2-2.6h-3.8v-.7h3.8v-1.2h.8v1.2h.2ZM596,514.9c0,1.2-1.5,1.9-4,1.9s-4.1-.7-4.1-1.9,1.5-1.9,4.1-2c2.5,0,4,.7,4,2ZM588.7,514.9c0,.8,1.2,1.3,3.2,1.3s3.2-.5,3.2-1.3-1.2-1.3-3.2-1.3-3.2.5-3.2,1.3Z"/>
    <path class="st11" d="M605.5,510.3v.7c-1.9.3-3.5.4-5.6.4h-.9v-3.2h4.5v-1.7h-4.5v-.7h5.3v3.1h-4.5v1.8h0c2.1,0,3.7,0,5.6-.4h.1ZM607.7,514.7c0,1.3-1.5,2.1-3.9,2.1s-3.9-.8-3.9-2.1,1.5-2.1,3.9-2.1,3.9.8,3.9,2.1ZM600.8,514.7c0,.9,1.2,1.4,3.1,1.4s3-.5,3-1.4-1.2-1.4-3-1.4-3.1.5-3.1,1.4ZM609.5,507.7h-1.8v1.8h1.8v.7h-1.8v2h-.8v-7.2h.8v1.9h1.8v.7h0Z"/>
    <path class="st11" d="M617,511.1c1.4,0,2.8-.1,4-.3v.6c-2.4.4-5.3.5-7.4.5v-.7h2.6v-2.7h.8v2.6h0ZM620.1,506.5c0,.8,0,1.9-.3,3.5h-.8c.3-1.6.3-2.6.3-3.4h-5v-.7h5.8v.6ZM623.2,516.5h-7.8v-3.4h.8v2.7h6.9v.7h0ZM622.8,508.9h1.8v.7h-1.8v4.3h-.8v-8.9h.8v3.9h0Z"/>
    <path class="st11" d="M633.1,512.8v.7c-2.2.3-4,.4-6,.4h-1v-4.4h4.6v-2.7h-4.6v-.7h5.5v4.1h-4.6v3h0c1.9,0,3.8,0,6-.4ZM635.2,516.8h-.8v-11.8h.8v11.8Z"/>
    <path class="st11" d="M638.2,518.5h-.8c.9-1.5,1.7-4,1.7-6.4s-.8-4.9-1.7-6.4h.8c1.2,1.8,1.8,3.9,1.8,6.4s-.7,4.6-1.8,6.4Z"/>
  </g>
  <line class="st6" x1="456.8" y1="410.5" x2="649.4" y2="410.5"/>
  <line class="st3" x1="465.5" y1="471.7" x2="640.7" y2="471.7"/>
  <line class="st3" x1="465.5" y1="532.8" x2="640.7" y2="532.8"/>
  <line class="st6" x1="453.3" y1="594" x2="652.9" y2="594"/>
  <rect class="st17" x="668.3" y="290.7" width="85.6" height="287.6" rx="5.5" ry="5.5"/>
  <g>
    <path class="st12" d="M691.1,411.1h4.6c2.8,0,4.3,1.6,4.3,3.9s-.8,2.9-2.2,3.5l2.6,4.8h-2.4l-2.4-4.4h-2.3v4.4h-2.2v-12.1h0ZM695.3,417c1.6,0,2.4-.7,2.4-2s-.7-2-2.4-2h-2v4h2Z"/>
    <path class="st12" d="M701.8,411.1h7.9v1.8h-5.7v3.3h5.3v1.8h-5.3v3.3h5.7v1.8h-7.9v-12.1h0Z"/>
    <path class="st12" d="M716.1,412.8c-1.4,0-2.2.7-2.2,1.6s1.1,1.4,2.1,1.7l1.1.3c1.8.4,3.6,1.4,3.6,3.5s-1.7,3.6-4.6,3.6-4.6-1.4-4.7-3.8h2.1c0,1.3,1.2,1.9,2.5,1.9s2.4-.7,2.4-1.7-.9-1.4-2.2-1.7l-1.4-.4c-2-.5-3.2-1.5-3.2-3.3s1.9-3.6,4.5-3.6,4.3,1.5,4.4,3.5h-2.1c0-1-1-1.6-2.3-1.6h0Z"/>
    <path class="st12" d="M722,411.1h9.7v1.8h-3.7v10.3h-2.2v-10.3h-3.8v-1.8Z"/>
    <path class="st12" d="M693.6,443.8l4.3-12.1h2.7l4.3,12.1h-2.3l-1-3h-4.6l-1,3h-2.4ZM700.9,439.1l-1.7-4.9h0l-1.6,4.9h3.4,0Z"/>
    <path class="st12" d="M706.3,431.7h4.6c2.8,0,4.3,1.7,4.3,4s-1.5,4-4.3,4h-2.3v4.1h-2.2v-12.1h0ZM710.5,437.9c1.6,0,2.4-.9,2.4-2.2s-.7-2.2-2.4-2.2h-2v4.4h2Z"/>
    <path class="st12" d="M718.9,443.8h-2.1v-12.1h2.1v12.1Z"/>
    <path class="st12" d="M724.5,436.2c-.9,0-1.6.5-1.6,1.1s.4.8,1.3,1l1.5.3c1.7.4,2.5,1.2,2.6,2.5,0,1.7-1.5,2.9-3.9,2.9s-3.7-1-3.9-2.8h2.2c0,.8.7,1.2,1.7,1.2s1.7-.4,1.7-1.1-.4-.9-1.3-1.1l-1.5-.3c-1.7-.3-2.6-1.2-2.6-2.5s1.4-2.8,3.7-2.8,3.5,1.1,3.7,2.7h-2c0-.7-.7-1.1-1.6-1.1h0Z"/>
  </g>
  <g>
    <g>
      <rect class="st17" x="1032.5" y="274.1" width="98" height="70.6" rx="2.9" ry="2.9"/>
      <g>
        <path class="st12" d="M1064.7,298.4h-4.5v2.8h6v1.5h-13.8v-1.5h6v-2.8h-4.3v-8h10.5v1.5h-8.6v1.7h8.2v1.5h-8.2v1.8h8.7v1.5h0Z"/>
        <path class="st12" d="M1079.3,291.4c0,1.5,0,3-.4,5.2h2.1v1.5h-13.8v-1.5h9.9c.2-.8.2-1.5.3-2.1l-8.6.4-.2-1.5,8.9-.2v-1.6h-8.6v-1.5h10.4v1.4h0ZM1079.6,304.1h-10.8v-4.8h1.9v3.3h8.9v1.5Z"/>
        <path class="st12" d="M1095.8,297.8h-13.8v-1.5h13.8v1.5ZM1094.6,291.5h-4.4c.3,1.3,2.1,2.4,5,2.7l-.7,1.5c-2.7-.3-4.8-1.4-5.6-2.9-.8,1.5-2.8,2.6-5.6,2.9l-.6-1.5c2.8-.3,4.6-1.4,4.9-2.7h-4.3v-1.5h11.3v1.5h0ZM1094.1,301.6c0,1.8-2,2.8-5.2,2.8s-5.3-1-5.3-2.8,2-2.8,5.3-2.8,5.2,1,5.2,2.8ZM1085.5,301.6c0,.9,1.2,1.3,3.4,1.3s3.4-.5,3.4-1.3-1.2-1.3-3.4-1.3-3.4.5-3.4,1.3Z"/>
        <path class="st12" d="M1103.2,294.9c.2-1.4.3-2.5.3-3.4h-5.4v-1.5h7.2v.6c0,.8,0,2.2-.3,4.1.5,0,1-.1,1.5-.2v1.3c-1.2.2-2.5.4-3.9.5v3.3h-1.8v-3.2h-3.9l-.2-1.5c1.8,0,4.1,0,6.4-.2v.2ZM1110,304.1h-11.1v-4.6h1.9v3.1h9.2v1.5ZM1109.6,300.7h-1.9v-1.8h-3.1v-1.5h3.1v-8.1h1.9v11.4Z"/>
        <path class="st12" d="M1076.3,320.4l-.9,1.5c-1.7-.6-2.9-1.7-3.5-3.1-.7,1.6-1.9,2.9-3.7,3.6l-1-1.5c2.4-.8,3.7-2.9,3.7-4.9h0c0-.1-3.1-.1-3.1-.1v-1.5h8.2v1.5h-3.1c0,1.9,1.2,3.8,3.6,4.6h-.2ZM1079.9,325.6c0,1.8-2,2.9-5.2,2.9s-5.2-1.1-5.1-2.9c0-1.8,1.9-2.9,5.1-2.9s5.2,1.1,5.2,2.9ZM1071.4,325.6c0,.9,1.2,1.4,3.3,1.4s3.3-.5,3.3-1.4-1.2-1.5-3.3-1.5-3.3.5-3.3,1.5ZM1079.9,322.3h-1.9v-3.7h-2.6v-1.5h2.6v-3.8h1.9v9Z"/>
        <path class="st12" d="M1091.1,320.6l-1,1.5c-1.7-.6-2.9-1.7-3.5-3.2-.7,1.6-1.9,2.9-3.7,3.5l-1-1.5c2.5-.8,3.7-2.8,3.7-5v-1.7h1.9v1.7c0,2,1.2,3.9,3.6,4.7ZM1094.6,328.1h-10.3v-4.8h1.9v3.3h8.4v1.5ZM1094,317.8h2.1v1.6h-2.1v5.1h-1.9v-11.1h1.9v4.5h0Z"/>
      </g>
    </g>
    <g>
      <rect class="st17" x="910.5" y="274.1" width="98" height="70.6" rx="2.9" ry="2.9"/>
      <g>
        <path class="st12" d="M942.7,298.4h-4.5v2.8h6v1.5h-13.8v-1.5h6v-2.8h-4.3v-8h10.5v1.5h-8.6v1.7h8.2v1.5h-8.2v1.8h8.7v1.5h0Z"/>
        <path class="st12" d="M957.3,291.4c0,1.5,0,3-.4,5.2h2.1v1.5h-13.8v-1.5h9.9c.2-.8.2-1.5.3-2.1l-8.6.4-.2-1.5,8.9-.2v-1.6h-8.6v-1.5h10.4v1.4h0ZM957.6,304.1h-10.8v-4.8h1.9v3.3h8.9v1.5h0Z"/>
        <path class="st12" d="M973.8,297.8h-13.8v-1.5h13.8v1.5ZM972.6,291.5h-4.4c.3,1.3,2.1,2.4,5,2.7l-.7,1.5c-2.7-.3-4.8-1.4-5.6-2.9-.8,1.5-2.8,2.6-5.6,2.9l-.6-1.5c2.8-.3,4.6-1.4,4.9-2.7h-4.3v-1.5h11.3v1.5h0ZM972.2,301.6c0,1.8-2,2.8-5.2,2.8s-5.3-1-5.3-2.8,2-2.8,5.3-2.8,5.2,1,5.2,2.8ZM963.5,301.6c0,.9,1.2,1.3,3.4,1.3s3.4-.5,3.4-1.3-1.2-1.3-3.4-1.3-3.4.5-3.4,1.3Z"/>
        <path class="st12" d="M981.2,294.9c.2-1.4.3-2.5.3-3.4h-5.4v-1.5h7.2v.6c0,.8,0,2.2-.3,4.1.5,0,1-.1,1.5-.2v1.3c-1.2.2-2.5.4-3.9.5v3.3h-1.8v-3.2h-3.9l-.2-1.5c1.8,0,4.1,0,6.4-.2v.2ZM988,304.1h-11.1v-4.6h1.9v3.1h9.2v1.5h0ZM987.7,300.7h-1.9v-1.8h-3.1v-1.5h3.1v-8.1h1.9v11.4Z"/>
        <path class="st12" d="M954.3,320.5l-.9,1.4c-1.8-.5-3-1.5-3.7-2.8-.7,1.5-1.9,2.7-3.7,3.2l-.9-1.4c2.4-.7,3.6-2.5,3.6-4.3h-3.2v-1.5h3.2v-1.7h1.9v1.7h3.2v1.5h-3.2c0,1.7,1.3,3.4,3.7,4h0ZM957.9,325.6c0,1.8-2,2.8-5.2,2.8s-5.2-1-5.1-2.8c0-1.8,2-2.8,5.1-2.8s5.2,1,5.2,2.8ZM949.5,325.6c0,.9,1.2,1.4,3.3,1.4s3.3-.5,3.3-1.4-1.2-1.4-3.3-1.4-3.3.5-3.3,1.4ZM957.9,322.5h-1.9v-3.5h-2.7v-1.5h2.7v-4.2h1.9v9.2Z"/>
        <path class="st12" d="M968.4,317.8c0,2.2-1.8,3.7-4.1,3.7s-4.1-1.5-4.1-3.7,1.7-3.7,4.1-3.6c2.3,0,4.1,1.5,4.1,3.6ZM972,328.4h-1.9v-4h-8.2v-1.5h10.1v5.5h0ZM962,317.8c0,1.3,1,2.1,2.3,2.1s2.3-.8,2.3-2.1-1-2-2.3-2.1c-1.3,0-2.3.8-2.3,2.1ZM974,316.9h-2.1v1.7h2.1v1.6h-2.1v2h-1.9v-8.9h1.9v2.1h2.1v1.5h0Z"/>
      </g>
    </g>
    <g>
      <rect class="st17" x="788.5" y="274.1" width="98" height="70.6" rx="2.9" ry="2.9"/>
      <g>
        <path class="st12" d="M820.7,298.4h-4.5v2.8h6v1.5h-13.8v-1.5h6v-2.8h-4.3v-8h10.5v1.5h-8.6v1.7h8.2v1.5h-8.2v1.8h8.7v1.5h0Z"/>
        <path class="st12" d="M835.4,291.4c0,1.5,0,3-.4,5.2h2.1v1.5h-13.8v-1.5h9.9c.2-.8.2-1.5.3-2.1l-8.6.4-.2-1.5,8.9-.2v-1.6h-8.6v-1.5h10.4v1.4h0ZM835.6,304.1h-10.8v-4.8h1.9v3.3h8.9v1.5h0Z"/>
        <path class="st12" d="M851.9,297.8h-13.8v-1.5h13.8v1.5ZM850.6,291.5h-4.4c.3,1.3,2.1,2.4,5,2.7l-.7,1.5c-2.7-.3-4.8-1.4-5.6-2.9-.8,1.5-2.8,2.6-5.6,2.9l-.6-1.5c2.8-.3,4.6-1.4,4.9-2.7h-4.3v-1.5h11.3v1.5h0ZM850.2,301.6c0,1.8-2,2.8-5.2,2.8s-5.3-1-5.3-2.8,2-2.8,5.3-2.8,5.2,1,5.2,2.8ZM841.6,301.6c0,.9,1.2,1.3,3.4,1.3s3.4-.5,3.4-1.3-1.2-1.3-3.4-1.3-3.4.5-3.4,1.3Z"/>
        <path class="st12" d="M859.2,294.9c.2-1.4.3-2.5.3-3.4h-5.4v-1.5h7.2v.6c0,.8,0,2.2-.3,4.1.5,0,1-.1,1.5-.2v1.3c-1.2.2-2.5.4-3.9.5v3.3h-1.8v-3.2h-3.9l-.2-1.5c1.8,0,4.1,0,6.4-.2v.2ZM866,304.1h-11.1v-4.6h1.9v3.1h9.2v1.5h0ZM865.7,300.7h-1.9v-1.8h-3.1v-1.5h3.1v-8.1h1.9v11.4Z"/>
        <path class="st12" d="M825.6,315.9h3.5v-1.9h1.8v6.6h-7.2v-6.6h1.8v1.9h.1ZM835.2,325.6h-8v1.2h8.5v1.5h-10.4v-4h8v-1.2h-8v-1.5h9.9v4ZM829.1,319.1v-1.8h-3.5v1.8h3.5ZM835.2,316.4h2.1v1.5h-2.1v3.2h-1.9v-7.8h1.9v3.1h0Z"/>
        <path class="st12" d="M845.5,316.4h-7.5v-1.5h2.9v-1.5h1.8v1.5h2.8v1.5ZM845.1,319.6c0,1.6-1.4,2.6-3.3,2.6s-3.3-1-3.2-2.6c0-1.6,1.4-2.6,3.2-2.6s3.3,1,3.3,2.6ZM840.2,319.6c0,.8.6,1.3,1.6,1.3s1.6-.5,1.6-1.3-.7-1.3-1.6-1.3-1.6.5-1.6,1.3ZM851.1,325.7c0,1.7-2,2.7-5.2,2.7s-5.2-1-5.2-2.7,2-2.7,5.2-2.7,5.2,1,5.2,2.7ZM842.6,325.7c0,.8,1.2,1.3,3.3,1.3s3.3-.4,3.3-1.3-1.2-1.3-3.3-1.3-3.3.4-3.3,1.3ZM851,322.8h-1.8v-4.1h-1.5v3.6h-1.7v-8.7h1.7v3.6h1.5v-3.9h1.8v9.5Z"/>
      </g>
    </g>
  </g>
  <g>
    <rect class="st17" x="790.2" y="354.8" width="341.6" height="32.2" rx="3.2" ry="3.2"/>
    <g>
      <path class="st12" d="M902.1,377.7h-2.2v-12.1h2.2v12.1Z"/>
      <path class="st12" d="M906.4,377.7h-2.1v-9.1h2v1.5h0c.4-1,1.3-1.7,2.7-1.7s3.1,1.2,3.1,3.4v5.8h-2.1v-5.5c0-1.2-.7-1.9-1.8-1.9s-1.9.8-1.9,2.1v5.3h0Z"/>
      <path class="st12" d="M918.9,370.2h-1.9v7.5h-2.1v-7.5h-1.4v-1.6h1.4v-.9c0-1.8,1.1-2.7,2.8-2.7s1,0,1.4.1v1.7h-.8c-.9,0-1.3.4-1.3,1.2v.7h1.9v1.6h0Z"/>
      <path class="st12" d="M920.4,368.6h2.1v1.5h0c.3-1,1.2-1.6,2.2-1.6s.6,0,.8,0v2c-.2,0-.6-.1-1-.1-1.2,0-2.1.8-2.1,2v5.4h-2.1v-9.1h0Z"/>
      <path class="st12" d="M929.6,372.4c.6,0,1.9-.1,2.3-.1v-.7c0-.9-.6-1.4-1.6-1.4s-1.5.4-1.7,1.1h-2.1c.2-1.5,1.5-2.7,3.8-2.7s3.7.7,3.7,3.1v6.1h-2v-1.3h0c-.4.8-1.3,1.4-2.7,1.4s-3-1-3-2.7,1.7-2.6,3.4-2.7h-.1ZM929.9,376.3c1.3,0,2.1-.9,2.1-1.9v-.8h-2c-1,.2-1.7.6-1.7,1.4s.6,1.2,1.5,1.2h.1Z"/>
      <path class="st12" d="M945.6,367.4c-2,0-3.4,1.5-3.4,4.3s1.4,4.3,3.4,4.3,2.6-.8,2.9-2.2h2.2c-.3,2.3-2.2,4.2-5.1,4.2s-5.5-2.3-5.5-6.2,2.4-6.2,5.5-6.2,4.8,1.6,5.1,4.3h-2.2c-.3-1.5-1.4-2.3-2.9-2.3v-.2Z"/>
      <path class="st12" d="M952,373.2c0-2.8,1.7-4.7,4.4-4.7s4.4,1.9,4.4,4.7-1.7,4.7-4.4,4.7-4.4-1.9-4.4-4.7ZM958.6,373.2c0-1.7-.7-3-2.2-3s-2.2,1.3-2.2,3,.7,3,2.2,3,2.2-1.3,2.2-3Z"/>
      <path class="st12" d="M964.6,377.7h-2.1v-9.1h2v1.5h0c.4-1,1.3-1.7,2.7-1.7s3.1,1.2,3.1,3.4v5.8h-2.1v-5.5c0-1.2-.7-1.9-1.8-1.9s-1.9.8-1.9,2.1v5.3h0Z"/>
      <path class="st12" d="M974.6,377.7h-2.1v-9.1h2v1.5h0c.4-1,1.3-1.7,2.7-1.7s3.1,1.2,3.1,3.4v5.8h-2.1v-5.5c0-1.2-.7-1.9-1.8-1.9s-1.9.8-1.9,2.1v5.3h0Z"/>
      <path class="st12" d="M982.1,373.2c0-2.8,1.7-4.7,4.3-4.7s4.2,1.4,4.2,4.6v.7h-6.3c0,1.5.9,2.5,2.3,2.5s1.6-.4,1.8-.9h2.1c-.4,1.6-1.8,2.6-4,2.6s-4.4-1.8-4.4-4.7h0ZM988.5,372.3c0-1.2-.8-2.1-2.1-2.1s-2.1,1-2.2,2.1h4.3Z"/>
      <path class="st12" d="M991.8,373.2c0-2.8,1.7-4.7,4.4-4.7s3.8,1.3,3.9,3.3h-2c-.2-.9-.8-1.5-1.8-1.5s-2.2,1.1-2.2,2.9.9,3,2.2,3,1.7-.6,1.8-1.5h2c-.2,1.9-1.6,3.3-3.9,3.3s-4.4-1.9-4.4-4.7h0Z"/>
      <path class="st12" d="M1006.2,370.2h-1.8v4.7c0,.9.4,1.1,1,1.1h.9v1.7h-1.2c-1.6,0-2.8-.8-2.8-2.5v-5.1h-1.3v-1.6h1.3v-2.2h2.1v2.2h1.8v1.6h0Z"/>
      <path class="st12" d="M1007.4,373.2c0-2.8,1.7-4.7,4.4-4.7s4.4,1.9,4.4,4.7-1.7,4.7-4.4,4.7-4.4-1.9-4.4-4.7ZM1013.9,373.2c0-1.7-.7-3-2.2-3s-2.2,1.3-2.2,3,.7,3,2.2,3,2.2-1.3,2.2-3Z"/>
      <path class="st12" d="M1017.8,368.6h2.1v1.5h0c.3-1,1.2-1.6,2.2-1.6s.6,0,.8,0v2c-.2,0-.6-.1-1-.1-1.2,0-2.1.8-2.1,2v5.4h-2.1v-9.1h0Z"/>
    </g>
  </g>
  <g>
    <g>
      <path class="st11" d="M327.2,426.2h-4.1v2.9h5.5v.8h-11.9v-.8h5.4v-2.9h-3.9v-6.5h8.8v.8h-7.8v2h7.5v.8h-7.5v2.2h8v.8h0Z"/>
      <path class="st11" d="M340,420.4c0,1.2,0,2.6-.4,4.6h2v.8h-11.9v-.8h9c.2-.9.3-1.7.3-2.4l-7.9.4v-.8c-.1,0,8-.3,8-.3v-1.8h-7.8v-.8h8.8v1.1h-.1ZM340.3,431.2h-9v-4h.9v3.2h8.1v.8Z"/>
      <path class="st11" d="M354.6,425.6h-11.8v-.8h11.8v.8ZM353.9,423.2l-.4.8c-2-.3-4.1-1.2-4.9-2.8-.7,1.5-2.8,2.5-4.8,2.8l-.4-.8c2.1-.3,4.6-1.4,4.6-3.1h-4.3v-.8h9.7v.8h-4.3c0,1.7,2.5,2.9,4.6,3.1h.2ZM353.1,429.2c0,1.5-1.7,2.3-4.4,2.3s-4.5-.8-4.5-2.3,1.7-2.3,4.5-2.3,4.4.9,4.4,2.3ZM345.1,429.2c0,1,1.4,1.6,3.5,1.6s3.5-.6,3.5-1.6-1.4-1.6-3.5-1.6-3.5.6-3.5,1.6Z"/>
      <path class="st11" d="M361.7,423.6c.3-1.5.3-2.7.3-3.4h-5.1v-.8h6v.5c0,.7,0,1.9-.3,3.6.5,0,1.1-.1,1.6-.2v.7c-1.2.2-2.5.3-3.8.4v3.1h-.9v-3h-3.7v-.8c1.6,0,3.7,0,5.9-.2h0ZM366.8,431.2h-9.1v-4h.9v3.2h8.1v.8h.1ZM366.4,428.4h-.9v-2h-3v-.8h3v-7.1h.9v9.8h0Z"/>
      <path class="st11" d="M374,421.1h4.1v-2h.9v5.6h-6v-5.6h.9v2h.1ZM378.1,424v-2.1h-4.1v2.1h4.1ZM382.6,429h-7.2v1.6h7.7v.8h-8.6v-3.1h7.2v-1.5h-7.3v-.8h8.2v3h0ZM382.6,421.5h2v.8h-2v3h-.9v-6.7h.9v2.9h0Z"/>
      <path class="st11" d="M392.2,421h-6.8v-.8h2.9v-1.5h.9v1.5h2.9v.8h.1ZM391.6,424c0,1.3-1.1,2.2-2.8,2.2s-2.8-.9-2.8-2.2,1.1-2.2,2.8-2.2,2.8.9,2.8,2.2ZM386.9,424c0,.9.8,1.5,1.9,1.5s1.9-.6,1.9-1.5-.8-1.5-1.9-1.5-1.9.6-1.9,1.5ZM396.5,429.3c0,1.4-1.6,2.2-4.3,2.2s-4.3-.8-4.3-2.2,1.6-2.2,4.3-2.2,4.3.8,4.3,2.2ZM388.8,429.3c0,.9,1.3,1.5,3.4,1.5s3.4-.6,3.4-1.5-1.3-1.5-3.4-1.5-3.4.5-3.4,1.5ZM396.5,426.8h-.9v-3.8h-2v3.4h-.9v-7.5h.9v3.4h2v-3.6h.9v8.2h0Z"/>
      <path class="st11" d="M402.8,432h-.9l3.4-12.8h.9l-3.4,12.8Z"/>
      <path class="st11" d="M418.3,425l-.5.8c-1.5-.5-2.7-1.7-3.2-3.1-.6,1.6-1.8,2.8-3.4,3.4l-.5-.8c1.9-.7,3.4-2.4,3.4-4.4v-.7h-3v-.8h7v.8h-3v.7c0,1.8,1.4,3.4,3.3,4h0ZM421.4,429.1c0,1.5-1.6,2.4-4.3,2.4s-4.3-.9-4.3-2.4,1.6-2.4,4.3-2.4,4.3.9,4.3,2.4ZM413.7,429.1c0,1,1.3,1.6,3.4,1.6s3.4-.6,3.4-1.6-1.3-1.6-3.4-1.6-3.4.6-3.4,1.6ZM421.4,426.3h-.9v-3.5h-2.8v-.8h2.8v-3.5h.9v7.7h0Z"/>
      <path class="st11" d="M431.2,425.2l-.5.8c-1.5-.6-2.7-1.7-3.3-3.1-.5,1.6-1.8,2.9-3.3,3.5l-.5-.8c1.9-.7,3.3-2.5,3.3-4.6v-1.7h.9v1.7c0,1.8,1.5,3.5,3.3,4.1h.1ZM434.4,431.2h-8.6v-4h1v3.2h7.7v.8h-.1ZM433.8,422.6h2v.8h-2v4.8h-.9v-9.6h.9v4.1h0Z"/>
      <path class="st11" d="M328.5,446.2h-11.8v-.8h11.8v.8ZM327.8,443.5l-.4.8c-1.9-.3-4-1.4-4.8-2.9-.8,1.6-2.9,2.6-4.8,2.9l-.4-.8c2.1-.3,4.7-1.7,4.7-3.5v-.7h.9v.7c0,1.8,2.6,3.2,4.7,3.5h0ZM327.1,449.8c0,1.5-1.7,2.3-4.4,2.3s-4.5-.8-4.5-2.3,1.7-2.3,4.5-2.3,4.4.8,4.4,2.3ZM319.1,449.8c0,1,1.4,1.5,3.5,1.5s3.5-.6,3.5-1.5-1.4-1.5-3.5-1.5-3.5.6-3.5,1.5Z"/>
      <path class="st11" d="M336.8,443.3c0,1.9-1.4,3.2-3.4,3.2s-3.4-1.3-3.4-3.2,1.4-3.1,3.4-3.1,3.4,1.3,3.4,3.1ZM331,443.3c0,1.4,1,2.3,2.5,2.3s2.5-1,2.5-2.3-1.1-2.3-2.5-2.3-2.5,1-2.5,2.3ZM340.8,451.8h-8.7v-4.1h.9v3.3h7.8v.8h0ZM340.4,448.7h-.9v-9.5h.9v9.5Z"/>
      <path class="st11" d="M353.1,445.2h-6v-5.2h6v5.2ZM348,444.5h4.2v-3.7h-4.2v3.7ZM357.9,451.4l-.3.8c-1.8-.3-3.7-1.3-4.5-2.5-.8,1.3-2.7,2.2-4.6,2.5l-.4-.8c2-.2,4.4-1.5,4.4-2.9h-3.9v-.7h3.9v-1.3h.9v1.3h3.9v.7h-3.9c0,1.5,2.3,2.7,4.4,3h.1ZM357.1,446.7h-.9v-7.5h.9v7.5Z"/>
      <path class="st11" d="M366.9,445.9c1.5,0,3-.2,4.4-.4v.7c-2.7.5-5.8.5-8.1.5v-.8h2.8v-2.9h.9v2.9h0ZM370.2,440.8c0,.8,0,2.1-.4,3.8h-.9c.3-1.7.4-2.9.4-3.7h-5.5v-.8h6.4v.7ZM373.6,451.8h-8.5v-3.8h.9v3h7.6v.8ZM373.1,443.5h2v.8h-2v4.7h-.9v-9.8h.9v4.3Z"/>
      <path class="st11" d="M384.5,447.7v.8c-2.4.4-4.4.5-6.5.5h-1.1v-4.9h5v-2.9h-5.1v-.8h6v4.5h-5v3.3h.1c2.1,0,4.1,0,6.5-.5h.1ZM386.8,452.2h-.9v-13h.9v13Z"/>
    </g>
    <circle class="st11" cx="307.8" cy="424.5" r="2.4"/>
  </g>
  <g>
    <g>
      <path class="st11" d="M327.2,545.5h-4.1v2.9h5.5v.8h-11.9v-.8h5.4v-2.9h-3.9v-6.5h8.8v.8h-7.8v2h7.5v.8h-7.5v2.2h8v.8h0Z"/>
      <path class="st11" d="M340,539.7c0,1.2,0,2.6-.4,4.6h2v.8h-11.9v-.8h9c.2-.9.3-1.7.3-2.4l-7.9.4v-.8c-.1,0,8-.3,8-.3v-1.8h-7.8v-.8h8.8v1.1h-.1ZM340.3,550.5h-9v-4h.9v3.2h8.1v.8Z"/>
      <path class="st11" d="M354.6,544.9h-11.8v-.8h11.8v.8ZM353.9,542.5l-.4.8c-2-.3-4.1-1.2-4.9-2.8-.7,1.5-2.8,2.5-4.8,2.8l-.4-.8c2.1-.3,4.6-1.4,4.6-3.1h-4.3v-.8h9.7v.8h-4.3c0,1.7,2.5,2.9,4.6,3.1h.2ZM353.1,548.5c0,1.5-1.7,2.3-4.4,2.3s-4.5-.8-4.5-2.3,1.7-2.3,4.5-2.3,4.4.9,4.4,2.3ZM345.1,548.5c0,1,1.4,1.6,3.5,1.6s3.5-.6,3.5-1.6-1.4-1.6-3.5-1.6-3.5.6-3.5,1.6Z"/>
      <path class="st11" d="M361.7,542.9c.3-1.5.3-2.7.3-3.4h-5.1v-.8h6v.5c0,.7,0,1.9-.3,3.6.5,0,1.1,0,1.6-.2v.7c-1.2.2-2.5.3-3.8.4v3.1h-.9v-3h-3.7v-.8c1.6,0,3.7,0,5.9-.2h0ZM366.8,550.5h-9.1v-4h.9v3.2h8.1v.8h.1ZM366.4,547.7h-.9v-2h-3v-.8h3v-7.1h.9v9.8h0Z"/>
      <path class="st11" d="M374,540.4h4.1v-2h.9v5.6h-6v-5.6h.9v2h.1ZM378.1,543.3v-2.1h-4.1v2.1h4.1ZM382.6,548.3h-7.2v1.6h7.7v.8h-8.6v-3.1h7.2v-1.5h-7.3v-.8h8.2v3h0ZM382.6,540.8h2v.8h-2v3h-.9v-6.7h.9v2.9Z"/>
      <path class="st11" d="M392.2,540.3h-6.8v-.8h2.9v-1.5h.9v1.5h2.9v.8h.1ZM391.6,543.2c0,1.3-1.1,2.2-2.8,2.2s-2.8-.9-2.8-2.2,1.1-2.2,2.8-2.2,2.8.9,2.8,2.2ZM386.9,543.2c0,.9.8,1.5,1.9,1.5s1.9-.6,1.9-1.5-.8-1.5-1.9-1.5-1.9.6-1.9,1.5ZM396.5,548.6c0,1.4-1.6,2.2-4.3,2.2s-4.3-.8-4.3-2.2,1.6-2.2,4.3-2.2,4.3.8,4.3,2.2ZM388.8,548.6c0,.9,1.3,1.5,3.4,1.5s3.4-.6,3.4-1.5-1.3-1.5-3.4-1.5-3.4.5-3.4,1.5ZM396.5,546.1h-.9v-3.8h-2v3.4h-.9v-7.5h.9v3.4h2v-3.6h.9v8.2h0Z"/>
      <path class="st11" d="M405.9,544.6c1.5,0,3-.2,4.4-.4v.7c-2.7.5-5.8.5-8.1.5v-.8h2.8v-2.9h.9v2.9h0ZM409.3,539.5c0,.8,0,2.1-.4,3.8h-.9c.3-1.7.4-2.9.4-3.7h-5.5v-.8h6.4v.7ZM412.7,550.5h-8.5v-3.8h.9v3h7.6v.8ZM412.2,542.2h2v.8h-2v4.7h-.9v-9.8h.9v4.3Z"/>
      <path class="st11" d="M423.6,546.4v.8c-2.4.4-4.4.5-6.5.5h-1.1v-4.9h5v-2.9h-5.1v-.8h6v4.5h-5v3.3h.1c2.1,0,4.1,0,6.5-.5h.1ZM425.9,550.9h-.9v-13h.9v13Z"/>
    </g>
    <circle class="st11" cx="307.8" cy="543.7" r="2.4"/>
  </g>
  <g>
    <g>
      <path class="st11" d="M328.5,569.8h-11.8v-.8h11.8v.8ZM327,573.9h-7.9v1.5h8.3v.8h-9.2v-2.9h7.9v-1.3h-7.9v-.7h8.8v2.8-.2ZM319.2,564.9h6.8v-1.4h.9v4.3h-8.7v-4.3h.9v1.4h.1ZM326,567.1v-1.4h-6.8v1.4h6.8Z"/>
      <path class="st11" d="M341.6,571.3h-11.9v-.8h5.5v-1.5h-3.9v-3h7.8v-1.5h-7.9v-.8h8.8v3h-7.9v1.5h8.1v.8h-4.2v1.5h5.5v.8h.1ZM340.1,576.2h-.9v-3h-8.1v-.8h9.1v3.8h-.1Z"/>
      <path class="st11" d="M349.4,572.6l-.5.7c-1.3-.7-2.3-2.2-2.8-3.8-.5,1.8-1.5,3.3-2.8,4.1l-.6-.7c1.7-1,2.9-3.3,2.9-5.5v-.8h-2.6v-.8h2.6v-2h.9v2h2.5v.8h-2.6v.8c0,2.1,1.2,4.3,2.9,5.2h.1ZM351.2,575.6h-.9v-6.3h-2.2v-.8h2.2v-4.9h.9v11.9h0ZM353.8,576.3h-.9v-13h.9v13Z"/>
      <path class="st11" d="M362.8,567.4c0,1.9-1.4,3.2-3.4,3.2s-3.4-1.3-3.4-3.2,1.4-3.1,3.4-3.1,3.4,1.3,3.4,3.1ZM357,567.4c0,1.4,1,2.3,2.5,2.3s2.5-1,2.5-2.3-1.1-2.3-2.5-2.3-2.5,1-2.5,2.3ZM366.9,576h-8.7v-4.1h.9v3.3h7.8v.8h0ZM366.5,572.9h-.9v-9.5h.9v9.5Z"/>
      <path class="st11" d="M380,569.6l-.5.8c-1.4-.6-2.7-1.7-3.2-3.1-.5,1.6-1.8,2.9-3.3,3.5l-.5-.8c1.9-.7,3.3-2.5,3.3-4.5v-1.4h.9v1.5c0,1.8,1.5,3.5,3.3,4.1h0ZM382.7,574c0,1.5-1.6,2.3-4.2,2.3s-4.3-.8-4.3-2.3,1.6-2.3,4.3-2.3,4.2.9,4.2,2.3ZM375.1,574c0,1,1.3,1.6,3.3,1.6s3.3-.6,3.3-1.6-1.3-1.5-3.3-1.5-3.4.6-3.3,1.5ZM382.6,566.8h2v.8h-2v3.7h-.9v-8h.9v3.5Z"/>
      <path class="st11" d="M391.1,565.7h-4.2v2.7h4v.8h-4v3.1c2.1,0,3.3,0,4.8-.4v.8c-1.4.3-2.7.4-4.8.4h-.8v-8.1h5.1v.8h-.1ZM396.6,576.3h-.9v-6.9h-2v6.3h-.9v-12h.9v5h2v-5.3h.9v13h0Z"/>
      <path class="st11" d="M405.9,570.1c1.5,0,3-.2,4.4-.4v.7c-2.7.5-5.8.5-8.1.5v-.8h2.8v-2.9h.9v2.9h0ZM409.3,565c0,.8,0,2.1-.4,3.8h-.9c.3-1.7.4-2.9.4-3.7h-5.5v-.8h6.4v.7ZM412.7,576h-8.5v-3.8h.9v3h7.6v.8ZM412.2,567.7h2v.8h-2v4.7h-.9v-9.8h.9v4.3Z"/>
      <path class="st11" d="M423.6,571.9v.8c-2.4.4-4.4.5-6.5.5h-1.1v-4.9h5v-2.9h-5.1v-.8h6v4.5h-5v3.3h.1c2.1,0,4.1,0,6.5-.5h.1ZM425.9,576.3h-.9v-13h.9v13Z"/>
    </g>
    <circle class="st11" cx="307.8" cy="569.2" r="2.4"/>
  </g>
  <g>
    <g>
      <polygon class="st18" points="1246.2 345.9 1246.2 397.8 1274.6 410.7 1275.5 356.6 1246.2 345.9"/>
      <polygon class="st17" points="1306 334.7 1305.3 387.3 1274.6 410.7 1275.5 356.6 1306 334.7"/>
      <polygon class="st18" points="1246.2 345.9 1275.5 356.6 1306 334.7 1277.9 326.1 1246.2 345.9"/>
      <path class="st12" d="M1278,327.2l25.8,7.9-28.6,20.6-26.9-10,29.6-18.5M1277.9,326.1l-31.7,19.8,29.2,10.8,30.6-22-28.1-8.6h0Z"/>
    </g>
    <path class="st12" d="M1247.2,347.3l27.3,9.7-.8,52.2-26.5-12v-49.9M1246.2,345.9v51.9l28.4,12.9.9-54.4-29.3-10.4h0Z"/>
    <path class="st12" d="M1305,336.6l-.6,50.1-28.7,21.9.8-51.6,28.6-20.4M1306,334.7l-30.5,21.9-.9,54.1,30.7-23.4.7-52.5h0Z"/>
  </g>
  <g>
    <rect class="st17" x="802.6" y="439.1" width="144.1" height="67.3" rx="2.7" ry="2.7"/>
    <g>
      <path class="st12" d="M820.2,448.9h1.7v4.1h4.4v-4.1h1.7v9.7h-1.7v-4.1h-4.4v4.1h-1.7v-9.7Z"/>
      <path class="st12" d="M829.8,461.3v-1.4h.7c.4,0,.7,0,1-.8v-.4c0,0-2.4-7.4-2.4-7.4h1.8l1.6,5.5h0l1.6-5.5h1.8l-2.8,8.2c-.4,1.2-1.1,1.8-2.5,1.8s-.7,0-.9,0h.1Z"/>
      <path class="st12" d="M837,451.3h1.6v1.2h0c.3-.5.8-1.3,2-1.3s2.9,1.3,2.9,3.7-1.2,3.8-2.9,3.8-1.8-.8-2-1.3h0v3.9h-1.7v-10h0ZM840.3,457.3c1.1,0,1.7-1,1.7-2.4s-.6-2.3-1.7-2.3-1.7.9-1.7,2.3.6,2.4,1.7,2.4Z"/>
      <path class="st12" d="M844.7,455c0-2.3,1.3-3.8,3.3-3.8s3.2,1.1,3.2,3.7v.5h-4.9c0,1.2.7,2,1.8,2s1.2-.3,1.4-.8h1.6c-.3,1.3-1.4,2.1-3.1,2.1s-3.4-1.5-3.4-3.7h.1ZM849.7,454.2c0-1-.6-1.7-1.6-1.7s-1.7.8-1.7,1.7h3.3Z"/>
      <path class="st12" d="M852.5,451.3h1.6v1.2h0c.2-.8.9-1.3,1.7-1.3s.4,0,.6,0v1.6c0,0-.5-.1-.8-.1-.9,0-1.6.7-1.6,1.6v4.3h-1.7v-7.3h.2Z"/>
      <path class="st12" d="M859.2,458.6h-1.7v-9.7h1.7v9.7Z"/>
      <path class="st12" d="M860.5,455c0-2.3,1.3-3.8,3.3-3.8s3.2,1.1,3.2,3.7v.5h-4.9c0,1.2.7,2,1.8,2s1.2-.3,1.4-.8h1.6c-.3,1.3-1.4,2.1-3.1,2.1s-3.4-1.5-3.4-3.7h.1ZM865.5,454.2c0-1-.7-1.7-1.6-1.7s-1.7.8-1.7,1.7h3.3Z"/>
      <path class="st12" d="M868.1,454.9c0-2.4,1.3-3.7,2.9-3.7s1.8.8,2,1.3h0v-3.6h1.7v9.7h-1.6v-1.2h0c-.3.5-.8,1.3-2,1.3s-2.9-1.4-2.9-3.8h-.1ZM873.1,454.9c0-1.4-.6-2.3-1.7-2.3s-1.7,1-1.7,2.3.6,2.4,1.7,2.4,1.7-1,1.7-2.4Z"/>
      <path class="st12" d="M876.3,459.2h1.7c0,.6.7.9,1.5.9s1.6-.4,1.6-1.5v-1.4h0c-.3.5-.8,1.2-2,1.2s-2.9-1.2-2.9-3.6,1.3-3.7,2.9-3.7,1.8.8,2,1.3h0v-1.2h1.6v7.4c0,1.9-1.4,2.8-3.3,2.8s-3.1-.9-3.2-2.2h.1ZM881.2,454.9c0-1.4-.6-2.3-1.7-2.3s-1.7,1-1.7,2.3.6,2.2,1.7,2.2,1.7-.8,1.7-2.2Z"/>
      <path class="st12" d="M884.1,455c0-2.3,1.3-3.8,3.3-3.8s3.2,1.1,3.2,3.7v.5h-4.9c0,1.2.7,2,1.8,2s1.2-.3,1.4-.8h1.6c-.3,1.3-1.4,2.1-3.1,2.1s-3.4-1.5-3.4-3.7h.1ZM889.1,454.2c0-1-.7-1.7-1.6-1.7s-1.7.8-1.7,1.7h3.3Z"/>
      <path class="st12" d="M891.9,451.3h1.6v1.2h0c.2-.8.9-1.3,1.7-1.3s.4,0,.6,0v1.6c0,0-.5-.1-.8-.1-.9,0-1.6.7-1.6,1.6v4.3h-1.7v-7.3h.2Z"/>
      <path class="st12" d="M900.2,448.9h3.6c2,0,3.1,1.1,3.1,2.5s-.7,1.8-1.7,2.1h0c1,.1,2,1,2,2.5s-1.1,2.6-3.2,2.6h-3.8v-9.7h0ZM905.2,451.6c0-.8-.5-1.3-1.5-1.3h-1.7v2.7h1.7c.9,0,1.6-.5,1.6-1.4h0ZM905.5,455.8c0-.9-.7-1.5-1.7-1.5h-1.9v2.9h1.9c1.2,0,1.8-.5,1.8-1.3h0Z"/>
      <path class="st12" d="M908.2,455c0-2.3,1.3-3.8,3.3-3.8s3.2,1.1,3.2,3.7v.5h-4.9c0,1.2.7,2,1.8,2s1.2-.3,1.4-.8h1.6c-.3,1.3-1.4,2.1-3.1,2.1s-3.4-1.5-3.4-3.7h.1ZM913.2,454.2c0-1-.6-1.7-1.6-1.7s-1.7.8-1.7,1.7h3.3Z"/>
      <path class="st12" d="M918.8,452.5c-.7,0-1.2.4-1.2.9s.3.7,1,.8l1.2.3c1.3.3,2,.9,2,2s-1.2,2.3-3,2.3-2.9-.8-3-2.2h1.7c0,.6.6.9,1.3.9s1.3-.3,1.3-.9-.3-.7-1-.8l-1.1-.3c-1.3-.3-2-1-2-2s1.1-2.2,2.8-2.2,2.7.8,2.8,2.2h-1.6c0-.5-.5-.9-1.2-.9h0Z"/>
      <path class="st12" d="M927.6,451.3h1.7v7.3h-1.6v-1.3h0c-.3.8-1.1,1.4-2.1,1.4s-2.4-1-2.4-2.7v-4.6h1.7v4.4c0,.9.5,1.5,1.3,1.5s1.5-.5,1.5-1.7v-4.2h-.1Z"/>
    </g>
    <g>
      <g>
        <path class="st11" d="M884,482.5h-3.3v2.3h4.4v.6h-9.5v-.6h4.3v-2.3h-3.1v-5.2h7v.6h-6.2v1.6h6v.6h-6v1.7h6.4v.6h0Z"/>
        <path class="st11" d="M894.3,477.8c0,1,0,2.1-.3,3.7h1.6v.6h-9.5v-.6h7.1c0-.7.2-1.4.3-1.9l-6.3.3v-.6c0,0,6.4-.2,6.4-.2v-1.4h-6.2v-.6h7v.9-.2ZM894.5,486.5h-7.2v-3.2h.7v2.6h6.5v.6Z"/>
        <path class="st11" d="M897.6,478.4h3.3v-1.6h.7v4.5h-4.8v-4.5h.7v1.6h0ZM901,480.7v-1.7h-3.3v1.7h3.3ZM904.5,484.7h-5.8v1.3h6.2v.6h-6.9v-2.5h5.8v-1.2h-5.8v-.6h6.5v2.4h0ZM904.5,478.7h1.6v.6h-1.6v2.4h-.7v-5.4h.7v2.3h0Z"/>
        <path class="st11" d="M912.1,478.3h-5.4v-.6h2.3v-1.2h.7v1.2h2.3v.6h.1ZM911.7,480.7c0,1.1-.9,1.7-2.2,1.7s-2.2-.7-2.2-1.7.9-1.8,2.2-1.8,2.2.7,2.2,1.8ZM907.9,480.7c0,.7.6,1.2,1.5,1.2s1.5-.5,1.5-1.2-.6-1.2-1.5-1.2-1.5.5-1.5,1.2ZM915.6,485c0,1.1-1.3,1.8-3.4,1.8s-3.4-.6-3.4-1.8,1.3-1.8,3.4-1.8,3.4.6,3.4,1.8ZM909.5,485c0,.7,1,1.2,2.7,1.2s2.7-.4,2.7-1.2-1-1.2-2.7-1.2-2.7.4-2.7,1.2ZM915.6,483h-.7v-3h-1.6v2.7h-.7v-6h.7v2.7h1.6v-2.9h.7v6.6h0Z"/>
      </g>
      <g>
        <g>
          <polygon class="st16" points="829.7 470.1 829.7 475.3 833.9 477.8 838 475.1 838 470.1 829.7 470.1"/>
          <polygon class="st15" points="829.7 470.2 833.9 472.8 838.1 470.3 833.9 467.8 829.7 470.2"/>
          <line class="st4" x1="833.9" y1="472.7" x2="833.9" y2="477.6"/>
        </g>
        <g>
          <polygon class="st16" points="849.6 470.1 849.6 475.3 853.8 477.8 857.9 475.1 857.9 470.1 849.6 470.1"/>
          <polygon class="st16" points="849.6 470.2 853.9 472.8 858 470.3 853.8 467.8 849.6 470.2"/>
          <line class="st4" x1="853.8" y1="472.7" x2="853.8" y2="477.6"/>
        </g>
        <g>
          <polygon class="st16" points="839.6 480.1 839.6 485.3 843.8 487.8 847.9 485.1 847.9 480.1 839.6 480.1"/>
          <polygon class="st16" points="839.6 480.1 843.8 482.7 848 480.3 843.8 477.8 839.6 480.1"/>
          <line class="st4" x1="843.8" y1="482.7" x2="843.8" y2="487.7"/>
        </g>
        <g>
          <polygon class="st16" points="829.7 489.1 829.7 494.2 833.9 496.8 838 494.1 838 489.1 829.7 489.1"/>
          <polygon class="st15" points="829.7 489.1 833.9 491.7 838.1 489.2 833.9 486.7 829.7 489.1"/>
          <line class="st4" x1="833.9" y1="491.6" x2="833.9" y2="496.6"/>
        </g>
        <g>
          <polygon class="st16" points="849.6 489.1 849.6 494.2 853.8 496.8 857.9 494.1 857.9 489.1 849.6 489.1"/>
          <polygon class="st16" points="849.6 489.1 853.9 491.7 858 489.2 853.8 486.7 849.6 489.1"/>
          <line class="st4" x1="853.8" y1="491.6" x2="853.8" y2="496.7"/>
        </g>
        <circle class="st13" cx="843.8" cy="472.9" r="1.3"/>
        <circle class="st13" cx="833.8" cy="483.4" r="1.3"/>
        <line class="st7" x1="845.9" y1="472.8" x2="848" y2="472.8"/>
        <line class="st7" x1="849.4" y1="482.3" x2="851.4" y2="482.3"/>
        <line class="st7" x1="839.5" y1="492.6" x2="841.5" y2="492.6"/>
        <line class="st7" x1="833.8" y1="479.4" x2="833.8" y2="481.4"/>
        <circle class="st13" cx="843.8" cy="492.8" r="1.3"/>
        <line class="st7" x1="843.8" y1="488.8" x2="843.8" y2="490.8"/>
        <circle class="st13" cx="853.8" cy="481.9" r="1.3"/>
        <line class="st7" x1="853.8" y1="485.8" x2="853.8" y2="483.8"/>
        <line class="st7" x1="843.7" y1="475" x2="843.7" y2="477.1"/>
      </g>
    </g>
  </g>
  <g>
    <rect class="st17" x="968" y="439.1" width="144.1" height="67.3" rx="2.7" ry="2.7"/>
    <g>
      <path class="st12" d="M981.8,448.9h1.7v4.1h4.4v-4.1h1.7v9.7h-1.7v-4.1h-4.4v4.1h-1.7v-9.7Z"/>
      <path class="st12" d="M991.4,461.3v-1.4h.7c.4,0,.7,0,1-.8v-.4c0,0-2.4-7.4-2.4-7.4h1.8l1.6,5.5h0l1.6-5.5h1.8l-2.8,8.2c-.4,1.2-1.1,1.8-2.5,1.8s-.7,0-.9,0h.1Z"/>
      <path class="st12" d="M998.6,451.3h1.6v1.2h0c.3-.5.8-1.3,2-1.3s2.9,1.3,2.9,3.7-1.2,3.8-2.9,3.8-1.8-.8-2-1.3h0v3.9h-1.7v-10h0ZM1001.9,457.3c1.1,0,1.7-1,1.7-2.4s-.6-2.3-1.7-2.3-1.7.9-1.7,2.3.6,2.4,1.7,2.4Z"/>
      <path class="st12" d="M1006.3,455c0-2.3,1.3-3.8,3.3-3.8s3.2,1.1,3.2,3.7v.5h-4.9c0,1.2.7,2,1.8,2s1.2-.3,1.4-.8h1.6c-.3,1.3-1.4,2.1-3.1,2.1s-3.4-1.5-3.4-3.7h.1ZM1011.3,454.2c0-1-.6-1.7-1.6-1.7s-1.7.8-1.7,1.7h3.3Z"/>
      <path class="st12" d="M1014.1,451.3h1.6v1.2h0c.2-.8.9-1.3,1.7-1.3s.4,0,.6,0v1.6c0,0-.5-.1-.8-.1-.9,0-1.6.7-1.6,1.6v4.3h-1.7v-7.3h.2Z"/>
      <path class="st12" d="M1020.8,458.6h-1.7v-9.7h1.7v9.7Z"/>
      <path class="st12" d="M1022.1,455c0-2.3,1.3-3.8,3.3-3.8s3.2,1.1,3.2,3.7v.5h-4.9c0,1.2.7,2,1.8,2s1.2-.3,1.4-.8h1.6c-.3,1.3-1.4,2.1-3.1,2.1s-3.4-1.5-3.4-3.7h0ZM1027.1,454.2c0-1-.7-1.7-1.6-1.7s-1.7.8-1.7,1.7h3.3Z"/>
      <path class="st12" d="M1029.7,454.9c0-2.4,1.3-3.7,2.9-3.7s1.8.8,2,1.3h0v-3.6h1.7v9.7h-1.6v-1.2h0c-.3.5-.8,1.3-2,1.3s-2.9-1.4-2.9-3.8h0ZM1034.7,454.9c0-1.4-.6-2.3-1.7-2.3s-1.7,1-1.7,2.3.6,2.4,1.7,2.4,1.7-1,1.7-2.4Z"/>
      <path class="st12" d="M1037.9,459.2h1.7c0,.6.7.9,1.5.9s1.6-.4,1.6-1.5v-1.4h0c-.3.5-.8,1.2-2,1.2s-2.9-1.2-2.9-3.6,1.3-3.7,2.9-3.7,1.8.8,2,1.3h0v-1.2h1.6v7.4c0,1.9-1.4,2.8-3.3,2.8s-3.1-.9-3.2-2.2h.1ZM1042.8,454.9c0-1.4-.6-2.3-1.7-2.3s-1.7,1-1.7,2.3.6,2.2,1.7,2.2,1.7-.8,1.7-2.2Z"/>
      <path class="st12" d="M1045.7,455c0-2.3,1.3-3.8,3.3-3.8s3.2,1.1,3.2,3.7v.5h-4.9c0,1.2.7,2,1.8,2s1.2-.3,1.4-.8h1.6c-.3,1.3-1.4,2.1-3.1,2.1s-3.4-1.5-3.4-3.7h0ZM1050.7,454.2c0-1-.7-1.7-1.6-1.7s-1.7.8-1.7,1.7h3.3,0Z"/>
      <path class="st12" d="M1053.5,451.3h1.6v1.2h0c.2-.8.9-1.3,1.7-1.3s.4,0,.6,0v1.6c0,0-.5-.1-.8-.1-.9,0-1.6.7-1.6,1.6v4.3h-1.7v-7.3h.2Z"/>
      <path class="st12" d="M1061.8,448.9h6v1.5h-4.3v2.7h3.9v1.5h-3.9v4.1h-1.7v-9.7h0Z"/>
      <path class="st12" d="M1068.4,455c0-2.3,1.3-3.8,3.3-3.8s3.2,1.1,3.2,3.7v.5h-4.9c0,1.2.7,2,1.8,2s1.2-.3,1.4-.8h1.6c-.3,1.3-1.4,2.1-3.1,2.1s-3.4-1.5-3.4-3.7h0ZM1073.3,454.2c0-1-.7-1.7-1.6-1.7s-1.7.8-1.7,1.7h3.3,0Z"/>
      <path class="st12" d="M1076.3,448.9h1.7v3.6h0c.3-.5.8-1.3,2-1.3s2.9,1.3,2.9,3.7-1.3,3.8-2.9,3.8-1.8-.8-2-1.3h0v1.2h-1.6v-9.7h0ZM1079.6,457.3c1.1,0,1.7-1,1.7-2.4s-.6-2.3-1.7-2.3-1.7.9-1.7,2.3.6,2.4,1.7,2.4Z"/>
      <path class="st12" d="M1084.3,451.3h1.6v1.2h0c.2-.8.9-1.3,1.7-1.3s.4,0,.6,0v1.6c0,0-.5-.1-.8-.1-.9,0-1.6.7-1.6,1.6v4.3h-1.7v-7.3h.2Z"/>
      <path class="st12" d="M1089.2,449.3c0-.5.4-.9,1-.9s1,.4,1,.9-.4.9-1,.9-1-.4-1-.9ZM1089.3,451.3h1.7v7.3h-1.7v-7.3Z"/>
      <path class="st12" d="M1092.2,455c0-2.2,1.3-3.8,3.4-3.8s2.9,1,3,2.6h-1.6c0-.7-.6-1.2-1.4-1.2s-1.7.9-1.7,2.4.7,2.4,1.7,2.4,1.3-.4,1.4-1.2h1.6c0,1.5-1.3,2.6-3,2.6s-3.4-1.6-3.4-3.8Z"/>
    </g>
    <g>
      <g>
        <path class="st11" d="M1050.7,483.3h-4.4v3.4h-.7v-3.4h-4.4v-.6h9.5v.6ZM1049.6,481.5h-7.1v-4.6h6.9v.6h-6.2v1.3h6v.6h-6v1.4h6.3v.6h0Z"/>
        <path class="st11" d="M1057.8,483.9l-.4.6c-1.1-.6-2.2-1.8-2.7-3.3-.5,1.6-1.6,2.9-2.7,3.5l-.5-.6c1.4-.7,2.8-2.7,2.8-4.5v-1.6h-2.5v-.6h5.6v.6h-2.4v1.6c0,1.7,1.3,3.5,2.7,4.2h0ZM1059.6,480.7h1.8v.6h-1.8v5.4h-.7v-10.3h.7v4.3Z"/>
        <path class="st11" d="M1067.6,480.8c0,2.2-1.1,3.6-2.6,3.6s-2.6-1.4-2.6-3.6,1.1-3.6,2.6-3.6,2.6,1.4,2.6,3.6ZM1063.1,480.8c0,1.7.8,2.9,1.9,2.9s1.9-1.2,1.9-2.9-.8-2.9-1.9-2.9-1.9,1.2-1.9,2.9ZM1070.5,486.8h-.7v-10.3h.7v10.3Z"/>
        <path class="st11" d="M1077.3,479.8h-3.7v1.8c2.1,0,3.1,0,4.4-.3v.6c-1.2.2-2.3.2-4.4.2h-.7v-3h3.7v-1.6h-3.7v-.6h4.5v2.8h-.1ZM1080.9,486.8h-.7v-2.8h-6.2v-.6h6.9v3.4h0ZM1080.9,482.8h-.7v-2h-2.2v-.6h2.2v-1.5h-2.2v-.6h2.2v-1.6h.7v6.4h0Z"/>
      </g>
      <g>
        <g>
          <polygon class="st16" points="994.8 470.1 994.8 475.3 999 477.8 1003.1 475.1 1003.1 470.1 994.8 470.1"/>
          <polygon class="st15" points="994.8 470.2 999 472.8 1003.2 470.3 999 467.8 994.8 470.2"/>
          <line class="st4" x1="999" y1="472.7" x2="999" y2="477.6"/>
        </g>
        <g>
          <polygon class="st16" points="1014.7 470.1 1014.7 475.3 1018.9 477.8 1023 475.1 1023 470.1 1014.7 470.1"/>
          <polygon class="st16" points="1014.7 470.2 1019 472.8 1023.1 470.3 1018.9 467.8 1014.7 470.2"/>
          <line class="st4" x1="1018.9" y1="472.7" x2="1018.9" y2="477.6"/>
        </g>
        <g>
          <polygon class="st16" points="1004.7 480.1 1004.7 485.3 1008.9 487.8 1013 485.1 1013 480.1 1004.7 480.1"/>
          <polygon class="st16" points="1004.7 480.1 1008.9 482.7 1013.1 480.3 1008.9 477.8 1004.7 480.1"/>
          <line class="st4" x1="1008.9" y1="482.7" x2="1008.9" y2="487.7"/>
        </g>
        <g>
          <polygon class="st16" points="994.8 489.1 994.8 494.2 999 496.8 1003.1 494.1 1003.1 489.1 994.8 489.1"/>
          <polygon class="st15" points="994.8 489.1 999 491.7 1003.2 489.2 999 486.7 994.8 489.1"/>
          <line class="st4" x1="999" y1="491.6" x2="999" y2="496.6"/>
        </g>
        <g>
          <polygon class="st16" points="1014.7 489.1 1014.7 494.2 1018.9 496.8 1023 494.1 1023 489.1 1014.7 489.1"/>
          <polygon class="st16" points="1014.7 489.1 1019 491.7 1023.1 489.2 1018.9 486.7 1014.7 489.1"/>
          <line class="st4" x1="1018.9" y1="491.6" x2="1018.9" y2="496.7"/>
        </g>
        <circle class="st13" cx="1008.9" cy="472.9" r="1.3"/>
        <circle class="st13" cx="998.9" cy="483.4" r="1.3"/>
        <line class="st7" x1="1011" y1="472.8" x2="1013.1" y2="472.8"/>
        <line class="st7" x1="1014.5" y1="482.3" x2="1016.5" y2="482.3"/>
        <line class="st7" x1="1004.6" y1="492.6" x2="1006.6" y2="492.6"/>
        <line class="st7" x1="998.9" y1="479.4" x2="998.9" y2="481.4"/>
        <circle class="st13" cx="1009" cy="492.8" r="1.3"/>
        <line class="st7" x1="1009" y1="488.8" x2="1009" y2="490.8"/>
        <circle class="st13" cx="1018.9" cy="481.9" r="1.3"/>
        <line class="st7" x1="1018.9" y1="485.8" x2="1018.9" y2="483.8"/>
        <line class="st7" x1="1008.8" y1="475" x2="1008.8" y2="477.1"/>
      </g>
    </g>
  </g>
  <polyline class="st0" points="872.8 521.9 872.8 424.6 1049.7 424.6 1049.7 521.9"/>
  <polyline class="st8" points="872.6 521.6 872.6 514.4 1049.7 514.4 1049.7 521.6"/>
  <line class="st8" x1="961" y1="379" x2="961" y2="424"/>
  <line class="st0" x1="1138.7" y1="372.7" x2="1219.2" y2="372.7"/>
  <polyline class="st0" points="1216.4 367.3 1220 373 1215.5 377.4"/>
  <polyline class="st0" points="1142.3 378.1 1138.7 372.3 1143.2 368"/>
  <rect class="st17" x="804.5" y="521.6" width="98.6" height="64.3" rx="3.8" ry="3.8"/>
  <rect class="st17" x="909.1" y="521.6" width="98.6" height="64.3" rx="3.8" ry="3.8"/>
  <rect class="st17" x="1017.7" y="521.6" width="98.6" height="64.3" rx="3.8" ry="3.8"/>
  <g>
    <path class="st11" d="M818.7,540.1c-2.5,0-4.2-1.9-4.2-5s1.8-5,4.2-5,4.2,1.9,4.2,5-1.8,5-4.2,5ZM818.7,531c-1.9,0-3.3,1.5-3.3,4.1s1.4,4.1,3.3,4.1,3.3-1.5,3.3-4.1-1.4-4.1-3.3-4.1Z"/>
    <path class="st11" d="M827.7,533.4h-1.6v6.5h-.9v-6.5h-1.1v-.8h1.1v-1c0-1.1.7-1.8,1.9-1.8s.5,0,.8,0v.8h-.6c-.8,0-1.2.4-1.2,1.2v.9h1.6v.8h0Z"/>
    <path class="st11" d="M832.2,533.4h-1.6v6.5h-.9v-6.5h-1.1v-.8h1.1v-1c0-1.1.7-1.8,1.9-1.8s.5,0,.8,0v.8h-.6c-.8,0-1.2.4-1.2,1.2v.9h1.6v.8h0Z"/>
    <path class="st11" d="M837.2,536.2h-4.1v-.9h4.1v.9Z"/>
    <path class="st11" d="M843,531c-1.8,0-3.3,1.4-3.3,4.1s1.5,4.1,3.3,4.1,2.6-1,2.9-2.3h1c-.3,1.8-1.8,3.2-3.9,3.2s-4.2-1.9-4.2-5,1.8-5,4.2-5,3.5,1.3,3.9,3.2h-1c-.3-1.3-1.4-2.3-2.9-2.3Z"/>
    <path class="st11" d="M849.5,539.9h-.9v-9.7h.9v3.6h0c.3-.8,1-1.2,2.2-1.2s2.5.9,2.5,2.7v4.7h-.9v-4.6c0-1.2-.7-1.9-1.8-1.9s-2,.8-2,2v4.5h0Z"/>
    <path class="st11" d="M858.4,535.8c.5,0,1.7,0,2,0v-.7c0-1-.6-1.6-1.8-1.6s-1.6.4-1.8,1.1h-1c0-1.2,1.3-1.9,2.8-1.9s2.6.5,2.6,2.5v4.9h-.9v-1.1h0c-.3.6-1,1.3-2.2,1.3s-2.4-.8-2.4-2.2,1.2-2,2.7-2.2h0ZM858.3,539.3c1.3,0,2.2-1,2.2-2.1v-.8h-1.9c-1.3.2-1.9.7-1.9,1.6s.7,1.3,1.6,1.3h0Z"/>
    <path class="st11" d="M863.2,530.8c0-.3.3-.6.7-.6s.7.3.7.6-.3.6-.7.6-.7-.3-.7-.6ZM863.4,532.7h.9v7.3h-.9v-7.3Z"/>
    <path class="st11" d="M867.2,539.9h-.9v-7.3h.9v1.2h0c.3-.8,1.1-1.2,2.1-1.2s2.5.9,2.5,2.7v4.7h-.9v-4.6c0-1.2-.7-1.9-1.8-1.9s-1.9.8-1.9,2v4.5h0Z"/>
    <path class="st11" d="M877.3,539.9v-9.7h3c2.8,0,4.4,1.8,4.4,4.8s-1.7,4.9-4.6,4.9h-2.9,0ZM880.1,539.1c2.5,0,3.7-1.5,3.7-4s-1.2-4-3.5-4h-2v8h1.9-.1Z"/>
    <path class="st11" d="M886.6,530.2h3.3c1.9,0,2.9,1.1,2.9,2.5s-.7,1.9-1.6,2.1h0c1,0,1.9,1,1.9,2.5s-1,2.5-3.1,2.5h-3.5v-9.7h0ZM891.9,532.8c0-1-.7-1.7-2-1.7h-2.3v3.5h2.4c1.1,0,1.9-.8,1.9-1.8h0ZM892.3,537.4c0-1.1-.8-2-2.1-2h-2.6v3.7h2.5c1.5,0,2.2-.7,2.2-1.7h0Z"/>
  </g>
  <g>
    <path class="st10" d="M854.1,578.8c-7.7,0-11.9-1.7-14.1-4.3s-1.3-3.8-1.3-5.4v-16.2c0-.7.6-1.2,1.2-1.2h28c.4,0,.8.4.8.8v16.6c0,1.3,0,3.1-.2,3.8s-.8,1.8-1,1.9c-2.3,2.7-6.6,3.8-13.5,3.8v.2Z"/>
    <ellipse class="st10" cx="853.8" cy="552.6" rx="15.1" ry="4.8"/>
    <path class="st2" d="M838.7,558.9s3.1,4,15.7,4,8.6-.6,14.5-4.2"/>
    <path class="st1" d="M838.7,564.3s3.8,4.4,15.7,4.1c3.9,0,8-.9,14.5-4.2"/>
    <path class="st2" d="M838.8,570.1s3.5,3.7,15.7,3.7,10.7-1.5,14.2-3.9"/>
  </g>
  <g>
    <path class="st10" d="M958.6,578.8c-7.7,0-11.9-1.7-14.1-4.3s-1.3-3.8-1.3-5.4v-16.2c0-.7.6-1.2,1.2-1.2h28c.4,0,.8.4.8.8v16.6c0,1.3,0,3.1-.2,3.8s-.8,1.8-1,1.9c-2.3,2.7-6.6,3.8-13.5,3.8v.2Z"/>
    <ellipse class="st10" cx="958.4" cy="552.6" rx="15.1" ry="4.8"/>
    <path class="st2" d="M943.3,558.9s3.1,4,15.7,4,8.6-.6,14.5-4.2"/>
    <path class="st1" d="M943.3,564.3s3.8,4.4,15.7,4.1c3.9,0,8-.9,14.5-4.2"/>
    <path class="st2" d="M943.3,570.1s3.5,3.7,15.7,3.7,10.7-1.5,14.2-3.9"/>
  </g>
  <g>
    <path class="st11" d="M946.9,539.9h-1v-9.7h1v9.7Z"/>
    <path class="st11" d="M949.2,530.2h3.2c2.1,0,3.1,1.3,3.1,3s-1.1,3-3.1,3h-2.2v3.7h-1v-9.7ZM952.3,535.4c1.5,0,2.2-.9,2.2-2.2s-.7-2.2-2.3-2.2h-2.2v4.3h2.3Z"/>
    <path class="st11" d="M957.3,530.2h5.7v.9h-4.7v3.6h4.3v.8h-4.3v4.4h-1v-9.7Z"/>
    <path class="st11" d="M967.9,531c-1.3,0-2.2.8-2.2,1.8s1,1.5,1.9,1.7l1,.3c1.2.3,2.7,1,2.7,2.6s-1.3,2.8-3.4,2.8-3.3-1.1-3.4-2.6h1c0,1.1,1.1,1.8,2.4,1.8s2.5-.8,2.5-1.9-.8-1.4-2-1.7l-1.2-.3c-1.5-.5-2.4-1.2-2.4-2.5s1.4-2.7,3.2-2.7,3.1,1.1,3.2,2.6h-.9c0-1.1-1-1.7-2.3-1.7v-.2Z"/>
  </g>
  <g>
    <path class="st11" d="M1050.2,530.2h1v4.4h5.4v-4.4h1v9.7h-1v-4.4h-5.4v4.4h-1v-9.7Z"/>
    <path class="st11" d="M1062.8,531c-1.3,0-2.3.8-2.3,1.8s1,1.5,1.9,1.7l1,.3c1.2.3,2.7,1,2.7,2.6s-1.3,2.8-3.4,2.8-3.3-1.1-3.4-2.6h1c0,1.1,1.1,1.8,2.4,1.8s2.5-.8,2.5-1.9-.8-1.4-2-1.7l-1.2-.3c-1.5-.5-2.4-1.2-2.4-2.5s1.4-2.7,3.2-2.7,3.1,1.1,3.2,2.6h-.9c0-1.1-1-1.7-2.3-1.7v-.2Z"/>
    <path class="st11" d="M1069.1,530.2l3.5,8.3h0l3.5-8.3h1.1v9.7h-.9v-7.7h0l-3.2,7.7h-.9l-3.2-7.7h0v7.7h-.9v-9.7h1.1,0Z"/>
  </g>
  <g>
    <g>
      <polygon class="st18" points="1051.8 553 1051.8 573.7 1063.1 578.8 1063.5 557.2 1051.8 553"/>
      <polygon class="st17" points="1075.7 548.5 1075.4 569.5 1063.1 578.8 1063.5 557.2 1075.7 548.5"/>
      <polygon class="st18" points="1051.8 553 1063.5 557.2 1075.7 548.5 1064.4 545.1 1051.8 553"/>
      <path class="st12" d="M1064.5,545.5l10.3,3.2-11.4,8.2-10.7-4,11.8-7.4M1064.4,545.1l-12.7,7.9,11.7,4.3,12.2-8.8-11.2-3.4h0Z"/>
    </g>
    <path class="st12" d="M1052.2,553.5l10.9,3.9-.3,20.8-10.6-4.8v-19.9M1051.8,553v20.7l11.4,5.1.3-21.7-11.7-4.2h0Z"/>
    <path class="st12" d="M1075.3,549.3l-.3,20-11.5,8.7.3-20.6,11.4-8.2M1075.7,548.5l-12.2,8.7-.3,21.6,12.3-9.3.3-21h-.1Z"/>
  </g>
  <line class="st8" x1="958.4" y1="514.4" x2="958.4" y2="523.1"/>
  <g>
    <g>
      <path d="M125.6,261.3l-.5.7c-1.1-.4-2-1.3-2.4-2.3-.4,1.2-1.3,2.2-2.5,2.6l-.5-.7c1.5-.6,2.5-2,2.5-3.5v-1.1h.9v1.1c0,1.4,1,2.7,2.5,3.2h0ZM127.7,264.8c0,1.2-1.2,1.9-3.3,1.9s-3.3-.7-3.3-1.9,1.3-1.9,3.3-1.9,3.3.7,3.3,1.9ZM122,264.8c0,.7.9,1.1,2.4,1.2,1.5,0,2.4-.4,2.4-1.2s-.9-1.1-2.4-1.1-2.4.4-2.4,1.1ZM127.6,259.1h1.5v.8h-1.5v2.8h-.9v-6.3h.9s0,2.7,0,2.7Z"/>
      <path d="M138.8,262.2h-4.1v1.2h3v3.2h-6.9v-3.2h3v-1.2h-4.1v-.8h9.1v.8ZM138,257.5h-1.5v2.2h1.5v.8h-7.3v-.8h1.5v-2.2h-1.5v-.8h7.4v.8h0ZM131.7,265.8h5.1v-1.7h-5.1v1.7ZM135.5,259.7v-2.2h-2.5v2.2h2.5Z"/>
      <path d="M148.8,262.1h-9.1v-.8h9.1v.8ZM147.6,264.8c0,1.2-1.3,1.9-3.4,1.9s-3.4-.7-3.4-1.9,1.3-1.9,3.4-1.9,3.4.7,3.4,1.9ZM147.7,260.4h-6.9v-3.5h6.8v.8h-6v2h6v.7h0ZM141.7,264.8c0,.7.9,1.1,2.5,1.1s2.5-.4,2.5-1.1-1-1.1-2.5-1.1-2.6.4-2.5,1.1Z"/>
      <path d="M158.7,262.9h-9.1v-.8h4.1v-1.1h-2.9v-2.5h5.9v-1.1h-5.9v-.7h6.8v2.5h-5.9v1.1h6.1v.7h-3.2v1.1h4.1v.8h0ZM157.6,266.6h-.9v-2.2h-6.1v-.7h7v3h0Z"/>
      <path d="M127.9,283.1h-3.1v2.2h4.2v.8h-9.1v-.8h4.1v-2.2h-2.9v-5.3h6.8v.8h-5.9v1.5h5.7v.7h-5.7v1.5h6v.7h0Z"/>
      <path d="M137.7,278.5c0,1,0,2.1-.3,3.6h1.5v.8h-9.1v-.8h6.8c.1-.7.2-1.2.2-1.8l-6,.3v-.8c-.1,0,6-.2,6-.2v-1.2h0c0-.1-5.9-.1-5.9-.1v-.8h6.8v.9h0ZM137.9,287.1h-7v-3.2h.9v2.5h6.1v.8h0Z"/>
      <path d="M148.8,282.7h-9.1v-.8h9.1v.8ZM147.9,278.3h-3.2c0,1.2,1.7,2.1,3.5,2.3l-.3.7c-1.6-.2-3.2-1-3.7-2.1-.5,1.2-2.1,1.9-3.7,2.1l-.3-.7c1.7-.2,3.4-1.1,3.5-2.3h-3.1v-.8h7.5v.8h-.2ZM147.6,285.4c0,1.2-1.3,1.9-3.4,1.9s-3.4-.7-3.4-1.9,1.3-1.9,3.4-1.9,3.4.7,3.4,1.9ZM141.7,285.4c0,.7.9,1.1,2.5,1.1s2.5-.4,2.5-1.1-1-1.1-2.5-1.1-2.6.4-2.5,1.1Z"/>
      <path d="M154,281c.2-1.1.2-2,.2-2.6h-3.8v-.7h4.7v.4c0,.6,0,1.5-.2,2.8.4,0,.8,0,1.1-.1v.7c-.9.2-1.8.3-2.8.3v2.4h-.9v-2.3h-2.7v-.8c1.2,0,2.8,0,4.4-.1h0ZM158.1,287.1h-7.1v-3.1h.9v2.4h6.2v.8h0ZM157.8,284.8h-.9v-1.4h-2.2v-.7h2.2v-5.6h.9v7.8h0Z"/>
      <path d="M163.7,279h2.9v-1.5h.9v4.5h-4.6v-4.5h.9v1.5h0ZM166.6,281.2v-1.5h-2.9v1.5h2.9ZM170.2,285.3h-5.5v1.1h5.9v.7h-6.7v-2.6h5.5v-1.1h-5.5v-.7h6.4v2.5h0ZM170.2,279.3h1.5v.8h-1.5v2.3h-.9v-5.3h.9v2.2Z"/>
      <path d="M177.4,279h-5.1v-.7h2.1v-1.2h.9v1.2h2.1v.7ZM177,281.3c0,1.1-.9,1.7-2.1,1.7s-2.1-.7-2.1-1.7.9-1.8,2.1-1.8,2.1.7,2.1,1.8ZM173.5,281.3c0,.6.6,1.1,1.3,1.1s1.3-.4,1.3-1.1-.6-1.1-1.3-1.1-1.3.4-1.3,1.1ZM180.9,285.5c0,1.1-1.3,1.8-3.4,1.8s-3.4-.6-3.3-1.8c0-1.2,1.2-1.8,3.3-1.8s3.4.6,3.4,1.8ZM175,285.5c0,.7.9,1.1,2.5,1.1s2.5-.4,2.5-1.1-.9-1.1-2.5-1.1-2.5.4-2.5,1.1ZM180.8,283.5h-.8v-3h-1.3v2.6h-.8v-5.9h.8v2.6h1.3v-2.8h.8v6.5h0Z"/>
      <path d="M182.9,287.6h-.9l2.6-10h.9l-2.6,10Z"/>
      <path d="M192.1,282.1l-.4.7c-1.2-.4-2.1-1.1-2.5-2.2-.4,1.1-1.3,2-2.5,2.4l-.4-.7c1.5-.5,2.5-1.8,2.5-3.2v-.2h-2.3v-.7h2.3v-1.3h.9v1.3h2.2v.7h-2.3v.2c0,1.3,1.1,2.4,2.5,2.9h0ZM194.4,285.4c0,1.2-1.3,1.9-3.3,1.9s-3.3-.7-3.3-1.9,1.3-1.9,3.3-1.9,3.3.7,3.3,1.9ZM188.6,285.4c0,.7.9,1.2,2.5,1.2s2.5-.4,2.5-1.2-.9-1.2-2.5-1.2-2.5.4-2.5,1.2ZM194.4,283.3h-.9v-2.5h-2v-.8h2v-2.9h.9v6.2h0Z"/>
      <path d="M201.5,280.1c0,1.4-1.1,2.4-2.6,2.4s-2.6-1-2.6-2.4,1.1-2.4,2.6-2.4,2.6,1,2.6,2.4ZM197.1,280.1c0,1,.7,1.7,1.8,1.7s1.8-.7,1.8-1.7-.7-1.6-1.8-1.6-1.8.7-1.8,1.6ZM203.8,287.3h-.9v-2.9h-5.7v-.8h6.5v3.7h0ZM205.3,279.4h-1.5v1.4h1.5v.8h-1.5v1.6h-.9v-6.1h.9v1.6h1.5v.7Z"/>
      <path d="M206.6,287.6h-.9l2.6-10h.9l-2.6,10Z"/>
      <path d="M125.7,297.5l-.5.7c-1.1-.4-2-1.3-2.4-2.3-.4,1.2-1.4,2.2-2.5,2.6l-.5-.7c1.5-.6,2.5-1.9,2.5-3.4v-.4h-2.3v-.8h5.4v.8h-2.2v.4c0,1.3,1,2.6,2.5,3.1h0ZM128.1,300.8c0,1.2-1.3,1.9-3.3,1.9s-3.3-.7-3.3-1.9,1.3-1.9,3.3-1.9,3.3.7,3.3,1.9ZM122.3,300.8c0,.7.9,1.2,2.5,1.2s2.5-.5,2.5-1.2-.9-1.2-2.5-1.2-2.5.5-2.5,1.2ZM128.1,298.6h-.9v-2.7h-2v-.8h2v-2.7h.9v6.1h0Z"/>
      <path d="M135.6,297.7l-.4.7c-1.1-.4-2-1.3-2.5-2.4-.4,1.2-1.3,2.2-2.5,2.6l-.5-.7c1.5-.6,2.5-1.9,2.5-3.5v-1.3h.9v1.3c0,1.4,1,2.7,2.5,3.2h0ZM138,302.5h-6.7v-3.2h.9v2.4h5.8v.8h0ZM137.5,295.6h1.5v.8h-1.5v3.7h-.9v-7.6h.9v3.2h0Z"/>
      <path d="M151.7,301.4h-9.1v-.8h2.3v-2.8c-.9-.5-1.4-1.2-1.4-2.1,0-1.6,1.5-2.6,3.6-2.6s3.6,1.1,3.6,2.6-.5,1.6-1.3,2.1v2.8h2.3v.8h0ZM144.3,295.8c0,1.1,1.2,1.9,2.8,1.9s2.8-.8,2.8-1.9-1.2-1.9-2.8-1.9-2.8.8-2.8,1.9ZM148.5,300.7v-2.5c-.4.1-.9.2-1.4.2s-1,0-1.4-.2v2.4h2.9-.1Z"/>
      <path d="M158.4,297.6l-.4.7c-1.2-.4-2.1-1.1-2.5-2.2-.4,1.1-1.3,2-2.5,2.4l-.4-.7c1.5-.5,2.5-1.8,2.5-3.2v-.2h-2.3v-.7h2.3v-1.3h.9v1.3h2.2v.7h-2.3v.2c0,1.3,1.1,2.4,2.5,2.9h0ZM160.8,300.9c0,1.2-1.3,1.9-3.3,1.9s-3.3-.7-3.3-1.9,1.3-1.9,3.3-1.9,3.3.7,3.3,1.9ZM155,300.9c0,.7.9,1.2,2.5,1.2s2.5-.4,2.5-1.2-.9-1.2-2.5-1.2-2.5.4-2.5,1.2ZM160.7,298.7h-.9v-2.5h-2v-.8h2v-2.9h.9v6.2h0Z"/>
    </g>
    <circle class="st11" cx="110.3" cy="261.2" r="2.4"/>
    <circle class="st11" cx="110.3" cy="281.7" r="2.4"/>
  </g>
  <g>
    <circle class="st17" cx="61.7" cy="267.4" r="24.8"/>
    <path class="st17" d="M98.5,339.4H25l7.8-28.6c.8-6.9,6.6-12.1,13.5-12.1h30.8c6.9,0,12.7,5.2,13.5,12.1l7.8,28.6h0Z"/>
    <polygon class="st12" points="53 298.6 57.8 310 65 310 69.4 298.6 53 298.6"/>
    <polygon class="st12" points="58 311.4 65.1 311.4 71.5 340.3 53.3 340.3 58 311.4"/>
  </g>
</svg>