<?xml version="1.0" encoding="UTF-8"?>
<svg id="_레이어_1" xmlns="http://www.w3.org/2000/svg" version="1.1" viewBox="0 0 1320 760">
  <!-- Generator: Adobe Illustrator 29.8.6, SVG Export Plug-In . SVG Version: 2.1.1 Build 1)  -->
  <defs>
    <style>
      .st0 {
        stroke-linejoin: bevel;
        stroke-width: 1.1px;
      }

      .st0, .st1, .st2 {
        stroke: #fff;
      }

      .st0, .st2, .st3 {
        fill: #9cc5ff;
      }

      .st0, .st4 {
        stroke-linecap: round;
      }

      .st5, .st6, .st7, .st8, .st4, .st9 {
        fill: #fff;
      }

      .st5, .st6, .st7, .st10, .st11, .st1, .st12, .st13, .st4, .st14 {
        stroke-miterlimit: 10;
      }

      .st5, .st6, .st7, .st10, .st11, .st12, .st13, .st4, .st14 {
        stroke: #9cc5ff;
      }

      .st5, .st4 {
        stroke-width: 1.2px;
      }

      .st6, .st10 {
        stroke-width: 1.6px;
      }

      .st7 {
        stroke-width: 1.2px;
      }

      .st15 {
        fill: #121212;
      }

      .st10, .st16, .st11, .st1, .st12, .st13, .st14 {
        fill: none;
      }

      .st16, .st2, .st9 {
        stroke-linecap: square;
        stroke-linejoin: round;
        stroke-width: 1.1px;
      }

      .st16, .st9 {
        stroke: #231815;
      }

      .st17 {
        fill: #0065fa;
      }

      .st11 {
        stroke-width: 2.3px;
      }

      .st18 {
        fill: #81d3f2;
      }

      .st1 {
        stroke-width: 1.1px;
      }

      .st12 {
        stroke-width: 1.2px;
      }

      .st13 {
        stroke-width: 1.6px;
      }

      .st19 {
        fill: #dcebff;
      }

      .st14 {
        stroke-width: 1.1px;
      }

      .st20 {
        fill: #008ed2;
      }
    </style>
  </defs>
  <rect class="st19" x="493.4" y="91.5" width="415.1" height="540.8" rx="8.9" ry="8.9"/>
  <circle class="st19" cx="1075.6" cy="476.4" r="61.6"/>
  <g>
    <g>
      <circle class="st19" cx="244.4" cy="166.7" r="61.6"/>
      <g>
        <circle class="st17" cx="244.1" cy="149.5" r="18.8"/>
        <path class="st3" d="M244.4,171.9c-18.8,0-34.6,13.2-38.5,30.9h77c-3.9-17.7-19.7-30.9-38.5-30.9Z"/>
      </g>
    </g>
    <g>
      <path d="M203.7,245.5l-.4-.8c2.8-.8,4.5-2.3,4.8-4.3h-4.2v-.9h5.3c0,2.9-2,5.1-5.4,6ZM212.2,250.2h-7.3v-4.4h7.3v4.4ZM206,249.4h5.2v-2.7h-5.2v2.7ZM212.2,241.6h1.7v.9h-1.7v2.9h-1v-6.6h1v2.9Z"/>
      <path d="M221.5,244.4l-.5.8c-1.3-.5-2.3-1.5-2.8-2.7-.5,1.4-1.6,2.5-2.9,3l-.5-.8c1.7-.6,2.9-2.2,2.9-3.9v-.4h-2.6v-.9h6.2v.9h-2.6v.4c0,1.5,1.1,3,2.8,3.6ZM224.2,248.2c0,1.4-1.5,2.2-3.8,2.2-2.4,0-3.8-.8-3.8-2.2s1.5-2.2,3.8-2.2,3.8.8,3.8,2.2ZM217.5,248.2c0,.8,1.1,1.4,2.8,1.4s2.8-.5,2.8-1.4-1.1-1.4-2.8-1.4-2.8.5-2.8,1.4ZM224.2,245.7h-1v-3.1h-2.3v-.9h2.3v-3.1h1v7Z"/>
      <path d="M232.5,240.5h-1.2v3.7c.5,0,1,0,1.5-.1v.8c-2.2.4-4.8.4-6.6.4v-.9c-.1,0,1.4,0,1.4,0v-3.9h-1.2v-.9h6.1v.9ZM235.6,248.3c0,1.3-1.4,2.1-3.8,2.1s-3.8-.8-3.8-2.1,1.4-2.1,3.8-2.1,3.8.8,3.8,2.1ZM230.3,244.3v-3.8h-1.8v3.9c.6,0,1.2,0,1.8,0ZM228.9,248.3c0,.8,1.1,1.3,2.8,1.3s2.8-.5,2.8-1.3-1.1-1.3-2.8-1.3-2.8.5-2.8,1.3ZM235.6,245.9h-1v-2.2h-1.9v-.9h1.9v-1.2h-1.9v-.9h1.9v-2.1h1v7.2Z"/>
      <path d="M238.1,248.2l-.6-.8c3-1.5,4.6-3.8,4.8-6.5h-4.3v-.9h5.3c0,3.3-1.5,6.3-5.3,8.2ZM246.3,243.5h1.9v.9h-1.9v6.1h-1v-11.7h1v4.8Z"/>
      <path d="M259.8,246.6v.8c-2.5.5-5.4.5-7.4.5v-.9c2,0,4.9,0,7.4-.4ZM259,242.3c0,1.6-1.3,2.7-3.1,2.7s-3.1-1.1-3.1-2.7c0-1.6,1.3-2.7,3.1-2.7s3.1,1.1,3.1,2.7ZM253.8,242.3c0,1.1.9,1.8,2.1,1.8s2.1-.7,2.1-1.8-.9-1.8-2.1-1.8-2.1.8-2.1,1.8ZM261.6,250.4h-1v-11.7h1v11.7Z"/>
      <path d="M270.3,242.9h-4.8v1.5h5.1v.8h-2.7v2c1.1,0,2.2-.1,3.3-.2v.8c-2.5.4-5.2.4-7.4.4v-.9c.9,0,2,0,3.1,0v-2h-2.4v-3.1h4.8v-1.5h-4.8v-.8h5.8v3.1ZM273,250.4h-1v-11.7h1v11.7Z"/>
      <path d="M281.3,242.4c0,1.7-1.3,2.9-3,2.9s-3-1.2-3-2.9,1.3-2.9,3-2.9,3,1.2,3,2.9ZM276.3,242.4c0,1.2.9,2,2,2s2-.8,2-2-.9-2-2-2-2,.8-2,2ZM284.8,250.1h-7.8v-3.7h1v2.9h6.7v.9ZM284.5,247.3h-1v-8.5h1v8.5Z"/>
    </g>
  </g>
  <g>
    <circle class="st19" cx="244.4" cy="581.6" r="61.6"/>
    <g>
      <circle class="st17" cx="244.1" cy="564.4" r="18.8"/>
      <path class="st3" d="M244.4,586.8c-18.8,0-34.6,13.2-38.5,30.9h77c-3.9-17.7-19.7-30.9-38.5-30.9Z"/>
    </g>
    <g>
      <path d="M216.7,663.5l-.4-.8c2.8-.8,4.5-2.3,4.8-4.3h-4.2v-.9h5.3c0,2.9-2,5.1-5.4,6ZM225.3,668.3h-7.3v-4.4h7.3v4.4ZM219,667.5h5.2v-2.7h-5.2v2.7ZM225.3,659.6h1.7v.9h-1.7v2.9h-1v-6.6h1v2.9Z"/>
      <path d="M234.5,662.5l-.5.8c-1.3-.5-2.3-1.5-2.8-2.7-.5,1.4-1.6,2.5-2.9,3l-.5-.8c1.7-.6,2.9-2.2,2.9-3.9v-.4h-2.6v-.9h6.2v.9h-2.6v.4c0,1.5,1.1,3,2.8,3.6ZM237.3,666.3c0,1.4-1.5,2.2-3.8,2.2-2.4,0-3.8-.8-3.8-2.2s1.5-2.2,3.8-2.2,3.8.8,3.8,2.2ZM230.6,666.3c0,.8,1.1,1.4,2.8,1.4s2.8-.5,2.8-1.4-1.1-1.4-2.8-1.4-2.8.5-2.8,1.4ZM237.2,663.7h-1v-3.1h-2.3v-.9h2.3v-3.1h1v7Z"/>
      <path d="M245.6,658.5h-1.2v3.7c.5,0,1,0,1.5-.1v.8c-2.2.4-4.8.4-6.6.4v-.9c-.1,0,1.4,0,1.4,0v-3.9h-1.2v-.9h6.1v.9ZM248.7,666.3c0,1.3-1.4,2.1-3.8,2.1s-3.8-.8-3.8-2.1,1.4-2.1,3.8-2.1,3.8.8,3.8,2.1ZM243.4,662.3v-3.8h-1.8v3.9c.6,0,1.2,0,1.8,0ZM242,666.3c0,.8,1.1,1.3,2.8,1.3s2.8-.5,2.8-1.3-1.1-1.3-2.8-1.3-2.8.5-2.8,1.3ZM248.6,664h-1v-2.2h-1.9v-.9h1.9v-1.2h-1.9v-.9h1.9v-2.1h1v7.2Z"/>
      <path d="M251.2,666.2l-.6-.8c3-1.5,4.6-3.8,4.8-6.5h-4.3v-.9h5.3c0,3.3-1.5,6.3-5.3,8.2ZM259.4,661.5h1.9v.9h-1.9v6.1h-1v-11.7h1v4.8Z"/>
      <path d="M268.7,664.9l-.6.8c-1.3-.7-2.3-2.1-2.8-3.7-.5,1.7-1.6,3.2-2.9,3.9l-.6-.8c1.7-.8,3-3.1,3-5.2v-2.1h1v2.1c0,2.1,1.3,4.2,3,5ZM270.8,661.5h1.9v.9h-1.9v6.1h-1v-11.7h1v4.7Z"/>
    </g>
  </g>
  <g>
    <circle class="st19" cx="244.4" cy="375.2" r="61.6"/>
    <g>
      <g>
        <rect class="st3" x="199.4" y="337.6" width="90" height="29" rx="2.7" ry="2.7"/>
        <g>
          <g>
            <path class="st8" d="M244.9,347.7h44.4v4.1h-44.4c-.5,0-.9-.4-.9-.9v-2.4c0-.5.4-.9.9-.9Z"/>
            <rect class="st8" x="206.4" y="347.7" width="12.3" height="4.3" rx=".9" ry=".9"/>
          </g>
          <g>
            <path class="st8" d="M244.9,353.8h44.4v4.1h-44.4c-.5,0-.9-.4-.9-.9v-2.4c0-.5.4-.9.9-.9Z"/>
            <rect class="st8" x="206.4" y="353.6" width="12.3" height="4.3" rx=".9" ry=".9"/>
          </g>
        </g>
      </g>
      <g>
        <rect class="st3" x="199.4" y="374.5" width="90" height="29" rx="3.4" ry="3.4"/>
        <g>
          <g>
            <path class="st8" d="M244.9,384.6h44.4v4.1h-44.4c-.5,0-.9-.4-.9-.9v-2.4c0-.5.4-.9.9-.9Z"/>
            <rect class="st8" x="206.4" y="384.6" width="12.3" height="4.3" rx=".9" ry=".9"/>
          </g>
          <g>
            <path class="st8" d="M244.9,390.7h44.4v4.1h-44.4c-.5,0-.9-.4-.9-.9v-2.4c0-.5.4-.9.9-.9Z"/>
            <rect class="st8" x="206.4" y="390.4" width="12.3" height="4.3" rx=".9" ry=".9"/>
          </g>
        </g>
      </g>
      <rect class="st20" x="206.4" y="366.5" width="75.9" height="7.9"/>
      <rect class="st3" x="242.1" y="403.4" width="4.5" height="11.4"/>
      <rect class="st3" x="206.6" y="409.7" width="74.7" height="4" rx=".8" ry=".8"/>
      <g>
        <circle class="st20" cx="244.4" cy="411.8" r="4.7"/>
        <circle class="st19" cx="244.4" cy="411.8" r="2.2"/>
      </g>
    </g>
    <g>
      <path d="M199.6,450.7h-3.3v5.7c1.6,0,2.7,0,3.9-.4v.9c-1.2.3-2.3.3-4.2.3h-.7v-7.4h4.3v.9ZM202.3,459.5h-1v-5.7h-2.5v-.9h2.5v-4.2h1v10.8ZM204.6,460.1h-1v-11.7h1v11.7Z"/>
      <path d="M212.5,453.4c0,2.5-1.2,4.1-2.9,4.1s-2.9-1.6-2.9-4.1,1.2-4.1,2.9-4.1c1.7,0,2.9,1.6,2.9,4.1ZM207.6,453.4c0,1.9.8,3.1,1.9,3.1s1.9-1.2,1.9-3.1-.8-3.1-1.9-3.2c-1.1,0-1.9,1.2-1.9,3.2ZM215.7,460.1h-1v-11.7h1v11.7Z"/>
      <path d="M223.5,450.3h-4.3v2.4h3.8v.8h-3.8v2.8c2.1,0,3.4,0,5-.4v.9c-1.5.3-2.9.4-5.2.4h-.9v-7.8h5.3v.9ZM227.1,460.1h-1v-6.4h-2.4v-.9h2.4v-4.4h1v11.7Z"/>
      <path d="M242.8,458.6h-10.5v-.9h4.7v-2.9h1v2.9h4.8v.9ZM242.3,454.1l-.5.9c-1.7-.4-3.6-1.6-4.3-3.3-.8,1.7-2.6,2.9-4.3,3.3l-.5-.9c2-.4,4.2-2.1,4.2-4v-.9h1.1v.9c0,2,2.3,3.7,4.3,4Z"/>
      <path d="M254.2,458.5h-10.5v-.9h10.5v.9ZM253.7,454.3l-.5.9c-1.7-.4-3.5-1.7-4.3-3.4-.7,1.7-2.6,3-4.3,3.4l-.5-.9c2-.4,4.2-2.2,4.2-4.2v-.9h1.1v.9c0,2,2.2,3.8,4.2,4.2Z"/>
      <path d="M265.6,456.6l-.6.8c-1.3-.7-2.4-2-3-3.7-.5,1.8-1.7,3.2-3,3.9l-.6-.9c1.7-.8,3.1-3,3.1-5.2v-2.1h1v2.1c0,2.1,1.4,4.3,3.1,5.1ZM267.9,460.1h-1v-11.7h1v11.7Z"/>
      <path d="M280.4,458.5h-10.5v-.9h10.5v.9ZM279.8,454.3l-.5.9c-1.7-.4-3.5-1.7-4.3-3.4-.7,1.7-2.6,3-4.3,3.4l-.5-.9c2-.4,4.2-2.2,4.2-4.2v-.9h1.1v.9c0,2,2.2,3.8,4.2,4.2Z"/>
      <path d="M286.2,450h-3.4v1.4h2.9v.8h-2.9v1.6c1.7,0,2.7,0,3.9-.3v.8c-1.2.2-2.3.3-4.2.3h-.7v-5.6h4.4v.9ZM291,459.9h-7.6v-3.9h7.6v3.9ZM284.4,459.1h5.6v-2.3h-5.6v2.3ZM288.8,455.3h-1v-3.1h-1.5v-.9h1.5v-2.7h1v6.7ZM291,455.4h-1v-7.1h1v7.1Z"/>
    </g>
  </g>
  <g>
    <g>
      <polygon class="st0" points="1043 448.5 1043 460.4 1052.7 466.2 1062.1 460 1062.1 448.5 1043 448.5"/>
      <polygon class="st2" points="1043 448.6 1052.8 454.6 1062.4 448.9 1052.8 443.2 1043 448.6"/>
      <line class="st1" x1="1052.7" y1="454.4" x2="1052.7" y2="465.7"/>
    </g>
    <g>
      <polygon class="st0" points="1088.9 448.5 1088.9 460.4 1098.6 466.2 1108 460 1108 448.5 1088.9 448.5"/>
      <polygon class="st0" points="1088.9 448.6 1098.7 454.6 1108.3 448.9 1098.7 443.2 1088.9 448.6"/>
      <line class="st1" x1="1098.6" y1="454.4" x2="1098.6" y2="465.6"/>
    </g>
    <g>
      <polygon class="st0" points="1065.8 471.5 1065.8 483.4 1075.5 489.2 1084.9 483 1084.9 471.5 1065.8 471.5"/>
      <polygon class="st0" points="1065.8 471.6 1075.6 477.6 1085.2 471.9 1075.5 466.2 1065.8 471.6"/>
      <line class="st1" x1="1075.4" y1="477.4" x2="1075.4" y2="489"/>
    </g>
    <g>
      <polygon class="st0" points="1043 492.2 1043 504 1052.7 509.9 1062.1 503.7 1062.1 492.2 1043 492.2"/>
      <polygon class="st2" points="1043 492.2 1052.8 498.2 1062.4 492.6 1052.8 486.8 1043 492.2"/>
      <line class="st1" x1="1052.7" y1="498.1" x2="1052.7" y2="509.6"/>
    </g>
    <g>
      <polygon class="st0" points="1088.9 492.2 1088.9 504 1098.6 509.9 1108 503.7 1108 492.2 1088.9 492.2"/>
      <polygon class="st0" points="1088.9 492.2 1098.7 498.2 1108.3 492.6 1098.7 486.8 1088.9 492.2"/>
      <line class="st1" x1="1098.6" y1="498.1" x2="1098.6" y2="509.7"/>
    </g>
    <circle class="st9" cx="1075.5" cy="454.8" r="2.9"/>
    <circle class="st9" cx="1052.6" cy="479" r="2.9"/>
    <line class="st16" x1="1080.5" y1="454.7" x2="1085.1" y2="454.7"/>
    <line class="st16" x1="1088.5" y1="476.7" x2="1093.1" y2="476.7"/>
    <line class="st16" x1="1065.5" y1="500.2" x2="1070.2" y2="500.2"/>
    <line class="st16" x1="1052.6" y1="469.8" x2="1052.6" y2="474.5"/>
    <circle class="st9" cx="1075.6" cy="500.7" r="2.9"/>
    <line class="st16" x1="1075.6" y1="491.5" x2="1075.6" y2="496.2"/>
    <circle class="st9" cx="1098.7" cy="475.5" r="2.9"/>
    <line class="st16" x1="1098.7" y1="484.7" x2="1098.7" y2="480.1"/>
    <line class="st16" x1="1075.3" y1="459.8" x2="1075.3" y2="464.5"/>
  </g>
  <g>
    <path d="M1045,559.2h-10.4v-.8h10.4v.8ZM1043.6,562.8h-6.8v1.2h7.1v.8h-8.2v-2.7h6.8v-1h-6.8v-.8h7.8v2.6ZM1036.9,554.6h5.7v-1.1h1v3.9h-7.7v-3.9h1v1.1ZM1042.6,556.5v-1.1h-5.7v1.1h5.7Z"/>
    <path d="M1056.4,560.6h-10.5v-.9h4.7v-1.2h-3.4v-2.9h6.7v-1.2h-6.8v-.8h7.8v2.8h-6.8v1.2h7v.8h-3.6v1.2h4.8v.9ZM1055.1,564.9h-1v-2.6h-7v-.8h8v3.4Z"/>
    <path d="M1063.2,561.5l-.6.8c-1.1-.6-2-1.8-2.4-3.2-.4,1.5-1.2,2.8-2.4,3.5l-.6-.8c1.6-.9,2.5-3,2.5-4.9v-.6h-2.2v-.9h2.2v-1.7h1v1.7h2.1v.9h-2.2v.6c0,1.9.9,3.8,2.5,4.7ZM1064.8,564.4h-1v-5.6h-1.8v-.9h1.8v-4.3h1v10.8ZM1067.1,565h-1v-11.7h1v11.7Z"/>
    <path d="M1075,557c0,1.7-1.3,2.9-3,2.9s-3-1.2-3-2.9,1.3-2.9,3-2.9,3,1.2,3,2.9ZM1070,557c0,1.2.9,2,2,2s2-.8,2-2-.9-2-2-2-2,.8-2,2ZM1078.6,564.7h-7.8v-3.7h1v2.9h6.7v.9ZM1078.2,561.8h-1v-8.5h1v8.5Z"/>
    <path d="M1090.6,561.5l-.6.8c-1.3-.7-2.4-2-3-3.7-.5,1.8-1.7,3.2-3,3.9l-.6-.9c1.7-.8,3.1-3,3.1-5.2v-2.1h1v2.1c0,2.1,1.4,4.3,3.1,5.1ZM1092.9,565h-1v-11.7h1v11.7Z"/>
    <path d="M1105.3,563.4h-10.5v-.9h10.5v.9ZM1104.8,559.2l-.5.9c-1.7-.4-3.5-1.7-4.3-3.4-.7,1.7-2.6,3-4.3,3.4l-.5-.9c2-.4,4.2-2.2,4.2-4.2v-.9h1.1v.9c0,2,2.2,3.8,4.2,4.2Z"/>
    <path d="M1111.2,554.9h-3.4v1.4h2.9v.8h-2.9v1.6c1.7,0,2.7,0,3.9-.3v.8c-1.2.2-2.3.3-4.2.3h-.7v-5.6h4.4v.9ZM1116,564.8h-7.6v-3.9h7.6v3.9ZM1109.4,564h5.6v-2.3h-5.6v2.3ZM1113.8,560.2h-1v-3.1h-1.5v-.9h1.5v-2.7h1v6.7ZM1116,560.3h-1v-7.1h1v7.1Z"/>
  </g>
  <circle class="st19" cx="1075.6" cy="271.2" r="61.6"/>
  <g>
    <g>
      <rect class="st3" x="1038.4" y="244.2" width="74.5" height="24" rx="2.7" ry="2.7"/>
      <g>
        <g>
          <path class="st8" d="M1076.2,252.6h36.7v3.4h-36.7c-.5,0-.8-.4-.8-.8v-1.8c0-.5.4-.8.8-.8Z"/>
          <rect class="st8" x="1044.2" y="252.6" width="10.2" height="3.6" rx=".9" ry=".9"/>
        </g>
        <g>
          <path class="st8" d="M1076.2,257.6h36.7v3.4h-36.7c-.5,0-.8-.4-.8-.8v-1.8c0-.5.4-.8.8-.8Z"/>
          <rect class="st8" x="1044.2" y="257.4" width="10.2" height="3.6" rx=".9" ry=".9"/>
        </g>
      </g>
    </g>
    <g>
      <rect class="st3" x="1038.4" y="274.8" width="74.5" height="24" rx="3.4" ry="3.4"/>
      <g>
        <g>
          <path class="st8" d="M1076.2,283.2h36.7v3.4h-36.7c-.5,0-.8-.4-.8-.8v-1.8c0-.5.4-.8.8-.8Z"/>
          <rect class="st8" x="1044.2" y="283.2" width="10.2" height="3.6" rx=".9" ry=".9"/>
        </g>
        <g>
          <path class="st8" d="M1076.2,288.2h36.7v3.4h-36.7c-.5,0-.8-.4-.8-.8v-1.8c0-.5.4-.8.8-.8Z"/>
          <rect class="st8" x="1044.2" y="288" width="10.2" height="3.6" rx=".9" ry=".9"/>
        </g>
      </g>
    </g>
    <rect class="st20" x="1044.2" y="268.2" width="62.9" height="6.6"/>
    <rect class="st3" x="1073.8" y="298.8" width="3.7" height="9.5"/>
    <rect class="st3" x="1044.4" y="304" width="61.9" height="3.3" rx=".8" ry=".8"/>
    <g>
      <circle class="st20" cx="1075.6" cy="305.7" r="3.9"/>
      <circle class="st19" cx="1075.6" cy="305.7" r="1.8"/>
    </g>
  </g>
  <g>
    <path d="M1052.5,346.9h-1.3v5.6c.6,0,1.2,0,1.8-.2v.8c-2.4.4-5.1.4-7.1.4v-.9c-.1,0,1.4,0,1.4,0v-5.8h-1.3v-.9h6.4v.9ZM1050.3,352.6v-5.7h-2v5.8c.6,0,1.3,0,2,0ZM1054.8,349.5h1.9v.9h-1.9v6.1h-1v-11.7h1v4.7Z"/>
    <path d="M1063.5,347.8c0,1.5-1.2,2.6-3,2.6s-3-1.1-3-2.6,1.2-2.6,3-2.6c1.7,0,3,1.1,3,2.6ZM1058.6,347.8c0,1,.8,1.7,2,1.7s2-.7,2-1.7-.9-1.7-2-1.7-2,.7-2,1.7ZM1066.8,354.2h-6.4v1.3h6.8v.8h-7.8v-2.9h6.4v-1.2h-6.4v-.8h7.4v2.8ZM1066.8,350.8h-1v-6h1v6Z"/>
    <path d="M1079.2,353l-.6.8c-1.3-.7-2.4-2-3-3.7-.5,1.8-1.7,3.2-3,3.9l-.6-.9c1.7-.8,3.1-3,3.1-5.2v-2.1h1v2.1c0,2.1,1.4,4.3,3.1,5.1ZM1081.5,356.5h-1v-11.7h1v11.7Z"/>
    <path d="M1093.9,354.9h-10.5v-.9h10.5v.9ZM1093.4,350.7l-.5.9c-1.7-.4-3.5-1.7-4.3-3.4-.7,1.7-2.6,3-4.3,3.4l-.5-.9c2-.4,4.2-2.2,4.2-4.2v-.9h1.1v.9c0,2,2.2,3.8,4.2,4.2Z"/>
    <path d="M1099.8,346.4h-3.4v1.4h2.9v.8h-2.9v1.6c1.7,0,2.7,0,3.9-.3v.8c-1.2.2-2.3.3-4.2.3h-.7v-5.6h4.4v.9ZM1104.6,356.3h-7.6v-3.9h7.6v3.9ZM1098,355.5h5.6v-2.3h-5.6v2.3ZM1102.4,351.7h-1v-3.1h-1.5v-.9h1.5v-2.7h1v6.7ZM1104.6,351.8h-1v-7h1v7Z"/>
  </g>
  <g>
    <line class="st12" x1="309.8" y1="168.6" x2="482.2" y2="168.6"/>
    <polyline class="st12" points="476.1 175.1 482.3 168.6 476.8 161.5"/>
  </g>
  <g>
    <g>
      <path d="M534.9,232.5l-.4-.8c2.8-.8,4.5-2.3,4.8-4.3h-4.2v-.9h5.3c0,2.9-2,5.1-5.4,6ZM543.4,237.3h-7.3v-4.4h7.3v4.4ZM537.2,236.4h5.2v-2.7h-5.2v2.7ZM543.4,228.6h1.7v.9h-1.7v2.9h-1v-6.6h1v2.9Z"/>
      <path d="M552.7,231.4l-.5.8c-1.3-.5-2.3-1.5-2.8-2.7-.5,1.4-1.6,2.5-2.9,3l-.5-.8c1.7-.6,2.9-2.2,2.9-3.9v-.4h-2.6v-.9h6.2v.9h-2.6v.4c0,1.5,1.1,3,2.8,3.6ZM555.4,235.2c0,1.4-1.5,2.2-3.8,2.2-2.4,0-3.8-.8-3.8-2.2s1.5-2.2,3.8-2.2,3.8.8,3.8,2.2ZM548.7,235.2c0,.8,1.1,1.4,2.8,1.4s2.8-.5,2.8-1.4-1.1-1.4-2.8-1.4-2.8.5-2.8,1.4ZM555.4,232.7h-1v-3.1h-2.3v-.9h2.3v-3.1h1v7Z"/>
      <path d="M563.7,227.5h-1.2v3.7c.5,0,1,0,1.5-.1v.8c-2.2.4-4.8.4-6.6.4v-.9c-.1,0,1.4,0,1.4,0v-3.9h-1.2v-.9h6.1v.9ZM566.8,235.3c0,1.3-1.4,2.1-3.8,2.1s-3.8-.8-3.8-2.1,1.4-2.1,3.8-2.1,3.8.8,3.8,2.1ZM561.6,231.3v-3.8h-1.8v3.9c.6,0,1.2,0,1.8,0ZM560.1,235.3c0,.8,1.1,1.3,2.8,1.3s2.8-.5,2.8-1.3-1.1-1.3-2.8-1.3-2.8.5-2.8,1.3ZM566.8,232.9h-1v-2.2h-1.9v-.9h1.9v-1.2h-1.9v-.9h1.9v-2.1h1v7.2Z"/>
      <path d="M569.3,235.2l-.6-.8c3-1.5,4.6-3.8,4.8-6.5h-4.3v-.9h5.3c0,3.3-1.5,6.3-5.3,8.2ZM577.5,230.5h1.9v.9h-1.9v6.1h-1v-11.7h1v4.8Z"/>
      <path d="M589.5,228.5h2.4v-2.8h1v6.3h-1v-2.6h-2.4c-.2,1.4-1.4,2.3-2.9,2.3s-3-1.1-3-2.7,1.2-2.7,3-2.7c1.5,0,2.7.9,2.9,2.2ZM584.5,229c0,1.1.8,1.8,2,1.8s2-.8,2-1.8-.8-1.8-2-1.8c-1.2,0-2,.7-2,1.8ZM586.5,234.1h5.3v-1.5h1v4.7h-7.4v-4.7h1v1.5ZM591.9,236.4v-1.5h-5.3v1.5h5.3Z"/>
      <path d="M605.3,233.4h-4.8v4h-1v-4h-4.7v-.9h10.5v.9ZM603.9,230.9h-7.8v-4.6h7.8v4.6ZM597.1,230.1h5.8v-2.9h-5.8v2.9Z"/>
      <path d="M616.5,233.9l-.6.8c-1.3-.7-2.4-2.1-2.9-3.7-.5,1.7-1.6,3.2-2.9,4l-.7-.8c1.7-.8,3-3.1,3-5.2v-2.1h1v2.1c0,2.1,1.3,4.2,3,5ZM619,237.4h-1v-6.9h-2.7v-.8h2.7v-4h1v11.7Z"/>
      <path d="M622.6,229.8h3.4v-3.1h1v7.9h-5.4v-7.9h1v3.1ZM626,233.7v-3.1h-3.4v3.1h3.4ZM630.4,237.4h-1v-11.7h1v11.7Z"/>
      <path d="M642.8,235.8h-10.5v-.9h10.5v.9ZM642.3,231.6l-.5.9c-1.7-.4-3.5-1.7-4.3-3.4-.7,1.7-2.6,3-4.3,3.4l-.5-.9c2-.4,4.2-2.2,4.2-4.2v-.9h1.1v.9c0,2,2.2,3.8,4.2,4.2Z"/>
    </g>
    <g>
      <path d="M789.5,227.9h-1.3v5.6c.6,0,1.2,0,1.8-.2v.8c-2.4.4-5.1.4-7.1.4v-.9c-.1,0,1.4,0,1.4,0v-5.8h-1.3v-.9h6.4v.9ZM787.2,233.5v-5.7h-2v5.8c.6,0,1.3,0,2,0ZM791.7,230.4h1.9v.9h-1.9v6.1h-1v-11.7h1v4.7Z"/>
      <path d="M800.5,228.7c0,1.5-1.2,2.6-3,2.6s-3-1.1-3-2.6,1.2-2.6,3-2.6c1.7,0,3,1.1,3,2.6ZM795.6,228.7c0,1,.8,1.7,2,1.7s2-.7,2-1.7-.8-1.7-2-1.7-2,.7-2,1.7ZM803.7,235.1h-6.4v1.3h6.8v.8h-7.8v-2.9h6.4v-1.2h-6.4v-.8h7.4v2.8ZM803.7,231.7h-1v-6h1v6Z"/>
      <path d="M812.6,234.1l-.6.8c-1.3-.6-2.4-1.9-2.9-3.4-.5,1.6-1.6,3-2.9,3.6l-.6-.8c1.7-.8,2.9-2.8,2.9-4.8v-.9h-2.6v-.8h2.6v-1.8h1v1.8h2.6v.8h-2.6v.9c0,1.9,1.3,3.8,3,4.6ZM815.2,237.4h-1v-6.2h-2.5v-.9h2.5v-4.7h1v11.7Z"/>
      <path d="M823.1,231h-4.3v2.8c1.9,0,3.6,0,5.6-.4v.9c-2,.3-3.7.4-5.7.4h-1v-4.5h4.3v-2.5h-4.3v-.9h5.3v4.2ZM826.6,237.4h-1v-11.7h1v11.7Z"/>
      <path d="M842.3,235.9h-10.5v-.9h4.7v-2.9h-3.5v-5.5h7.9v5.5h-3.5v2.9h4.8v.9ZM834,231.4h6v-3.8h-6v3.8Z"/>
      <path d="M853.7,231.5h-2.8v1.2h1.4v2.6h-6.8v1.2h7.1v.8h-8.2v-2.8h6.8v-1.1h-6.8v-.8h1.6v-1.2h-2.9v-.8h10.4v.8ZM852.4,229.7h-7.8v-3.5h7.7v.9h-6.7v1.8h6.8v.8ZM849.9,232.7v-1.2h-2.8v1.2h2.8Z"/>
    </g>
    <g>
      <g>
        <g>
          <path class="st8" d="M550.5,155.4h60.9c.9,0,1.5.7,1.5,1.5v41.6h-64v-41.6c0-.9.7-1.5,1.5-1.5Z"/>
          <path class="st11" d="M610.2,154.3h-58.6c-2.2,0-4.1,1.8-4.1,4.1v41.6h66.7v-41.6c0-2.2-1.8-4.1-4.1-4.1Z"/>
        </g>
        <g>
          <path class="st8" d="M616.2,203.4h-70.5c-.6,0-1.1-.3-1.4-.8l-2.8-5.4c-.5-1,.2-2.2,1.4-2.2h32.6l1.2,2.1h8.4s1-2.1,1-2.1h32.9c1.2,0,1.9,1.2,1.4,2.3l-2.8,5.3c-.3.5-.8.8-1.4.8Z"/>
          <path class="st3" d="M616.2,204.6h-70.5c-1,0-1.9-.6-2.4-1.4l-2.8-5.4c-.4-.8-.4-1.8,0-2.6.5-.8,1.4-1.3,2.3-1.3h33.3l1.2,2.1h7s1-2.1,1-2.1h33.6c1,0,1.8.5,2.3,1.3.5.8.5,1.8,0,2.7l-2.8,5.3c-.5.9-1.4,1.5-2.4,1.5ZM542.8,196.1c-.2,0-.3.1-.3.2s0,.2,0,.4l2.8,5.4c0,.1.2.2.3.2h70.5c.1,0,.3,0,.3-.2l2.8-5.3c0-.2,0-.3,0-.4,0,0-.1-.2-.3-.2h-32.1l-1,2.1h-9.8s-1.2-2.1-1.2-2.1h-32Z"/>
        </g>
      </g>
      <g>
        <rect class="st6" x="599.1" y="171.3" width="30.4" height="40.8" rx="2.6" ry="2.6"/>
        <line class="st13" x1="599.1" y1="177.3" x2="629.3" y2="177.3"/>
        <line class="st10" x1="601.6" y1="204.8" x2="626.9" y2="204.8"/>
        <line class="st10" x1="608.5" y1="208.1" x2="620" y2="208.1"/>
        <path class="st17" d="M608,190.8c2,.9,3.7,2,5.4,3.3,0,0-1.7,0-1.7,0,2.5-3.1,5.2-6,8.5-8.1,0,0,.4.3.4.3-2,3.9-4.9,7.2-8.1,10.2-1.7-1.8-3.4-3.5-4.8-5.7,0,0,.2-.2.2-.2h0Z"/>
      </g>
    </g>
    <g>
      <line class="st12" x1="647.2" y1="183.6" x2="770.4" y2="183.6"/>
      <polyline class="st12" points="764.4 190.1 770.6 183.6 765 176.5"/>
    </g>
    <g>
      <rect class="st3" x="787.4" y="152" width="53.6" height="62.7" rx="1.9" ry="1.9"/>
      <g>
        <g>
          <path class="st7" d="M847,207.5h-44.6c-2.9,0-5.3-2.4-5.3-5.3v-55.6c0-2.9,2.4-5.3,5.3-5.3h32.5c1.8,0,3.5.7,4.7,2l11.8,12.2c.5.5.8,1.3.8,2v44.7c0,2.9-2.4,5.3-5.3,5.3Z"/>
          <path class="st5" d="M834.9,142.9v12.6c0,1.4,1.2,2.5,2.6,2.5h12.8"/>
          <g>
            <path class="st18" d="M841,174.2l-2.4.3c-.3,0-.6-.2-.7-.5-.3-1-.6-1.9-1.1-2.8-.2-.3,0-.6.2-.8l1.9-1.5c.5-.4.5-1.1,0-1.6l-3.6-3.6c-.4-.4-1.2-.4-1.6,0l-1.4,1.8c-.2.3-.6.3-.9.2-.9-.5-1.8-.9-2.8-1.2s-.5-.4-.5-.7l.3-2.2c0-.6-.4-1.2-1-1.2h-5.2c-.6,0-1.1.5-1,1.2l.2,2.1c0,.3-.2.6-.5.7-1,.3-2,.7-3,1.2-.3.2-.6,0-.8-.2l-1.3-1.6c-.4-.5-1.1-.5-1.6,0l-3.6,3.6c-.4.4-.4,1.2,0,1.6l1.6,1.3c.3.2.3.6.2.8-.5.9-.9,1.9-1.2,3,0,.3-.4.5-.7.5l-2.1-.2c-.6,0-1.2.4-1.2,1v5.2c0,.6.5,1.1,1.2,1l2.1-.2c.3,0,.6.2.7.5.3,1,.7,2,1.2,2.9s.1.6-.2.9l-1.7,1.4c-.5.4-.5,1.1,0,1.6l3.6,3.6c.4.4,1.2.4,1.6,0l1.5-1.8c.2-.3.5-.3.8-.2.9.5,1.8.9,2.8,1.1.3,0,.5.4.5.7l-.3,2.4c0,.6.4,1.2,1,1.2h5.2c.6,0,1.1-.5,1-1.2l-.3-2.5c0-.3.2-.6.5-.7,1-.3,1.9-.7,2.7-1.1s.6,0,.8.2l1.6,2c.4.5,1.1.5,1.6,0l3.6-3.6c.4-.4.4-1.2,0-1.6l-2-1.6c-.3-.2-.3-.6-.2-.8.5-.9.9-1.8,1.1-2.7s.4-.5.7-.5l2.5.3c.6,0,1.2-.4,1.2-1v-5.2c0-.6-.5-1.1-1.2-1Z"/>
            <circle class="st8" cx="824.7" cy="177.7" r="8.5"/>
          </g>
        </g>
        <line class="st4" x1="802.8" y1="149.8" x2="821.5" y2="149.8"/>
        <line class="st4" x1="802.8" y1="155.8" x2="815.8" y2="155.8"/>
      </g>
    </g>
  </g>
  <g>
    <line class="st12" x1="908.5" y1="278.4" x2="1001.3" y2="278.4"/>
    <polyline class="st12" points="995.3 284.9 1001.5 278.4 995.9 271.2"/>
  </g>
  <g>
    <line class="st12" x1="908.5" y1="475.9" x2="1001.3" y2="475.9"/>
    <polyline class="st12" points="995.3 482.4 1001.5 475.8 995.9 468.7"/>
  </g>
  <polyline class="st12" points="481.9 204.8 327.6 204.8 327.6 380.8 309.8 380.8"/>
  <polyline class="st14" points="481.9 242.5 358.3 242.5 358.3 585.7 310 585.7"/>
  <polyline class="st12" points="476.1 211.6 482.3 205.1 476.8 197.9"/>
  <polyline class="st12" points="476.1 249.3 482.3 242.8 476.8 235.7"/>
  <g>
    <g>
      <path class="st15" d="M358.1,147.9l-.4-.8c2.9-.8,4.6-2.3,4.9-4.3h-4.3v-.9h5.4c0,2.9-2.1,5.1-5.5,6ZM366.8,152.7h-7.4v-4.4h7.4v4.4ZM360.4,151.9h5.4v-2.7h-5.4v2.7ZM366.8,144h1.8v.9h-1.8v2.9h-1v-6.6h1v2.9Z"/>
      <path class="st15" d="M376.2,146.9l-.5.8c-1.3-.5-2.3-1.5-2.8-2.7-.5,1.4-1.6,2.5-3,3l-.5-.8c1.7-.6,3-2.2,3-3.9v-.4h-2.6v-.9h6.3v.9h-2.6v.4c0,1.5,1.2,3,2.9,3.6ZM379,150.7c0,1.4-1.5,2.2-3.9,2.2-2.4,0-3.9-.8-3.9-2.2s1.5-2.2,3.9-2.2,3.9.8,3.9,2.2ZM372.2,150.7c0,.8,1.1,1.4,2.9,1.4s2.9-.5,2.9-1.4-1.1-1.4-2.9-1.4-2.9.5-2.9,1.4ZM379,148.1h-1v-3.1h-2.4v-.9h2.4v-3.1h1v7Z"/>
      <path class="st15" d="M387.5,142.9h-1.2v3.7c.5,0,1.1,0,1.6-.1v.8c-2.2.4-4.9.4-6.8.4v-.9c-.1,0,1.4,0,1.4,0v-3.9h-1.2v-.9h6.2v.9ZM390.7,150.7c0,1.3-1.5,2.1-3.9,2.1s-3.9-.8-3.9-2.1,1.5-2.1,3.9-2.1,3.9.8,3.9,2.1ZM385.3,146.7v-3.8h-1.8v3.9c.6,0,1.2,0,1.8,0ZM383.9,150.7c0,.8,1.1,1.3,2.9,1.3s2.9-.5,2.9-1.3-1.1-1.3-2.9-1.3-2.9.5-2.9,1.3ZM390.6,148.4h-1v-2.2h-2v-.9h2v-1.2h-2v-.9h2v-2.1h1v7.2Z"/>
      <path class="st15" d="M393.2,150.6l-.6-.8c3-1.5,4.7-3.8,4.9-6.5h-4.4v-.9h5.4c0,3.3-1.6,6.3-5.4,8.2ZM401.6,145.9h1.9v.9h-1.9v6.1h-1v-11.7h1v4.8Z"/>
      <path class="st15" d="M415.4,149v.8c-2.6.5-5.5.5-7.6.5v-.9c2,0,5,0,7.6-.4ZM414.6,144.8c0,1.6-1.3,2.7-3.1,2.7s-3.2-1.1-3.2-2.7c0-1.6,1.3-2.7,3.2-2.7s3.1,1.1,3.1,2.7ZM409.3,144.8c0,1.1.9,1.8,2.1,1.8s2.1-.7,2.1-1.8-.9-1.8-2.1-1.8-2.2.8-2.1,1.8ZM417.2,152.9h-1v-11.7h1v11.7Z"/>
      <path class="st15" d="M426,145.3h-4.9v1.5h5.2v.8h-2.7v2c1.1,0,2.3-.1,3.4-.2v.8c-2.5.4-5.3.4-7.6.4v-.9c.9,0,2,0,3.2,0v-2h-2.5v-3.1h4.9v-1.5h-4.9v-.8h5.9v3.1ZM428.8,152.9h-1v-11.7h1v11.7Z"/>
    </g>
    <g>
      <circle class="st3" cx="342.4" cy="147.9" r="9.6"/>
      <g>
        <path class="st8" d="M337.2,147.7c0-2.6,1-4.2,2.8-4.2s2.7,1.6,2.7,4.2-1,4.2-2.7,4.2-2.8-1.5-2.8-4.2ZM342,147.7c0-2.2-.7-3.5-2-3.5s-2,1.3-2,3.5.7,3.5,2,3.5,2-1.3,2-3.5Z"/>
        <path class="st8" d="M346.8,151.8h-.8v-7.3h0l-1.9,1.3v-.8l1.9-1.3h.8v8.2Z"/>
      </g>
    </g>
  </g>
  <g>
    <g>
      <path class="st15" d="M404.6,268l-.5.8c-1.3-.5-2.2-1.5-2.7-2.7-.5,1.3-1.5,2.4-2.9,2.9l-.5-.8c1.7-.6,2.9-2.1,2.9-3.8v-.6h-2.5v-.9h6.1v.9h-2.5v.6c0,1.5,1.1,3,2.8,3.6ZM407.5,273.4h-7.5v-3.6h1v2.8h6.5v.9ZM407.2,270.6h-1v-4.5h-2.3v-.9h2.3v-3.2h1v8.6Z"/>
      <path class="st15" d="M415.8,270.3l-.6.8c-1.3-.6-2.3-2-2.8-3.6-.5,1.7-1.6,3.2-2.9,3.9l-.6-.8c1.6-.8,3-3,3-5v-1.5h-2.6v-.9h6.1v.9h-2.5v1.5c0,1.9,1.3,3.9,2.9,4.7ZM417.8,266.7h1.9v.9h-1.9v6.1h-1v-11.7h1v4.7Z"/>
      <path class="st15" d="M423.9,268.8l-.4-.8c2.8-.8,4.5-2.3,4.7-4.3h-4.2v-.9h5.2c0,2.9-2,5.1-5.3,6ZM432.3,273.5h-7.1v-4.4h7.1v4.4ZM426.2,272.7h5.1v-2.7h-5.1v2.7ZM432.3,264.9h1.7v.9h-1.7v2.9h-1v-6.6h1v2.9Z"/>
      <path class="st15" d="M441.4,267.7l-.5.8c-1.3-.5-2.2-1.5-2.7-2.7-.5,1.4-1.5,2.5-2.9,3l-.5-.8c1.7-.6,2.9-2.2,2.9-3.9v-.4h-2.5v-.9h6.1v.9h-2.5v.4c0,1.5,1.1,3,2.8,3.6ZM444,271.5c0,1.4-1.4,2.2-3.8,2.2-2.3,0-3.8-.8-3.8-2.2s1.4-2.2,3.8-2.2,3.8.8,3.8,2.2ZM437.5,271.5c0,.8,1.1,1.4,2.8,1.4s2.8-.5,2.8-1.4-1.1-1.4-2.8-1.4-2.8.5-2.8,1.4ZM444,269h-1v-3.1h-2.3v-.9h2.3v-3.1h1v7Z"/>
      <path class="st15" d="M452.2,263.8h-1.1v3.7c.5,0,1,0,1.5-.1v.8c-2.1.4-4.7.4-6.5.4v-.9c-.1,0,1.3,0,1.3,0v-3.9h-1.1v-.9h6v.9ZM455.2,271.6c0,1.3-1.4,2.1-3.8,2.1s-3.8-.8-3.8-2.1,1.4-2.1,3.8-2.1,3.8.8,3.8,2.1ZM450,267.6v-3.8h-1.8v3.9c.6,0,1.2,0,1.8,0ZM448.7,271.6c0,.8,1,1.3,2.8,1.3s2.8-.5,2.8-1.3-1-1.3-2.8-1.3-2.8.5-2.8,1.3ZM455.2,269.2h-1v-2.2h-1.9v-.9h1.9v-1.2h-1.9v-.9h1.9v-2.1h1v7.2Z"/>
      <path class="st15" d="M457.7,271.5l-.6-.8c2.9-1.5,4.5-3.8,4.7-6.5h-4.2v-.9h5.2c0,3.3-1.5,6.3-5.2,8.2ZM465.7,266.8h1.8v.9h-1.8v6.1h-1v-11.7h1v4.8Z"/>
      <path class="st15" d="M475.1,270.2l-.6.8c-1.3-.7-2.3-2.1-2.8-3.7-.5,1.7-1.6,3.2-2.8,4l-.6-.8c1.6-.8,3-3.1,3-5.2v-2.1h1v2.1c0,2.1,1.3,4.2,2.9,5ZM477.5,273.7h-1v-6.9h-2.7v-.8h2.7v-4h1v11.7Z"/>
      <path class="st15" d="M488.3,267.5l-.5.8c-1.1-.4-1.9-1.3-2.3-2.3-.4,1.1-1.2,2.1-2.3,2.6l-.5-.8c1.5-.7,2.4-2.2,2.4-3.5v-1.6h.9v1.6c0,1.3.9,2.6,2.3,3.2ZM492.2,271.6c0,1.3-1.5,2.1-3.8,2.1s-3.8-.8-3.8-2.1c0-1.3,1.4-2.1,3.8-2.1s3.8.8,3.8,2.1ZM485.7,271.6c0,.8,1.1,1.3,2.8,1.3s2.8-.5,2.8-1.3c0-.8-1.1-1.3-2.8-1.3s-2.8.5-2.8,1.3ZM492.2,269.2h-.9v-3.2h-1.5v2.9h-.9v-6.6h.9v2.9h1.5v-3.1h.9v7.2Z"/>
      <path class="st15" d="M500.4,267.6l-.6.8c-1.2-.5-2.2-1.4-2.7-2.7-.5,1.4-1.5,2.5-2.9,3l-.5-.8c1.7-.6,2.9-2.2,2.9-4v-1.2h1v1.2c0,1.7,1.1,3.1,2.8,3.7ZM503.1,271.5c0,1.4-1.4,2.2-3.8,2.2s-3.8-.8-3.8-2.2,1.4-2.2,3.8-2.2,3.8.8,3.8,2.2ZM496.6,271.5c0,.8,1.1,1.4,2.8,1.4s2.8-.5,2.8-1.4-1.1-1.4-2.8-1.4-2.8.5-2.8,1.4ZM503.1,268.9h-1v-3.6h-2.5v-.9h2.5v-2.5h1v6.9Z"/>
    </g>
    <g>
      <circle class="st3" cx="382.1" cy="268.8" r="9.6"/>
      <g>
        <path class="st8" d="M375.6,268.6c0-2.6,1-4.2,2.8-4.2s2.7,1.6,2.7,4.2-1,4.2-2.7,4.2-2.8-1.5-2.8-4.2ZM380.3,268.6c0-2.2-.7-3.5-2-3.5s-2,1.3-2,3.5.7,3.5,2,3.5,2-1.3,2-3.5Z"/>
        <path class="st8" d="M382.5,270.6h.8c0,.9.9,1.4,1.9,1.4s2-.7,2-1.6c0-1-.8-1.6-2.1-1.6h-.5v-.7h.5c1.1,0,1.8-.6,1.8-1.5,0-.9-.7-1.5-1.7-1.5s-1.8.6-1.8,1.4h-.8c0-1.3,1.2-2.2,2.6-2.2s2.4,1,2.4,2.2c0,.9-.6,1.6-1.4,1.9h0c1.1.2,1.7,1,1.7,2,0,1.3-1.2,2.3-2.7,2.3s-2.7-.9-2.7-2.2Z"/>
      </g>
    </g>
  </g>
  <g>
    <g>
      <path class="st15" d="M365.4,607.3l-.4-.8c2.8-.8,4.5-2.3,4.7-4.3h-4.2v-.9h5.2c0,2.9-2,5.1-5.3,6ZM373.8,612.1h-7.1v-4.4h7.1v4.4ZM367.7,611.2h5.1v-2.7h-5.1v2.7ZM373.8,603.4h1.7v.9h-1.7v2.9h-1v-6.6h1v2.9Z"/>
      <path class="st15" d="M382.9,606.3l-.5.8c-1.3-.5-2.2-1.5-2.7-2.7-.5,1.4-1.5,2.5-2.9,3l-.5-.8c1.7-.6,2.9-2.2,2.9-3.9v-.4h-2.5v-.9h6.1v.9h-2.5v.4c0,1.5,1.1,3,2.8,3.6ZM385.6,610.1c0,1.4-1.4,2.2-3.8,2.2-2.3,0-3.8-.8-3.8-2.2s1.4-2.2,3.8-2.2,3.8.8,3.8,2.2ZM379,610.1c0,.8,1.1,1.4,2.8,1.4s2.8-.5,2.8-1.4-1.1-1.4-2.8-1.4-2.8.5-2.8,1.4ZM385.5,607.5h-1v-3.1h-2.3v-.9h2.3v-3.1h1v7Z"/>
      <path class="st15" d="M393.7,602.3h-1.1v3.7c.5,0,1,0,1.5-.1v.8c-2.1.4-4.7.4-6.5.4v-.9c-.1,0,1.3,0,1.3,0v-3.9h-1.1v-.9h6v.9ZM396.7,610.1c0,1.3-1.4,2.1-3.8,2.1s-3.8-.8-3.8-2.1,1.4-2.1,3.8-2.1,3.8.8,3.8,2.1ZM391.6,606.1v-3.8h-1.8v3.9c.6,0,1.2,0,1.8,0ZM390.2,610.1c0,.8,1,1.3,2.8,1.3s2.8-.5,2.8-1.3-1-1.3-2.8-1.3-2.8.5-2.8,1.3ZM396.7,607.8h-1v-2.2h-1.9v-.9h1.9v-1.2h-1.9v-.9h1.9v-2.1h1v7.2Z"/>
      <path class="st15" d="M399.2,610l-.6-.8c2.9-1.5,4.5-3.8,4.7-6.5h-4.2v-.9h5.2c0,3.3-1.5,6.3-5.2,8.2ZM407.2,605.3h1.8v.9h-1.8v6.1h-1v-11.7h1v4.8Z"/>
      <path class="st15" d="M416.6,608.7l-.6.8c-1.3-.7-2.3-2.1-2.8-3.7-.5,1.7-1.6,3.2-2.8,4l-.6-.8c1.6-.8,3-3.1,3-5.2v-2.1h1v2.1c0,2.1,1.3,4.2,2.9,5ZM419,612.3h-1v-6.9h-2.7v-.8h2.7v-4h1v11.7Z"/>
      <path class="st15" d="M430.7,606.3l-.5.8c-1.3-.5-2.3-1.4-2.7-2.6-.5,1.3-1.5,2.4-2.8,2.9l-.5-.8c1.7-.6,2.9-2.1,2.9-3.8v-.5h-2.6v-.8h6.1v.8h-2.5v.5c0,1.6,1.1,3,2.8,3.6ZM432.9,612.2h-1v-3.2h-6.4v-.8h7.4v4ZM432.9,603.6h1.7v.9h-1.7v3.1h-1v-7.1h1v3.1Z"/>
      <path class="st15" d="M442,606.1l-.6.8c-1.2-.5-2.2-1.4-2.7-2.7-.5,1.4-1.5,2.5-2.9,3l-.5-.8c1.7-.6,2.9-2.2,2.9-4v-1.2h1v1.2c0,1.7,1.1,3.1,2.8,3.7ZM444.7,610c0,1.4-1.4,2.2-3.8,2.2s-3.8-.8-3.8-2.2,1.4-2.2,3.8-2.2,3.8.8,3.8,2.2ZM438.1,610c0,.8,1.1,1.4,2.8,1.4s2.8-.5,2.8-1.4-1.1-1.4-2.8-1.4-2.8.5-2.8,1.4ZM444.6,607.5h-1v-3.6h-2.5v-.9h2.5v-2.5h1v6.9Z"/>
    </g>
    <g>
      <circle class="st3" cx="349.2" cy="606.1" r="9.6"/>
      <g>
        <path class="st8" d="M342.7,605.9c0-2.6,1-4.2,2.8-4.2s2.7,1.6,2.7,4.2-1,4.2-2.7,4.2-2.8-1.5-2.8-4.2ZM347.4,605.9c0-2.2-.7-3.5-2-3.5s-2,1.3-2,3.5.7,3.5,2,3.5,2-1.3,2-3.5Z"/>
        <path class="st8" d="M349.6,609.4l2.8-3c1-1.1,1.5-1.7,1.5-2.5,0-.9-.7-1.5-1.7-1.5s-1.7.7-1.7,1.6h-.8c0-1.4,1.1-2.3,2.5-2.3s2.4,1,2.4,2.2-.4,1.6-1.8,3.1l-2,2.2h0c0,0,4.1,0,4.1,0v.7h-5.2v-.6Z"/>
      </g>
    </g>
  </g>
  <g>
    <g>
      <path class="st15" d="M371.7,638.6l-.5.8c-1.3-.5-2.2-1.5-2.7-2.7-.5,1.3-1.5,2.4-2.9,2.9l-.5-.8c1.7-.6,2.9-2.1,2.9-3.8v-.6h-2.5v-.9h6.1v.9h-2.5v.6c0,1.5,1.1,3,2.8,3.6ZM374.7,644h-7.5v-3.6h1v2.8h6.5v.9ZM374.3,641.2h-1v-4.5h-2.3v-.9h2.3v-3.2h1v8.6Z"/>
      <path class="st15" d="M382.9,640.9l-.6.8c-1.3-.6-2.3-2-2.8-3.6-.5,1.7-1.6,3.2-2.9,3.9l-.6-.8c1.6-.8,3-3,3-5v-1.5h-2.6v-.9h6.1v.9h-2.5v1.5c0,1.9,1.3,3.9,2.9,4.7ZM384.9,637.3h1.9v.9h-1.9v6.1h-1v-11.7h1v4.7Z"/>
      <path class="st15" d="M394.3,640.7l-.6.8c-1.3-.7-2.3-2.1-2.8-3.7-.5,1.7-1.6,3.2-2.8,4l-.6-.8c1.6-.8,3-3.1,3-5.2v-2.1h1v2.1c0,2.1,1.3,4.2,2.9,5ZM396.7,644.3h-1v-6.9h-2.7v-.8h2.7v-4h1v11.7Z"/>
      <path class="st15" d="M407.9,639.5h-1v-1.8h-2.6v1h-5.2v-5.2h5.2v1h2.6v-1.9h1v6.9ZM400.1,637.8h3.2v-3.5h-3.2v3.5ZM407.9,642.1c0,1.4-1.4,2.2-3.8,2.2s-3.8-.8-3.8-2.2,1.4-2.2,3.8-2.2,3.8.8,3.8,2.2ZM401.4,642.1c0,.8,1.1,1.4,2.8,1.4s2.8-.5,2.8-1.4-1.1-1.4-2.8-1.4c-1.7,0-2.8.5-2.8,1.4ZM406.9,636.8v-1.5h-2.6v1.5h2.6Z"/>
    </g>
    <g>
      <circle class="st3" cx="349.2" cy="638.8" r="9.6"/>
      <g>
        <path class="st8" d="M342.7,638.6c0-2.6,1-4.2,2.8-4.2s2.7,1.6,2.7,4.2-1,4.2-2.7,4.2-2.8-1.5-2.8-4.2ZM347.4,638.6c0-2.2-.7-3.5-2-3.5s-2,1.3-2,3.5.7,3.5,2,3.5,2-1.3,2-3.5Z"/>
        <path class="st8" d="M349.4,640.3l3.7-5.8h1v5.7h1.1v.7h-1.1v1.7h-.8v-1.7h-3.9v-.7ZM353.3,640.2v-4.6h0l-3,4.6h0c0,0,3,0,3,0Z"/>
      </g>
    </g>
  </g>
  <g>
    <g>
      <path class="st15" d="M654.1,143.3l-.5.7c-1.3-.7-2.5-2.2-3-3.9-.5,1.8-1.7,3.3-3,4.1l-.5-.7c1.6-.8,3.1-3.1,3.1-5.2v-2.2h.8v2.2c0,2.1,1.5,4.2,3.1,4.9ZM656.5,146.7h-.8v-6.9h-2.9v-.7h2.9v-4.1h.8v11.6Z"/>
      <path class="st15" d="M668.2,142h-.8v-1.9h-2.9v1h-5.3v-5.1h5.3v1.1h2.9v-1.9h.8v6.9ZM660,140.4h3.6v-3.7h-3.6v3.7ZM668.2,144.6c0,1.4-1.5,2.1-3.9,2.1s-3.9-.8-3.8-2.1c0-1.4,1.4-2.2,3.8-2.2,2.4,0,3.9.8,3.9,2.2ZM661.3,144.6c0,.9,1.2,1.5,3,1.5s3-.6,3-1.5-1.2-1.5-3-1.5c-1.9,0-3,.6-3,1.5ZM667.3,139.4v-1.6h-2.9v1.6h2.9Z"/>
      <path class="st15" d="M679.9,138c0,1.2-1,2.1-2.4,2.2v1.2c1.1,0,2.3-.2,3.4-.3v.6c-2.4.4-5.2.5-7.3.5v-.7c.8,0,1.9,0,3.1,0v-1.2c-1.5-.1-2.5-1-2.5-2.2s1.2-2.3,2.9-2.3,2.9.9,2.9,2.3ZM675,138c0,.9.9,1.6,2.1,1.6,1.2,0,2.1-.7,2.1-1.6,0-.9-.9-1.6-2.1-1.6s-2.1.7-2.1,1.6ZM682.9,146.4h-7.7v-3.2h.8v2.5h6.8v.7ZM682.5,139.2h1.8v.7h-1.8v4.2h-.8v-8.9h.8v4Z"/>
      <path class="st15" d="M695.8,145.2h-10.6v-.7h3.1v-2.3h-1.7v-3.5h7.1v-2h-7.1v-.7h7.9v3.4h-7.1v2.1h7.3v.7h-1.9v2.3h3v.7ZM692,144.5v-2.3h-2.9v2.3h2.9Z"/>
      <path class="st15" d="M703.5,139.7h-2.4v1.8c1.1,0,2.3-.1,3.3-.2v.6c-2.4.3-5.3.4-7.5.4v-.7c.9,0,2.1,0,3.3,0v-1.8h-2.4v-3.8h5.5v.7h-4.7v2.4h4.8v.7ZM706.7,146.5h-7.8v-3.2h.8v2.5h7v.7ZM706.3,143.8h-.8v-8.7h.8v8.7Z"/>
      <path class="st15" d="M653.5,160.4l-.4.7c-1.3-.5-2.3-1.5-2.8-2.7-.5,1.4-1.6,2.5-2.9,3l-.4-.7c1.6-.6,2.9-2.1,2.9-3.9v-.7h-2.6v-.7h6v.7h-2.6v.7c0,1.5,1.2,3,2.8,3.6ZM656.5,165.7h-7.4v-3.6h.8v2.9h6.6v.7ZM656.1,162.9h-.8v-4.6h-2.5v-.7h2.5v-3.3h.8v8.5Z"/>
      <path class="st15" d="M664.5,162.8l-.5.7c-1.2-.7-2.4-2.1-2.9-3.7-.5,1.7-1.7,3.3-2.9,4l-.5-.7c1.5-.8,3-3,3-5v-1.8h-2.7v-.7h6v.7h-2.6v1.8c0,1.9,1.4,3.9,3,4.7ZM666.5,159.1h1.9v.7h-1.9v6.1h-.8v-11.6h.8v4.8Z"/>
      <path class="st15" d="M672.2,161.1l-.3-.7c2.8-.8,4.6-2.4,4.8-4.5h-4.3v-.7h5.1c0,2.9-2,5-5.3,5.9ZM680.5,165.8h-7v-4.2h7v4.2ZM674.3,165.1h5.4v-2.8h-5.4v2.8ZM680.5,157.3h1.7v.7h-1.7v3h-.8v-6.6h.8v2.9Z"/>
      <path class="st15" d="M689.4,160.1l-.4.7c-1.3-.5-2.3-1.5-2.8-2.7-.5,1.4-1.6,2.5-2.9,3.1l-.4-.7c1.6-.6,2.9-2.2,2.9-3.9v-.6h-2.6v-.7h6v.7h-2.6v.6c0,1.6,1.2,3,2.8,3.6ZM692,163.8c0,1.4-1.4,2.1-3.7,2.1-2.3,0-3.7-.8-3.7-2.1,0-1.4,1.4-2.1,3.7-2.1s3.7.8,3.7,2.1ZM685.4,163.8c0,.9,1.1,1.5,2.9,1.5s2.9-.6,2.9-1.5-1.1-1.5-2.9-1.5-2.9.6-2.9,1.5ZM692,161.3h-.8v-3.1h-2.4v-.7h2.4v-3.1h.8v6.9Z"/>
      <path class="st15" d="M703,156h-1.2v3.9c.6,0,1.1,0,1.6-.2v.6c-2.2.4-4.7.4-6.6.4v-.7c-.1,0,1.4,0,1.4,0v-4.1h-1.2v-.7h5.9v.7ZM705.9,163.9c0,1.3-1.4,2.1-3.7,2.1s-3.7-.8-3.7-2.1c0-1.3,1.4-2.1,3.7-2.1s3.7.7,3.7,2.1ZM701,159.9v-4h-1.9v4c.6,0,1.3,0,1.9,0ZM699.3,163.9c0,.9,1.1,1.4,2.9,1.4s2.9-.5,2.9-1.4-1.1-1.4-2.9-1.4-2.9.5-2.9,1.4ZM705.9,161.6h-.8v-2.3h-2.1v-.7h2.1v-1.4h-2.1v-.7h2.1v-2.1h.8v7.2Z"/>
      <path class="st15" d="M708.3,163.7l-.4-.7c3-1.5,4.6-3.9,4.8-6.7h-4.3v-.7h5.1c0,3.2-1.6,6.2-5.2,8.1ZM716.3,159.2h1.9v.7h-1.9v6.1h-.8v-11.6h.8v4.8Z"/>
      <path class="st15" d="M725.5,162.6l-.5.7c-1.3-.7-2.4-2.2-2.9-3.9-.5,1.8-1.6,3.3-2.9,4.1l-.5-.7c1.5-.8,3-3.1,3-5.2v-2.2h.8v2.2c0,2.1,1.5,4.2,3,4.9ZM727.9,166h-.8v-6.9h-2.8v-.7h2.8v-4.1h.8v11.6Z"/>
      <path class="st15" d="M738.2,159.9l-.4.7c-1.1-.4-1.9-1.3-2.3-2.4-.4,1.1-1.3,2.2-2.4,2.7l-.4-.6c1.4-.7,2.4-2.2,2.4-3.5v-1.7h.8v1.7c0,1.3.9,2.6,2.4,3.2ZM742.1,163.9c0,1.3-1.4,2-3.7,2s-3.7-.8-3.7-2,1.4-2,3.7-2,3.7.8,3.7,2ZM735.4,163.9c0,.9,1.1,1.4,2.9,1.4s2.9-.5,2.9-1.4c0-.9-1.1-1.4-2.9-1.4s-2.9.5-2.9,1.4ZM742,161.6h-.8v-3.3h-1.7v2.9h-.8v-6.6h.8v3h1.7v-3.2h.8v7.2Z"/>
      <path class="st15" d="M750.1,160l-.5.6c-1.2-.5-2.3-1.5-2.8-2.8-.5,1.5-1.5,2.6-2.9,3.1l-.4-.7c1.6-.6,2.9-2.2,2.9-4v-1.3h.8v1.2c0,1.7,1.2,3.1,2.8,3.7ZM752.8,163.8c0,1.4-1.4,2.1-3.7,2.1s-3.7-.8-3.7-2.1c0-1.4,1.4-2.2,3.7-2.2,2.3,0,3.7.8,3.7,2.2ZM746.2,163.8c0,.9,1.1,1.5,2.9,1.5s2.9-.6,2.9-1.5-1.1-1.5-2.9-1.5-2.9.6-2.9,1.5ZM752.7,161.3h-.8v-3.6h-2.6v-.7h2.6v-2.6h.8v6.9Z"/>
    </g>
    <g>
      <circle class="st3" cx="673.8" cy="120.4" r="9.6"/>
      <g>
        <path class="st8" d="M667.5,121.1c0-2.6,1-4.2,2.8-4.2s2.7,1.6,2.7,4.2-1,4.2-2.7,4.2-2.8-1.5-2.8-4.2ZM672.2,121.1c0-2.2-.7-3.5-2-3.5s-2,1.3-2,3.5.7,3.5,2,3.5,2-1.3,2-3.5Z"/>
        <path class="st8" d="M674.4,123.1h.8c0,.8.8,1.5,1.8,1.5s2-.9,1.9-2c0-1.2-.9-2-2-2-.7,0-1.2.2-1.6.8h-.8l.6-4.3h4.2v.7h-3.6l-.3,2.7h0c.4-.3.9-.5,1.6-.5,1.5,0,2.7,1.1,2.7,2.7s-1.1,2.7-2.7,2.7-2.5-.9-2.5-2.2Z"/>
      </g>
    </g>
  </g>
  <g>
    <g>
      <path class="st15" d="M907.3,251.6h-1.3v3.9c.6,0,1.2,0,1.7-.2v.6c-2.2.4-4.9.4-6.8.4v-.7c-.1,0,1.5,0,1.5,0v-4.1h-1.2v-.7h6.2v.7ZM910.4,259.4c0,1.3-1.4,2.1-3.9,2.1s-3.9-.8-3.8-2.1c0-1.3,1.4-2.1,3.8-2.1s3.9.7,3.9,2.1ZM905.3,255.5v-4h-2v4c.7,0,1.3,0,2,0ZM903.5,259.4c0,.9,1.2,1.4,3,1.4s3-.5,3-1.4-1.2-1.4-3-1.4-3,.5-3,1.4ZM910.4,257.1h-.8v-2.3h-2.1v-.7h2.1v-1.4h-2.1v-.7h2.1v-2.1h.8v7.2Z"/>
      <path class="st15" d="M913.1,259.3l-.5-.7c3.1-1.5,4.8-3.9,5-6.7h-4.5v-.7h5.3c0,3.2-1.6,6.2-5.4,8.1ZM921.4,254.8h2v.7h-2v6.1h-.8v-11.6h.8v4.8Z"/>
      <path class="st15" d="M931.2,258.2l-.5.7c-1.3-.7-2.5-2.2-3-3.9-.5,1.8-1.7,3.3-3,4.1l-.5-.7c1.6-.8,3.1-3.1,3.1-5.2v-2.2h.8v2.2c0,2.1,1.5,4.2,3.1,4.9ZM933.7,261.6h-.8v-6.9h-2.9v-.7h2.9v-4.1h.8v11.6Z"/>
      <path class="st15" d="M946.5,255.1v.6c-1,.2-2.1.3-3.2.3v2.3h-.8v-2.3c-1.2,0-2.4,0-3.4,0v-.7c2,0,5,0,7.5-.3ZM945.6,252.5c0,1.2-1.2,2-2.9,2-1.7,0-2.9-.8-2.9-2s1.2-2,2.9-2,2.9.8,2.9,2ZM948.8,261.3h-8.1v-3.4h.8v2.7h7.3v.7ZM940.7,252.5c0,.8.8,1.4,2.1,1.4s2.1-.5,2.1-1.4-.9-1.4-2.1-1.4c-1.2,0-2.1.6-2.1,1.4ZM948.5,258.8h-.8v-1.3h-2.4v-.6h2.4v-6.9h.8v8.8Z"/>
      <path class="st15" d="M952.9,252h6.1v-1.6h.8v4.6h-3.5v1.3h4.9v.7h-10.6v-.7h4.9v-1.3h-3.5v-4.6h.8v1.6ZM960,261.3h-8v-3.2h.8v2.5h7.2v.7ZM959,254.3v-1.7h-6.1v1.7h6.1Z"/>
      <path class="st15" d="M969.3,258.3l-.5.7c-1.3-.7-2.5-2.1-3-3.7-.5,1.7-1.8,3.3-3.1,4l-.5-.7c1.6-.8,3.1-3,3.2-5v-1.7h-2.7v-.7h6.3v.7h-2.7v1.7c0,1.9,1.5,4,3.1,4.7ZM971.8,261.6h-.8v-6.6h-2.7v-.7h2.7v-4.3h.8v11.6Z"/>
      <path class="st15" d="M980.6,255.7l-.4.6c-1.3-.5-2.4-1.4-2.9-2.6-.5,1.4-1.6,2.4-3,3l-.4-.7c1.7-.6,3-2.1,3-3.8v-.7h-2.7v-.7h6.2v.7h-2.7v.7c0,1.6,1.2,2.9,2.9,3.5ZM983,259.4c0,1.3-1.4,2.1-3.8,2.1s-3.8-.8-3.8-2.1c0-1.3,1.4-2.1,3.8-2.1s3.8.8,3.8,2.1ZM976.3,259.4c0,.9,1.2,1.4,3,1.4s3-.5,3-1.4-1.2-1.4-3-1.4-3,.5-3,1.4ZM982.9,253h1.8v.7h-1.8v3.3h-.8v-7h.8v3.1Z"/>
    </g>
    <g>
      <circle class="st3" cx="885.2" cy="256" r="9.6"/>
      <g>
        <path class="st8" d="M878.6,255.8c0-2.6,1-4.2,2.8-4.2s2.7,1.6,2.7,4.2-1,4.2-2.7,4.2-2.8-1.5-2.8-4.2ZM883.3,255.8c0-2.2-.7-3.5-2-3.5s-2,1.3-2,3.5.7,3.5,2,3.5,2-1.3,2-3.5Z"/>
        <path class="st8" d="M891,255.5c0,2.7-1,4.5-3,4.5s-2.3-.9-2.5-2.2h.8c.2.8.8,1.5,1.7,1.5,1.4,0,2.2-1.3,2.2-3.5h0c-.4.7-1.2,1.2-2.1,1.2-1.4,0-2.6-1.1-2.6-2.6s1.1-2.7,2.7-2.7c1.4,0,2.8,1,2.8,3.8ZM886.2,254.3c0,1.1.8,1.9,1.9,1.9s2-.9,1.9-2c0-1.1-.9-1.9-1.9-1.9s-1.9.9-1.9,2Z"/>
      </g>
    </g>
  </g>
  <g>
    <g>
      <path class="st15" d="M911.4,458.8h-10.6v-.7h10.6v.7ZM910,462.4h-7v1.3h7.4v.7h-8.2v-2.6h7v-1.2h-7.1v-.7h7.9v2.5ZM903.1,454.4h6.1v-1.2h.8v3.8h-7.8v-3.8h.8v1.2ZM909.2,456.3v-1.3h-6.1v1.3h6.1Z"/>
      <path class="st15" d="M923.1,460.1h-10.6v-.7h4.9v-1.4h-3.5v-2.7h7v-1.4h-7.1v-.7h7.9v2.7h-7v1.4h7.3v.7h-3.8v1.4h4.9v.7ZM921.7,464.4h-.8v-2.7h-7.3v-.7h8.1v3.4Z"/>
      <path class="st15" d="M930,461.2l-.5.6c-1.2-.7-2.1-2-2.5-3.4-.4,1.6-1.3,3-2.5,3.7l-.5-.6c1.6-.9,2.6-3,2.6-4.9v-.7h-2.3v-.7h2.3v-1.8h.8v1.8h2.3v.7h-2.3v.7c0,1.9,1.1,3.8,2.6,4.7ZM931.6,463.9h-.8v-5.6h-2v-.7h2v-4.3h.8v10.7ZM934,464.6h-.8v-11.6h.8v11.6Z"/>
      <path class="st15" d="M942,456.6c0,1.7-1.3,2.8-3,2.8-1.7,0-3-1.2-3-2.8,0-1.7,1.3-2.8,3-2.8s3,1.2,3,2.8ZM936.8,456.6c0,1.2.9,2.1,2.2,2.1s2.2-.9,2.2-2.1-.9-2.1-2.2-2.1-2.2.9-2.2,2.1ZM945.7,464.3h-7.8v-3.7h.8v3h7v.7ZM945.3,461.5h-.8v-8.5h.8v8.5Z"/>
      <path class="st15" d="M957.7,461.3l-.5.7c-1.3-.7-2.5-2.1-3-3.7-.5,1.7-1.8,3.3-3.1,4l-.5-.7c1.6-.8,3.1-3,3.2-5v-1.7h-2.7v-.7h6.3v.7h-2.7v1.7c0,1.9,1.5,4,3.1,4.7ZM960.2,464.6h-.8v-6.6h-2.7v-.7h2.7v-4.3h.8v11.6Z"/>
      <path class="st15" d="M969,458.7l-.4.6c-1.3-.5-2.4-1.4-2.9-2.6-.5,1.4-1.6,2.4-3,3l-.4-.7c1.7-.6,3-2.1,3-3.8v-.7h-2.7v-.7h6.2v.7h-2.7v.7c0,1.6,1.2,2.9,2.9,3.5ZM971.4,462.4c0,1.3-1.4,2.1-3.8,2.1s-3.8-.8-3.8-2.1c0-1.3,1.4-2.1,3.8-2.1s3.8.8,3.8,2.1ZM964.6,462.4c0,.9,1.2,1.4,3,1.4s3-.5,3-1.4-1.2-1.4-3-1.4-3,.5-3,1.4ZM971.3,456h1.8v.7h-1.8v3.3h-.8v-7h.8v3.1Z"/>
    </g>
    <g>
      <circle class="st3" cx="885.2" cy="459" r="9.6"/>
      <g>
        <path class="st8" d="M878.6,458.8c0-2.6,1-4.2,2.8-4.2s2.7,1.6,2.7,4.2-1,4.2-2.7,4.2-2.8-1.5-2.8-4.2ZM883.3,458.8c0-2.2-.7-3.5-2-3.5s-2,1.3-2,3.5.7,3.5,2,3.5,2-1.3,2-3.5Z"/>
        <path class="st8" d="M885.4,460.7c0-1,.7-1.9,1.7-2.1h0c-.8-.3-1.4-1-1.4-1.9s1.1-2.1,2.5-2.1,2.5.9,2.5,2.1-.6,1.6-1.4,1.9h0c1,.2,1.7,1.1,1.7,2.1,0,1.3-1.2,2.3-2.8,2.3s-2.8-1-2.8-2.3ZM890.2,460.7c0-.9-.9-1.7-2-1.7s-2,.7-2,1.7c0,.9.8,1.6,2,1.6s2-.7,2-1.6ZM889.9,456.8c0-.9-.7-1.5-1.7-1.5s-1.7.6-1.7,1.5.7,1.5,1.7,1.5,1.7-.6,1.7-1.5Z"/>
      </g>
    </g>
  </g>
  <g>
    <g>
      <path class="st15" d="M702.7,270.9h-4.8v2.4h-1v-2.4h-4.9v-.9h10.7v.9ZM701.5,275.5h-8.1v-3.4h1v2.5h7.1v.9ZM701.3,268.7h-7.9v-4.1h7.9v4.1ZM694.4,267.8h5.9v-2.4h-5.9v2.4Z"/>
      <path class="st15" d="M710.8,272.2l-.6.8c-1.3-.7-2.4-2.1-2.9-3.7-.5,1.7-1.6,3.2-2.9,4l-.7-.8c1.7-.8,3.1-3.1,3.1-5.2v-2.1h1.1v2.1c0,2.1,1.4,4.2,3.1,5ZM713.3,275.8h-1v-6.9h-2.8v-.8h2.8v-4h1v11.7Z"/>
      <path class="st15" d="M726,272.4l-.6.8c-1.4-.6-2.6-2-3.1-3.6-.6,1.7-1.7,3.2-3.1,3.9l-.6-.8c1.7-.8,3.1-3,3.1-5v-1.5h-2.8v-.9h6.6v.9h-2.8v1.5c0,2,1.4,4,3.2,4.7ZM728.3,275.7h-1v-11.7h1v11.7Z"/>
      <path class="st15" d="M741,270.9h-4.8v2.4h-1v-2.4h-4.9v-.9h10.7v.9ZM739.8,275.5h-8.1v-3.4h1v2.5h7.1v.9ZM739.6,268.7h-7.9v-4.1h7.9v4.1ZM732.7,267.8h5.9v-2.4h-5.9v2.4Z"/>
      <path class="st15" d="M742.3,270.5l-.4-.9c2.9-.7,4.6-2.2,4.8-4.1h-4.3v-.9h5.4c0,2.9-2.1,4.9-5.5,5.8ZM744.2,272.4h2.1v-1.4h1v4.6h-4v-4.6h1v1.4ZM746.3,274.7v-1.5h-2.1v1.5h2.1ZM752.4,274.9l-.6.8c-1-.4-1.6-1.2-2-2.2-.4.9-1,1.7-2,2.2l-.6-.8c1.4-.6,2.1-1.9,2.1-3v-1h1v.9c0,1.2.7,2.5,2,3.1ZM751.1,266.7h1.8v.9h-1.8v2.8h-1v-6.4h1v2.7Z"/>
      <path class="st15" d="M764,272.5l-.6.8c-1.3-.6-2.4-1.9-2.9-3.4-.5,1.6-1.6,3-2.9,3.6l-.6-.8c1.7-.8,3-2.8,3-4.8v-.9h-2.7v-.8h2.7v-1.8h1v1.8h2.6v.8h-2.7v.9c0,1.9,1.3,3.8,3.1,4.6ZM766.6,275.8h-1v-6.2h-2.6v-.9h2.6v-4.7h1v11.7Z"/>
      <path class="st15" d="M774.7,269.3h-4.4v2.8c1.9,0,3.7,0,5.8-.4v.9c-2.1.3-3.8.4-5.8.4h-1v-4.5h4.4v-2.5h-4.4v-.9h5.4v4.2ZM778.2,275.8h-1v-11.7h1v11.7Z"/>
    </g>
    <g>
      <circle class="st3" cx="676.4" cy="270.2" r="9.6"/>
      <g>
        <path class="st8" d="M669.8,270.6c0-2.6,1-4.2,2.8-4.2s2.7,1.6,2.7,4.2-1,4.2-2.7,4.2-2.8-1.5-2.8-4.2ZM674.5,270.6c0-2.2-.7-3.5-2-3.5s-2,1.3-2,3.5.7,3.5,2,3.5,2-1.3,2-3.5Z"/>
        <path class="st8" d="M676.5,270.9c0-2.7,1-4.5,3-4.5s2.3.9,2.5,2.2h-.8c-.2-.8-.7-1.4-1.7-1.4-1.4,0-2.2,1.3-2.2,3.5h0c.4-.7,1.2-1.2,2.1-1.2,1.4,0,2.6,1.1,2.6,2.7s-1.1,2.7-2.7,2.7c-1.4,0-2.8-1-2.8-3.9ZM681.3,272.1c0-1.1-.8-1.9-1.9-1.9s-2,.9-2,2c0,1.1.9,1.9,1.9,1.9s1.9-.9,1.9-2Z"/>
      </g>
    </g>
    <g>
      <path class="st15" d="M698.6,292.9h-1.2v3.7c.5,0,1.1,0,1.6-.1v.8c-2.2.4-4.9.4-6.8.4v-.9c-.1,0,1.4,0,1.4,0v-3.9h-1.2v-.9h6.2v.9ZM701.7,300.7c0,1.3-1.5,2.1-3.9,2.1s-3.9-.8-3.9-2.1,1.5-2.1,3.9-2.1,3.9.8,3.9,2.1ZM696.4,296.7v-3.8h-1.8v3.9c.6,0,1.2,0,1.8,0ZM694.9,300.7c0,.8,1.1,1.3,2.9,1.3s2.9-.5,2.9-1.3-1.1-1.3-2.9-1.3-2.9.5-2.9,1.3ZM701.7,298.4h-1v-2.2h-2v-.9h2v-1.2h-2v-.9h2v-2.1h1v7.2Z"/>
      <path class="st15" d="M704.3,300.6l-.6-.8c3-1.5,4.7-3.8,4.9-6.5h-4.4v-.9h5.4c0,3.3-1.6,6.3-5.4,8.2ZM712.7,295.9h1.9v.9h-1.9v6.1h-1v-11.7h1v4.8Z"/>
      <path class="st15" d="M725,296.2c0,2.5-1.2,4.1-3,4.1s-3-1.6-3-4.1,1.2-4.1,3-4.1c1.7,0,3,1.6,3,4.1ZM720.1,296.2c0,1.9.8,3.1,2,3.1s2-1.2,2-3.1-.8-3.1-2-3.2c-1.2,0-2,1.2-2,3.2ZM728.3,302.9h-1v-11.7h1v11.7Z"/>
      <path class="st15" d="M735.8,295.2h-4v1.8c2.2,0,3.3,0,4.7-.3v.9c-1.4.2-2.5.3-4.9.3h-.8v-3.4h4v-1.7h-4.1v-.8h5.1v3.3ZM740,302.9h-1v-3.1h-6.8v-.8h7.9v3.9ZM740,298.4h-1v-2.2h-2.3v-.9h2.3v-1.6h-2.3v-.8h2.3v-1.7h1v7.2Z"/>
      <path class="st15" d="M752.2,296.9l-.5.8c-1.3-.5-2.3-1.5-2.8-2.7-.5,1.4-1.6,2.5-3,3l-.5-.8c1.7-.6,3-2.2,3-3.9v-.4h-2.6v-.9h6.3v.9h-2.6v.4c0,1.5,1.2,3,2.9,3.6ZM755,300.7c0,1.4-1.5,2.2-3.9,2.2-2.4,0-3.9-.8-3.9-2.2s1.5-2.2,3.9-2.2,3.9.8,3.9,2.2ZM748.2,300.7c0,.8,1.1,1.4,2.9,1.4s2.9-.5,2.9-1.4-1.1-1.4-2.9-1.4-2.9.5-2.9,1.4ZM755,298.1h-1v-3.1h-2.4v-.9h2.4v-3.1h1v7Z"/>
      <path class="st15" d="M767.6,301.4h-10.7v-.9h4.8v-2.5h-3.6v-6h1v2.1h6.1v-2.1h1v6h-3.6v2.5h4.9v.9ZM765.3,297.1v-2.2h-6.1v2.2h6.1Z"/>
      <path class="st15" d="M775.7,299.6l-.6.8c-1.3-.6-2.4-1.9-2.9-3.4-.5,1.6-1.6,3-2.9,3.6l-.6-.8c1.7-.8,3-2.8,3-4.8v-.9h-2.7v-.8h2.7v-1.8h1v1.8h2.6v.8h-2.7v.9c0,1.9,1.3,3.8,3.1,4.6ZM778.3,302.9h-1v-6.2h-2.6v-.9h2.6v-4.7h1v11.7Z"/>
      <path class="st15" d="M786.3,296.4h-4.4v2.8c1.9,0,3.7,0,5.8-.4v.9c-2.1.3-3.8.4-5.8.4h-1v-4.5h4.4v-2.5h-4.4v-.9h5.4v4.2ZM789.9,302.9h-1v-11.7h1v11.7Z"/>
    </g>
    <g>
      <circle class="st3" cx="676.4" cy="297.3" r="9.6"/>
      <g>
        <path class="st8" d="M670.8,297.7c0-2.6,1-4.2,2.8-4.2s2.7,1.6,2.7,4.2-1,4.2-2.7,4.2-2.8-1.5-2.8-4.2ZM675.5,297.7c0-2.2-.7-3.5-2-3.5s-2,1.3-2,3.5.7,3.5,2,3.5,2-1.3,2-3.5Z"/>
        <path class="st8" d="M681.5,294.4h0s-4.4,0-4.4,0v-.7h5.2v.8l-3.8,7.4h-.8l3.8-7.4Z"/>
      </g>
    </g>
  </g>
  <g>
    <line class="st12" x1="815.6" y1="244.5" x2="815.6" y2="328.7"/>
    <polyline class="st12" points="809.1 322.7 815.6 328.9 822.2 323"/>
  </g>
  <rect class="st3" x="536.4" y="347.7" width="328.8" height="218.2" rx="5.8" ry="5.8"/>
  <g>
    <path class="st8" d="M627,387.7h3.7c2.1,0,3.1,1,3.1,2.4s-.7,1.8-1.7,2h0c1.1.1,2,1,2,2.4s-1.1,2.6-3.2,2.6h-4v-9.5ZM631.8,390.5c0-.7-.5-1.2-1.4-1.2h-1.5v2.4h1.5c.8,0,1.4-.5,1.4-1.2ZM632.1,394.4c0-.8-.6-1.4-1.5-1.4h-1.7v2.6h1.6c1.1,0,1.6-.5,1.6-1.2Z"/>
    <path class="st8" d="M637.2,397.3h-1.9v-9.5h1.9v9.5Z"/>
    <path class="st8" d="M638.4,393.7c0-2.2,1.3-3.7,3.4-3.7s3.4,1.5,3.4,3.7-1.3,3.7-3.4,3.7-3.4-1.5-3.4-3.7ZM643.4,393.7c0-1.3-.5-2.2-1.5-2.2s-1.5.9-1.5,2.2.5,2.2,1.5,2.2,1.5-.9,1.5-2.2Z"/>
    <path class="st8" d="M646.2,393.7c0-2.2,1.3-3.7,3.4-3.7s3,1.1,3.1,2.7h-1.8c-.1-.7-.6-1.2-1.3-1.2s-1.5.8-1.5,2.1.6,2.2,1.5,2.2,1.2-.4,1.3-1.2h1.8c0,1.6-1.2,2.7-3.1,2.7s-3.4-1.5-3.4-3.7Z"/>
    <path class="st8" d="M653.9,387.7h1.9v5.1h.1l2.3-2.7h2.2l-2.6,3.1,2.7,4.1h-2.2l-1.9-2.9-.5.6v2.3h-1.9v-9.5Z"/>
    <path class="st8" d="M668.6,389.3c-1.5,0-2.4,1.1-2.4,3.1s1,3.1,2.4,3.1,1.9-.6,2-1.6h2c-.2,1.8-1.7,3.4-4,3.4s-4.3-1.8-4.3-4.9,1.9-4.9,4.3-4.9,3.8,1.3,4,3.4h-2c-.2-1.1-1-1.7-2-1.7Z"/>
    <path class="st8" d="M675.8,397.3h-1.9v-9.5h1.9v3.6h0c.3-.8,1-1.3,2.1-1.3s2.4,1,2.4,2.7v4.6h-1.9v-4.2c0-.9-.5-1.4-1.3-1.4s-1.4.5-1.4,1.5v4.1Z"/>
    <path class="st8" d="M684.1,393.1c.5,0,1.4,0,1.7,0v-.6c0-.6-.4-.9-1.1-.9s-1.1.3-1.2.8h-1.8c.1-1.2,1.2-2.2,3-2.2s3,.7,3,2.4v4.8h-1.8v-1h0c-.3.7-1,1.1-2,1.1s-2.3-.7-2.3-2.1,1.3-2.1,2.6-2.2ZM684.3,396c.9,0,1.5-.6,1.5-1.3v-.5c-.3,0-1.1,0-1.4,0-.7,0-1.1.4-1.1.9s.4.8,1,.8Z"/>
    <path class="st8" d="M689.1,388.2c0-.6.5-1,1-1s1,.4,1,1-.5,1-1,1-1-.4-1-1ZM689.2,390.1h1.9v7.1h-1.9v-7.1Z"/>
    <path class="st8" d="M694.5,397.3h-1.9v-7.1h1.8v1.2h0c.3-.8,1.1-1.3,2.1-1.3,1.5,0,2.4,1,2.4,2.7v4.6h-1.9v-4.2c0-.9-.5-1.4-1.3-1.4s-1.3.5-1.3,1.5v4.1Z"/>
    <path class="st8" d="M705.9,387.7l2.6,6.5h.1l2.6-6.5h2.4v9.5h-1.9v-6.2h0l-2.4,6.2h-1.3l-2.4-6.2h0v6.3h-1.9v-9.5h2.4Z"/>
    <path class="st8" d="M715,388.2c0-.6.5-1,1-1s1,.4,1,1-.5,1-1,1-1-.4-1-1ZM715.1,390.1h1.9v7.1h-1.9v-7.1Z"/>
    <path class="st8" d="M718.2,393.7c0-2.4,1.3-3.7,2.8-3.7s1.7.7,2,1.3h0v-3.6h1.9v9.5h-1.9v-1.1h0c-.3.6-.8,1.3-2,1.3s-2.8-1.3-2.8-3.7ZM723.2,393.7c0-1.3-.5-2.1-1.5-2.1s-1.5.9-1.5,2.1.5,2.1,1.5,2.1,1.5-.9,1.5-2.1Z"/>
    <path class="st8" d="M726.3,393.7c0-2.4,1.3-3.7,2.8-3.7s1.7.7,2,1.3h0v-3.6h1.9v9.5h-1.9v-1.1h0c-.3.6-.8,1.3-2,1.3s-2.8-1.3-2.8-3.7ZM731.2,393.7c0-1.3-.5-2.1-1.5-2.1s-1.5.9-1.5,2.1.5,2.1,1.5,2.1,1.5-.9,1.5-2.1Z"/>
    <path class="st8" d="M736.6,397.3h-1.9v-9.5h1.9v9.5Z"/>
    <path class="st8" d="M737.8,393.7c0-2.2,1.3-3.7,3.4-3.7s3.3,1.2,3.3,3.6v.6h-4.8c0,1.1.6,1.7,1.6,1.7s1.1-.3,1.3-.7h1.8c-.3,1.3-1.4,2.2-3.2,2.2s-3.5-1.4-3.5-3.7ZM742.6,393c0-.9-.6-1.5-1.4-1.5s-1.5.7-1.5,1.5h3Z"/>
    <path class="st8" d="M745,390.1h1.9l1.1,4.8h0l1.1-4.8h1.9l1.2,4.8h0l1.1-4.8h1.9l-1.9,7.1h-2l-1.2-4.5h0l-1.2,4.5h-2l-1.9-7.1Z"/>
    <path class="st8" d="M758.6,393.1c.5,0,1.4,0,1.7,0v-.6c0-.6-.4-.9-1.1-.9s-1.1.3-1.2.8h-1.8c.1-1.2,1.2-2.2,3-2.2s3,.7,3,2.4v4.8h-1.8v-1h0c-.3.7-1,1.1-2,1.1s-2.3-.7-2.3-2.1,1.3-2.1,2.6-2.2ZM758.9,396c.9,0,1.5-.6,1.5-1.3v-.5c-.3,0-1.1,0-1.4,0-.7,0-1.1.4-1.1.9s.4.8,1,.8Z"/>
    <path class="st8" d="M763.7,390.1h1.8v1.2h0c.3-.9.9-1.3,1.7-1.3s.4,0,.6,0v1.7c-.2,0-.5-.1-.8-.1-.9,0-1.5.6-1.5,1.5v4.1h-1.9v-7.1Z"/>
    <path class="st8" d="M768.4,393.7c0-2.2,1.3-3.7,3.4-3.7s3.3,1.2,3.3,3.6v.6h-4.8c0,1.1.6,1.7,1.6,1.7s1.1-.3,1.3-.7h1.8c-.3,1.3-1.4,2.2-3.2,2.2s-3.5-1.4-3.5-3.7ZM773.2,393c0-.9-.6-1.5-1.4-1.5s-1.5.7-1.5,1.5h3Z"/>
  </g>
  <g>
    <path class="st8" d="M662.9,506.3v-9.5h3.3c2.8,0,4.5,1.8,4.5,4.7s-1.7,4.8-4.6,4.8h-3.3ZM666.1,504.6c1.8,0,2.7-.9,2.7-3.1s-.9-3.1-2.7-3.1h-1.3v6.1h1.3Z"/>
    <path class="st8" d="M674.3,502.1c.5,0,1.4,0,1.7,0v-.6c0-.6-.4-.9-1.1-.9s-1.1.3-1.2.8h-1.8c.1-1.2,1.2-2.2,3-2.2s3,.7,3,2.4v4.8h-1.8v-1h0c-.3.7-1,1.1-2,1.1s-2.3-.7-2.3-2.1,1.3-2.1,2.6-2.2ZM674.6,505.1c.9,0,1.5-.6,1.5-1.3v-.5c-.3,0-1.1,0-1.4,0-.7,0-1.1.4-1.1.9s.4.8,1,.8Z"/>
    <path class="st8" d="M683.1,500.6h-1.3v3.5c0,.6.3.7.7.7.2,0,.5,0,.8,0v1.5c-.2,0-.5,0-1,0-1.4,0-2.3-.6-2.3-2v-3.8h-1v-1.5h1v-1.7h1.9v1.7h1.3v1.5Z"/>
    <path class="st8" d="M686.6,502.1c.5,0,1.4,0,1.7,0v-.6c0-.6-.4-.9-1.1-.9s-1.1.3-1.2.8h-1.8c.1-1.2,1.2-2.2,3-2.2s3,.7,3,2.4v4.8h-1.8v-1h0c-.3.7-1,1.1-2,1.1s-2.3-.7-2.3-2.1,1.3-2.1,2.6-2.2ZM686.9,505.1c.9,0,1.5-.6,1.5-1.3v-.5c-.3,0-1.1,0-1.4,0-.7,0-1.1.4-1.1.9s.4.8,1,.8Z"/>
    <path class="st8" d="M698.5,503.8l-.9,1.3c-1.3-.6-2.3-1.7-2.8-3.1-.5,1.5-1.4,2.7-2.8,3.3l-.9-1.3c1.9-.9,2.8-2.9,2.8-4.7v-.5h-2.4v-1.3h2.4v-1.7h1.6v1.7h2.4v1.3h-2.4v.5c0,1.7.9,3.7,2.8,4.5ZM701.2,507.5h-1.6v-6.1h-2.1v-1.3h2.1v-4.6h1.6v12Z"/>
    <path class="st8" d="M708.9,501.1h-3.9v2.2c1.8,0,3.3-.1,5-.4v1.4c-1.8.3-3.5.4-5.7.4h-1.1v-4.9h3.9v-1.9h-3.9v-1.4h5.6v4.6ZM712.5,507.5h-1.6v-12h1.6v12Z"/>
    <path class="st8" d="M727.9,506.1h-10.7v-1.4h4.5v-2.4h-3.4v-5.9h8.4v5.9h-3.4v2.4h4.6v1.4ZM719.9,500.9h5.2v-3.2h-5.2v3.2Z"/>
    <path class="st8" d="M739.2,501.5h-2.6v.8h1.3v3.1h-6.5v.7h6.8v1.3h-8.4v-3.2h6.5v-.6h-6.5v-1.2h1.5v-.8h-2.7v-1.3h10.7v1.3ZM738,499.6h-8.1v-3.7h8v1.4h-6.4v1h6.5v1.3ZM735,502.4v-.8h-2.1v.8h2.1Z"/>
  </g>
  <g>
    <g>
      <rect class="st19" x="672.1" y="434" width="57.4" height="18.5" rx="1.8" ry="1.8"/>
      <g>
        <g>
          <path class="st3" d="M701.3,440.4h28.2v2.6h-28.2c-.4,0-.7-.3-.7-.7v-1.3c0-.4.3-.7.7-.7Z"/>
          <rect class="st3" x="676.6" y="440.4" width="7.9" height="2.8" rx=".7" ry=".7"/>
        </g>
        <g>
          <path class="st3" d="M701.3,444.3h28.2v2.6h-28.2c-.4,0-.7-.3-.7-.7v-1.3c0-.4.3-.7.7-.7Z"/>
          <rect class="st3" x="676.6" y="444.2" width="7.9" height="2.8" rx=".7" ry=".7"/>
        </g>
      </g>
    </g>
    <g>
      <rect class="st19" x="672.1" y="457.5" width="57.4" height="18.5" rx="2.4" ry="2.4"/>
      <g>
        <g>
          <path class="st3" d="M701.3,464h28.2v2.6h-28.2c-.4,0-.7-.3-.7-.7v-1.3c0-.4.3-.7.7-.7Z"/>
          <rect class="st3" x="676.6" y="464" width="7.9" height="2.8" rx=".7" ry=".7"/>
        </g>
        <g>
          <path class="st3" d="M701.3,467.9h28.2v2.6h-28.2c-.4,0-.7-.3-.7-.7v-1.3c0-.4.3-.7.7-.7Z"/>
          <rect class="st3" x="676.6" y="467.7" width="7.9" height="2.8" rx=".7" ry=".7"/>
        </g>
      </g>
    </g>
    <rect class="st20" x="676.6" y="452.5" width="48.5" height="5.1"/>
    <rect class="st20" x="699.4" y="476" width="2.9" height="7.3"/>
    <rect class="st20" x="676.8" y="480" width="47.7" height="2.5" rx=".7" ry=".7"/>
    <g>
      <circle class="st20" cx="700.8" cy="481.4" r="3"/>
      <circle class="st19" cx="700.8" cy="481.4" r="1.4"/>
    </g>
  </g>
</svg>