<?xml version="1.0" encoding="UTF-8"?>
<svg id="_레이어_1" xmlns="http://www.w3.org/2000/svg" version="1.1" viewBox="0 0 1320 760">
  <!-- Generator: Adobe Illustrator 29.8.6, SVG Export Plug-In . SVG Version: 2.1.1 Build 1)  -->
  <defs>
    <style>
      .st0 {
        stroke-width: 1.9px;
      }

      .st0, .st1, .st2, .st3, .st4, .st5, .st6, .st7, .st8, .st9, .st10, .st11 {
        stroke-miterlimit: 10;
      }

      .st0, .st1, .st2, .st3, .st4, .st5, .st6, .st9, .st10, .st11 {
        fill: none;
      }

      .st0, .st1, .st3, .st4, .st5, .st6, .st7, .st8, .st11 {
        stroke: #9cc5ff;
      }

      .st1 {
        stroke-width: 2.2px;
      }

      .st12 {
        fill: #ccd2d3;
      }

      .st13, .st7, .st8 {
        fill: #fff;
      }

      .st14 {
        fill: #0065fa;
      }

      .st2 {
        stroke: #0065fa;
        stroke-width: .8px;
      }

      .st3 {
        stroke-width: 1.3px;
      }

      .st4 {
        stroke-width: 1.9px;
      }

      .st5, .st7 {
        stroke-width: 1.3px;
      }

      .st6 {
        stroke-width: 1.3px;
      }

      .st8 {
        stroke-width: 2.5px;
      }

      .st15 {
        fill: #dcebff;
      }

      .st16 {
        fill: #008ed2;
      }

      .st9 {
        stroke-width: 1.8px;
      }

      .st9, .st10 {
        stroke: #dcebff;
      }

      .st17 {
        fill: #9cc5ff;
      }

      .st10 {
        stroke-width: 1.7px;
      }

      .st11 {
        stroke-width: .5px;
      }
    </style>
  </defs>
  <path class="st15" d="M535.3,78.3h407.9c4.7,0,8.4,3.8,8.4,8.4v81.3h-424.8v-81.3c0-4.7,3.8-8.4,8.4-8.4Z"/>
  <g>
    <g>
      <path d="M39.9,227.7v.8c-2.7.6-5.8.6-8,.6l-.2-1c2.3,0,5.4,0,8.2-.4ZM39,222.9c0,1.8-1.4,3.1-3.3,3.1s-3.3-1.2-3.3-3.1c0-1.8,1.4-3.1,3.3-3.1s3.3,1.2,3.3,3.1ZM33.4,222.9c0,1.2.9,2,2.3,2s2.2-.8,2.2-2-.9-2-2.2-2-2.3.8-2.3,2ZM41.8,232h-1.1v-13h1.1v13Z"/>
      <path d="M55.1,230.3h-11.3v-1h3.2v-2.5h-1.8v-4h7.4v-2h-7.4v-1h8.5v3.9h-7.4v2.1h7.7v1h-1.9v2.5h3.1v1ZM50.9,229.4v-2.5h-2.9v2.5h2.9Z"/>
      <path d="M67.2,226.3h-11.2v-1h2.8v-1.8c-1-.4-1.5-1.1-1.5-1.9,0-1.5,1.7-2.4,4.4-2.4s4.4.9,4.4,2.4-.5,1.5-1.5,1.9v1.8h2.8v1ZM65.8,229.6c0,1.5-1.6,2.3-4.2,2.3s-4.3-.8-4.3-2.3,1.6-2.3,4.3-2.3,4.2.8,4.2,2.3ZM58.3,221.6c0,1,1.2,1.5,3.2,1.5s3.2-.6,3.2-1.5-1.2-1.5-3.2-1.5-3.3.6-3.2,1.5ZM58.4,229.6c0,.9,1.2,1.4,3.2,1.4s3.2-.5,3.2-1.4-1.2-1.4-3.2-1.4c-2,0-3.2.5-3.2,1.4ZM63.3,225.4v-1.5c-.5,0-1.1.1-1.8.1s-1.2,0-1.7-.1v1.5h3.5Z"/>
      <path d="M77.7,228.6h-5.7v-8.4h5.7v8.4ZM73.1,227.7h3.6v-6.5h-3.6v6.5ZM81,224.1h2.1v1h-2.1v6.8h-1.1v-13h1.1v5.2Z"/>
      <path d="M90.3,222.8c0,1.8-1.4,3.1-3.2,3.1s-3.2-1.3-3.2-3.1c0-1.8,1.4-3.1,3.2-3.1,1.9,0,3.2,1.3,3.2,3.1ZM84.9,222.8c0,1.2.9,2.1,2.2,2.1,1.3,0,2.2-.8,2.2-2.1s-.9-2.1-2.2-2.1-2.2.8-2.2,2.1ZM93.3,231.9h-1.1v-3.7h-7v-1h8.1v4.7ZM95.1,221.9h-1.8v1.8h1.8v1h-1.8v2h-1.1v-7.7h1.1v2h1.8v.9Z"/>
      <path d="M107,227.6h-3v4.3h-1.1v-4.3h-3.2v4.3h-1.1v-4.3h-3v-.9h11.3v.9ZM105.7,222.8h-7.4v1.6h7.7v1h-8.8v-3.5h7.4v-1.5h-7.5v-1h8.6v3.3Z"/>
      <path d="M119.5,225.9v.8c-1.1.2-2.3.3-3.5.4v4.5h-1.1v-4.4c-1.2,0-2.4,0-3.5,0l-.2-1c2.4,0,5.5,0,8.2-.4ZM119,224.2l-.4.9c-1.4-.4-2.5-1.2-3.1-2.2-.5,1.1-1.6,2-3.1,2.4l-.5-.9c1.8-.4,3-1.6,3-3h0c0,0-2.7,0-2.7,0v-.9h2.7v-1.4h1.1v1.4h2.7v.9h-2.7c0,1.4,1.2,2.5,3,2.9ZM121.5,231.9h-1.1v-13h1.1v13Z"/>
      <path d="M133.3,220.5c0,1,0,2.1-.3,3.8h1.8v1h-11.3v-1h8.4c.3-1.6.3-2.8.3-3.8h-7.3v-1h8.4v1ZM126,228.1h6.2v-1.7h1.1v5.4h-8.3v-5.4h1.1v1.7ZM132.2,230.8v-1.8h-6.2v1.8h6.2Z"/>
      <path d="M143,228.2l-.6.9c-1.4-.7-2.6-2.3-3.1-4-.6,1.9-1.8,3.6-3.2,4.3l-.7-.9c1.8-.9,3.3-3.4,3.3-5.6v-1.7h-2.9v-1h6.7v1h-2.8v1.7c0,2.1,1.4,4.4,3.2,5.3ZM145.2,224.2h2.1v1h-2.1v6.8h-1.1v-13h1.1v5.3Z"/>
      <path d="M56.3,238.9h1.1c-1,1.4-1.9,4.4-1.9,7s.9,5.6,1.9,7h-1.1c-1.3-2-2-4.3-2-7,0-2.8.7-5.1,2-7Z"/>
      <path d="M70,249.5h-11.5v-1h5.2v-2.8h-3.8v-6.7h1.1v2.4h6.5v-2.4h1.1v6.7h-3.8v2.8h5.3v1ZM67.4,244.8v-2.4h-6.5v2.4h6.5Z"/>
      <path d="M77.2,244h-4.6v3c2.3,0,4,0,5.9-.5v1c-1.9.4-3.6.5-6,.5h-1v-5h4.6v-2.7h-4.6v-1h5.7v4.6ZM80.7,243.3h2.1v1h-2.1v6.9h-1.1v-13h1.1v5.2Z"/>
      <path d="M88.8,247.7h-4.8v-8h4.8v8ZM85,246.7h2.7v-6.1h-2.7v6.1ZM94.3,251.2h-1.1v-6.9h-1.8v6.2h-1.1v-12.1h1.1v4.9h1.8v-5.2h1.1v13Z"/>
      <path d="M97.8,241.1h3.5v-2.1h1.1v1.3h3v-2.1h1.1v7.9h-1.1v-2.1h-3v1.2h-5.7v-6.1h1.1v2.1ZM101.3,244.1v-2.2h-3.5v2.2h3.5ZM106.5,248.7c0,1.5-1.6,2.4-4.2,2.4s-4.2-.9-4.2-2.4,1.6-2.4,4.2-2.4c2.6,0,4.2.9,4.2,2.4ZM99.2,248.7c0,.9,1.2,1.5,3.1,1.5s3.1-.6,3.1-1.5-1.2-1.5-3.1-1.5-3.1.6-3.1,1.5ZM105.4,243v-1.7h-3v1.7h3Z"/>
      <path d="M116.7,243.8v.8c-1.1.2-2.2.3-3.4.4v2.6h-1.1v-2.5c-1.3,0-2.5,0-3.5,0l-.2-.9c2.4,0,5.5,0,8.2-.4ZM115.8,241c0,1.4-1.3,2.3-3.1,2.3s-3.1-.9-3.1-2.3,1.3-2.3,3.1-2.3,3.1.9,3.1,2.3ZM119.3,250.9h-8.9v-3.8h1.1v2.8h7.8v1ZM110.6,241c0,.8.8,1.4,2.1,1.4s2-.6,2.1-1.4c0-.8-.9-1.4-2.1-1.4-1.2,0-2.1.6-2.1,1.4ZM119,248.1h-1.1v-1.3h-2.6v-.8h2.6v-7.7h1.1v9.9Z"/>
      <path d="M122.2,253h-1.1c1-1.4,1.9-4.4,1.9-7s-.9-5.6-1.9-7h1.1c1.3,1.9,2,4.2,2,7,0,2.8-.7,5.1-2,7Z"/>
    </g>
    <g>
      <circle class="st17" cx="89.3" cy="138" r="23"/>
      <path class="st17" d="M123.4,204.8H55.1l7.3-26.5c.7-6.4,6.1-11.2,12.6-11.2h28.6c6.4,0,11.8,4.8,12.6,11.2l7.3,26.5Z"/>
      <polygon class="st13" points="81.1 166.9 85.6 177.5 92.3 177.5 96.4 166.9 81.1 166.9"/>
      <polygon class="st13" points="85.8 178.8 92.4 178.8 98.3 205.7 81.5 205.7 85.8 178.8"/>
    </g>
  </g>
  <g>
    <g>
      <path d="M60.2,450h3.5v-2.1h1.1v1.3h3v-2.1h1.1v7.9h-1.1v-2.1h-3v1.2h-5.7v-6.1h1.1v2.1ZM63.7,453.1v-2.2h-3.5v2.2h3.5ZM68.9,457.7c0,1.5-1.6,2.4-4.2,2.4s-4.2-.9-4.2-2.4,1.6-2.4,4.2-2.4c2.6,0,4.2.9,4.2,2.4ZM61.6,457.7c0,.9,1.2,1.5,3.1,1.5s3.1-.6,3.1-1.5-1.2-1.5-3.1-1.5-3.1.6-3.1,1.5ZM67.7,451.9v-1.7h-3v1.7h3Z"/>
      <path d="M79.1,452.8v.8c-1.1.2-2.2.3-3.4.4v2.6h-1.1v-2.5c-1.3,0-2.5,0-3.5,0l-.2-.9c2.4,0,5.5,0,8.2-.4ZM78.1,449.9c0,1.4-1.3,2.3-3.1,2.3s-3.1-.9-3.1-2.3,1.3-2.3,3.1-2.3,3.1.9,3.1,2.3ZM81.7,459.9h-8.9v-3.8h1.1v2.8h7.8v1ZM73,449.9c0,.8.8,1.4,2.1,1.4s2-.6,2.1-1.4c0-.8-.9-1.4-2.1-1.4-1.2,0-2.1.6-2.1,1.4ZM81.3,457h-1.1v-1.3h-2.6v-.8h2.6v-7.7h1.1v9.9Z"/>
      <path d="M87.2,453.8c1.4,0,2.8-.2,4.1-.4v.8c-2.6.5-5.6.5-7.8.5v-1c.7,0,1.6,0,2.6,0v-2.8h1.1v2.8ZM90.5,448.8c0,.8,0,2.1-.3,3.8h-1.1c.3-1.6.3-2.7.4-3.6h-5.2v-1h6.3v.7ZM93.8,459.9h-8.4v-3.8h1.1v2.9h7.3v1ZM93.4,451.4h1.8v1h-1.8v4.6h-1.1v-9.8h1.1v4.2Z"/>
      <path d="M102.6,453h-4.7v3.1c2.1,0,4,0,6.2-.5v1c-2.2.4-4.1.5-6.3.5h-1v-5h4.7v-2.7h-4.7v-1h5.9v4.6ZM106.4,460.2h-1.1v-13h1.1v13Z"/>
      <path d="M116.1,456.4l-.6.9c-1.4-.7-2.6-2.3-3.2-4-.6,1.9-1.8,3.6-3.3,4.3l-.7-.9c1.8-.9,3.4-3.4,3.4-5.6v-1.7h-2.9v-1h6.9v1h-2.8v1.7c0,2.1,1.4,4.4,3.3,5.3ZM118.3,452.4h2.1v1h-2.1v6.8h-1.1v-13h1.1v5.3Z"/>
    </g>
    <g>
      <circle class="st17" cx="89.3" cy="367.7" r="23"/>
      <path class="st17" d="M123.4,434.5H55.1l7.3-26.5c.7-6.4,6.1-11.2,12.6-11.2h28.6c6.4,0,11.8,4.8,12.6,11.2l7.3,26.5Z"/>
      <polygon class="st13" points="81.1 396.6 85.6 407.2 92.3 407.2 96.4 396.6 81.1 396.6"/>
      <polygon class="st13" points="85.8 408.5 92.4 408.5 98.3 435.3 81.5 435.3 85.8 408.5"/>
    </g>
  </g>
  <g>
    <g>
      <path d="M61.8,653.4h-11.5v-.9h11.5v.9ZM60.7,648h-1.9v2.5h1.9v.9h-9.2v-.9h1.9v-2.5h-1.9v-.9h9.3v.9ZM60.3,657.4h-7.5v1.2h7.9v.9h-9v-3h7.5v-1.1h-7.5v-.9h8.6v2.8ZM57.7,650.5v-2.5h-3.2v2.5h3.2Z"/>
      <path d="M68.2,651.3h-3.7v1.9c1.7,0,2.9,0,4.4-.4v.9c-1.5.3-2.8.4-4.7.4h-.8v-3.7h3.7v-1.8h-3.7v-.9h4.8v3.6ZM74.2,658.7l-.5.9c-1.9-.3-3.7-1.3-4.4-2.8-.8,1.5-2.6,2.4-4.4,2.8l-.5-.9c2.2-.4,4.3-1.7,4.3-3.4v-.3h1.1v.3c0,1.7,2.1,3.1,4.3,3.4ZM73.6,655.5h-1.1v-4.5h-1.8v3.4h-1v-7.5h1v3.2h1.8v-3.4h1.1v8.9Z"/>
      <path d="M86.9,654.1h-11.5v-.9h5.2v-1.5h-4v-1h1.9v-2.7h-1.9v-1h9.3v1h-1.9v2.7h1.9v1h-4.1v1.5h5.2v.9ZM85.5,659.5h-8.7v-4.1h8.7v4.1ZM77.9,658.5h6.5v-2.2h-6.5v2.2ZM82.7,650.7v-2.7h-3.2v2.7h3.2Z"/>
      <path d="M95.3,653.3c1.4,0,2.8-.2,4.1-.4v.8c-2.6.5-5.6.5-7.8.5v-.9c.7,0,1.6,0,2.6,0v-2.8h1.1v2.8ZM98.6,648.3c0,.8,0,2.1-.3,3.8h-1.1c.3-1.6.3-2.7.4-3.6h-5.2v-1h6.3v.7ZM101.9,659.4h-8.4v-3.8h1.1v2.8h7.3v1ZM101.5,650.9h1.8v1h-1.8v4.6h-1.1v-9.8h1.1v4.2Z"/>
      <path d="M110.7,652.5h-4.7v3.1c2.1,0,4,0,6.2-.5v1c-2.2.4-4.1.5-6.3.5h-1v-5h4.7v-2.7h-4.7v-1h5.9v4.6ZM114.5,659.7h-1.1v-13h1.1v13Z"/>
      <path d="M124.2,655.9l-.6.9c-1.4-.7-2.6-2.3-3.2-4-.6,1.9-1.8,3.6-3.3,4.3l-.7-.9c1.8-.9,3.4-3.4,3.4-5.6v-1.7h-2.9v-1h6.9v1h-2.8v1.7c0,2.1,1.4,4.4,3.3,5.3ZM126.4,651.9h2.1v1h-2.1v6.8h-1.1v-13h1.1v5.3Z"/>
    </g>
    <g>
      <circle class="st17" cx="89.3" cy="569.1" r="23"/>
      <path class="st17" d="M123.4,635.9H55.1l7.3-26.5c.7-6.4,6.1-11.2,12.6-11.2h28.6c6.4,0,11.8,4.8,12.6,11.2l7.3,26.5Z"/>
      <polygon class="st13" points="81.1 598 85.6 608.6 92.3 608.6 96.4 598 81.1 598"/>
      <polygon class="st13" points="85.8 609.9 92.4 609.9 98.3 636.7 81.5 636.7 85.8 609.9"/>
    </g>
  </g>
  <g>
    <g>
      <rect class="st8" x="302.5" y="125.9" width="36.1" height="46.2" rx="4.3" ry="4.3"/>
      <g>
        <line class="st2" x1="309.2" y1="136" x2="323.2" y2="136"/>
        <line class="st2" x1="309.2" y1="142.8" x2="330" y2="142.8"/>
        <line class="st2" x1="309.2" y1="149.5" x2="331.9" y2="149.5"/>
        <line class="st2" x1="309.2" y1="156.2" x2="331.9" y2="156.2"/>
        <line class="st2" x1="309.2" y1="163" x2="331.9" y2="163"/>
      </g>
      <circle class="st17" cx="339" cy="163.8" r="6.5"/>
      <path class="st14" d="M335.2,164.1c1.3.8,2.5,1.8,3.6,2.7h-.5c1.4-2.1,2.8-4.3,4.4-6.3,0,0,.1,0,.1,0-1.2,2.5-2.7,4.8-4.2,7-1.2-1.1-2.4-2.2-3.5-3.5,0,0,0,0,0,0h0Z"/>
    </g>
    <g>
      <g>
        <path d="M220.5,198.9v1.2c-2.7.6-5.8.6-8.1.6l-.2-1.3c2.3,0,5.5,0,8.3-.4ZM219.9,194.3c0,1.9-1.5,3.2-3.5,3.2s-3.5-1.3-3.5-3.2,1.5-3.2,3.5-3.2c2,0,3.5,1.3,3.5,3.2ZM214.4,194.3c0,1.1.8,1.8,2,1.8s2-.7,2-1.8-.8-1.8-2-1.8-2,.7-2,1.8ZM222.9,203.4h-1.6v-13.2h1.6v13.2Z"/>
        <path d="M236.3,201.9h-11.7v-1.3h3.1v-2.2h-1.7v-4.3h7.4v-1.6h-7.4v-1.3h8.9v4.2h-7.3v1.7h7.6v1.3h-1.9v2.2h3v1.3ZM231.8,200.5v-2.2h-2.6v2.2h2.6Z"/>
        <path d="M248.7,197.8h-11.7v-1.3h2.7v-1.7c-1-.4-1.5-1.1-1.5-1.9,0-1.6,1.8-2.5,4.6-2.5s4.6.9,4.6,2.5c0,.9-.6,1.5-1.5,1.9v1.7h2.8v1.3ZM247.3,201c0,1.5-1.7,2.4-4.4,2.4s-4.5-.8-4.5-2.4,1.7-2.4,4.5-2.4c2.8,0,4.4.8,4.4,2.4ZM239.8,192.9c0,.8,1.1,1.2,3,1.2s3-.4,3-1.2-1.1-1.3-3-1.3-3,.4-3,1.3ZM240,201c0,.7,1,1.1,2.9,1.1s2.8-.4,2.9-1.1c0-.7-1-1.1-2.9-1.1s-2.9.4-2.9,1.1ZM244.3,196.5v-1.3c-.5,0-1,.1-1.5.1s-1.1,0-1.5-.1v1.3h3Z"/>
        <path d="M259.2,200.1h-6.1v-8.7h6.1v8.7ZM254.7,198.8h2.9v-6.1h-2.9v6.1ZM262.7,195.2h2v1.4h-2v6.8h-1.6v-13.2h1.6v5.1Z"/>
        <path d="M272.1,194.1c0,1.9-1.5,3.2-3.5,3.2s-3.5-1.3-3.5-3.2c0-1.9,1.5-3.2,3.5-3.2,2,0,3.4,1.3,3.5,3.2ZM275.2,203.4h-1.6v-3.5h-7v-1.3h8.5v4.8ZM266.8,194.1c0,1.1.8,1.8,1.9,1.8,1.1,0,1.9-.7,1.9-1.8s-.8-1.8-1.9-1.8c-1.1,0-1.9.7-1.9,1.8ZM276.9,193.3h-1.7v1.5h1.7v1.4h-1.7v1.8h-1.6v-7.8h1.6v1.8h1.7v1.3Z"/>
        <path d="M289.2,199.3h-2.8v4.1h-1.6v-4.1h-2.9v4.1h-1.6v-4.1h-2.8v-1.3h11.7v1.3ZM287.8,194.3h-7.3v1.3h7.6v1.3h-9.2v-3.8h7.3v-1.2h-7.3v-1.3h9v3.7Z"/>
        <path d="M297.1,196.8c1.3,0,2.7-.2,3.9-.3v1.2c-2.6.5-5.6.5-7.8.6v-1.3c.6,0,1.5,0,2.4,0v-2.7h1.6v2.6ZM300.3,191.9c0,.9,0,2.2-.3,3.9h-1.6c.2-1.5.3-2.5.3-3.3h-5v-1.3h6.5v.8ZM303.8,203.1h-8.9v-3.9h1.6v2.6h7.3v1.3ZM303.4,194.3h1.7v1.4h-1.7v4.4h-1.6v-9.9h1.6v4.1Z"/>
        <path d="M312.3,196.3h-4.4v2.7c2,0,3.8-.1,5.7-.5v1.3c-2,.4-4,.5-6.2.5h-1.1v-5.3h4.4v-2.4h-4.4v-1.3h6v5ZM316.2,203.4h-1.6v-13.2h1.6v13.2Z"/>
        <path d="M332.9,197.1h-11.7v-1.3h11.7v1.3ZM331.8,191.8h-1.8v2h1.7v1.2h-9.4v-1.2h1.7v-2h-1.8v-1.2h9.5v1.2ZM331.5,201.2h-7.3v.9h7.6v1.2h-9.2v-3.2h7.3v-.8h-7.3v-1.2h8.8v3.1ZM328.5,193.8v-2h-2.9v2h2.9Z"/>
        <path d="M339,195h-3.3v1.5c1.5,0,2.6-.1,3.9-.4v1.3c-1.4.3-2.7.4-4.6.4h-.9v-4h3.3v-1.4h-3.4v-1.3h4.9v3.9ZM345.2,202.1l-.6,1.3c-2-.3-3.6-1.2-4.4-2.5-.8,1.3-2.4,2.2-4.4,2.5l-.6-1.3c2.6-.4,4.2-1.8,4.2-3.3v-.3h1.6v.3c0,1.5,1.6,2.9,4.2,3.3ZM344.6,199.1h-1.5v-4.3h-1.3v3.2h-1.5v-7.6h1.5v3h1.3v-3.3h1.5v8.9Z"/>
        <path d="M357.7,197.9h-11.7v-1.3h5v-1.2h-3.9v-1.3h1.7v-2.3h-1.8v-1.3h9.5v1.3h-1.8v2.3h1.7v1.3h-3.9v1.2h5.1v1.3ZM356.3,203.2h-8.9v-4.2h8.9v4.2ZM349,201.9h5.8v-1.7h-5.8v1.7ZM353.3,194.1v-2.3h-2.9v2.3h2.9Z"/>
        <path d="M366.9,202.7h-1.5v-6.3h-1.2c-.1,2.6-1.2,4.2-2.8,4.2-1.7,0-2.8-1.8-2.8-4.7s1.1-4.7,2.8-4.7,2.6,1.5,2.8,4h1.2v-4.7h1.5v12.3ZM360,195.9c0,2.1.5,3.2,1.3,3.2.8,0,1.4-1.1,1.4-3.2s-.5-3.2-1.4-3.2c-.8,0-1.3,1.1-1.3,3.2ZM369.5,203.4h-1.5v-13.2h1.5v13.2Z"/>
        <path d="M381.8,196.4l-.8,1.3c-1.4-.5-2.4-1.5-3-2.7-.6,1.4-1.6,2.5-3.2,3.1l-.8-1.3c2.1-.7,3.1-2.5,3.1-4.3h0c0-.1-2.7-.1-2.7-.1v-1.3h6.9v1.3h-2.6c0,1.7,1,3.3,3,4ZM384.9,200.9c0,1.6-1.7,2.5-4.4,2.5s-4.4-.9-4.3-2.5c0-1.6,1.6-2.5,4.3-2.5s4.4.9,4.4,2.5ZM377.7,200.9c0,.8,1,1.3,2.8,1.3s2.8-.4,2.8-1.3-1-1.3-2.8-1.3-2.8.4-2.8,1.3ZM384.9,198h-1.6v-3.2h-2.2v-1.3h2.2v-3.3h1.6v7.8Z"/>
        <path d="M398.2,201.8h-11.7v-1.3h5v-2.6h-3.8v-6.8h1.6v2.2h5.9v-2.2h1.6v6.8h-3.8v2.6h5.1v1.3ZM395.3,196.6v-2.1h-5.9v2.1h5.9Z"/>
        <path d="M410.6,197.4h-11.7v-1.2h11.7v1.2ZM409.2,201.2h-7.3v.9h7.7v1.1h-9.3v-3.1h7.3v-.8h-7.4v-1.1h8.9v3ZM409.2,193.4h-7.2v.9h7.4v1.1h-9v-3h7.2v-.8h-7.2v-1.1h8.8v3Z"/>
        <path d="M421.7,193.9c0,1.8-1.5,3.1-3.4,3.1s-3.5-1.3-3.5-3.1,1.5-3.1,3.5-3.1c2,0,3.4,1.3,3.4,3.1ZM416.4,193.9c0,1.1.8,1.7,1.9,1.7,1.1,0,1.9-.7,1.9-1.7s-.8-1.7-1.9-1.7-1.9.7-1.9,1.7ZM418.4,199.2h5.3v-1.4h1.6v5.4h-8.5v-5.4h1.6v1.4ZM423.7,201.9v-1.4h-5.3v1.4h5.3ZM425.3,197.3h-1.6v-7.1h1.6v7.1Z"/>
        <path d="M433.1,194.9h-4v1.6c2.1,0,3.2,0,4.6-.3l.2,1.3c-1.5.3-2.9.3-5.4.3h-.9v-4.1h4v-1.5h-4v-1.3h5.6v4ZM437.7,203.4h-1.6v-3.1h-7.2v-1.3h8.8v4.4ZM437.7,198.3h-1.6v-2.2h-2.3v-1.3h2.3v-1.5h-2.3v-1.3h2.3v-1.9h1.6v8.1Z"/>
      </g>
      <g>
        <g>
          <path d="M263.3,220.1h2.6v-3.1h1.1v7h-1.1v-2.9h-2.6c-.2,1.5-1.5,2.6-3.2,2.6s-3.3-1.2-3.3-3,1.4-3,3.3-3c1.7,0,3,1,3.2,2.5ZM257.9,220.6c0,1.2.9,2,2.2,2s2.2-.9,2.2-2-.9-2-2.2-2c-1.3,0-2.2.8-2.2,2ZM260.1,226.3h5.9v-1.7h1.1v5.2h-8.1v-5.2h1.1v1.7ZM266,228.9v-1.7h-5.9v1.7h5.9Z"/>
          <path d="M280.7,225.5h-5.3v4.5h-1.1v-4.5h-5.2v-1h11.5v1ZM279.2,222.8h-8.5v-5.1h8.5v5.1ZM271.7,221.9h6.3v-3.2h-6.3v3.2Z"/>
          <path d="M291.6,219.1h-4.5v4c2.5,0,4,0,5.7-.4v1c-1.6.4-3.1.4-5.8.4h-1v-6h5.6v1ZM295.8,229.7h-8.5v-4.3h1.1v3.3h7.4v1ZM295.2,220.9h1.9v1h-1.9v4.6h-1.1v-9.4h1.1v3.9Z"/>
          <path d="M306.1,229.3h-1.1v-4.5h-2.3v-1h2.3v-2.3h-2.1c-.6,2.2-2,4.1-4.4,5.6l-.7-.8c2.7-1.7,4.1-4,4.3-6.7h-3.8v-1h4.9c0,.7,0,1.3-.2,2h1.9v-3.3h1.1v12ZM308.7,230h-1.1v-13h1.1v13Z"/>
          <path d="M320.9,223.8h-1.1v-1.7h-3v1.1h-5.7v-5.7h1.1v1.9h3.5v-1.9h1.1v1.3h3v-1.9h1.1v6.8ZM315.7,222.3v-1.9h-3.5v1.9h3.5ZM320.9,227.5h-7v1.4h7.5v.9h-8.6v-3.2h7v-1.3h-7.1v-.9h8.2v3.1ZM319.8,221.2v-1.5h-3v1.5h3Z"/>
          <path d="M330,224.4v-1c-1.5-.1-2.4-.8-2.4-1.9s1.2-1.9,2.9-1.9,2.9.7,3,1.9c0,1.1-.9,1.8-2.4,1.9v.9c1.2,0,2.4-.2,3.5-.3v.8c-2.6.5-5.6.5-7.9.5v-.9c.9,0,2.1,0,3.3,0ZM334.2,219.1h-7.3v-.9h3.1v-1.3h1.1v1.3h3.1v.9ZM336.4,230h-1.1v-2.7h-7.2v-.9h8.3v3.6ZM328.6,221.5c0,.7.7,1.1,1.9,1.1,1.2,0,1.9-.5,1.9-1.1s-.7-1.1-1.9-1.1c-1.2,0-1.9.4-1.9,1.1ZM336.4,221h1.9v1h-1.9v3.8h-1.1v-8.7h1.1v3.9Z"/>
          <path d="M346,221.1c0,1.9-1.4,3.2-3.3,3.2s-3.3-1.3-3.3-3.2,1.4-3.2,3.3-3.2,3.3,1.3,3.3,3.2ZM340.5,221.1c0,1.3.9,2.2,2.2,2.2s2.2-.9,2.2-2.2-1-2.2-2.2-2.2-2.2.9-2.2,2.2ZM349.9,229.7h-8.5v-4.2h1.1v3.2h7.4v1ZM349.5,226.5h-1.1v-9.5h1.1v9.5Z"/>
          <path d="M362.8,223.3l-.6.9c-1.4-.5-2.5-1.6-3-3-.6,1.5-1.7,2.7-3.2,3.3l-.6-.9c1.9-.7,3.2-2.5,3.2-4.3v-.5h-2.8v-1h6.8v1h-2.8v.5c0,1.7,1.3,3.3,3.1,4ZM365.8,227.6c0,1.5-1.6,2.4-4.2,2.4-2.6,0-4.2-.9-4.2-2.4s1.6-2.4,4.2-2.4,4.2.9,4.2,2.4ZM358.5,227.6c0,.9,1.2,1.5,3.1,1.5s3.1-.6,3.1-1.5-1.2-1.5-3.1-1.5-3.1.6-3.1,1.5ZM365.8,224.8h-1.1v-3.4h-2.5v-1h2.5v-3.4h1.1v7.7Z"/>
          <path d="M379.4,228.3h-11.5v-1h5.2v-2.8h-3.8v-6.7h1.1v2.4h6.5v-2.4h1.1v6.7h-3.8v2.8h5.3v1ZM376.9,223.6v-2.4h-6.5v2.4h6.5Z"/>
          <path d="M390.9,220.6c0,1.8-1.4,3-3.3,3s-3.3-1.2-3.3-3,1.4-3,3.3-3c1.9,0,3.3,1.2,3.3,3ZM385.4,220.6c0,1.2.9,2,2.2,2s2.2-.8,2.2-2-.9-2-2.2-2c-1.3,0-2.2.8-2.2,2ZM387.4,226.2h5.9v-1.6h1.1v5.2h-8.2v-5.2h1.1v1.6ZM393.3,228.9v-1.8h-5.9v1.8h5.9ZM394.4,224h-1.1v-7h1.1v7Z"/>
          <path d="M402.6,221.4h-4.3v2c2.4,0,3.6,0,5.1-.3v1c-1.5.3-2.7.3-5.3.3h-.9v-3.8h4.3v-1.8h-4.4v-.9h5.5v3.6ZM407,230h-1.1v-3.4h-7.4v-.9h8.5v4.3ZM407,225h-1.1v-2.4h-2.5v-1h2.5v-1.8h-2.5v-.9h2.5v-1.9h1.1v8Z"/>
        </g>
        <circle cx="245.3" cy="223.9" r="3"/>
      </g>
    </g>
  </g>
  <g>
    <g>
      <rect class="st8" x="302.5" y="319.8" width="36.1" height="46.2" rx="4.3" ry="4.3"/>
      <g>
        <line class="st2" x1="309.2" y1="329.9" x2="323.2" y2="329.9"/>
        <line class="st2" x1="309.2" y1="336.7" x2="330" y2="336.7"/>
        <line class="st2" x1="309.2" y1="343.4" x2="331.9" y2="343.4"/>
        <line class="st2" x1="309.2" y1="350.1" x2="331.9" y2="350.1"/>
        <line class="st2" x1="309.2" y1="356.9" x2="331.9" y2="356.9"/>
      </g>
      <circle class="st17" cx="339" cy="357.7" r="6.5"/>
      <path class="st14" d="M335.2,358c1.3.8,2.5,1.8,3.6,2.7h-.5c1.4-2.1,2.8-4.3,4.4-6.3h.1c-1.2,2.5-2.7,4.9-4.2,7.1-1.2-1.1-2.4-2.2-3.5-3.5,0,0,0,0,0,0h0Z"/>
    </g>
    <g>
      <g>
        <path d="M217.4,393.5v1.2c-2.7.6-5.8.6-8.1.6l-.2-1.3c2.3,0,5.5,0,8.3-.4ZM216.7,388.9c0,1.9-1.5,3.2-3.5,3.2s-3.5-1.3-3.5-3.2,1.5-3.2,3.5-3.2c2,0,3.5,1.3,3.5,3.2ZM211.3,388.9c0,1.1.8,1.8,2,1.8s2-.7,2-1.8-.8-1.8-2-1.8-2,.7-2,1.8ZM219.7,398.1h-1.6v-13.2h1.6v13.2Z"/>
        <path d="M233.3,396.5h-11.7v-1.3h3.1v-2.2h-1.7v-4.3h7.4v-1.6h-7.4v-1.3h8.9v4.2h-7.3v1.7h7.6v1.3h-1.9v2.2h3v1.3ZM228.8,395.2v-2.2h-2.6v2.2h2.6Z"/>
        <path d="M245.8,392.5h-11.7v-1.3h2.7v-1.7c-1-.4-1.5-1.1-1.5-1.9,0-1.6,1.8-2.5,4.6-2.5s4.6.9,4.6,2.5c0,.9-.6,1.5-1.5,1.9v1.7h2.8v1.3ZM244.4,395.6c0,1.5-1.7,2.4-4.4,2.4s-4.5-.8-4.5-2.4,1.7-2.4,4.5-2.4c2.8,0,4.4.8,4.4,2.4ZM237,387.6c0,.8,1.1,1.2,3,1.2s3-.4,3-1.2-1.1-1.3-3-1.3-3,.4-3,1.3ZM237.1,395.6c0,.7,1,1.1,2.9,1.1s2.8-.4,2.9-1.1c0-.7-1-1.1-2.9-1.1s-2.9.4-2.9,1.1ZM241.5,391.2v-1.3c-.5,0-1,.1-1.5.1s-1.1,0-1.5-.1v1.3h3Z"/>
        <path d="M256.6,394.8h-6.1v-8.7h6.1v8.7ZM252.1,393.5h2.9v-6.1h-2.9v6.1ZM260.2,389.9h2v1.4h-2v6.8h-1.6v-13.2h1.6v5.1Z"/>
        <path d="M269.7,388.8c0,1.9-1.5,3.2-3.5,3.2s-3.5-1.3-3.5-3.2c0-1.9,1.5-3.2,3.5-3.2,2,0,3.4,1.3,3.5,3.2ZM272.8,398h-1.6v-3.5h-7v-1.3h8.5v4.8ZM264.3,388.8c0,1.1.8,1.8,1.9,1.8,1.1,0,1.9-.7,1.9-1.8s-.8-1.8-1.9-1.8c-1.1,0-1.9.7-1.9,1.8ZM274.5,388h-1.7v1.5h1.7v1.4h-1.7v1.8h-1.6v-7.8h1.6v1.8h1.7v1.3Z"/>
        <path d="M286.9,393.9h-2.8v4.1h-1.6v-4.1h-2.9v4.1h-1.6v-4.1h-2.8v-1.3h11.7v1.3ZM285.5,389h-7.3v1.3h7.6v1.3h-9.2v-3.8h7.3v-1.2h-7.3v-1.3h9v3.7Z"/>
        <path d="M295.1,391.5c1.3,0,2.7-.2,3.9-.3v1.2c-2.6.5-5.6.5-7.8.6v-1.3c.6,0,1.5,0,2.4,0v-2.7h1.6v2.6ZM298.3,386.6c0,.9,0,2.2-.3,3.9h-1.6c.2-1.5.3-2.5.3-3.3h-5v-1.3h6.5v.8ZM301.8,397.8h-8.9v-3.9h1.6v2.6h7.3v1.3ZM301.4,389h1.7v1.4h-1.7v4.4h-1.6v-9.9h1.6v4.1Z"/>
        <path d="M310.5,390.9h-4.4v2.7c2,0,3.8-.1,5.7-.5v1.3c-2,.4-4,.5-6.2.5h-1.1v-5.3h4.4v-2.4h-4.4v-1.3h6v5ZM314.4,398.1h-1.6v-13.2h1.6v13.2Z"/>
        <path d="M331.4,391.8h-11.7v-1.3h11.7v1.3ZM330.3,386.4h-1.8v2h1.7v1.2h-9.4v-1.2h1.7v-2h-1.8v-1.2h9.5v1.2ZM329.9,395.8h-7.3v.9h7.6v1.2h-9.2v-3.2h7.3v-.8h-7.3v-1.2h8.8v3.1ZM327,388.4v-2h-2.9v2h2.9Z"/>
        <path d="M337.6,389.7h-3.3v1.5c1.5,0,2.6-.1,3.9-.4v1.3c-1.4.3-2.7.4-4.6.4h-.9v-4h3.3v-1.4h-3.4v-1.3h4.9v3.9ZM343.8,396.7l-.6,1.3c-2-.3-3.6-1.2-4.4-2.5-.8,1.3-2.4,2.2-4.4,2.5l-.6-1.3c2.6-.4,4.2-1.8,4.2-3.3v-.3h1.6v.3c0,1.5,1.6,2.9,4.2,3.3ZM343.2,393.8h-1.5v-4.3h-1.3v3.2h-1.5v-7.6h1.5v3h1.3v-3.3h1.5v8.9Z"/>
        <path d="M356.5,392.6h-11.7v-1.3h5v-1.2h-3.9v-1.3h1.7v-2.3h-1.8v-1.3h9.5v1.3h-1.8v2.3h1.7v1.3h-3.9v1.2h5.1v1.3ZM355,397.9h-8.9v-4.2h8.9v4.2ZM347.7,396.6h5.8v-1.7h-5.8v1.7ZM352,388.8v-2.3h-2.9v2.3h2.9Z"/>
        <path d="M365.6,393.5v1.2c-2.7.6-5.8.6-8.1.6l-.2-1.3c2.3,0,5.5,0,8.3-.4ZM365,388.9c0,1.9-1.5,3.2-3.5,3.2s-3.5-1.3-3.5-3.2,1.5-3.2,3.5-3.2c2,0,3.5,1.3,3.5,3.2ZM359.5,388.9c0,1.1.8,1.8,2,1.8s2-.7,2-1.8-.8-1.8-2-1.8-2,.7-2,1.8ZM368,398.1h-1.6v-13.2h1.6v13.2Z"/>
        <path d="M381,391l-.8,1.3c-1.4-.5-2.4-1.5-3-2.7-.6,1.4-1.6,2.5-3.2,3.1l-.8-1.3c2.1-.7,3.1-2.5,3.1-4.3h0c0-.1-2.7-.1-2.7-.1v-1.3h6.9v1.3h-2.6c0,1.7,1,3.3,3,4ZM384.1,395.5c0,1.6-1.7,2.5-4.4,2.5s-4.4-.9-4.3-2.5c0-1.6,1.6-2.5,4.3-2.5s4.4.9,4.4,2.5ZM376.9,395.5c0,.8,1,1.3,2.8,1.3s2.8-.4,2.8-1.3-1-1.3-2.8-1.3-2.8.4-2.8,1.3ZM384,392.7h-1.6v-3.2h-2.2v-1.3h2.2v-3.3h1.6v7.8Z"/>
        <path d="M397.5,396.5h-11.7v-1.3h5v-2.6h-3.8v-6.8h1.6v2.2h5.9v-2.2h1.6v6.8h-3.8v2.6h5.1v1.3ZM394.6,391.2v-2.1h-5.9v2.1h5.9Z"/>
        <path d="M410.1,392.1h-11.7v-1.2h11.7v1.2ZM408.6,395.9h-7.3v.9h7.7v1.1h-9.3v-3.1h7.3v-.8h-7.4v-1.1h8.9v3ZM408.6,388.1h-7.2v.9h7.4v1.1h-9v-3h7.2v-.8h-7.2v-1.1h8.8v3Z"/>
        <path d="M417.5,392.2v-.8c-1.4-.2-2.3-.9-2.3-1.9s1.2-2,3.1-2c1.9,0,3.1.7,3.1,2s-.9,1.7-2.3,1.9v.8c1.1,0,2.2-.1,3.2-.3v1.1c-2.6.5-5.6.5-7.8.5l-.2-1.3c1,0,2.1,0,3.2,0ZM421.9,387.1h-7.3v-1.2h2.9v-1.2h1.6v1.2h2.9v1.2ZM424.5,398h-1.6v-2.4h-7.1v-1.3h8.6v3.7ZM416.7,389.4c0,.5.6.9,1.6.9,1,0,1.6-.3,1.6-.9s-.6-.9-1.6-.9c-1,0-1.6.3-1.6.9ZM424.5,388.7h1.7v1.3h-1.7v3.7h-1.6v-8.9h1.6v3.8Z"/>
        <path d="M434,389c0,2-1.5,3.3-3.4,3.3s-3.5-1.4-3.5-3.3,1.5-3.3,3.5-3.3,3.4,1.4,3.4,3.3ZM428.7,389c0,1.2.8,1.9,1.9,1.9s1.9-.7,1.9-1.9-.8-1.9-1.9-1.9-1.9.7-1.9,1.9ZM437.9,397.8h-8.8v-4.4h1.6v3h7.2v1.3ZM437.6,394.4h-1.6v-9.5h1.6v9.5Z"/>
      </g>
      <g>
        <g>
          <path d="M227.2,416.7c0,1.8-1.4,3-3.3,3s-3.3-1.2-3.3-3,1.4-3,3.3-3c1.9,0,3.3,1.2,3.3,3ZM221.7,416.7c0,1.2.9,2,2.2,2s2.2-.8,2.2-2-.9-2-2.2-2c-1.3,0-2.2.8-2.2,2ZM223.6,422.3h5.9v-1.6h1.1v5.2h-8.2v-5.2h1.1v1.6ZM229.6,424.9v-1.8h-5.9v1.8h5.9ZM230.7,420h-1.1v-7h1.1v7Z"/>
          <path d="M238.8,417.5h-4.3v2c2.4,0,3.6,0,5.1-.3v1c-1.5.3-2.7.3-5.3.3h-.9v-3.8h4.3v-1.8h-4.4v-.9h5.5v3.6ZM243.3,426.1h-1.1v-3.4h-7.4v-.9h8.5v4.3ZM243.3,421.1h-1.1v-2.4h-2.5v-.9h2.5v-1.8h-2.5v-.9h2.5v-1.9h1.1v8Z"/>
          <path d="M252.7,418.3h-2.5v1.8c1.2,0,2.4-.1,3.4-.3v.8c-2.6.4-5.6.5-8,.5l-.2-.9c1.1,0,2.3,0,3.6,0v-1.9h-2.5v-4.4h6v1h-4.9v2.5h5v.9ZM256.2,425.8h-8.6v-3.7h1.1v2.7h7.5v1ZM255.8,422.8h-1.1v-9.7h1.1v9.7Z"/>
          <path d="M269,419.4l-.6.9c-1.4-.5-2.5-1.6-3-3-.6,1.5-1.7,2.7-3.2,3.3l-.6-.9c1.9-.7,3.2-2.5,3.2-4.3v-.5h-2.8v-1h6.8v1h-2.8v.5c0,1.7,1.3,3.3,3.1,4ZM272,423.6c0,1.5-1.6,2.4-4.2,2.4-2.6,0-4.2-.9-4.2-2.4s1.6-2.4,4.2-2.4,4.2.9,4.2,2.4ZM264.7,423.6c0,.9,1.2,1.5,3.1,1.5s3.1-.6,3.1-1.5-1.2-1.5-3.1-1.5-3.1.6-3.1,1.5ZM272,420.8h-1.1v-3.4h-2.5v-1h2.5v-3.4h1.1v7.7Z"/>
          <path d="M285.6,424.4h-11.5v-1h5.2v-2.8h-3.8v-6.7h1.1v2.4h6.5v-2.4h1.1v6.7h-3.8v2.8h5.3v1ZM283.1,419.7v-2.4h-6.5v2.4h6.5Z"/>
          <path d="M298.2,420h-11.5v-.9h11.5v.9ZM296.7,423.8h-7.6v1.2h8v.8h-9.1v-2.9h7.6v-1.1h-7.6v-.9h8.7v2.8ZM296.7,416.1h-7.4v1.1h7.7v.8h-8.8v-2.8h7.4v-1.1h-7.5v-.8h8.6v2.7Z"/>
          <path d="M307.6,422.3c1.2,0,2.4-.2,3.6-.3v.8c-2.8.5-5.9.6-8.2.6l-.2-1c1.1,0,2.3,0,3.6,0v-2.4h1.1v2.4ZM310.6,415.7h-3c0,1.7,1.4,3,3.2,3.6l-.5.9c-1.5-.5-2.7-1.5-3.3-2.8-.6,1.4-1.7,2.4-3.2,2.9l-.5-.9c1.9-.6,3.2-2,3.2-3.7h-2.9v-.9h2.9v-1.6h1.1v1.6h3v.9ZM313.1,426.1h-1.1v-13h1.1v13Z"/>
          <path d="M321.6,419.5h5.2v.9h-11.5v-.9h5.2v-1.9h1.1v1.9ZM325.8,414.6h-4c0,1.4,2.2,2.6,4.4,2.8l-.4.9c-2.1-.3-4-1.2-4.7-2.6-.7,1.4-2.6,2.4-4.7,2.6l-.4-.9c2.2-.2,4.3-1.3,4.4-2.8h-4v-.9h9.4v.9ZM325.4,423.8c0,1.4-1.6,2.2-4.3,2.2s-4.3-.8-4.3-2.2,1.6-2.2,4.3-2.2,4.3.8,4.3,2.2ZM317.9,423.8c0,.8,1.2,1.3,3.2,1.3s3.2-.5,3.2-1.3-1.2-1.3-3.2-1.3-3.2.5-3.2,1.3Z"/>
          <path d="M331.3,420.4v-1c-1.5-.1-2.4-.8-2.4-1.9s1.2-1.9,2.9-1.9,2.9.7,3,1.9c0,1.1-.9,1.8-2.4,1.9v.9c1.2,0,2.4-.2,3.5-.3v.8c-2.6.5-5.7.5-7.9.5v-.9c.9,0,2.1,0,3.3,0ZM335.4,415.1h-7.3v-.9h3.1v-1.3h1.1v1.3h3.1v.9ZM337.7,426.1h-1.1v-2.7h-7.2v-.9h8.3v3.6ZM329.9,417.5c0,.7.7,1.1,1.9,1.1,1.2,0,1.9-.5,1.9-1.1s-.7-1.1-1.9-1.1c-1.2,0-1.9.4-1.9,1.1ZM337.7,417h1.9v1h-1.9v3.8h-1.1v-8.7h1.1v3.9Z"/>
          <path d="M347.3,417.2c0,1.9-1.4,3.2-3.3,3.2s-3.3-1.3-3.3-3.2,1.4-3.2,3.3-3.2,3.3,1.3,3.3,3.2ZM341.8,417.2c0,1.3.9,2.2,2.2,2.2s2.2-.9,2.2-2.2-1-2.2-2.2-2.2-2.2.9-2.2,2.2ZM351.2,425.8h-8.5v-4.2h1.1v3.2h7.4v1ZM350.8,422.6h-1.1v-9.5h1.1v9.5Z"/>
        </g>
        <circle cx="211.6" cy="419.9" r="3"/>
      </g>
      <g>
        <g>
          <path d="M227.2,441.5c0,1.8-1.4,3-3.3,3s-3.3-1.2-3.3-3,1.4-3,3.3-3c1.9,0,3.3,1.2,3.3,3ZM221.7,441.5c0,1.2.9,2,2.2,2s2.2-.8,2.2-2-.9-2-2.2-2c-1.3,0-2.2.8-2.2,2ZM223.6,447.1h5.9v-1.6h1.1v5.2h-8.2v-5.2h1.1v1.6ZM229.6,449.8v-1.8h-5.9v1.8h5.9ZM230.7,444.9h-1.1v-7h1.1v7Z"/>
          <path d="M238.8,442.3h-4.3v2c2.4,0,3.6,0,5.1-.3v1c-1.5.3-2.7.3-5.3.3h-.9v-3.8h4.3v-1.8h-4.4v-.9h5.5v3.6ZM243.3,450.9h-1.1v-3.4h-7.4v-.9h8.5v4.3ZM243.3,445.9h-1.1v-2.4h-2.5v-1h2.5v-1.8h-2.5v-.9h2.5v-1.9h1.1v8Z"/>
          <path d="M256.5,444.2l-.6.9c-1.4-.5-2.5-1.6-3-3-.6,1.5-1.7,2.7-3.2,3.3l-.6-.9c1.9-.7,3.2-2.5,3.2-4.3v-.5h-2.8v-1h6.8v1h-2.8v.5c0,1.7,1.3,3.3,3.1,4ZM259.5,448.5c0,1.5-1.6,2.4-4.2,2.4-2.6,0-4.2-.9-4.2-2.4s1.6-2.4,4.2-2.4,4.2.9,4.2,2.4ZM252.2,448.5c0,.9,1.2,1.5,3.1,1.5s3.1-.6,3.1-1.5-1.2-1.5-3.1-1.5-3.1.6-3.1,1.5ZM259.5,445.6h-1.1v-3.4h-2.5v-1h2.5v-3.4h1.1v7.7Z"/>
          <path d="M273.1,449.2h-11.5v-1h5.2v-2.8h-3.8v-6.7h1.1v2.4h6.5v-2.4h1.1v6.7h-3.8v2.8h5.3v1ZM270.6,444.5v-2.4h-6.5v2.4h6.5Z"/>
          <path d="M282.5,446.6v.8c-2.8.6-5.9.6-8.2.6l-.2-1c2.3,0,5.5,0,8.3-.4ZM281.6,441.9c0,1.8-1.4,3.1-3.4,3.1s-3.4-1.2-3.4-3.1c0-1.8,1.4-3.1,3.4-3.1s3.4,1.2,3.4,3.1ZM275.9,441.9c0,1.2,1,2,2.3,2s2.3-.8,2.3-2-1-2-2.3-2-2.3.8-2.3,2ZM284.4,450.9h-1.1v-13h1.1v13Z"/>
          <path d="M297.2,443.4c0,2.8-1.3,4.5-3.2,4.5s-3.2-1.8-3.2-4.5,1.3-4.5,3.2-4.5c1.9,0,3.2,1.8,3.2,4.5ZM291.8,443.4c0,2.1.9,3.5,2.1,3.5s2.1-1.4,2.1-3.5-.9-3.5-2.1-3.5c-1.3,0-2.1,1.4-2.1,3.5ZM300.7,450.9h-1.1v-13h1.1v13Z"/>
          <path d="M310.2,444l-.6.9c-1.4-.5-2.5-1.6-3-3-.5,1.5-1.7,2.7-3.1,3.3l-.6-.9c1.9-.7,3.1-2.5,3.2-4.5v-1.3h1.1v1.4c0,1.8,1.3,3.4,3.1,4ZM312.8,448.5c0,1.5-1.6,2.4-4.1,2.4s-4.2-.8-4.2-2.4,1.6-2.4,4.2-2.4,4.1.9,4.1,2.4ZM305.6,448.5c0,.9,1.2,1.4,3.1,1.5,1.9,0,3.1-.5,3.1-1.5s-1.2-1.4-3.1-1.4-3.1.5-3.1,1.4ZM312.7,441.3h1.9v1h-1.9v3.6h-1.1v-7.9h1.1v3.4Z"/>
          <path d="M320.6,440.3h3.7v-1.9h1.1v5.7h-5.9v-5.7h1.1v1.9ZM324.3,443.2v-2h-3.7v2h3.7ZM328.8,448.4h-6.9v1.4h7.4v.9h-8.5v-3.2h6.9v-1.3h-6.9v-.9h8v3.1ZM328.8,440.7h1.9v1h-1.9v2.9h-1.1v-6.7h1.1v2.8Z"/>
          <path d="M337.9,444l-.6.9c-1.2-.5-2.1-1.4-2.5-2.5-.5,1.2-1.4,2.3-2.6,2.9l-.6-.9c1.7-.7,2.7-2.4,2.7-3.9v-1.8h1.1v1.8c0,1.4,1,2.9,2.6,3.5ZM342.3,448.5c0,1.5-1.6,2.3-4.2,2.3s-4.2-.8-4.2-2.3c0-1.5,1.6-2.3,4.2-2.3s4.2.8,4.2,2.3ZM335,448.5c0,.9,1.2,1.4,3.1,1.4s3.1-.5,3.1-1.4c0-.9-1.2-1.4-3.1-1.4s-3.1.5-3.1,1.4ZM342.2,445.9h-1.1v-3.6h-1.7v3.2h-1v-7.4h1v3.2h1.7v-3.5h1.1v8Z"/>
          <path d="M352,447l-.7.9c-1.4-.7-2.7-2.3-3.3-4.1-.6,2-1.8,3.6-3.3,4.4l-.7-1c1.9-.9,3.4-3.4,3.4-5.8v-2.4h1.1v2.4c0,2.4,1.6,4.8,3.4,5.6ZM354.5,450.9h-1.1v-13h1.1v13Z"/>
          <path d="M367.6,439.7h-1.3v3.3c.7,0,1.3-.1,1.9-.2v.8c-2.5.4-5.4.5-7.6.5v-1c-.1,0,1.5,0,1.5,0v-3.5h-1.3v-.9h6.8v.9ZM370.7,448.4h-7.1v1.4h7.6v.9h-8.7v-3.2h7.1v-1.3h-7.1v-.9h8.2v3.1ZM365.3,443.1v-3.4h-2.1v3.5c.7,0,1.4,0,2.1,0ZM370.7,444.6h-1.1v-6.8h1.1v6.8Z"/>
          <path d="M384.3,449.2h-11.5v-1h2.9v-3.5c-1.1-.6-1.7-1.5-1.7-2.7,0-2,1.9-3.3,4.6-3.3,2.7,0,4.6,1.3,4.6,3.3s-.6,2.1-1.7,2.7v3.5h2.9v1ZM375,442c0,1.4,1.5,2.4,3.5,2.4s3.5-1,3.5-2.4-1.5-2.4-3.5-2.4c-2.1,0-3.5,1-3.5,2.4ZM380.3,448.2v-3.1c-.5.2-1.2.2-1.8.2s-1.2,0-1.8-.2v3.1h3.6Z"/>
          <path d="M400.5,449.2h-11.5v-1h5.2v-3.2h1.1v3.2h5.2v1ZM400,444.6l-.5.9c-1.9-.4-4-1.7-4.8-3.5-.8,1.8-2.8,3.1-4.7,3.5l-.5-.9c2.1-.4,4.6-2.2,4.6-4.3v-.3h-4.2v-1h9.6v1h-4.2v.3c0,2.1,2.5,3.9,4.7,4.2Z"/>
          <path d="M409.5,447.2l-.6.9c-1.5-.7-2.7-2.1-3.3-3.8-.6,1.8-1.8,3.3-3.2,4l-.6-.9c1.9-.9,3.3-3.1,3.3-5.4v-1h-3v-.9h2.9v-2h1.1v2h2.9v.9h-2.9v1c0,2.2,1.5,4.3,3.4,5.1ZM411.9,450.9h-1.1v-13h1.1v13Z"/>
          <path d="M429.2,446.2h-5.2v4.7h-1.1v-4.7h-5.2v-1h11.5v1ZM428.6,442.8l-.5.9c-2-.3-3.9-1.5-4.7-3.1-.8,1.6-2.7,2.7-4.7,3.1l-.5-.9c2.3-.3,4.6-1.9,4.6-3.7v-.7h1.1v.7c0,1.8,2.3,3.4,4.6,3.7Z"/>
          <path d="M436.6,440.4h-6.5v-.9h2.7v-1.5h1.1v1.5h2.7v.9ZM436.1,443.3c0,1.3-1.1,2.2-2.7,2.2s-2.7-.9-2.7-2.2c0-1.4,1.1-2.2,2.7-2.2s2.7.9,2.7,2.2ZM431.7,443.3c0,.8.7,1.3,1.7,1.3s1.7-.5,1.7-1.3-.7-1.4-1.7-1.4-1.7.6-1.7,1.4ZM441,448.6c0,1.4-1.6,2.2-4.2,2.2s-4.2-.8-4.2-2.2c0-1.5,1.6-2.3,4.2-2.3s4.2.8,4.2,2.3ZM433.6,448.6c0,.8,1.2,1.3,3.1,1.3s3.1-.5,3.1-1.3c0-.9-1.2-1.4-3.1-1.4-2,0-3.1.5-3.1,1.4ZM440.9,446.1h-1.1v-3.7h-1.7v3.3h-1v-7.5h1v3.3h1.7v-3.6h1.1v8.2Z"/>
        </g>
        <circle cx="211.6" cy="445.6" r="3"/>
      </g>
    </g>
  </g>
  <g>
    <g>
      <rect class="st8" x="303.9" y="523.4" width="36.1" height="46.2" rx="4.3" ry="4.3"/>
      <g>
        <line class="st2" x1="310.6" y1="533.5" x2="324.6" y2="533.5"/>
        <line class="st2" x1="310.6" y1="540.3" x2="331.5" y2="540.3"/>
        <line class="st2" x1="310.6" y1="547" x2="333.3" y2="547"/>
        <line class="st2" x1="310.6" y1="553.7" x2="333.3" y2="553.7"/>
        <line class="st2" x1="310.6" y1="560.5" x2="333.3" y2="560.5"/>
      </g>
      <circle class="st17" cx="340.5" cy="561.3" r="6.5"/>
      <path class="st14" d="M336.6,561.6c1.3.8,2.5,1.8,3.6,2.7h-.5c1.4-2.1,2.8-4.3,4.4-6.3h.1c-1.2,2.5-2.7,4.9-4.2,7.1-1.2-1.1-2.4-2.2-3.5-3.5,0,0,0,0,0,0h0Z"/>
    </g>
    <g>
      <g>
        <path d="M224.4,592.1v1.2c-2.7.6-5.8.6-8.1.6l-.2-1.3c2.3,0,5.5,0,8.3-.4ZM223.8,587.5c0,1.9-1.5,3.2-3.5,3.2s-3.5-1.3-3.5-3.2,1.5-3.2,3.5-3.2c2,0,3.5,1.3,3.5,3.2ZM218.3,587.5c0,1.1.8,1.8,2,1.8s2-.7,2-1.8-.8-1.8-2-1.8-2,.7-2,1.8ZM226.7,596.6h-1.6v-13.2h1.6v13.2Z"/>
        <path d="M240.3,595.1h-11.7v-1.3h3.1v-2.2h-1.7v-4.3h7.4v-1.6h-7.4v-1.3h8.9v4.2h-7.3v1.7h7.6v1.3h-1.9v2.2h3v1.3ZM235.8,593.7v-2.2h-2.6v2.2h2.6Z"/>
        <path d="M252.8,591.1h-11.7v-1.3h2.7v-1.7c-1-.4-1.5-1.1-1.5-1.9,0-1.6,1.8-2.5,4.6-2.5s4.6.9,4.6,2.5c0,.9-.6,1.5-1.5,1.9v1.7h2.8v1.3ZM251.4,594.2c0,1.5-1.7,2.4-4.4,2.4s-4.5-.8-4.5-2.4,1.7-2.4,4.5-2.4c2.8,0,4.4.8,4.4,2.4ZM244,586.1c0,.8,1.1,1.2,3,1.2s3-.4,3-1.2-1.1-1.3-3-1.3-3,.4-3,1.3ZM244.1,594.2c0,.7,1,1.1,2.9,1.1s2.8-.4,2.9-1.1c0-.7-1-1.1-2.9-1.1s-2.9.4-2.9,1.1ZM248.5,589.8v-1.3c-.5,0-1,.1-1.5.1s-1.1,0-1.5-.1v1.3h3Z"/>
        <path d="M263.7,593.3h-6.1v-8.7h6.1v8.7ZM259.1,592h2.9v-6.1h-2.9v6.1ZM267.2,588.5h2v1.4h-2v6.8h-1.6v-13.2h1.6v5.1Z"/>
        <path d="M276.7,587.3c0,1.9-1.5,3.2-3.5,3.2s-3.5-1.3-3.5-3.2c0-1.9,1.5-3.2,3.5-3.2,2,0,3.4,1.3,3.5,3.2ZM279.8,596.6h-1.6v-3.5h-7v-1.3h8.5v4.8ZM271.4,587.3c0,1.1.8,1.8,1.9,1.8,1.1,0,1.9-.7,1.9-1.8s-.8-1.8-1.9-1.8c-1.1,0-1.9.7-1.9,1.8ZM281.5,586.6h-1.7v1.5h1.7v1.4h-1.7v1.8h-1.6v-7.8h1.6v1.8h1.7v1.3Z"/>
        <path d="M293.9,592.5h-2.8v4.1h-1.6v-4.1h-2.9v4.1h-1.6v-4.1h-2.8v-1.3h11.7v1.3ZM292.5,587.5h-7.3v1.3h7.6v1.3h-9.2v-3.8h7.3v-1.2h-7.3v-1.3h9v3.7Z"/>
        <path d="M302.1,590c1.3,0,2.7-.2,3.9-.3v1.2c-2.6.5-5.6.5-7.8.6v-1.3c.6,0,1.5,0,2.4,0v-2.7h1.6v2.6ZM305.4,585.2c0,.9,0,2.2-.3,3.9h-1.6c.2-1.5.3-2.5.3-3.3h-5v-1.3h6.5v.8ZM308.8,596.3h-8.9v-3.9h1.6v2.6h7.3v1.3ZM308.4,587.5h1.7v1.4h-1.7v4.4h-1.6v-9.9h1.6v4.1Z"/>
        <path d="M317.5,589.5h-4.4v2.7c2,0,3.8-.1,5.7-.5v1.3c-2,.4-4,.5-6.2.5h-1.1v-5.3h4.4v-2.4h-4.4v-1.3h6v5ZM321.4,596.6h-1.6v-13.2h1.6v13.2Z"/>
        <path d="M338.4,590.4h-11.7v-1.3h11.7v1.3ZM337.3,585h-1.8v2h1.7v1.2h-9.4v-1.2h1.7v-2h-1.8v-1.2h9.5v1.2ZM336.9,594.4h-7.3v.9h7.6v1.2h-9.2v-3.2h7.3v-.8h-7.3v-1.2h8.8v3.1ZM334,587v-2h-2.9v2h2.9Z"/>
        <path d="M344.7,588.3h-3.3v1.5c1.5,0,2.6-.1,3.9-.4v1.3c-1.4.3-2.7.4-4.6.4h-.9v-4h3.3v-1.4h-3.4v-1.3h4.9v3.9ZM350.8,595.3l-.6,1.3c-2-.3-3.6-1.2-4.4-2.5-.8,1.3-2.4,2.2-4.4,2.5l-.6-1.3c2.6-.4,4.2-1.8,4.2-3.3v-.3h1.6v.3c0,1.5,1.6,2.9,4.2,3.3ZM350.2,592.3h-1.5v-4.3h-1.3v3.2h-1.5v-7.6h1.5v3h1.3v-3.3h1.5v8.9Z"/>
        <path d="M363.5,591.2h-11.7v-1.3h5v-1.2h-3.9v-1.3h1.7v-2.3h-1.8v-1.3h9.5v1.3h-1.8v2.3h1.7v1.3h-3.9v1.2h5.1v1.3ZM362.1,596.5h-8.9v-4.2h8.9v4.2ZM354.7,595.1h5.8v-1.7h-5.8v1.7ZM359,587.4v-2.3h-2.9v2.3h2.9Z"/>
        <path d="M376,590.1h-11.7v-1.3h11.7v1.3ZM374.8,585.9c0,1.5-1.7,2.3-4.6,2.3-2.9,0-4.6-.8-4.6-2.3s1.7-2.3,4.6-2.3,4.6.8,4.6,2.3ZM374.5,594.3h-7.3v1h7.6v1.2h-9.2v-3.4h7.3v-.9h-7.3v-1.2h8.8v3.2ZM367.2,585.9c0,.7,1,1.1,3,1.1s3-.3,3-1.1-1-1.1-3-1.1-3,.4-3,1.1Z"/>
        <path d="M392,591.2h-4.9v2.4h-1.6v-2.4h-5.2v-1.3h11.7v1.3ZM390.7,586.4c0,1.7-1.8,2.7-4.6,2.7s-4.6-1-4.6-2.7,1.8-2.7,4.6-2.7,4.6,1,4.6,2.7ZM390.7,596.3h-9v-3.9h1.6v2.6h7.4v1.3ZM383.2,586.4c0,.9,1.1,1.4,2.9,1.4s2.9-.5,2.9-1.4-1.1-1.4-2.9-1.4-2.9.5-2.9,1.4Z"/>
        <path d="M398.9,585.2h3.1v-1.8h1.6v7.8h-1.6v-1.7h-3.1c-.6.7-1.5,1-2.5,1-1.9,0-3.4-1.3-3.4-3.2s1.5-3.2,3.4-3.2,1.9.4,2.5,1.1ZM394.5,587.3c0,1.1.8,1.8,1.9,1.8s1.8-.7,1.9-1.8c0-1.1-.8-1.8-1.9-1.8s-1.9.7-1.9,1.8ZM403.6,594c0,1.6-1.7,2.6-4.4,2.6s-4.4-1-4.3-2.6c0-1.6,1.7-2.6,4.3-2.6s4.4,1,4.4,2.6ZM396.4,594c0,.8,1,1.3,2.8,1.3s2.8-.5,2.8-1.3-1-1.3-2.8-1.3-2.8.5-2.8,1.3ZM399.8,587.3c0,.3,0,.6,0,.8h2.3v-1.7h-2.4c0,.3.1.5.1.8Z"/>
        <path d="M406.7,596.9h-1.6l3.3-12.7h1.6l-3.3,12.7Z"/>
        <path d="M414.5,590c1.3,0,2.7-.2,3.9-.3v1.2c-2.6.5-5.6.5-7.8.6v-1.3c.6,0,1.5,0,2.4,0v-2.7h1.6v2.6ZM417.7,585.2c0,.9,0,2.2-.3,3.9h-1.6c.2-1.5.3-2.5.3-3.3h-5v-1.3h6.5v.8ZM421.2,596.3h-8.9v-3.9h1.6v2.6h7.3v1.3ZM420.8,587.5h1.7v1.4h-1.7v4.4h-1.6v-9.9h1.6v4.1Z"/>
        <path d="M429.9,589.5h-4.4v2.7c2,0,3.8-.1,5.7-.5v1.3c-2,.4-4,.5-6.2.5h-1.1v-5.3h4.4v-2.4h-4.4v-1.3h6v5ZM433.8,596.6h-1.6v-13.2h1.6v13.2Z"/>
      </g>
      <g>
        <g>
          <g>
            <path d="M243.4,618.9h-11.5v-.9h11.5v.9ZM242.3,613.5h-1.9v2.5h1.9v.9h-9.2v-.9h1.9v-2.5h-1.9v-.9h9.3v.9ZM241.9,622.9h-7.5v1.2h7.9v.9h-9v-3h7.5v-1.1h-7.5v-.9h8.6v2.8ZM239.3,616v-2.5h-3.2v2.5h3.2Z"/>
            <path d="M249.8,616.8h-3.7v1.9c1.7,0,2.9,0,4.4-.4v.9c-1.5.3-2.8.4-4.7.4h-.8v-3.7h3.7v-1.8h-3.7v-.9h4.8v3.6ZM255.9,624.2l-.5.9c-1.9-.3-3.7-1.3-4.4-2.8-.8,1.5-2.6,2.4-4.4,2.8l-.5-.9c2.2-.4,4.3-1.7,4.3-3.4v-.3h1.1v.3c0,1.7,2.1,3.1,4.3,3.4ZM255.2,621.1h-1.1v-4.5h-1.8v3.4h-1v-7.5h1v3.2h1.8v-3.4h1.1v8.9Z"/>
            <path d="M268.5,619.7h-11.5v-.9h5.2v-1.5h-4v-1h1.9v-2.7h-1.9v-1h9.3v1h-1.9v2.7h1.9v1h-4.1v1.5h5.2v.9ZM267.1,625h-8.7v-4.1h8.7v4.1ZM259.5,624.1h6.5v-2.2h-6.5v2.2ZM264.4,616.3v-2.7h-3.2v2.7h3.2Z"/>
            <path d="M280.7,618.4l-.6.9c-1.4-.5-2.5-1.6-3-3-.5,1.6-1.7,2.8-3.2,3.4l-.6-.9c1.9-.7,3.2-2.4,3.2-4.4v-1.3h1.1v1.3c0,1.9,1.3,3.5,3.1,4.1ZM283.7,622.7c0,1.5-1.6,2.4-4.2,2.4s-4.2-.9-4.2-2.4,1.6-2.5,4.2-2.5,4.2.9,4.2,2.5ZM276.3,622.7c0,.9,1.2,1.5,3.1,1.5s3.1-.6,3.1-1.5-1.2-1.5-3.1-1.5-3.1.6-3.1,1.5ZM283.6,619.9h-1.1v-4h-2.8v-1h2.8v-2.8h1.1v7.7Z"/>
            <path d="M297.2,619.2h-11.5v-1h11.5v1ZM295.8,622.8c0,1.5-1.6,2.4-4.3,2.4s-4.3-.8-4.3-2.4,1.6-2.4,4.3-2.4,4.3.8,4.3,2.4ZM295.9,616.8h-8.6v-4.3h1.1v3.4h7.5v1ZM288.3,622.8c0,.9,1.2,1.5,3.2,1.5s3.2-.6,3.2-1.5-1.2-1.4-3.2-1.4c-2,0-3.2.5-3.2,1.4Z"/>
            <path d="M299.1,625.6h-1.1l3.3-12.7h1.1l-3.3,12.7Z"/>
            <path d="M310.5,618.3l-.6.9c-1.4-.5-2.5-1.6-3-3-.5,1.5-1.7,2.7-3.1,3.3l-.6-.9c1.9-.7,3.1-2.5,3.2-4.5v-1.3h1.1v1.4c0,1.8,1.3,3.4,3.1,4ZM313.1,622.8c0,1.5-1.6,2.4-4.1,2.4s-4.2-.8-4.2-2.4,1.6-2.4,4.2-2.4,4.1.9,4.1,2.4ZM305.9,622.8c0,.9,1.2,1.4,3.1,1.5,1.9,0,3.1-.5,3.1-1.5s-1.2-1.4-3.1-1.4-3.1.5-3.1,1.4ZM313,615.6h1.9v1h-1.9v3.6h-1.1v-7.9h1.1v3.4Z"/>
            <path d="M321.2,614.6h-3.9v2.5h3.7v.9h-3.7v2.9c1.9,0,3,0,4.4-.3v.9c-1.4.3-2.6.4-4.7.4h-.8v-8.3h5v.9ZM326.5,625.2h-1.1v-6.8h-1.7v6.2h-1.1v-12.1h1.1v5h1.7v-5.2h1.1v13Z"/>
            <path d="M343.4,623.5h-11.5v-1h5.2v-3.2h-3.8v-6.1h8.7v6.1h-3.8v3.2h5.3v1ZM334.3,618.5h6.6v-4.3h-6.6v4.3Z"/>
            <path d="M346.3,620.8c1.9,0,3.9-.2,6-.6l.2,1c-2.2.5-4.2.6-6.2.6h-1v-8.4h1.1v7.4ZM354.8,625.2h-1.1v-13h1.1v13Z"/>
            <path d="M363.4,614.3h-4.8v2.7h4.2v.9h-4.2v3.1c2.3,0,3.8,0,5.5-.4v.9c-1.7.3-3.2.4-5.7.4h-1v-8.7h5.9v1ZM367.4,625.2h-1.1v-7.2h-2.7v-1h2.7v-4.9h1.1v13Z"/>
            <path d="M375.8,616.6h-4.6v1.8c2.3,0,3.9,0,6-.4v1c-2,.4-3.7.4-6,.4h-1v-3.7h4.6v-1.7h-4.6v-1h5.7v3.6ZM379.9,622.8c0,1.5-1.6,2.3-4.3,2.3s-4.2-.8-4.2-2.3,1.6-2.4,4.2-2.4,4.3.9,4.3,2.4ZM372.5,622.8c0,.9,1.2,1.4,3.2,1.4s3.1-.5,3.1-1.4-1.2-1.4-3.1-1.4-3.2.5-3.2,1.4ZM379.9,620.2h-1.1v-8h1.1v8Z"/>
          </g>
          <circle cx="220.3" cy="618.4" r="3"/>
        </g>
        <g>
          <g>
            <path d="M239.4,649.7l-.7.9c-1.4-.8-2.5-2.3-3.1-4.1-.6,1.9-1.8,3.6-3.2,4.3l-.7-.9c1.8-.9,3.3-3.4,3.3-5.8v-2.4h1.1v2.4c0,2.3,1.5,4.6,3.3,5.6ZM241.7,645.9h2.1v1h-2.1v6.7h-1.1v-13h1.1v5.3Z"/>
            <path d="M256,648h-11.5v-.9h2.8v-1.8c-1-.4-1.6-1.1-1.6-1.9,0-1.5,1.7-2.4,4.5-2.4s4.4.9,4.4,2.4-.6,1.5-1.6,1.9v1.8h2.8v.9ZM254.6,651.3c0,1.5-1.6,2.3-4.3,2.3s-4.3-.8-4.3-2.3,1.6-2.3,4.3-2.3,4.3.8,4.3,2.3ZM246.9,643.3c0,.9,1.3,1.5,3.3,1.5s3.3-.6,3.3-1.5-1.3-1.5-3.3-1.5-3.3.6-3.3,1.5ZM247,651.3c0,.9,1.2,1.4,3.2,1.4s3.2-.5,3.2-1.4-1.2-1.4-3.2-1.4c-2,0-3.2.5-3.2,1.4ZM252,647.1v-1.5c-.5,0-1.1.1-1.8.1s-1.3,0-1.8-.1v1.5h3.6Z"/>
            <path d="M264.6,649.9l-.6.9c-1.4-.7-2.6-2.3-3.2-4-.6,1.9-1.8,3.6-3.3,4.3l-.7-.9c1.8-.9,3.4-3.4,3.4-5.6v-1.7h-2.9v-1h6.9v1h-2.8v1.7c0,2.1,1.4,4.4,3.3,5.3ZM266.8,645.9h2.1v1h-2.1v6.8h-1.1v-13h1.1v5.3Z"/>
            <path d="M281.1,649.9l-.6.9c-1.5-.7-2.7-2.2-3.3-4-.6,1.9-1.9,3.6-3.3,4.3l-.7-.9c1.8-.9,3.4-3.3,3.4-5.6v-1.7h-3v-1h7.1v1h-3v1.7c0,2.2,1.6,4.4,3.4,5.3ZM283.6,653.7h-1.1v-13h1.1v13Z"/>
            <path d="M293.9,646.3v.8c-1.1.2-2.2.3-3.4.4v2.6h-1.1v-2.5c-1.3,0-2.5,0-3.5,0l-.2-.9c2.4,0,5.5,0,8.2-.4ZM292.9,643.5c0,1.4-1.3,2.3-3.1,2.3s-3.1-.9-3.1-2.3,1.3-2.3,3.1-2.3,3.1.9,3.1,2.3ZM296.4,653.4h-8.9v-3.8h1.1v2.8h7.8v1ZM287.8,643.5c0,.8.8,1.4,2.1,1.4s2-.6,2.1-1.4c0-.8-.9-1.4-2.1-1.4-1.2,0-2.1.6-2.1,1.4ZM296.1,650.5h-1.1v-1.3h-2.6v-.8h2.6v-7.7h1.1v9.9Z"/>
          </g>
          <circle cx="220.3" cy="646.8" r="3"/>
        </g>
      </g>
    </g>
  </g>
  <g>
    <path d="M553.3,457.3l-.6.9c-1.4-.5-2.5-1.6-3-3-.5,1.5-1.7,2.7-3.1,3.3l-.6-.9c1.9-.7,3.1-2.5,3.2-4.5v-1.3h1.1v1.4c0,1.8,1.3,3.4,3.1,4ZM555.9,461.7c0,1.5-1.6,2.4-4.1,2.4s-4.2-.8-4.2-2.4,1.6-2.4,4.2-2.4,4.1.9,4.1,2.4ZM548.7,461.7c0,.9,1.2,1.4,3.1,1.5,1.9,0,3.1-.5,3.1-1.5s-1.2-1.4-3.1-1.4-3.1.5-3.1,1.4ZM555.8,454.5h1.9v1h-1.9v3.6h-1.1v-7.9h1.1v3.4Z"/>
    <path d="M564,453.6h-3.9v2.5h3.7v.9h-3.7v2.9c1.9,0,3,0,4.4-.3v1c-1.4.3-2.6.4-4.7.4h-.8v-8.3h5v.9ZM569.3,464.1h-1.1v-6.8h-1.7v6.2h-1.1v-12.1h1.1v5h1.7v-5.2h1.1v13Z"/>
    <path d="M578.4,457.8c1.4,0,2.8-.2,4.1-.4v.8c-2.6.5-5.6.5-7.8.5v-1c.7,0,1.6,0,2.6,0v-2.8h1.1v2.8ZM581.6,452.8c0,.8,0,2.1-.3,3.8h-1.1c.3-1.6.3-2.7.4-3.6h-5.2v-1h6.3v.7ZM584.9,463.8h-8.4v-3.8h1.1v2.9h7.3v1ZM584.5,455.4h1.8v1h-1.8v4.6h-1.1v-9.8h1.1v4.2Z"/>
    <path d="M594.7,457.4l-.6.9c-1.4-.5-2.5-1.6-3.1-3-.5,1.5-1.7,2.7-3.2,3.3l-.6-.9c1.9-.7,3.2-2.4,3.2-4.3v-.5h-2.8v-1h6.8v1h-2.8v.5c0,1.7,1.3,3.3,3.1,4ZM597.6,463.9h-8.2v-4.6h8.2v4.6ZM590.5,463h6v-2.7h-6v2.7ZM597.6,458.7h-1.1v-3.4h-2.5v-1h2.5v-3.3h1.1v7.6Z"/>
    <path d="M602.5,451.9h1.1c-1,1.4-1.9,4.4-1.9,7s.9,5.6,1.9,7h-1.1c-1.3-2-2-4.3-2-7,0-2.8.7-5.1,2-7Z"/>
    <path d="M613,459.9v.8c-2.8.6-5.9.6-8.2.6l-.2-1c2.3,0,5.5,0,8.3-.4ZM612.2,455.1c0,1.8-1.4,3.1-3.4,3.1s-3.4-1.2-3.4-3.1c0-1.8,1.4-3.1,3.4-3.1s3.4,1.2,3.4,3.1ZM606.5,455.1c0,1.2,1,2,2.3,2s2.3-.8,2.3-2-1-2-2.3-2-2.3.8-2.3,2ZM615,464.1h-1.1v-13h1.1v13Z"/>
    <path d="M624.1,455c0,1.8-1.4,3.1-3.3,3.1s-3.3-1.3-3.3-3.1c0-1.8,1.4-3.1,3.3-3.1,1.9,0,3.3,1.3,3.3,3.1ZM618.5,455c0,1.2.9,2.1,2.2,2.1,1.3,0,2.2-.8,2.2-2.1s-.9-2.1-2.2-2.1-2.2.8-2.2,2.1ZM627,464.1h-1.1v-3.7h-7.1v-1h8.2v4.7ZM628.9,454.1h-1.9v1.8h1.9v1h-1.9v2h-1.1v-7.7h1.1v2h1.9v.9Z"/>
    <path d="M641.2,458.3h-5.2v1.5h3.8v4h-8.7v-4h3.8v-1.5h-5.2v-.9h11.5v.9ZM640.1,452.5h-1.9v2.7h1.9v1h-9.2v-1h1.9v-2.7h-1.9v-1h9.3v1ZM632.2,463h6.5v-2.2h-6.5v2.2ZM637.1,455.2v-2.7h-3.2v2.7h3.2Z"/>
    <path d="M643.4,465.9h-1.1c1-1.4,1.9-4.4,1.9-7s-.9-5.6-1.9-7h1.1c1.3,1.9,2,4.2,2,7,0,2.8-.7,5.1-2,7Z"/>
  </g>
  <g>
    <g>
      <rect class="st15" x="553.4" y="553.8" width="80.9" height="52.2" rx="2" ry="2"/>
      <g>
        <path d="M573.3,582.3l-.8,1c-1.4-.8-2.4-2.3-2.9-4.1-.5,2.1-1.5,3.7-3,4.6l-.8-1c2.1-1.2,3.2-3.7,3.2-6.7v-1.2h-2.8v-1.1h6.7v1.1h-2.7v1.2c0,2.7,1.1,5.1,3.1,6.1ZM578.2,586.8h-1.2v-7.7h-1.9v6.9h-1.2v-13.7h1.2v5.7h1.9v-6h1.2v14.7Z"/>
        <path d="M593.2,584.8h-13v-1.1h5.1v-5.3h1.2v5.3h6.7v1.1ZM591.6,575.1c0,1.8,0,3.8-.5,6.8l-1.3-.2c.5-2.8.5-4.9.5-6.6v-.4h-8.8v-1.1h10.1v1.5Z"/>
        <path d="M602.9,579.3l-.7,1c-1.6-.6-2.9-1.8-3.5-3.4-.6,1.7-2,3.1-3.7,3.8l-.7-1c2.1-.8,3.6-2.8,3.6-4.9v-.5h-3.2v-1.1h7.7v1.1h-3.2v.5c0,1.9,1.4,3.7,3.5,4.5ZM606.3,584.1c0,1.7-1.8,2.7-4.8,2.8-3,0-4.8-1-4.8-2.8s1.8-2.7,4.8-2.7,4.8,1,4.8,2.7ZM598,584.1c0,1.1,1.4,1.7,3.5,1.7s3.5-.6,3.5-1.7-1.4-1.7-3.5-1.7-3.6.6-3.5,1.7ZM606.2,580.9h-1.3v-3.9h-2.9v-1.1h2.9v-3.8h1.3v8.8Z"/>
        <path d="M621.7,585h-13.1v-1.1h5.9v-3.2h-4.3v-7.5h1.3v2.7h7.4v-2.7h1.2v7.5h-4.4v3.2h6v1.1ZM618.9,579.6v-2.8h-7.4v2.8h7.4Z"/>
      </g>
    </g>
    <g>
      <rect class="st15" x="651.8" y="553.8" width="80.9" height="52.2" rx="2" ry="2"/>
      <g>
        <path d="M676.2,581h-1.3v-2h-3.8v-1.1h3.8v-2h-3.7c-.9,2.4-3.2,4.1-6.2,5l-.5-1c3.5-1.1,5.6-3,5.9-5.6h-5.1v-1.1h6.5c0,.6,0,1.1-.2,1.7h3.3v-2.8h1.3v8.8ZM676.3,583.9c0,1.8-1.9,2.8-4.8,2.8s-4.8-1.1-4.8-2.8,1.8-2.8,4.8-2.8,4.8,1.1,4.8,2.8ZM668,583.9c0,1.1,1.4,1.8,3.5,1.8s3.5-.7,3.5-1.8c0-1.1-1.4-1.8-3.5-1.8-2.2,0-3.5.7-3.5,1.8Z"/>
        <path d="M691.7,585h-13.1v-1.1h5.9v-2.8h-4.2v-4.5h8.6v-2.3h-8.6v-1.1h9.8v4.5h-8.5v2.4h8.9v1.1h-4.6v2.8h6v1.1Z"/>
        <path d="M705.8,582.1h-5.9v4.8h-1.2v-4.8h-5.9v-1.1h13v1.1ZM705,578.8l-.5,1c-2.2-.3-4.3-1.5-5.2-3.1-.9,1.6-3,2.8-5.2,3.1l-.5-1c2.5-.4,5.1-2,5.1-3.8h0s-4.6,0-4.6,0v-1.1h4.6v-1.8h1.2v1.8h4.6v1.1h-4.6c0,1.9,2.5,3.5,5,3.8Z"/>
        <path d="M715.5,579.3l-.7,1c-1.6-.6-2.9-1.8-3.5-3.3-.6,1.7-1.9,3.1-3.6,3.7l-.7-1c2.1-.8,3.6-2.8,3.6-4.8v-.6h-3.2v-1.1h7.7v1.1h-3.2v.6c0,1.9,1.4,3.7,3.5,4.5ZM718.9,586.8h-1.3v-4h-8.3v-1.1h9.6v5.1ZM718.9,580.9h-1.3v-3.9h-2.9v-1.1h2.9v-3.9h1.3v8.8Z"/>
      </g>
    </g>
    <g>
      <rect class="st15" x="750.6" y="553.8" width="80.9" height="52.2" rx="2" ry="2"/>
      <g>
        <path d="M771.5,579.1l-.7,1c-1.6-.6-2.8-1.8-3.5-3.3-.6,1.7-1.9,3.1-3.6,3.8l-.7-1c2.1-.8,3.6-2.8,3.6-5.1v-1.5h1.2v1.6c0,2,1.5,3.8,3.6,4.6ZM774.5,584.1c0,1.7-1.8,2.7-4.7,2.7s-4.7-1-4.7-2.7,1.8-2.7,4.7-2.7,4.7,1,4.7,2.7ZM766.3,584.1c0,1,1.3,1.6,3.5,1.7,2.2,0,3.5-.6,3.5-1.7s-1.3-1.6-3.5-1.6-3.5.6-3.5,1.6ZM774.3,576h2.2v1.1h-2.2v4h-1.3v-9h1.3v3.8Z"/>
        <path d="M783.6,574.9h-4.5v2.8h4.2v1h-4.2v3.3c2.1,0,3.4,0,5-.4v1.1c-1.6.3-2.9.4-5.3.4h-.9v-9.4h5.7v1.1ZM789.6,586.8h-1.2v-7.7h-2v7h-1.2v-13.7h1.2v5.6h2v-5.9h1.2v14.7Z"/>
        <path d="M795.9,579.7c1.6,0,3.2-.2,4.7-.4v1c-2.9.5-6.4.6-8.9.6v-1.1c.8,0,1.8,0,2.9,0v-3.2h1.3v3.2ZM799.6,574c0,1,0,2.4-.4,4.4h-1.3c.3-1.9.4-3.1.4-4h-5.9v-1.1h7.1v.8ZM803.3,586.5h-9.6v-4.3h1.3v3.2h8.3v1.1ZM802.8,576.9h2.1v1.1h-2.1v5.2h-1.3v-11.1h1.3v4.8Z"/>
        <path d="M813.3,578.7h-5.3v3.5c2.4,0,4.5-.1,7-.5v1.1c-2.5.4-4.7.5-7.1.5h-1.2v-5.6h5.4v-3.1h-5.4v-1.1h6.7v5.2ZM817.7,586.9h-1.3v-14.8h1.3v14.8Z"/>
      </g>
    </g>
    <g>
      <rect class="st15" x="849.4" y="553.8" width="80.9" height="52.2" rx="2" ry="2"/>
      <g>
        <path d="M889.2,581h-13v-1.1h5.9v-1.5h-4.1v-5.9h9.7v1.1h-8.4v1.4h8v1h-8v1.5h8.5v1h-4.4v1.5h5.9v1.1ZM887.6,584.5c0,1.5-1.8,2.4-4.9,2.4s-4.9-.8-4.9-2.4,1.8-2.4,4.9-2.4c3.1,0,4.9.8,4.9,2.4ZM879.1,584.5c0,.9,1.3,1.4,3.7,1.3,2.3,0,3.7-.4,3.7-1.3s-1.3-1.4-3.7-1.4-3.7.5-3.7,1.4Z"/>
        <path d="M899.8,586.1h-1.2v-5.1h-2.7v-1.1h2.7v-2.6h-2.4c-.7,2.5-2.3,4.7-5,6.4l-.8-.9c3.1-1.9,4.7-4.6,4.9-7.6h-4.3v-1.1h5.5c0,.8,0,1.5-.2,2.2h2.2v-3.7h1.2v13.6ZM902.7,586.8h-1.2v-14.7h1.2v14.7Z"/>
      </g>
    </g>
  </g>
  <g>
    <g>
      <path class="st14" d="M643.5,127.9v1.3c-3.1.6-6.5.6-9.1.6l-.2-1.4c2.6,0,6.2,0,9.3-.5ZM642.7,123c0,2.1-1.7,3.5-4,3.5s-3.9-1.4-3.9-3.5,1.7-3.5,3.9-3.5c2.3,0,3.9,1.4,4,3.5ZM636.6,123c0,1.2.9,1.9,2.2,1.9s2.2-.7,2.2-1.9-1-1.9-2.2-1.9-2.2.7-2.2,1.9ZM646.1,132.9h-1.8v-14.4h1.8v14.4Z"/>
      <path class="st14" d="M661.3,131.2h-13.1v-1.5h3.5v-2.4h-1.9v-4.7h8.3v-1.8h-8.3v-1.4h10v4.6h-8.3v1.8h8.6v1.4h-2.1v2.4h3.3v1.5ZM656.3,129.7v-2.4h-2.9v2.4h2.9Z"/>
      <path class="st14" d="M675.4,126.8h-13.1v-1.4h3.1v-1.8c-1.1-.5-1.7-1.2-1.7-2.1,0-1.7,2-2.7,5.2-2.7s5.2,1,5.2,2.7c0,.9-.6,1.7-1.7,2.1v1.8h3.1v1.4ZM673.8,130.3c0,1.7-1.9,2.6-5,2.6s-5-.9-5-2.6,1.9-2.6,5-2.6c3.1,0,5,.9,5,2.6ZM665.5,121.5c0,.9,1.2,1.3,3.3,1.3s3.4-.5,3.4-1.3-1.2-1.4-3.4-1.4-3.4.5-3.3,1.4ZM665.6,130.3c0,.8,1.1,1.2,3.2,1.2s3.2-.4,3.2-1.2c0-.8-1.2-1.2-3.2-1.2s-3.2.4-3.2,1.2ZM670.5,125.4v-1.4c-.5,0-1.1.1-1.7.1s-1.2,0-1.7-.1v1.4h3.4Z"/>
      <path class="st14" d="M687.5,129.3h-6.8v-9.4h6.8v9.4ZM682.4,127.9h3.3v-6.6h-3.3v6.6ZM691.5,124h2.2v1.5h-2.2v7.4h-1.8v-14.4h1.8v5.5Z"/>
      <path class="st14" d="M702.2,122.8c0,2.1-1.7,3.5-3.9,3.5s-3.9-1.4-3.9-3.5c0-2,1.7-3.5,3.9-3.5,2.2,0,3.9,1.4,3.9,3.5ZM705.6,132.9h-1.8v-3.8h-7.8v-1.4h9.6v5.3ZM696.2,122.8c0,1.2.9,2,2.1,2,1.2,0,2.1-.7,2.1-2s-.9-1.9-2.1-2c-1.2,0-2.2.8-2.1,2ZM707.6,121.9h-2v1.7h2v1.5h-2v1.9h-1.8v-8.5h1.8v2h2v1.4Z"/>
      <path class="st14" d="M721.5,128.4h-3.2v4.5h-1.8v-4.5h-3.2v4.5h-1.8v-4.5h-3.2v-1.4h13.1v1.4ZM719.9,123h-8.3v1.4h8.6v1.4h-10.4v-4.1h8.2v-1.3h-8.3v-1.4h10.1v4Z"/>
      <path class="st14" d="M730.7,125.7c1.5,0,3-.2,4.4-.4v1.3c-2.9.5-6.3.6-8.8.6l-.2-1.4c.9,0,1.8,0,2.8,0v-2.9h1.7v2.9ZM734.3,120.4c0,1,0,2.4-.3,4.2l-1.8-.2c.3-1.5.3-2.6.4-3.5h-5.6v-1.5h7.3v.9ZM738.2,132.6h-9.9v-4.3h1.8v2.8h8.2v1.4ZM737.7,123h1.9v1.5h-1.9v4.8h-1.8v-10.8h1.8v4.5Z"/>
      <path class="st14" d="M747.9,125.1h-4.9v2.9c2.3,0,4.2-.1,6.5-.5l.2,1.4c-2.4.4-4.6.5-7.2.5h-1.3v-5.7h5v-2.6h-5v-1.4h6.8v5.4ZM752.3,132.9h-1.7v-14.4h1.7v14.4Z"/>
      <path class="st14" d="M771.4,126.1h-13.1v-1.4h13.1v1.4ZM770.2,120.2h-2v2.2h1.9v1.3h-10.6v-1.3h1.9v-2.2h-2v-1.3h10.7v1.3ZM769.8,130.4h-8.2v1h8.6v1.3h-10.3v-3.5h8.2v-.9h-8.2v-1.3h9.9v3.4ZM766.4,122.4v-2.2h-3.2v2.2h3.2Z"/>
      <path class="st14" d="M778.4,123.8h-3.7v1.7c1.7,0,2.9-.1,4.4-.4l.2,1.4c-1.7.3-3.2.4-5.3.4h-1v-4.3h3.8v-1.5h-3.8v-1.4h5.5v4.2ZM785.4,131.4l-.7,1.4c-2.2-.3-4-1.3-4.9-2.8-.9,1.4-2.7,2.4-4.9,2.8l-.7-1.4c2.9-.4,4.7-1.9,4.7-3.6v-.3h1.8v.3c0,1.6,1.8,3.2,4.7,3.6ZM784.7,128.2h-1.7v-4.7h-1.5v3.5h-1.7v-8.2h1.7v3.3h1.5v-3.6h1.7v9.7Z"/>
      <path class="st14" d="M799.6,126.9h-13.1v-1.4h5.6v-1.3h-4.4v-1.4h1.9v-2.5h-2v-1.4h10.7v1.4h-2v2.5h1.9v1.4h-4.4v1.3h5.7v1.4ZM798,132.7h-10v-4.6h10v4.6ZM789.7,131.3h6.5v-1.8h-6.5v1.8ZM794.6,122.8v-2.5h-3.2v2.5h3.2Z"/>
    </g>
    <g>
      <g>
        <g>
          <path class="st13" d="M816.9,105.4h49.9c.9,0,1.5.7,1.5,1.5v34.2h-53v-34.2c0-.9.7-1.5,1.5-1.5Z"/>
          <path class="st4" d="M866.1,104.5h-48.5c-1.9,0-3.4,1.5-3.4,3.4v34.4h55.2v-34.4c0-1.9-1.5-3.4-3.4-3.4Z"/>
        </g>
        <g>
          <path class="st13" d="M871,145.2h-58.4c-.5,0-.9-.3-1.1-.7l-2.3-4.4c-.4-.8.2-1.9,1.1-1.9h27l1,1.8h7s.8-1.8.8-1.8h27.2c1,0,1.6,1,1.1,1.9l-2.3,4.4c-.2.4-.7.7-1.1.7Z"/>
          <path class="st17" d="M871,146.2h-58.4c-.8,0-1.6-.5-2-1.2l-2.3-4.4c-.4-.7-.3-1.5,0-2.2.4-.7,1.1-1.1,1.9-1.1h27.6l1,1.8h5.8s.8-1.8.8-1.8h27.9c.8,0,1.5.4,1.9,1.1.4.7.4,1.5,0,2.2l-2.3,4.4c-.4.7-1.2,1.2-2,1.2ZM810.3,139.2c-.1,0-.2,0-.3.1s0,.2,0,.3l2.3,4.4c0,0,.2.2.3.2h58.4c.1,0,.2,0,.3-.2l2.3-4.4c0-.1,0-.3,0-.3,0,0-.1-.2-.3-.2h-26.6l-.8,1.8h-8.1s-1-1.8-1-1.8h-26.5Z"/>
        </g>
      </g>
      <g>
        <rect class="st7" x="855.7" y="117.1" width="25.1" height="33.8" rx="2.6" ry="2.6"/>
        <line class="st6" x1="855.8" y1="122.1" x2="880.8" y2="122.1"/>
        <line class="st5" x1="857.9" y1="144.9" x2="878.8" y2="144.9"/>
        <line class="st5" x1="863.6" y1="147.6" x2="873.1" y2="147.6"/>
        <path class="st14" d="M863.2,133.3c1.6.7,3.1,1.7,4.5,2.7h-1.4c2-2.5,4.3-4.8,7.1-6.6,0,0,.3.3.3.3-1.6,3.3-4.1,6-6.7,8.5-1.4-1.5-2.8-2.9-3.9-4.7,0,0,.1-.2.1-.2h0Z"/>
      </g>
    </g>
  </g>
  <g>
    <path d="M560.7,275.9h2.6v-3.1h1.1v7h-1.1v-2.9h-2.6c-.2,1.5-1.5,2.6-3.2,2.6s-3.3-1.2-3.3-3,1.4-3,3.3-3c1.7,0,3,1,3.2,2.5ZM555.3,276.4c0,1.2.9,2,2.2,2s2.2-.9,2.2-2-.9-2-2.2-2c-1.3,0-2.2.8-2.2,2ZM557.5,282.1h5.9v-1.7h1.1v5.2h-8.1v-5.2h1.1v1.7ZM563.3,284.7v-1.7h-5.9v1.7h5.9Z"/>
    <path d="M578.1,281.3h-5.3v4.5h-1.1v-4.5h-5.2v-1h11.5v1ZM576.6,278.6h-8.5v-5.1h8.5v5.1ZM569.1,277.7h6.3v-3.2h-6.3v3.2Z"/>
    <path d="M582.8,279.5c1.4,0,2.8-.2,4.1-.4v.8c-2.6.5-5.6.5-7.8.5v-1c.7,0,1.6,0,2.6,0v-2.8h1.1v2.8ZM586.1,274.5c0,.8,0,2.1-.3,3.8h-1.1c.3-1.6.3-2.7.4-3.6h-5.2v-1h6.3v.7ZM589.4,285.5h-8.4v-3.8h1.1v2.9h7.3v1ZM589,277.1h1.8v1h-1.8v4.6h-1.1v-9.8h1.1v4.2Z"/>
    <path d="M599.1,279.1l-.6.9c-1.4-.5-2.5-1.6-3.1-3-.5,1.5-1.7,2.7-3.2,3.3l-.6-.9c1.9-.7,3.2-2.4,3.2-4.3v-.5h-2.8v-.9h6.8v.9h-2.8v.5c0,1.7,1.3,3.3,3.1,4ZM602.1,285.6h-8.2v-4.6h8.2v4.6ZM594.9,284.7h6v-2.7h-6v2.7ZM602.1,280.4h-1.1v-3.4h-2.5v-1h2.5v-3.3h1.1v7.6Z"/>
    <path d="M607,273.6h1.1c-1,1.4-1.9,4.4-1.9,7s.9,5.6,1.9,7h-1.1c-1.3-2-2-4.3-2-7,0-2.8.7-5.1,2-7Z"/>
    <path d="M616.6,281.9l-.7.9c-1.4-.8-2.5-2.3-3.1-4.1-.6,1.9-1.8,3.6-3.2,4.3l-.7-.9c1.8-.9,3.3-3.4,3.3-5.8v-2.4h1.1v2.4c0,2.3,1.5,4.6,3.3,5.6ZM618.9,278.1h2.1v1h-2.1v6.7h-1.1v-13h1.1v5.3Z"/>
    <path d="M627.9,277.1h-4.6v1.8c2.2,0,3.9,0,5.8-.4v.9c-1.9.4-3.6.4-5.9.4h-1v-3.7h4.6v-1.7h-4.6v-1h5.7v3.6ZM631.5,285.6h-8v-4.4h8v4.4ZM624.6,284.7h5.8v-2.6h-5.8v2.6ZM631.5,276.2h1.9v1h-1.9v3.4h-1.1v-7.7h1.1v3.3Z"/>
    <path d="M635.3,287.6h-1.1c1-1.4,1.9-4.4,1.9-7s-.9-5.6-1.9-7h1.1c1.3,1.9,2,4.2,2,7,0,2.8-.7,5.1-2,7Z"/>
  </g>
  <g>
    <g>
      <rect class="st15" x="659.8" y="200.9" width="64.1" height="105.8" rx="1.3" ry="1.3"/>
      <g>
        <path d="M686.7,249.1c0,1.8-1.4,3-3.3,3s-3.3-1.2-3.3-3,1.4-3,3.3-3c1.9,0,3.3,1.2,3.3,3ZM681.2,249.1c0,1.2.9,2,2.2,2s2.2-.8,2.2-2-.9-2-2.2-2c-1.3,0-2.2.8-2.2,2ZM683.1,254.7h5.9v-1.6h1.1v5.2h-8.2v-5.2h1.1v1.6ZM689.1,257.4v-1.8h-5.9v1.8h5.9ZM690.2,252.5h-1.1v-7h1.1v7Z"/>
        <path d="M703.8,256.7h-11.5v-1h4.5v-4.6h1.1v4.6h5.9v1ZM702.4,248.1c0,1.6,0,3.4-.5,6h-1.1c.5-2.6.5-4.4.5-6v-.4h-7.8v-1h8.9v1.3Z"/>
      </g>
    </g>
    <g>
      <rect class="st15" x="740.6" y="200.9" width="64.1" height="42.7" rx="1.3" ry="1.3"/>
      <g>
        <path d="M768.3,224.7l-.6.9c-1.4-.7-2.6-2.1-3.2-3.8-.6,1.8-1.7,3.3-3.2,4l-.6-.9c1.8-.9,3.2-3.1,3.2-5.4v-1h-2.9v-.9h2.9v-2h1.1v2h2.8v.9h-2.9v1c0,2.1,1.4,4.3,3.3,5.1ZM771.1,228.4h-1.1v-6.8h-2.8v-1h2.8v-5.2h1.1v13Z"/>
        <path d="M774.8,218.2h3.7v-2h1.1v6h-5.9v-6h1.1v2ZM778.5,221.3v-2.2h-3.7v2.2h3.7ZM783.2,226c0,1.5-1.6,2.4-4.1,2.4-2.6,0-4.2-.9-4.2-2.4s1.6-2.4,4.2-2.4,4.1.9,4.1,2.4ZM776,226c0,.9,1.2,1.5,3.1,1.5s3.1-.6,3.1-1.5-1.2-1.5-3.1-1.5c-1.9,0-3.1.6-3.1,1.5ZM783,218.7h1.9v1h-1.9v3.6h-1.1v-7.8h1.1v3.3Z"/>
      </g>
    </g>
    <g>
      <rect class="st15" x="821.5" y="200.9" width="64.1" height="42.7" rx="1.3" ry="1.3"/>
      <g>
        <path d="M853.1,226.7h-11.5v-1h5.2v-3.2h1.1v3.2h5.2v1ZM852.5,222.1l-.5.9c-1.9-.4-4-1.7-4.8-3.5-.8,1.8-2.8,3.1-4.7,3.5l-.5-.9c2.1-.4,4.6-2.2,4.6-4.3v-.3h-4.2v-1h9.6v1h-4.2v.3c0,2.1,2.5,3.9,4.7,4.2Z"/>
        <path d="M860.5,224.6l-.7.8c-1.2-.8-2.1-2.2-2.5-3.8-.5,1.8-1.4,3.3-2.6,4.1l-.7-.9c1.8-1.1,2.8-3.5,2.8-5.8v-1.2h-2.4v-1h5.8v1h-2.3v1.2c0,2.3,1,4.5,2.7,5.5ZM862.3,227.7h-1v-6.7h-2.1v-.9h2.1v-4.4h1v12ZM864.9,228.4h-1.1v-13h1.1v13Z"/>
      </g>
    </g>
    <g>
      <rect class="st15" x="822.7" y="264" width="64.1" height="42.7" rx="1.3" ry="1.3"/>
      <g>
        <path d="M854.3,287.3h-5.2v4.2h-1.1v-4.2h-5.2v-1h11.5v1ZM852.9,285h-8.7v-5.9h8.5v.9h-7.4v1.5h7.1v.9h-7.1v1.6h7.6v.9Z"/>
        <path d="M862.1,282.3c0,1.8-1.4,3.1-3.3,3.1s-3.3-1.3-3.3-3.1c0-1.8,1.4-3.1,3.3-3.1,1.9,0,3.3,1.3,3.3,3.1ZM856.6,282.3c0,1.2.9,2.1,2.2,2.1,1.3,0,2.2-.8,2.2-2.1s-.9-2.1-2.2-2.1-2.2.8-2.2,2.1ZM865.1,291.5h-1.1v-3.7h-7.1v-1h8.2v4.7ZM867,281.4h-1.9v1.8h1.9v1h-1.9v2h-1.1v-7.7h1.1v2h1.9v.9Z"/>
      </g>
    </g>
    <g>
      <rect class="st15" x="740.6" y="264" width="64.1" height="42.7" rx="1.3" ry="1.3"/>
      <g>
        <path d="M766.6,281.1h-1.1v6.1c.5,0,.9,0,1.3-.1v.9c-1.9.3-4.5.4-6.2.4v-1c-.1,0,1.2,0,1.2,0v-6.2h-1.1v-1h5.8v1ZM764.5,287.2v-6.1h-1.6v6.2c.5,0,1.1,0,1.6,0ZM769.1,290.8h-1v-4.9h-1.7v-1h1.7v-1.8h-1.7v-1h1.7v-3.4h1v12ZM771.5,291.5h-1.1v-13h1.1v13Z"/>
        <path d="M774,289l-.6-.9c3.4-1.7,5.1-4.2,5.4-7.3h-4.8v-.9h5.9c0,3.7-1.7,7-5.9,9.1ZM783.6,291.5h-1.1v-13h1.1v13Z"/>
      </g>
    </g>
    <g>
      <line class="st11" x1="725.7" y1="222.1" x2="736.8" y2="222.1"/>
      <polyline class="st11" points="734 219.1 736.8 222.1 734.3 225.4"/>
    </g>
    <g>
      <line class="st11" x1="806.6" y1="222.1" x2="817.7" y2="222.1"/>
      <polyline class="st11" points="814.9 219.1 817.7 222.1 815.2 225.4"/>
    </g>
    <g>
      <line class="st11" x1="853.7" y1="247.4" x2="853.7" y2="258.5"/>
      <polyline class="st11" points="856.7 255.7 853.7 258.5 850.4 256"/>
    </g>
    <g>
      <line class="st11" x1="819.3" y1="285.5" x2="808.2" y2="285.5"/>
      <polyline class="st11" points="811 288.5 808.2 285.5 810.7 282.2"/>
    </g>
  </g>
  <g>
    <rect class="st0" x="584.4" y="396.7" width="23.4" height="20.2" rx="1.9" ry="1.9"/>
    <rect class="st17" x="575.3" y="407.8" width="41.6" height="31.1" rx="2.3" ry="2.3"/>
    <g>
      <rect class="st13" x="587.7" y="420.6" width="16.7" height="5.4"/>
      <rect class="st13" x="587.7" y="420.6" width="16.7" height="5.4" transform="translate(1019.4 -172.7) rotate(90)"/>
    </g>
  </g>
  <g>
    <line class="st1" x1="728.1" y1="438.5" x2="861.3" y2="438.5"/>
    <polyline class="st1" points="861.3 398.9 741.8 398.9 741.8 479.6 861.3 479.6"/>
    <rect class="st15" x="659.8" y="384.8" width="68.4" height="107.4" rx="1.9" ry="1.9"/>
    <g>
      <path d="M693.4,438.8h-5.2v1.5h3.8v4h-8.7v-4h3.8v-1.5h-5.2v-.9h11.5v.9ZM692.3,433h-1.9v2.7h1.9v1h-9.2v-1h1.9v-2.7h-1.9v-1h9.3v1ZM684.4,443.5h6.5v-2.2h-6.5v2.2ZM689.3,435.7v-2.7h-3.2v2.7h3.2Z"/>
      <path d="M704.5,436.5h-3.7v1.7h5.2v.9h-11.5v-.9h5.2v-1.7h-3.7v-4.4h8.5v4.4ZM704.5,444.6h-1.1v-3.2h-7.7v-.9h8.8v4.1ZM697,435.6h6.3v-2.5h-6.3v2.5Z"/>
    </g>
    <g>
      <rect class="st15" x="754.8" y="384.5" width="77.4" height="28.9" rx="1.9" ry="1.9"/>
      <g>
        <path d="M780.5,403.4h-11.5v-1h5.2v-3h-4.1v-.9h2v-4.3h-2v-1h9.4v1h-2v4.3h2v.9h-4.1v3h5.3v1ZM776.3,398.5v-4.3h-3.2v4.3h3.2Z"/>
        <path d="M788.8,398.3l-.5.9c-1.5-.5-2.5-1.5-3.1-2.8-.5,1.5-1.7,2.7-3.2,3.2l-.6-.9c1.9-.7,3.2-2.3,3.2-4.2v-.6h-2.9v-1h6.8v1h-2.8v.6c0,1.7,1.2,3.2,3.1,3.8ZM791.4,402.6c0,1.5-1.6,2.4-4.1,2.4s-4.2-.9-4.2-2.4,1.6-2.4,4.2-2.4,4.1.9,4.1,2.4ZM784.2,402.6c0,.9,1.2,1.5,3.1,1.5s3.1-.5,3.1-1.5-1.2-1.4-3.1-1.4-3.1.5-3.1,1.4ZM791.3,395.3h1.9v1h-1.9v3.6h-1.1v-7.8h1.1v3.3Z"/>
        <path d="M800.2,394.1h-4.5v4c2.5,0,4,0,5.7-.4v.9c-1.6.4-3.1.4-5.8.4h-1v-6h5.6v1ZM804.4,404.7h-8.5v-4.3h1.1v3.3h7.4v1ZM803.9,395.9h1.9v1h-1.9v4.6h-1.1v-9.4h1.1v3.9Z"/>
        <path d="M814.9,398.6v.9c-1.1.2-2.4.4-3.6.4v4.7h-1.1v-4.6c-1.3,0-2.5,0-3.5,0l-.2-1c2.4,0,5.6,0,8.4-.5ZM813.9,395.3c0,1.6-1.3,2.7-3.2,2.7-1.9,0-3.2-1.1-3.2-2.7s1.3-2.7,3.2-2.6c1.9,0,3.2,1.1,3.2,2.6ZM808.6,395.3c0,1,.9,1.7,2.1,1.7,1.3,0,2.2-.7,2.2-1.7s-.9-1.7-2.2-1.7c-1.3,0-2.2.7-2.1,1.7ZM816.9,405h-1.1v-13h1.1v13Z"/>
      </g>
    </g>
    <g>
      <rect class="st15" x="850.9" y="384.5" width="77.4" height="28.9" rx="1.9" ry="1.9"/>
      <g>
        <path d="M885.9,398.6v.9c-1.1.2-2.4.4-3.6.4v4.7h-1.1v-4.6c-1.3,0-2.5,0-3.5,0l-.2-1c2.4,0,5.6,0,8.4-.5ZM884.9,395.3c0,1.6-1.3,2.7-3.2,2.7-1.9,0-3.2-1.1-3.2-2.7s1.3-2.7,3.2-2.6c1.9,0,3.2,1.1,3.2,2.6ZM879.5,395.3c0,1,.9,1.7,2.1,1.7,1.3,0,2.2-.7,2.2-1.7s-.9-1.7-2.2-1.7c-1.3,0-2.2.7-2.1,1.7ZM887.9,405h-1.1v-13h1.1v13Z"/>
        <path d="M898.1,401.4l-.6.9c-1.5-.7-2.7-2.1-3.3-3.8-.6,1.8-1.8,3.3-3.2,4l-.6-.9c1.9-.9,3.3-3.1,3.3-5.4v-1h-3v-.9h2.9v-2h1.1v2h2.9v.9h-2.9v1c0,2.2,1.5,4.3,3.4,5.1ZM900.5,405h-1.1v-13h1.1v13Z"/>
      </g>
    </g>
    <g>
      <rect class="st15" x="850.9" y="424.3" width="77.4" height="28.9" rx="1.9" ry="1.9"/>
      <g>
        <path d="M889,439.2h-11.5v-1h2.8v-1.8c-1-.4-1.6-1.1-1.6-1.9,0-1.5,1.7-2.4,4.5-2.4s4.4.9,4.4,2.4-.6,1.5-1.6,1.9v1.8h2.8v1ZM887.6,442.5c0,1.5-1.6,2.3-4.3,2.3s-4.3-.8-4.3-2.3,1.6-2.3,4.3-2.3,4.3.8,4.3,2.3ZM880,434.5c0,1,1.3,1.5,3.3,1.5s3.3-.6,3.3-1.5-1.3-1.5-3.3-1.5-3.3.6-3.3,1.5ZM880.1,442.5c0,.9,1.2,1.4,3.2,1.4s3.2-.5,3.2-1.4-1.2-1.4-3.2-1.4c-2,0-3.2.5-3.2,1.4ZM885.1,438.3v-1.5c-.5,0-1.1.1-1.8.1s-1.3,0-1.8-.1v1.5h3.6Z"/>
        <path d="M896.3,436.2h-4.6v1.8c2.2,0,3.9,0,5.8-.4v1c-1.9.4-3.6.4-5.9.4h-1v-3.7h4.6v-1.7h-4.6v-1h5.7v3.5ZM900,442.5c0,1.5-1.6,2.3-4.1,2.3s-4.2-.8-4.2-2.3,1.6-2.4,4.2-2.4,4.1.9,4.1,2.4ZM892.8,442.5c0,.9,1.2,1.4,3.1,1.4s3.1-.5,3.1-1.4-1.2-1.5-3.1-1.5-3.1.5-3.1,1.5ZM901.8,434.9h-1.9v1.8h1.9v1h-1.9v2.1h-1.1v-7.9h1.1v2h1.9v1Z"/>
      </g>
    </g>
    <g>
      <rect class="st15" x="850.9" y="463.6" width="77.4" height="28.9" rx="1.9" ry="1.9"/>
      <g>
        <path d="M884.9,477.9l-.6.8c-1.4-.5-2.5-1.6-3-2.9-.5,1.5-1.7,2.7-3.2,3.3l-.6-.9c1.9-.7,3.2-2.4,3.2-4.3v-.6h-2.8v-1h6.8v1h-2.8v.6c0,1.8,1.3,3.3,3.1,4ZM888,483.9h-8.5v-4h1.1v3.1h7.4v1ZM887.4,475.2h1.9v1h-1.9v4.6h-1.1v-9.5h1.1v4Z"/>
        <path d="M896.3,475.5h-4.6v1.8c2.2,0,3.9,0,5.8-.4v1c-1.9.3-3.6.4-5.9.4h-1v-3.7h4.6v-1.7h-4.6v-1h5.7v3.5ZM900,481.8c0,1.5-1.6,2.3-4.1,2.3s-4.2-.8-4.2-2.3,1.6-2.4,4.2-2.4,4.1.9,4.1,2.4ZM892.8,481.8c0,.9,1.2,1.4,3.1,1.4s3.1-.5,3.1-1.4-1.2-1.5-3.1-1.5-3.1.5-3.1,1.5ZM901.8,474.2h-1.9v1.8h1.9v1h-1.9v2.1h-1.1v-7.9h1.1v2h1.9v1Z"/>
      </g>
    </g>
    <g>
      <rect class="st15" x="754.8" y="424.3" width="77.4" height="28.9" rx="1.9" ry="1.9"/>
      <g>
        <path d="M793,440.1h-5.2v4.7h-1.1v-4.7h-5.2v-1h11.5v1ZM792.4,436.8l-.5.9c-2-.3-3.9-1.5-4.7-3.1-.8,1.6-2.7,2.7-4.7,3.1l-.5-.9c2.3-.3,4.6-1.9,4.6-3.7v-.7h1.1v.7c0,1.8,2.3,3.4,4.6,3.7Z"/>
        <path d="M800.3,436.2h-4.6v1.8c2.2,0,3.9,0,5.8-.4v1c-1.9.4-3.6.4-5.9.4h-1v-3.7h4.6v-1.7h-4.6v-1h5.7v3.5ZM804,442.5c0,1.5-1.6,2.3-4.1,2.3s-4.2-.8-4.2-2.3,1.6-2.4,4.2-2.4,4.1.9,4.1,2.4ZM796.7,442.5c0,.9,1.2,1.4,3.1,1.4s3.1-.5,3.1-1.4-1.2-1.5-3.1-1.5-3.1.5-3.1,1.5ZM805.8,434.9h-1.9v1.8h1.9v1h-1.9v2.1h-1.1v-7.9h1.1v2h1.9v1Z"/>
      </g>
    </g>
    <g>
      <rect class="st15" x="754.8" y="463.6" width="77.4" height="28.9" rx="1.9" ry="1.9"/>
      <g>
        <path d="M782.7,480.2l-.7.9c-1.4-.8-2.5-2.3-3.1-4.1-.6,1.9-1.8,3.6-3.2,4.3l-.7-.9c1.8-.9,3.3-3.4,3.3-5.8v-2.4h1.1v2.4c0,2.3,1.5,4.6,3.3,5.6ZM785,476.4h2.1v1h-2.1v6.7h-1.1v-13h1.1v5.3Z"/>
        <path d="M799.2,478.6h-11.5v-1h2.8v-1.8c-1-.4-1.6-1.1-1.6-1.9,0-1.5,1.7-2.4,4.5-2.4s4.4.9,4.4,2.4-.6,1.5-1.6,1.9v1.8h2.8v1ZM797.8,481.8c0,1.5-1.6,2.3-4.3,2.3s-4.3-.8-4.3-2.3,1.6-2.3,4.3-2.3,4.3.8,4.3,2.3ZM790.2,473.8c0,1,1.3,1.5,3.3,1.5s3.3-.6,3.3-1.5-1.3-1.5-3.3-1.5-3.3.6-3.3,1.5ZM790.3,481.8c0,.9,1.2,1.4,3.2,1.4s3.2-.5,3.2-1.4-1.2-1.4-3.2-1.4c-2,0-3.2.5-3.2,1.4ZM795.3,477.6v-1.5c-.5,0-1.1.1-1.8.1s-1.3,0-1.8-.1v1.5h3.6Z"/>
        <path d="M806.5,475.5h-4.6v1.8c2.2,0,3.9,0,5.8-.4v1c-1.9.3-3.6.4-5.9.4h-1v-3.7h4.6v-1.7h-4.6v-1h5.7v3.5ZM810.2,481.8c0,1.5-1.6,2.3-4.1,2.3s-4.2-.8-4.2-2.3,1.6-2.4,4.2-2.4,4.1.9,4.1,2.4ZM803,481.8c0,.9,1.2,1.4,3.1,1.4s3.1-.5,3.1-1.4-1.2-1.5-3.1-1.5-3.1.5-3.1,1.5ZM812,474.2h-1.9v1.8h1.9v1h-1.9v2.1h-1.1v-7.9h1.1v2h1.9v1Z"/>
      </g>
    </g>
  </g>
  <rect class="st9" x="526.9" y="78.3" width="424.8" height="604.8" rx="9.3" ry="9.3"/>
  <g>
    <g>
      <g>
        <path d="M991.7,213.2v1.2c-2.7.6-5.8.6-8.1.6l-.2-1.3c2.3,0,5.5,0,8.3-.4ZM991.1,208.6c0,1.9-1.5,3.2-3.5,3.2s-3.5-1.3-3.5-3.2,1.5-3.2,3.5-3.2c2,0,3.5,1.3,3.5,3.2ZM985.6,208.6c0,1.1.8,1.8,2,1.8s2-.7,2-1.8-.8-1.8-2-1.8-2,.7-2,1.8ZM994,217.7h-1.6v-13.2h1.6v13.2Z"/>
        <path d="M1007.5,216.1h-11.7v-1.3h3.1v-2.2h-1.7v-4.3h7.4v-1.6h-7.4v-1.3h8.9v4.2h-7.3v1.7h7.6v1.3h-1.9v2.2h3v1.3ZM1003,214.8v-2.2h-2.6v2.2h2.6Z"/>
        <path d="M1019.8,212.1h-11.7v-1.3h2.7v-1.7c-1-.4-1.5-1.1-1.5-1.9,0-1.6,1.8-2.5,4.6-2.5s4.6.9,4.6,2.5c0,.9-.6,1.5-1.5,1.9v1.7h2.8v1.3ZM1018.4,215.3c0,1.5-1.7,2.4-4.4,2.4s-4.5-.8-4.5-2.4,1.7-2.4,4.5-2.4c2.8,0,4.4.8,4.4,2.4ZM1011,207.2c0,.8,1.1,1.2,3,1.2s3-.4,3-1.2-1.1-1.3-3-1.3-3,.4-3,1.3ZM1011.1,215.3c0,.7,1,1.1,2.9,1.1s2.8-.4,2.9-1.1c0-.7-1-1.1-2.9-1.1s-2.9.4-2.9,1.1ZM1015.5,210.8v-1.3c-.5,0-1,.1-1.5.1s-1.1,0-1.5-.1v1.3h3Z"/>
        <path d="M1030.4,214.4h-6.1v-8.7h6.1v8.7ZM1025.9,213.1h2.9v-6.1h-2.9v6.1ZM1033.9,209.5h2v1.4h-2v6.8h-1.6v-13.2h1.6v5.1Z"/>
        <path d="M1043.3,208.4c0,1.9-1.5,3.2-3.5,3.2s-3.5-1.3-3.5-3.2c0-1.9,1.5-3.2,3.5-3.2,2,0,3.4,1.3,3.5,3.2ZM1046.4,217.7h-1.6v-3.5h-7v-1.3h8.5v4.8ZM1037.9,208.4c0,1.1.8,1.8,1.9,1.8,1.1,0,1.9-.7,1.9-1.8s-.8-1.8-1.9-1.8c-1.1,0-1.9.7-1.9,1.8ZM1048.1,207.6h-1.7v1.5h1.7v1.4h-1.7v1.8h-1.6v-7.8h1.6v1.8h1.7v1.3Z"/>
        <path d="M1060.3,213.5h-2.8v4.1h-1.6v-4.1h-2.9v4.1h-1.6v-4.1h-2.8v-1.3h11.7v1.3ZM1059,208.6h-7.3v1.3h7.6v1.3h-9.2v-3.8h7.3v-1.2h-7.3v-1.3h9v3.7Z"/>
        <path d="M1071,213.4l-.9,1.2c-1.2-.7-2-1.8-2.5-3.3-.4,1.6-1.2,3-2.5,3.7l-1-1.2c1.9-1.1,2.7-3.4,2.7-6v-.6h-2.3v-1.3h5.9v1.3h-2.1v.6c0,2.4.8,4.5,2.7,5.5ZM1075.4,217.7h-1.5v-6.7h-1.3v6.1h-1.5v-12.3h1.5v4.9h1.3v-5.2h1.5v13.2Z"/>
        <path d="M1088.4,216h-11.7v-1.3h4.3v-4.6h1.6v4.6h5.8v1.3ZM1087.2,207c0,1.6,0,3.5-.5,6.2l-1.6-.2c.5-2.6.5-4.5.5-6h-7.6v-1.3h9.2v1.3Z"/>
        <path d="M1096.4,211.1c1.3,0,2.7-.2,3.9-.3v1.2c-2.6.5-5.6.5-7.8.6v-1.3c.6,0,1.5,0,2.4,0v-2.7h1.6v2.6ZM1099.6,206.2c0,.9,0,2.2-.3,3.9h-1.6c.2-1.5.3-2.5.3-3.3h-5v-1.3h6.5v.8ZM1103.1,217.4h-8.8v-3.9h1.6v2.6h7.3v1.3ZM1102.6,208.6h1.7v1.4h-1.7v4.4h-1.6v-9.9h1.6v4.1Z"/>
        <path d="M1111.6,210.6h-4.4v2.7c2,0,3.8-.1,5.8-.5v1.3c-2,.4-4,.5-6.2.5h-1.1v-5.3h4.4v-2.4h-4.4v-1.3h6v5ZM1115.5,217.7h-1.6v-13.2h1.6v13.2Z"/>
        <path d="M1128.9,211.7h-11.7v-1.2h11.7v1.2ZM1127.5,215.5h-7.3v.9h7.7v1.1h-9.3v-3.1h7.3v-.8h-7.4v-1.1h8.9v3ZM1127.5,207.7h-7.2v.9h7.4v1.1h-9v-3h7.2v-.8h-7.2v-1.1h8.8v3Z"/>
        <path d="M1141.2,211v1.2c-1,.2-2.1.4-3.3.4v4.6h-1.6v-4.5c-1.2,0-2.3,0-3.3,0l-.2-1.3c2.3,0,5.5,0,8.3-.5ZM1140.4,207.8c0,1.6-1.4,2.8-3.4,2.8-1.9,0-3.3-1.1-3.3-2.8s1.4-2.8,3.3-2.8c1.9,0,3.4,1.1,3.4,2.8ZM1135.3,207.8c0,.9.8,1.4,1.8,1.4s1.9-.5,1.9-1.4-.8-1.5-1.9-1.5c-1,0-1.8.6-1.8,1.5ZM1143.6,217.7h-1.6v-13.2h1.6v13.2Z"/>
        <path d="M1152.9,207.2h-7.6v-1.3h3v-1.5h1.6v1.5h3v1.3ZM1152.2,210.3c0,1.5-1.3,2.5-3.1,2.5s-3.1-1-3.1-2.5,1.3-2.5,3.1-2.5,3.1,1,3.1,2.5ZM1155.9,217.4h-8.7v-3.8h1.6v2.5h7.1v1.3ZM1147.5,210.3c0,.8.6,1.3,1.6,1.2,1,0,1.6-.5,1.6-1.2s-.7-1.3-1.6-1.3-1.6.5-1.6,1.3ZM1155.4,208.6h1.8v1.3h-1.8v4.4h-1.6v-9.9h1.6v4.2Z"/>
        <path d="M988.7,226.5h-3.3v6c1.5,0,2.6,0,3.9-.4v1.3c-1.3.3-2.6.4-4.5.4h-.9v-8.6h4.9v1.3ZM991.7,236.3h-1.5v-6.3h-2.5v-1.3h2.5v-4.6h1.5v12.3ZM994.4,236.9h-1.5v-13.2h1.5v13.2Z"/>
        <path d="M1002.9,229.3c0,2.9-1.4,4.7-3.3,4.7s-3.3-1.8-3.3-4.7,1.4-4.7,3.3-4.7,3.3,1.8,3.3,4.7ZM997.7,229.3c0,2,.7,3.2,1.8,3.2s1.8-1.2,1.8-3.2-.7-3.2-1.8-3.2-1.8,1.2-1.8,3.2ZM1006.4,236.9h-1.6v-13.2h1.6v13.2Z"/>
        <path d="M1014.7,226.2h-4.4v2.4h3.9v1.3h-3.9v2.7c1.9,0,3.4,0,5.1-.4l.2,1.3c-1.9.3-3.5.4-5.8.4h-1v-9h6v1.3ZM1018.9,236.9h-1.6v-7.1h-2.4v-1.3h2.4v-4.8h1.6v13.2Z"/>
        <path d="M1034.6,233.4h-1.6v-3.3h-3c-.6.7-1.5,1.1-2.5,1.1-1.9,0-3.4-1.4-3.4-3.4s1.5-3.4,3.4-3.4,1.9.4,2.5,1.1h3.1v-1.9h1.6v9.7ZM1025.5,227.9c0,1.2.8,1.9,1.9,1.9s1.8-.8,1.9-1.9c0-1.2-.8-1.9-1.9-1.9s-1.9.8-1.9,1.9ZM1034.9,236.6h-8.7v-4.2h1.6v2.9h7.2v1.3ZM1030.8,227.9c0,.3,0,.6-.1.9h2.4v-1.9h-2.4c0,.3.1.6.1,1Z"/>
        <path d="M1047.9,231.3h-11.7v-1.3h5.1v-1.3h-3.6v-4.5h8.8v1.3h-7.3v1.9h7.3v1.3h-3.7v1.3h5.1v1.3ZM1046.5,234.5c0,1.5-1.7,2.4-4.4,2.4s-4.5-.9-4.5-2.4,1.7-2.4,4.5-2.4,4.4.9,4.4,2.4ZM1039.2,234.5c0,.8,1,1.2,2.9,1.2s2.8-.4,2.9-1.2c0-.8-1-1.2-2.9-1.2s-2.9.4-2.9,1.2Z"/>
      </g>
      <g>
        <g>
          <path d="M1000.6,262.5h3.7v-1.9h1.1v5.7h-5.9v-5.7h1.1v1.9ZM1004.3,265.4v-2h-3.7v2h3.7ZM1008.8,270.6h-6.9v1.4h7.4v.9h-8.5v-3.2h6.9v-1.3h-6.9v-.9h8v3.1ZM1008.8,262.9h1.9v1h-1.9v2.9h-1.1v-6.7h1.1v2.8Z"/>
          <path d="M1022.9,268.4h-5.2v4.6h-1.1v-4.6h-5.2v-1h11.5v1ZM1022.2,265.5l-.4.9c-2-.3-3.9-1.4-4.6-3-.8,1.6-2.7,2.7-4.6,3l-.4-.9c2.2-.3,4.4-1.8,4.4-3.6h0c0,0-4,0-4,0v-.9h9.3v.9h-4c0,1.8,2.2,3.3,4.4,3.6Z"/>
          <path d="M1031.3,266.4l-.6.9c-1.4-.5-2.5-1.6-3-3-.6,1.5-1.7,2.7-3.2,3.3l-.6-.9c1.9-.7,3.2-2.5,3.2-4.3v-.5h-2.8v-1h6.8v1h-2.8v.5c0,1.7,1.3,3.3,3.1,4ZM1034.3,270.6c0,1.5-1.6,2.4-4.2,2.4-2.6,0-4.2-.9-4.2-2.4s1.6-2.4,4.2-2.4,4.2.9,4.2,2.4ZM1026.9,270.6c0,.9,1.2,1.5,3.1,1.5s3.1-.6,3.1-1.5-1.2-1.5-3.1-1.5-3.1.6-3.1,1.5ZM1034.2,267.8h-1.1v-3.4h-2.5v-.9h2.5v-3.4h1.1v7.7Z"/>
          <path d="M1047.7,271.4h-11.5v-1h5.2v-2.8h-3.8v-6.7h1.1v2.4h6.5v-2.4h1.1v6.7h-3.8v2.8h5.3v1ZM1045.2,266.7v-2.4h-6.5v2.4h6.5Z"/>
          <path d="M1005.5,290.4l-.7.9c-1.3-.7-2.1-2-2.6-3.6-.4,1.8-1.3,3.2-2.6,4l-.7-.9c1.8-1,2.8-3.2,2.8-5.9v-1h-2.5v-1h5.9v1h-2.3v1c0,2.4.9,4.5,2.7,5.4ZM1009.8,294.4h-1.1v-6.8h-1.7v6.1h-1.1v-12.1h1.1v5h1.7v-5.3h1.1v13Z"/>
          <path d="M1022.9,292.6h-11.5v-1h4.5v-4.6h1.1v4.6h5.9v1ZM1021.5,284.1c0,1.6,0,3.4-.5,6h-1.1c.5-2.6.5-4.4.5-6v-.4h-7.8v-1h8.9v1.3Z"/>
          <path d="M1031.3,287.8l-.6.9c-1.4-.5-2.5-1.6-3-3-.6,1.5-1.7,2.7-3.2,3.3l-.6-.9c1.9-.7,3.2-2.5,3.2-4.3v-.5h-2.8v-1h6.8v1h-2.8v.5c0,1.7,1.3,3.3,3.1,4ZM1034.3,292c0,1.5-1.6,2.4-4.2,2.4-2.6,0-4.2-.9-4.2-2.4s1.6-2.4,4.2-2.4,4.2.9,4.2,2.4ZM1026.9,292c0,.9,1.2,1.5,3.1,1.5s3.1-.6,3.1-1.5-1.2-1.5-3.1-1.5-3.1.6-3.1,1.5ZM1034.2,289.2h-1.1v-3.4h-2.5v-.9h2.5v-3.4h1.1v7.7Z"/>
          <path d="M1047.7,292.8h-11.5v-1h5.2v-2.8h-3.8v-6.7h1.1v2.4h6.5v-2.4h1.1v6.7h-3.8v2.8h5.3v1ZM1045.2,288.1v-2.4h-6.5v2.4h6.5Z"/>
        </g>
        <circle cx="985.9" cy="265.3" r="3"/>
        <circle cx="985.9" cy="287.7" r="3"/>
      </g>
    </g>
    <g>
      <g>
        <path d="M991.7,378.8v1.2c-2.7.6-5.8.6-8.1.6l-.2-1.3c2.3,0,5.5,0,8.3-.4ZM991.1,374.2c0,1.9-1.5,3.2-3.5,3.2s-3.5-1.3-3.5-3.2,1.5-3.2,3.5-3.2c2,0,3.5,1.3,3.5,3.2ZM985.6,374.2c0,1.1.8,1.8,2,1.8s2-.7,2-1.8-.8-1.8-2-1.8-2,.7-2,1.8ZM994,383.3h-1.6v-13.2h1.6v13.2Z"/>
        <path d="M1007.5,381.8h-11.7v-1.3h3.1v-2.2h-1.7v-4.3h7.4v-1.6h-7.4v-1.3h8.9v4.2h-7.3v1.7h7.6v1.3h-1.9v2.2h3v1.3ZM1003,380.4v-2.2h-2.6v2.2h2.6Z"/>
        <path d="M1019.8,377.8h-11.7v-1.3h2.7v-1.7c-1-.4-1.5-1.1-1.5-1.9,0-1.6,1.8-2.5,4.6-2.5s4.6.9,4.6,2.5c0,.9-.6,1.5-1.5,1.9v1.7h2.8v1.3ZM1018.4,380.9c0,1.5-1.7,2.4-4.4,2.4s-4.5-.8-4.5-2.4,1.7-2.4,4.5-2.4c2.8,0,4.4.8,4.4,2.4ZM1011,372.8c0,.8,1.1,1.2,3,1.2s3-.4,3-1.2-1.1-1.3-3-1.3-3,.4-3,1.3ZM1011.1,380.9c0,.7,1,1.1,2.9,1.1s2.8-.4,2.9-1.1c0-.7-1-1.1-2.9-1.1s-2.9.4-2.9,1.1ZM1015.5,376.5v-1.3c-.5,0-1,.1-1.5.1s-1.1,0-1.5-.1v1.3h3Z"/>
        <path d="M1030.4,380h-6.1v-8.7h6.1v8.7ZM1025.9,378.7h2.9v-6.1h-2.9v6.1ZM1033.9,375.2h2v1.4h-2v6.8h-1.6v-13.2h1.6v5.1Z"/>
        <path d="M1043.3,374c0,1.9-1.5,3.2-3.5,3.2s-3.5-1.3-3.5-3.2c0-1.9,1.5-3.2,3.5-3.2,2,0,3.4,1.3,3.5,3.2ZM1046.4,383.3h-1.6v-3.5h-7v-1.3h8.5v4.8ZM1037.9,374c0,1.1.8,1.8,1.9,1.8,1.1,0,1.9-.7,1.9-1.8s-.8-1.8-1.9-1.8c-1.1,0-1.9.7-1.9,1.8ZM1048.1,373.3h-1.7v1.5h1.7v1.4h-1.7v1.8h-1.6v-7.8h1.6v1.8h1.7v1.3Z"/>
        <path d="M1060.3,379.2h-2.8v4.1h-1.6v-4.1h-2.9v4.1h-1.6v-4.1h-2.8v-1.3h11.7v1.3ZM1059,374.2h-7.3v1.3h7.6v1.3h-9.2v-3.8h7.3v-1.2h-7.3v-1.3h9v3.7Z"/>
        <path d="M1071.9,376.1l-.8,1.3c-1.4-.5-2.4-1.4-2.9-2.7-.6,1.4-1.6,2.5-3.1,3l-.8-1.3c2.1-.7,3.1-2.5,3.1-4.4v-1.3h1.6v1.4c0,1.7,1,3.2,3,3.9ZM1074.6,380.8c0,1.6-1.6,2.5-4.3,2.5s-4.3-.9-4.3-2.5,1.7-2.5,4.3-2.5c2.6,0,4.3.9,4.3,2.5ZM1067.5,380.8c0,.8,1,1.2,2.8,1.2s2.7-.4,2.7-1.2-1-1.2-2.7-1.2-2.8.4-2.8,1.2ZM1074.4,373.3h1.8v1.3h-1.8v3.3h-1.6v-7.9h1.6v3.2Z"/>
        <path d="M1082.4,372.8h-3.7v2.2h3.4v1.3h-3.4v2.6c1.6,0,2.7,0,4-.3v1.3c-1.4.3-2.6.3-4.6.3h-.9v-8.7h5.2v1.3ZM1087.8,383.3h-1.5v-6.7h-1.3v6.1h-1.5v-12.3h1.5v5h1.3v-5.2h1.5v13.2Z"/>
        <path d="M1104.1,379.4h-5.1v4h-1.6v-4h-5v-1.3h11.7v1.3ZM1103,373h-4c.1,1.3,1.8,2.7,4.4,3l-.6,1.3c-2.1-.3-3.8-1.2-4.6-2.5-.8,1.3-2.5,2.2-4.6,2.5l-.6-1.3c2.6-.3,4.2-1.7,4.4-3h-4v-1.3h4v-1.5h1.6v1.5h4v1.3Z"/>
        <path d="M1112.5,376.3l-.8,1.3c-1.4-.5-2.4-1.5-3-2.7-.6,1.4-1.6,2.5-3.1,3l-.8-1.3c2-.7,3.1-2.4,3.1-4.2v-.2h-2.7v-1.3h6.9v1.3h-2.6v.2c0,1.6,1,3.2,3,3.9ZM1115.5,383.3h-1.6v-3.4h-7.2v-1.3h8.7v4.7ZM1115.5,378h-1.6v-3.3h-2.2v-1.3h2.2v-3.3h1.6v7.9Z"/>
        <path d="M1128.9,376.9h-11.7v-1.3h11.7v1.3ZM1127.7,372.6c0,1.5-1.7,2.3-4.6,2.3-2.9,0-4.6-.8-4.6-2.3s1.7-2.3,4.6-2.3,4.6.8,4.6,2.3ZM1127.4,381h-7.3v1h7.6v1.2h-9.2v-3.4h7.3v-.9h-7.3v-1.2h8.8v3.2ZM1120.1,372.6c0,.7,1,1.1,3,1.1s3-.3,3-1.1-1-1.1-3-1.1-3,.4-3,1.1Z"/>
        <path d="M1141.2,376.7v1.2c-1,.2-2.1.4-3.3.4v4.6h-1.6v-4.5c-1.2,0-2.3,0-3.3,0l-.2-1.3c2.3,0,5.5,0,8.3-.5ZM1140.4,373.5c0,1.6-1.4,2.8-3.4,2.8-1.9,0-3.3-1.1-3.3-2.8s1.4-2.8,3.3-2.8c1.9,0,3.4,1.1,3.4,2.8ZM1135.3,373.5c0,.9.8,1.4,1.8,1.4s1.9-.5,1.9-1.4-.8-1.5-1.9-1.5c-1,0-1.8.6-1.8,1.5ZM1143.6,383.3h-1.6v-13.2h1.6v13.2Z"/>
        <path d="M1152.9,372.9h-7.6v-1.3h3v-1.5h1.6v1.5h3v1.3ZM1152.2,375.9c0,1.5-1.3,2.5-3.1,2.5s-3.1-1-3.1-2.5,1.3-2.5,3.1-2.5,3.1,1,3.1,2.5ZM1155.9,383.1h-8.7v-3.8h1.6v2.5h7.1v1.3ZM1147.5,375.9c0,.8.6,1.3,1.6,1.2,1,0,1.6-.5,1.6-1.2s-.7-1.3-1.6-1.3-1.6.5-1.6,1.3ZM1155.4,374.3h1.8v1.3h-1.8v4.4h-1.6v-9.9h1.6v4.2Z"/>
        <path d="M988.7,392.2h-3.3v6c1.5,0,2.6,0,3.9-.4v1.3c-1.3.3-2.6.4-4.5.4h-.9v-8.6h4.9v1.3ZM991.7,401.9h-1.5v-6.3h-2.5v-1.3h2.5v-4.6h1.5v12.3ZM994.4,402.5h-1.5v-13.2h1.5v13.2Z"/>
        <path d="M1002.9,395c0,2.9-1.4,4.7-3.3,4.7s-3.3-1.8-3.3-4.7,1.4-4.7,3.3-4.7,3.3,1.8,3.3,4.7ZM997.7,395c0,2,.7,3.2,1.8,3.2s1.8-1.2,1.8-3.2-.7-3.2-1.8-3.2-1.8,1.2-1.8,3.2ZM1006.4,402.6h-1.6v-13.2h1.6v13.2Z"/>
        <path d="M1014.7,391.8h-4.4v2.4h3.9v1.3h-3.9v2.7c1.9,0,3.4,0,5.1-.4l.2,1.3c-1.9.3-3.5.4-5.8.4h-1v-9h6v1.3ZM1018.9,402.6h-1.6v-7.1h-2.4v-1.3h2.4v-4.8h1.6v13.2Z"/>
        <path d="M1034.6,399h-1.6v-3.3h-3c-.6.7-1.5,1.1-2.5,1.1-1.9,0-3.4-1.4-3.4-3.4s1.5-3.4,3.4-3.4,1.9.4,2.5,1.1h3.1v-1.9h1.6v9.7ZM1025.5,393.5c0,1.2.8,1.9,1.9,1.9s1.8-.8,1.9-1.9c0-1.2-.8-1.9-1.9-1.9s-1.9.8-1.9,1.9ZM1034.9,402.3h-8.7v-4.2h1.6v2.9h7.2v1.3ZM1030.8,393.5c0,.3,0,.6-.1.9h2.4v-1.9h-2.4c0,.3.1.6.1,1Z"/>
        <path d="M1047.9,397h-11.7v-1.3h5.1v-1.3h-3.6v-4.5h8.8v1.3h-7.3v1.9h7.3v1.3h-3.7v1.3h5.1v1.3ZM1046.5,400.1c0,1.5-1.7,2.4-4.4,2.4s-4.5-.9-4.5-2.4,1.7-2.4,4.5-2.4,4.4.9,4.4,2.4ZM1039.2,400.1c0,.8,1,1.2,2.9,1.2s2.8-.4,2.9-1.2c0-.8-1-1.2-2.9-1.2s-2.9.4-2.9,1.2Z"/>
      </g>
      <g>
        <g>
          <path d="M1002.9,428.3l-.6.9c-1.4-.7-2.6-2.1-3.2-3.8-.6,1.8-1.7,3.3-3.2,4l-.6-.9c1.8-.9,3.2-3.1,3.2-5.3v-1h-2.9v-.9h2.9v-2h1.1v2h2.8v.9h-2.9v1c0,2.1,1.4,4.3,3.3,5.1ZM1005.7,431.9h-1.1v-6.8h-2.8v-.9h2.8v-5.2h1.1v13Z"/>
          <path d="M1009.3,421.7h3.7v-2h1.1v6h-5.9v-6h1.1v2ZM1013,424.8v-2.2h-3.7v2.2h3.7ZM1017.6,429.5c0,1.5-1.6,2.4-4.1,2.4-2.6,0-4.2-.9-4.2-2.4s1.6-2.4,4.2-2.4,4.1.9,4.1,2.4ZM1010.4,429.5c0,.9,1.2,1.5,3.1,1.5s3.1-.6,3.1-1.5-1.2-1.5-3.1-1.5c-1.9,0-3.1.6-3.1,1.5ZM1017.5,422.2h1.9v1h-1.9v3.6h-1.1v-7.8h1.1v3.3Z"/>
          <path d="M1031,425.2l-.6.9c-1.4-.5-2.5-1.6-3-3-.6,1.5-1.7,2.7-3.2,3.3l-.6-.9c1.9-.7,3.2-2.5,3.2-4.3v-.5h-2.8v-1h6.8v1h-2.8v.5c0,1.7,1.3,3.3,3.1,4ZM1034,429.5c0,1.5-1.6,2.4-4.2,2.4-2.6,0-4.2-.9-4.2-2.4s1.6-2.4,4.2-2.4,4.2.9,4.2,2.4ZM1026.7,429.5c0,.9,1.2,1.5,3.1,1.5s3.1-.6,3.1-1.5-1.2-1.5-3.1-1.5-3.1.6-3.1,1.5ZM1034,426.6h-1.1v-3.4h-2.5v-.9h2.5v-3.4h1.1v7.7Z"/>
          <path d="M1047.5,430.2h-11.5v-1h5.2v-2.8h-3.8v-6.7h1.1v2.4h6.5v-2.4h1.1v6.7h-3.8v2.8h5.3v1ZM1045,425.5v-2.4h-6.5v2.4h6.5Z"/>
        </g>
        <circle cx="985.9" cy="424.8" r="3"/>
      </g>
    </g>
    <g>
      <g>
        <path d="M991.7,509.7v1.2c-2.7.6-5.8.6-8.1.6l-.2-1.3c2.3,0,5.5,0,8.3-.4ZM991.1,505.1c0,1.9-1.5,3.2-3.5,3.2s-3.5-1.3-3.5-3.2,1.5-3.2,3.5-3.2c2,0,3.5,1.3,3.5,3.2ZM985.6,505.1c0,1.1.8,1.8,2,1.8s2-.7,2-1.8-.8-1.8-2-1.8-2,.7-2,1.8ZM994,514.2h-1.6v-13.2h1.6v13.2Z"/>
        <path d="M1007.5,512.7h-11.7v-1.3h3.1v-2.2h-1.7v-4.3h7.4v-1.6h-7.4v-1.3h8.9v4.2h-7.3v1.7h7.6v1.3h-1.9v2.2h3v1.3ZM1003,511.3v-2.2h-2.6v2.2h2.6Z"/>
        <path d="M1019.8,508.7h-11.7v-1.3h2.7v-1.7c-1-.4-1.5-1.1-1.5-1.9,0-1.6,1.8-2.5,4.6-2.5s4.6.9,4.6,2.5c0,.9-.6,1.5-1.5,1.9v1.7h2.8v1.3ZM1018.4,511.8c0,1.5-1.7,2.4-4.4,2.4s-4.5-.8-4.5-2.4,1.7-2.4,4.5-2.4c2.8,0,4.4.8,4.4,2.4ZM1011,503.7c0,.8,1.1,1.2,3,1.2s3-.4,3-1.2-1.1-1.3-3-1.3-3,.4-3,1.3ZM1011.1,511.8c0,.7,1,1.1,2.9,1.1s2.8-.4,2.9-1.1c0-.7-1-1.1-2.9-1.1s-2.9.4-2.9,1.1ZM1015.5,507.4v-1.3c-.5,0-1,.1-1.5.1s-1.1,0-1.5-.1v1.3h3Z"/>
        <path d="M1030.4,510.9h-6.1v-8.7h6.1v8.7ZM1025.9,509.6h2.9v-6.1h-2.9v6.1ZM1033.9,506.1h2v1.4h-2v6.8h-1.6v-13.2h1.6v5.1Z"/>
        <path d="M1043.3,504.9c0,1.9-1.5,3.2-3.5,3.2s-3.5-1.3-3.5-3.2c0-1.9,1.5-3.2,3.5-3.2,2,0,3.4,1.3,3.5,3.2ZM1046.4,514.2h-1.6v-3.5h-7v-1.3h8.5v4.8ZM1037.9,504.9c0,1.1.8,1.8,1.9,1.8,1.1,0,1.9-.7,1.9-1.8s-.8-1.8-1.9-1.8c-1.1,0-1.9.7-1.9,1.8ZM1048.1,504.2h-1.7v1.5h1.7v1.4h-1.7v1.8h-1.6v-7.8h1.6v1.8h1.7v1.3Z"/>
        <path d="M1060.3,510.1h-2.8v4.1h-1.6v-4.1h-2.9v4.1h-1.6v-4.1h-2.8v-1.3h11.7v1.3ZM1059,505.1h-7.3v1.3h7.6v1.3h-9.2v-3.8h7.3v-1.2h-7.3v-1.3h9v3.7Z"/>
        <path d="M1072.2,510.3l-.8,1.2c-1.5-.6-2.5-2-3.1-3.6-.6,1.7-1.6,3.1-3.1,3.8l-.8-1.3c2-.9,3.1-3.2,3.1-5.3v-.7h-2.7v-1.3h2.8v-1.9h1.6v1.9h2.7v1.3h-2.7v.7c0,2,1.1,4.1,3.2,5.1ZM1075.1,514.2h-1.6v-6.8h-2.5v-1.3h2.5v-5.2h1.6v13.2Z"/>
        <path d="M1083.5,507.1h-4.4v2.7c2,0,3.8-.1,5.7-.5v1.3c-2,.4-4,.5-6.2.5h-1.1v-5.3h4.4v-2.4h-4.4v-1.3h6v5ZM1087.4,514.2h-1.6v-13.2h1.6v13.2Z"/>
        <path d="M1099.3,504h2.3v-3h1.6v7.1h-1.6v-2.8h-2.3c-.3,1.5-1.6,2.5-3.3,2.5s-3.4-1.3-3.4-3.1,1.4-3.1,3.4-3.1c1.7,0,3,1,3.3,2.4ZM1094.1,504.7c0,1.1.8,1.8,1.9,1.8s1.8-.7,1.9-1.8c0-1.1-.8-1.7-1.9-1.7s-1.9.7-1.9,1.7ZM1096.3,510.1h5.3v-1.4h1.6v5.4h-8.4v-5.4h1.6v1.4ZM1101.6,512.7v-1.4h-5.3v1.4h5.3Z"/>
        <path d="M1116.5,509.8h-5.1v4.4h-1.6v-4.4h-5v-1.3h11.7v1.3ZM1115.1,506.9h-8.8v-5.3h8.8v5.3ZM1107.8,505.7h5.7v-2.7h-5.7v2.7Z"/>
        <path d="M1128.9,508.2h-11.7v-1.2h11.7v1.2ZM1127.5,512h-7.3v.9h7.7v1.1h-9.3v-3.1h7.3v-.8h-7.4v-1.1h8.9v3ZM1127.5,504.3h-7.2v.9h7.4v1.1h-9v-3h7.2v-.8h-7.2v-1.1h8.8v3Z"/>
        <path d="M1141.2,507.6v1.2c-1,.2-2.1.4-3.3.4v4.6h-1.6v-4.5c-1.2,0-2.3,0-3.3,0l-.2-1.3c2.3,0,5.5,0,8.3-.5ZM1140.4,504.4c0,1.6-1.4,2.8-3.4,2.8-1.9,0-3.3-1.1-3.3-2.8s1.4-2.8,3.3-2.8c1.9,0,3.4,1.1,3.4,2.8ZM1135.3,504.4c0,.9.8,1.4,1.8,1.4s1.9-.5,1.9-1.4-.8-1.5-1.9-1.5c-1,0-1.8.6-1.8,1.5ZM1143.6,514.2h-1.6v-13.2h1.6v13.2Z"/>
        <path d="M1152.9,503.8h-7.6v-1.3h3v-1.5h1.6v1.5h3v1.3ZM1152.2,506.9c0,1.5-1.3,2.5-3.1,2.5s-3.1-1-3.1-2.5,1.3-2.5,3.1-2.5,3.1,1,3.1,2.5ZM1155.9,514h-8.7v-3.8h1.6v2.5h7.1v1.3ZM1147.5,506.9c0,.8.6,1.3,1.6,1.2,1,0,1.6-.5,1.6-1.2s-.7-1.3-1.6-1.3-1.6.5-1.6,1.3ZM1155.4,505.2h1.8v1.3h-1.8v4.4h-1.6v-9.9h1.6v4.2Z"/>
        <path d="M995.1,531.9h-11.7v-1.4h11.7v1.4ZM994.1,522.8h-1.9v4.2h1.8v1.3h-9.6v-1.3h1.8v-4.2h-1.8v-1.3h9.7v1.3ZM990.6,527v-4.2h-2.9v4.2h2.9Z"/>
        <path d="M1007.5,531.9h-11.7v-1.3h5v-2.1h-3.7v-4.3h7.4v-1.6h-7.4v-1.3h8.9v4.2h-7.3v1.7h7.6v1.3h-4v2.1h5.1v1.3Z"/>
        <path d="M1014.6,529.2l-.9,1.2c-1.2-.7-1.9-2-2.3-3.4-.5,1.6-1.3,3-2.5,3.7l-1-1.2c1.9-1.2,2.7-3.5,2.7-5.7v-2.4h1.5v2.3c0,2.1.7,4.4,2.4,5.5ZM1016.6,532.8h-1.5v-6.7h-1.8v-1.3h1.8v-4.3h1.5v12.3ZM1019.2,533.5h-1.5v-13.2h1.5v13.2Z"/>
        <path d="M1032.3,531.8h-11.7v-1.3h11.7v1.3ZM1031.8,526.6l-.7,1.4c-2.1-.5-3.9-1.8-4.7-3.6-.8,1.8-2.6,3.1-4.7,3.6l-.7-1.4c2.6-.5,4.6-2.5,4.6-4.6v-1h1.7v1c0,2,1.9,4.1,4.6,4.6Z"/>
        <path d="M1047,529.9h-1.6v-3.3h-3c-.6.7-1.5,1.1-2.5,1.1-1.9,0-3.4-1.4-3.4-3.4s1.5-3.4,3.4-3.4,1.9.4,2.5,1.1h3.1v-1.9h1.6v9.7ZM1037.9,524.4c0,1.2.8,1.9,1.9,1.9s1.8-.8,1.9-1.9c0-1.2-.8-1.9-1.9-1.9s-1.9.8-1.9,1.9ZM1047.3,533.2h-8.7v-4.2h1.6v2.9h7.2v1.3ZM1043.2,524.4c0,.3,0,.6-.1.9h2.4v-1.9h-2.4c0,.3.1.6.1.9Z"/>
        <path d="M1060.3,527.9h-11.7v-1.3h5.1v-1.3h-3.6v-4.5h8.8v1.3h-7.3v1.9h7.3v1.3h-3.7v1.3h5.1v1.3ZM1058.9,531c0,1.5-1.7,2.4-4.4,2.4s-4.5-.9-4.5-2.4,1.7-2.4,4.5-2.4,4.4.9,4.4,2.4ZM1051.6,531c0,.8,1,1.2,2.9,1.2s2.8-.4,2.9-1.2c0-.8-1-1.2-2.9-1.2s-2.9.4-2.9,1.2Z"/>
      </g>
      <g>
        <g>
          <path d="M1000.9,549.6h1.3l2.1,8.6h0l2.2-8.6h1.4l2.2,8.6h0l2.1-8.6h1.3l-2.8,10.6h-1.3l-2.2-8.4h0l-2.3,8.4h-1.3l-2.8-10.6Z"/>
          <path d="M1013.7,556.2c0-2.5,1.4-4.1,3.5-4.1s3.5,1.6,3.5,4.1-1.4,4.1-3.5,4.1-3.5-1.6-3.5-4.1ZM1019.5,556.2c0-1.6-.7-3-2.3-3s-2.3,1.4-2.3,3,.7,3,2.3,3,2.3-1.4,2.3-3Z"/>
          <path d="M1022.1,552.2h1.2v1.2h0c.3-.8,1.1-1.3,2-1.3s.5,0,.6,0v1.3c0,0-.4,0-.7,0-1.1,0-1.9.8-1.9,1.9v5h-1.2v-7.9Z"/>
          <path d="M1027.1,549.6h1.2v6.2h.1l3.3-3.5h1.5l-3.2,3.4,3.5,4.5h-1.5l-2.8-3.7-.8.8v3h-1.2v-10.6Z"/>
          <path d="M1037.8,553.3h-1.7v6.9h-1.2v-6.9h-1.2v-1.1h1.2v-1.1c0-1.3.8-2.1,2.2-2.1s.7,0,.9,0v1.1c-.3,0-.5,0-.6,0-.8,0-1.2.4-1.2,1.2v.8h1.7v1.1Z"/>
          <path d="M1040.4,560.1h-1.2v-10.6h1.2v10.6Z"/>
          <path d="M1041.8,556.2c0-2.5,1.4-4.1,3.5-4.1s3.5,1.6,3.5,4.1-1.4,4.1-3.5,4.1-3.5-1.6-3.5-4.1ZM1047.6,556.2c0-1.6-.7-3-2.3-3s-2.3,1.4-2.3,3,.7,3,2.3,3,2.3-1.4,2.3-3Z"/>
          <path d="M1049.4,552.2h1.3l1.6,6.1h0l1.6-6.1h1.3l1.6,6h0l1.6-6h1.3l-2.3,7.9h-1.2l-1.7-6.1h-.1l-1.7,6.1h-1.2l-2.3-7.9Z"/>
          <path d="M1004.5,577.1v-.9c-1.5-.1-2.4-.8-2.4-1.9s1.2-1.9,2.9-1.9,2.9.7,3,1.9c0,1.1-.9,1.8-2.4,1.9v.9c1.2,0,2.4-.2,3.5-.3v.8c-2.6.5-5.7.5-7.9.5v-.9c.9,0,2.1,0,3.3,0ZM1008.7,571.8h-7.3v-.9h3.1v-1.3h1.1v1.3h3.1v.9ZM1011,582.7h-1.1v-2.7h-7.2v-.9h8.3v3.6ZM1003.2,574.2c0,.7.7,1.1,1.9,1.1,1.2,0,1.9-.5,1.9-1.1s-.7-1.1-1.9-1.1c-1.2,0-1.9.4-1.9,1.1ZM1011,573.7h1.9v1h-1.9v3.8h-1.1v-8.7h1.1v3.9Z"/>
          <path d="M1020.5,573.8c0,1.9-1.4,3.2-3.3,3.2s-3.3-1.3-3.3-3.2,1.4-3.2,3.3-3.2,3.3,1.3,3.3,3.2ZM1015,573.8c0,1.3.9,2.2,2.2,2.2s2.2-.9,2.2-2.2-1-2.2-2.2-2.2-2.2.9-2.2,2.2ZM1024.4,582.4h-8.5v-4.2h1.1v3.2h7.4v1ZM1024,579.2h-1.1v-9.5h1.1v9.5Z"/>
          <path d="M1026.8,583.1h-1.1l3.3-12.7h1.1l-3.3,12.7Z"/>
          <path d="M1042.1,576.9h-11.5v-.9h11.5v.9ZM1041.5,574l-.4.9c-1.9-.3-3.8-1.4-4.6-2.8-.8,1.5-2.7,2.5-4.6,2.8l-.4-.9c2.2-.3,4.5-1.7,4.5-3.4v-.6h1.1v.6c0,1.7,2.3,3.1,4.5,3.4ZM1040.7,580.4c0,1.5-1.6,2.3-4.3,2.3-2.7,0-4.3-.8-4.3-2.3s1.6-2.3,4.3-2.3,4.3.8,4.3,2.3ZM1033.2,580.4c0,.9,1.2,1.4,3.2,1.4s3.2-.5,3.2-1.4-1.2-1.4-3.2-1.4c-2,0-3.2.5-3.2,1.4Z"/>
          <path d="M1050,573.8c0,1.9-1.4,3.2-3.3,3.2s-3.3-1.3-3.3-3.2,1.4-3.2,3.3-3.2,3.3,1.3,3.3,3.2ZM1044.4,573.8c0,1.3.9,2.2,2.2,2.2s2.2-.9,2.2-2.2-1-2.2-2.2-2.2-2.2.9-2.2,2.2ZM1053.8,582.4h-8.5v-4.2h1.1v3.2h7.4v1ZM1053.5,579.2h-1.1v-9.5h1.1v9.5Z"/>
          <path d="M1066.4,576.1l-.6.9c-1.4-.5-2.5-1.6-3-3-.6,1.5-1.7,2.7-3.2,3.3l-.6-.9c1.9-.7,3.2-2.5,3.2-4.3v-.5h-2.8v-1h6.8v1h-2.8v.5c0,1.7,1.3,3.3,3.1,4ZM1069.4,580.3c0,1.5-1.6,2.4-4.2,2.4-2.6,0-4.2-.9-4.2-2.4s1.6-2.4,4.2-2.4,4.2.9,4.2,2.4ZM1062.1,580.3c0,.9,1.2,1.5,3.1,1.5s3.1-.6,3.1-1.5-1.2-1.5-3.1-1.5-3.1.6-3.1,1.5ZM1069.4,577.5h-1.1v-3.4h-2.5v-1h2.5v-3.4h1.1v7.7Z"/>
          <path d="M1082.9,581h-11.5v-1h5.2v-2.8h-3.8v-6.7h1.1v2.4h6.5v-2.4h1.1v6.7h-3.8v2.8h5.3v1ZM1080.4,576.3v-2.4h-6.5v2.4h6.5Z"/>
          <path d="M1001.8,602.9v-10.6h3.3c3,0,4.8,2,4.8,5.3s-1.8,5.3-4.9,5.3h-3.2ZM1004.9,601.7c2.5,0,3.7-1.6,3.7-4.1s-1.2-4.1-3.6-4.1h-2v8.2h1.8Z"/>
          <path d="M1011.6,592.3h3.6c2.2,0,3.2,1.2,3.2,2.8s-.8,2-1.7,2.2h0c.9.2,2.1,1.1,2.1,2.7s-1,2.8-3.4,2.8h-3.7v-10.6ZM1017.1,595.1c0-.9-.6-1.7-1.9-1.7h-2.3v3.5h2.3c1.1,0,2-.7,2-1.8ZM1017.5,600.1c0-1.1-.8-2-2.2-2h-2.5v3.6h2.4c1.6,0,2.2-.7,2.2-1.7Z"/>
          <path d="M1033.7,600.7h-1.1v-3.5h-3.3c-.6.8-1.5,1.2-2.6,1.2-1.9,0-3.3-1.3-3.3-3.2s1.4-3.2,3.3-3.3c1.1,0,2,.5,2.6,1.2h3.3v-2h1.1v9.6ZM1024.6,595.2c0,1.3.9,2.2,2.2,2.2s2.2-.9,2.2-2.2-.9-2.2-2.2-2.2c-1.3,0-2.2.9-2.2,2.2ZM1034.1,603.8h-8.4v-4.1h1.1v3.1h7.3v1ZM1030,595.2c0,.4,0,.7-.2,1.1h2.8v-2.2h-2.8c.1.3.2.7.2,1.1Z"/>
          <path d="M1047.2,598.4h-11.5v-.9h5.2v-1.5h-3.7v-4.3h8.6v.9h-7.5v2.4h7.6v.9h-3.9v1.5h5.2v.9ZM1045.8,601.7c0,1.5-1.6,2.3-4.3,2.4-2.7,0-4.3-.8-4.3-2.4s1.6-2.3,4.3-2.3,4.3.8,4.3,2.3ZM1038.2,601.7c0,.9,1.2,1.4,3.2,1.4s3.2-.5,3.2-1.4-1.2-1.4-3.2-1.4-3.2.5-3.2,1.4Z"/>
        </g>
        <circle cx="988" cy="556" r="3"/>
        <circle cx="988" cy="576.1" r="3"/>
        <circle cx="988" cy="596.1" r="3"/>
      </g>
    </g>
  </g>
  <rect class="st10" x="183.9" y="94.2" width="283.1" height="169.9" rx="7.5" ry="7.5"/>
  <rect class="st10" x="183.9" y="303.7" width="283.1" height="169.9" rx="7.5" ry="7.5"/>
  <rect class="st10" x="183.9" y="505.5" width="283.1" height="169.9" rx="7.5" ry="7.5"/>
  <rect class="st15" x="1177.6" y="76.8" width="110.7" height="606.4" rx="4.7" ry="4.7"/>
  <g>
    <path d="M1217,397.4h7.6v1.8h-5.5v3.3h5.1v1.8h-5.1v3.3h5.6v1.8h-7.7v-12.1Z"/>
    <path d="M1229,397.4l3.5,8.8h.1l3.5-8.8h2.6v12.1h-2v-8.3h-.1l-3.3,8.3h-1.5l-3.3-8.3h0v8.3h-2v-12.1h2.6Z"/>
    <path d="M1240.7,397.4h4.4c2.7,0,4.1,1.6,4.1,3.9s-.7,2.9-2.1,3.4l2.5,4.8h-2.3l-2.3-4.4h-2.2v4.4h-2.1v-12.1ZM1244.8,403.2c1.6,0,2.3-.7,2.3-2s-.7-2-2.3-2h-2v4h2Z"/>
    <path d="M1205.1,417.1h.9c-.8,1.2-1.6,3.8-1.6,6s.8,4.8,1.6,6h-.9c-1.1-1.7-1.7-3.6-1.7-6,0-2.4.6-4.3,1.7-6Z"/>
    <path d="M1216.6,426.2h-9.9v-.8h4.4v-2.4h-3.3v-5.7h1v2h5.6v-2h.9v5.7h-3.3v2.4h4.5v.8ZM1214.5,422.1v-2.1h-5.6v2.1h5.6Z"/>
    <path d="M1222.7,421.5h-3.9v2.6c2,0,3.4,0,5-.4v.8c-1.6.3-3,.4-5.1.4h-.9v-4.3h3.9v-2.4h-4v-.8h4.9v4ZM1225.7,420.9h1.8v.8h-1.8v5.9h-.9v-11.1h.9v4.4Z"/>
    <path d="M1232.5,424.6h-4.1v-6.8h4.1v6.8ZM1229.3,423.8h2.3v-5.3h-2.3v5.3ZM1237.3,427.6h-.9v-5.9h-1.5v5.3h-.9v-10.3h.9v4.2h1.5v-4.4h.9v11.1Z"/>
    <path d="M1240.1,418.9h3v-1.8h.9v1.1h2.6v-1.8h1v6.7h-1v-1.8h-2.6v1h-4.9v-5.2h.9v1.8ZM1243.1,421.6v-1.9h-3v1.9h3ZM1247.6,425.5c0,1.3-1.4,2.1-3.6,2.1s-3.6-.8-3.6-2.1,1.4-2.1,3.6-2.1c2.2,0,3.6.8,3.6,2.1ZM1241.3,425.5c0,.8,1,1.3,2.7,1.3s2.7-.5,2.7-1.3-1-1.3-2.7-1.3-2.7.5-2.7,1.3ZM1246.6,420.6v-1.5h-2.6v1.5h2.6Z"/>
    <path d="M1256.2,421.3v.7c-.9.2-1.9.3-2.9.3v2.2h-1v-2.2c-1.1,0-2.1,0-3,0v-.8c1.9,0,4.6,0,6.9-.3ZM1255.4,418.9c0,1.2-1.1,1.9-2.7,1.9s-2.7-.7-2.7-1.9,1.1-1.9,2.7-1.9,2.7.8,2.7,1.9ZM1258.4,427.3h-7.7v-3.3h1v2.4h6.7v.8ZM1251,418.9c0,.7.7,1.2,1.8,1.2s1.7-.5,1.8-1.2c0-.7-.7-1.2-1.8-1.2-1.1,0-1.8.5-1.8,1.2ZM1258.1,424.9h-1v-1.2h-2.2v-.7h2.2v-6.6h1v8.4Z"/>
    <path d="M1260.8,429.1h-.9c.8-1.2,1.6-3.8,1.6-6s-.8-4.8-1.6-6h.9c1.1,1.7,1.7,3.6,1.7,6,0,2.4-.6,4.3-1.7,6Z"/>
  </g>
  <g>
    <g>
      <rect class="st17" x="1195.3" y="335.9" width="15.4" height="44.2"/>
      <path class="st16" d="M1196.1,329.7h13.7c.9,0,1.6.7,1.6,1.6v6h-16.9v-6c0-.9.7-1.6,1.6-1.6Z"/>
      <path class="st16" d="M1196.1,374.5h13.7c.9,0,1.6.7,1.6,1.6v6h-16.9v-6c0-.9.7-1.6,1.6-1.6Z" transform="translate(2405.9 756.6) rotate(180)"/>
      <rect class="st13" x="1202.1" y="341.5" width="1.8" height="7.2" rx=".4" ry=".4"/>
      <rect class="st12" x="1195.3" y="358.5" width="15.4" height="2.5"/>
      <rect class="st12" x="1195.3" y="362.7" width="15.4" height="2.5"/>
      <rect class="st13" x="1200.6" y="369.3" width="4.7" height="1.9" rx=".4" ry=".4"/>
    </g>
    <g>
      <rect class="st17" x="1215.2" y="334.1" width="15.4" height="46"/>
      <path class="st16" d="M1216.1,329.7h13.7c.9,0,1.6.7,1.6,1.6v6h-16.9v-6c0-.9.7-1.6,1.6-1.6Z"/>
      <path class="st16" d="M1216.1,374.5h13.7c.9,0,1.6.7,1.6,1.6v6h-16.9v-6c0-.9.7-1.6,1.6-1.6Z" transform="translate(2445.9 756.6) rotate(180)"/>
      <rect class="st13" x="1222" y="341.5" width="1.8" height="7.2" rx=".4" ry=".4"/>
      <rect class="st12" x="1215.2" y="358.5" width="15.4" height="2.5"/>
      <rect class="st12" x="1215.2" y="362.7" width="15.4" height="2.5"/>
      <rect class="st13" x="1220.6" y="369.3" width="4.7" height="1.9" rx=".4" ry=".4"/>
    </g>
    <g>
      <rect class="st17" x="1235.2" y="332.8" width="15.4" height="47.3"/>
      <path class="st16" d="M1236.1,329.7h13.7c.9,0,1.6.7,1.6,1.6v6h-16.9v-6c0-.9.7-1.6,1.6-1.6Z"/>
      <path class="st16" d="M1236.1,374.5h13.7c.9,0,1.6.7,1.6,1.6v6h-16.9v-6c0-.9.7-1.6,1.6-1.6Z" transform="translate(2485.8 756.6) rotate(180)"/>
      <rect class="st13" x="1242" y="341.5" width="1.8" height="7.2" rx=".4" ry=".4"/>
      <rect class="st12" x="1235.2" y="358.5" width="15.4" height="2.5"/>
      <rect class="st12" x="1235.2" y="362.7" width="15.4" height="2.5"/>
      <rect class="st13" x="1240.6" y="369.3" width="4.7" height="1.9" rx=".4" ry=".4"/>
    </g>
    <g>
      <rect class="st17" x="1255.2" y="334.1" width="15.4" height="46"/>
      <path class="st16" d="M1256.1,329.7h13.7c.9,0,1.6.7,1.6,1.6v6h-16.9v-6c0-.9.7-1.6,1.6-1.6Z"/>
      <path class="st16" d="M1256.1,374.5h13.7c.9,0,1.6.7,1.6,1.6v6h-16.9v-6c0-.9.7-1.6,1.6-1.6Z" transform="translate(2525.8 756.6) rotate(180)"/>
      <rect class="st13" x="1262" y="341.5" width="1.8" height="7.2" rx=".4" ry=".4"/>
      <rect class="st12" x="1255.2" y="358.5" width="15.4" height="2.5"/>
      <rect class="st12" x="1255.2" y="362.7" width="15.4" height="2.5"/>
      <rect class="st13" x="1260.5" y="369.3" width="4.7" height="1.9" rx=".4" ry=".4"/>
    </g>
  </g>
  <g>
    <g>
      <line class="st3" x1="1177.5" y1="131.8" x2="951.9" y2="131.8"/>
      <polyline class="st3" points="958.6 139 951.7 131.8 957.9 123.9"/>
    </g>
    <g>
      <line class="st3" x1="1177.5" y1="646.4" x2="951.9" y2="646.4"/>
      <polyline class="st3" points="958.6 653.6 951.7 646.4 957.9 638.4"/>
    </g>
  </g>
  <g>
    <line class="st3" x1="467.5" y1="590.8" x2="526.9" y2="590.8"/>
    <polyline class="st3" points="520.2 598 527.1 590.7 520.9 582.8"/>
  </g>
  <g>
    <line class="st3" x1="467.5" y1="391.1" x2="526.9" y2="391.1"/>
    <polyline class="st3" points="520.2 398.3 527.1 391.1 520.9 383.1"/>
  </g>
  <g>
    <line class="st3" x1="467.5" y1="176.8" x2="526.9" y2="176.8"/>
    <polyline class="st3" points="520.2 184 527.1 176.8 520.9 168.8"/>
  </g>
  <g>
    <circle class="st17" cx="594.4" cy="218.8" r="14.2"/>
    <path class="st17" d="M615.6,260.2h-42.3l4.5-16.4c.5-4,3.8-6.9,7.8-6.9h17.7c4,0,7.3,3,7.8,6.9l4.5,16.4Z"/>
    <polygon class="st13" points="589.4 236.7 592.2 243.3 596.3 243.3 598.9 236.7 589.4 236.7"/>
    <polygon class="st13" points="592.3 244.1 596.4 244.1 600.1 260.7 589.6 260.7 592.3 244.1"/>
  </g>
</svg>