<svg xmlns="http://www.w3.org/2000/svg" xml:space="preserve" width="2755.27" height="311.16693" viewBox="0 0 2755.2701 311.16693"><defs><radialGradient id="b" cx="0" cy="0" r="1" fx="0" fy="0" gradientTransform="matrix(11.72212 0 0 -11.72212 65.199 134.89)" gradientUnits="userSpaceOnUse" spreadMethod="pad"><stop offset="0" style="stop-opacity:1;stop-color:#74beea"/><stop offset="0.24109863" style="stop-opacity:1;stop-color:#0091d1"/><stop offset="0.275284" style="stop-opacity:1;stop-color:#0091d1"/><stop offset="1" style="stop-opacity:1;stop-color:#143f91"/></radialGradient><clipPath id="a" clipPathUnits="userSpaceOnUse"><path d="M66.368 134v-6.611c0-.63.179-4.174 4.372-5.598 4.195 1.424 4.375 4.968 4.375 5.598V134Z"/></clipPath></defs><path d="M1692.783 6.93v10.33h-10.24V9.735h-12.936v10.773h-16.27V9.736h-12.938v34.137c0 1.987 1.7 3.602 3.808 3.602l38.336-.012v-8.52h10.24v12.573h12.946V6.93h-.518zm-23.176 32.213h-16.27V28.802h16.27zm23.176-8.505h-10.24v-5.07h10.24zM1681.347 51.528c-11.888 0-21.543 8.762-21.543 19.523 0 10.773 9.654 19.513 21.543 19.513 11.86 0 21.539-8.74 21.539-19.513 0-10.76-9.68-19.523-21.54-19.523m-.02 30.424c-5.204 0-9.457-4.895-9.457-10.901s4.253-10.89 9.458-10.89c5.19 0 9.414 4.884 9.414 10.89s-4.223 10.901-9.414 10.901M1297.482 6.906v25.109h-12.474v8.344h12.474v49.455h12.978V6.906ZM1558.174 28.336h-12.552V6.906h-12.977v46.456h12.977V36.678h12.552zM1613.159 57.288h12.984V11.581h-57.454V19.9h44.47z" style="fill:#143f91;stroke:none;stroke-width:1.33333" transform="translate(0 .002)"/><path d="M1607.939 41.678h-12.965v29.514h-4.9V41.678h-12.979v29.514h-19.966v8.342h77.296v-8.342h-26.486zM1495.369 59.052v8.341h37.276v22.42h12.977V59.053ZM1524.11 34.072c0-4.277-1.572-8.226-4.192-11.414h9.536v-8.32h-19.648V3.917h-12.972v10.42h-19.653v8.32h9.13c-2.63 3.19-4.197 7.138-4.197 11.415 0 10.552 9.434 19.151 21.017 19.151 11.562 0 20.98-8.6 20.98-19.151m-29.684 0c0-6.132 3.898-11.135 8.692-11.135 4.788 0 8.671 5.003 8.671 11.135 0 6.144-3.883 11.135-8.67 11.135-4.795 0-8.693-4.991-8.693-11.135M1273.995 31.993v-.012c-1.718-5.455-1.813-14.63-1.813-14.697v-7.199h-13.772v7.199c0 .068-.112 9.242-1.825 14.697-2.957 10.163-9.271 19.314-18.822 27.175l-.444.386 6.37 5.782.34-.233c9.436-6.67 16.566-14.253 21.249-22.512 4.693 8.26 11.813 15.841 21.261 22.512l.333.233 6.36-5.782-.437-.386c-9.541-7.885-15.867-17.024-18.8-27.163M1455.025 6.906v25.109h-3.915V6.906h-12.98v38.371c-8.473 3.376-17.282 3.89-21.91 3.854h-1.297V18.053h16.965v-8.33h-29.96V53.83c0 1.984 1.711 3.609 3.813 3.609l10.55.012c8.5-.116 15.8-1.413 21.84-3.75v36.113h12.98V40.359h3.914v49.455h12.977V6.906ZM1317.692 43.222v8.328h32.588v5.258h-22.036v8.342h42.649v3.994h-42.65v17.06c0 1.975 1.687 3.61 3.79 3.61h53.242v-8.33h-42.698v-3.995h42.698V56.808h-22.03V51.55h32.596v-8.328zM1356.776 41.246c13.772 0 24.975-8.811 24.975-19.628 0-10.797-11.203-19.605-24.975-19.605-13.786 0-25.004 8.808-25.004 19.605 0 10.817 11.218 19.628 25.004 19.628m0-31.185c5.95 0 10.785 5.212 10.785 11.567 0 6.38-4.836 11.582-10.785 11.582-5.956 0-10.822-5.202-10.822-11.582 0-6.355 4.866-11.567 10.822-11.567M1773.188 6.93v37.706h-57.233v8.327h17.179v7.888h12.977v-7.888h27.077v3.403h-12.141v8.327h12.14v7.7h12.978V6.932Z" style="fill:#143f91;stroke:none;stroke-width:1.33333" transform="translate(0 .002)"/><path d="M1746.11 64.579h-13v21.696c0 1.984 1.718 3.609 3.82 3.609h49.235v-8.366h-40.054zM1742.56 43.011c11.894 0 21.534-8.728 21.534-19.479 0-10.749-9.64-19.498-21.534-19.498-11.847 0-21.492 8.75-21.492 19.498 0 10.751 9.645 19.48 21.492 19.48m.03-30.623c4.97 0 8.984 5.012 8.984 11.144 0 6.137-4.015 11.135-8.985 11.135-4.928 0-8.977-4.998-8.977-11.135 0-6.132 4.049-11.144 8.977-11.144" style="fill:#143f91;stroke:none;stroke-width:1.33333" transform="translate(0 .002)"/><g style="fill:#143f91;stroke-width:.548845"><path d="M788.318 535.604v8.304h-8.23v-6.05h-10.397v8.663h-13.072v-8.663h-10.396v27.453c0 1.597 1.367 2.893 3.058 2.893l30.807-.009v-6.849h8.23v10.109h10.401v-35.851h-.414zm-18.627 25.902h-13.072v-8.315h13.072zm18.627-6.84h-8.23v-4.078h8.23zM779.127 571.465c-9.553 0-17.312 7.046-17.312 15.699 0 8.662 7.759 15.69 17.312 15.69 9.529 0 17.308-7.028 17.308-15.69 0-8.653-7.779-15.699-17.308-15.699m-.016 24.465c-4.181 0-7.599-3.937-7.599-8.766s3.418-8.757 7.599-8.757c4.172 0 7.567 3.928 7.567 8.757s-3.395 8.766-7.567 8.766" style="fill:#143f91;stroke:none;stroke-width:.548845" transform="matrix(2.43017 0 0 2.42851 657.168 -1152.873)"/></g><path d="M1341.177 147.8v49.033h-24.358v16.29h24.358v96.58h25.344V147.8ZM1769.069 192.372h24.51V147.8h25.342v90.72h-25.342v-29.856h-24.51zM1560.738 261.694v16.29h80.849v31.72h25.344v-48.01z" style="fill:#143f91;stroke:none;stroke-width:1.33333" transform="translate(0 .002)"/><path d="M1295.307 196.787v-.024c-3.356-10.656-3.538-28.567-3.538-28.703v-14.054h-26.895v14.054c0 .136-.216 18.047-3.562 28.703-5.777 19.85-18.105 37.715-36.759 53.073l-.868.75 12.445 11.297.661-.459c18.423-13.026 32.353-27.835 41.495-43.965 9.17 16.13 23.075 30.939 41.52 43.965l.651.46 12.42-11.298-.855-.75c-18.63-15.402-30.982-33.244-36.715-53.049M1380.645 218.712v16.268h63.641v10.268h-43.038v16.29h83.29v7.806h-83.29v33.312c0 3.856 3.3 7.047 7.398 7.047h103.977v-16.266h-83.382v-7.803h83.382v-40.386h-43.017V234.98h63.656v-16.268zM1456.97 214.855c26.894 0 48.768-17.203 48.768-38.329 0-21.082-21.874-38.285-48.769-38.285-26.916 0-48.827 17.203-48.827 38.285 0 21.126 21.91 38.33 48.827 38.33m0-60.895c11.62 0 21.062 10.178 21.062 22.588 0 12.458-9.441 22.612-21.062 22.612-11.631 0-21.133-10.154-21.133-22.612 0-12.41 9.502-22.588 21.132-22.588M2670.12 218.301c23.234 0 42.058-17.043 42.058-38.035s-18.824-38.08-42.059-38.08c-23.137 0-41.976 17.088-41.976 38.08s18.839 38.035 41.976 38.035m.057-59.802c9.706 0 17.546 9.79 17.546 21.767 0 11.98-7.84 21.742-17.546 21.742-9.62 0-17.533-9.762-17.533-21.742 0-11.977 7.912-21.767 17.533-21.767m59.753-10.654v73.628h-111.763v16.269h33.541v15.401h25.342v-15.401h52.88v6.64h-23.713v16.268h23.713v15.032h25.34V147.845zm-52.88 112.574h-25.388v42.37c0 3.881 3.356 7.05 7.465 7.05h96.143v-16.336h-78.22zM2280.777 147.8v49.033h24.358v16.288h-24.358v96.585h-25.342v-58.292c-17.708 7.815-40.236 11.009-51.745 11.368h-35.39c-4.11 0-7.466-3.172-7.466-7.05 0-21.014-.051-41.953-.051-62.925h50.207v-28.365h-52.178v-16.247h77.532v60.703l-1.3.202h-48.822v37.343c.887 0 9.715.075 19.526 0 18.664-.14 39.111-6.433 49.687-10.192v-88.452zM1970.824 147.8v161.903h-25.345V147.8ZM1538.358 232.443v16.292h150.953v-16.292zM2043.578 198.332h53.819v23.738h-53.819zm13.456 40.026v34.973h-62.045v16.293h150.95v-16.293h-63.588v-35.045c13.527-.04 27.017-.07 40.392-.07v-90.417h-25.346v34.242h-53.819v-34.125h-25.388v83.441c0 3.88 3.356 7.05 7.46 7.05 10.434 0 20.905-.02 31.384-.049M2386.35 148.37v90.416h-.052v7.227H2323.8c-4.11 0-7.465-3.172-7.465-7.052 0-30.262-.032-60.478-.032-90.766h65.157v.175zm-25.34 81.307v-65.235h-19.357c0 21.798.07 43.429.07 65.235zm65.966-81.878v49.034h-7.653V147.8h-25.339v161.907h25.34V213.12h7.652v96.585h25.34V147.799ZM1582.371 164.442h88.283v-16.247h-113.637c0 30.288.032 35.57.032 65.832 0 3.879 3.356 7.05 7.468 7.05h105.82v-16.336h-87.897c0-21.806-.068-18.5-.068-40.3z" style="fill:#143f91;stroke:none;stroke-width:1.33333" transform="translate(0 .002)"/><path d="M1564.837 176.492v16.293h105.295v-16.293zM1818.773 284.884l.075-43.755h-106.157v16.245h80.803v11.144h-80.88c0 20.973.052 13.891.052 34.9 0 3.881 3.356 7.053 7.466 7.053h99.073l-.28-16.337h-80.87v-9.325zm-41.962-103.236h34.397v-16.293h-34.397v-17.556h-25.346v23.343h-32.353v-23.226h-25.388v71.864c0 3.876 3.356 7.048 7.465 7.048 32.32 0 43.563-.192 75.622-.192zm-57.7 5.785h32.354v23.06h-32.353zM1898.395 196.787v-.024c-3.356-10.656-3.54-28.567-3.54-28.703v-14.054h-26.9v14.054c0 .136-.212 18.047-3.558 28.703-5.777 19.85-18.11 37.715-36.761 53.073l-.865.75 12.44 11.297.666-.459c18.425-13.026 32.35-27.835 41.492-43.965 9.17 16.13 23.072 30.939 41.522 43.965l.651.46 12.421-11.298-.855-.75c-18.635-15.402-30.985-33.244-36.713-53.049M1818.593 67.918h-13.001v18.357c0 1.984 1.718 3.609 3.822 3.609h55.085v-8.366h-45.906z" style="fill:#143f91;stroke:none;stroke-width:1.33333" transform="translate(0 .002)"/><path d="M1793.922 51.662v8.332h34.92V72.14h12.962V59.994h30.272v-8.332zM1932.27 6.93v10.33h-18.667v8.307h18.666v5.068h-18.666v8.31h18.666v12.573h12.943V6.931h-.517z" style="fill:#143f91;stroke:none;stroke-width:1.33333" transform="translate(0 .002)"/><path d="M1898.745 47.82c12.243 0 22.166-8.728 22.166-19.477s-9.923-19.501-22.166-19.501c-12.197 0-22.122 8.752-22.122 19.501s9.925 19.477 22.122 19.477m.029-30.621c5.115 0 9.247 5.01 9.247 11.144s-4.132 11.135-9.247 11.135c-5.074 0-9.242-5-9.242-11.135s4.168-11.144 9.242-11.144M1921.94 51.528c-11.883 0-21.542 8.762-21.542 19.523 0 10.773 9.66 19.513 21.543 19.513 11.862 0 21.539-8.74 21.539-19.513 0-10.76-9.677-19.523-21.54-19.523m-.016 30.424c-5.203 0-9.456-4.895-9.456-10.901s4.253-10.89 9.456-10.89c5.19 0 9.417 4.884 9.417 10.89s-4.226 10.901-9.417 10.901M1833.011 43.018c13.777 0 24.973-9.332 24.973-20.795 0-11.438-11.196-20.771-24.973-20.771-13.781 0-25.001 9.333-25.001 20.771 0 11.463 11.22 20.795 25.001 20.795m0-33.037c5.954 0 10.785 5.522 10.785 12.254 0 6.759-4.83 12.267-10.785 12.267-5.956 0-10.821-5.508-10.821-12.267 0-6.732 4.865-12.254 10.821-12.254" style="fill:#143f91;stroke:none;stroke-width:1.33333" transform="translate(0 .002)"/><g clip-path="url(#a)" transform="matrix(19.8694 0 0 -19.8694 -365.056 2662.5)"><path d="M66.368 134v-6.611c0-.63.179-4.174 4.372-5.598 4.195 1.424 4.375 4.968 4.375 5.598V134Z" style="fill:url(#b);stroke:none"/></g><path d="m999.103 192.759 26.03-26.248 25.75 25.75h34.096v-74.668h22.333V90.39h-22.333v-8.067h22.333V57.31h-23.108v-32.03h-71.848v24.758h43.832v107.632l-31.175-30.857-45.918 45.898z" style="fill:#fff;fill-opacity:1;fill-rule:nonzero;stroke:none;stroke-width:19.8694"/><path d="M664.69 50.062h-52.873v159.094c0 40.812-6.895 61.535-44.686 61.535-36.44 0-43.574-22.571-43.574-61.535V50.062h-54.74v161.717c0 45.818 11.902 88.22 98.314 88.22 87.405 0 99.466-42.402 99.466-88.22V50.062Z" style="fill:#143f91;fill-opacity:1;fill-rule:nonzero;stroke:none;stroke-width:19.8694"/><path d="M848.286 296.142h54.76V50.059h-54.76v101.91h-89.412V50.06h-54.78v246.083h54.78V185.866h89.412z" style="fill:#0091d1;fill-opacity:1;fill-rule:nonzero;stroke:none;stroke-width:19.8694"/><path d="M379.823 50.062v165.174L283.894 50.062H225.22v246.082h50.965l-.02-173.976L377.16 296.144h53.608V50.062h-1.908zM114.487 146.074c-31.413-13.65-58.555-25.453-58.555-45.402 0-13.869 15.3-23.366 38.05-23.207 36.46.258 72.245 12.994 83.293 17.544l3.06 1.272V53.64l-1.014-.179c-10.49-1.629-45.063-7.272-77.63-7.272C38.03 46.19 0 70.252 0 110.527c0 42.54 42.342 61.854 79.696 78.922 30.897 14.107 60.045 27.4 60.045 51.501 0 25.91-39.52 26.963-44.03 26.963-25.214 0-53.946-7.59-87.783-24.916l-3.219-1.65v47.35l3.755.873c12.24 2.862 44.687 10.432 78.266 10.432 74.093 0 113.236-25.552 113.236-73.815 0-42.977-45.402-62.708-85.479-80.113" style="fill:#143f91;fill-opacity:1;fill-rule:nonzero;stroke:none;stroke-width:19.8694"/></svg>